<?xml version="1.0" encoding="UTF-8" standalone="no"?>
<!-- Generator: Adobe Illustrator 22.0.0, SVG Export Plug-In . SVG Version: 6.00 Build 0)  -->

<svg
   xmlns:dc="http://purl.org/dc/elements/1.1/"
   xmlns:cc="http://creativecommons.org/ns#"
   xmlns:rdf="http://www.w3.org/1999/02/22-rdf-syntax-ns#"
   xmlns:svg="http://www.w3.org/2000/svg"
   xmlns="http://www.w3.org/2000/svg"
   xmlns:sodipodi="http://sodipodi.sourceforge.net/DTD/sodipodi-0.dtd"
   xmlns:inkscape="http://www.inkscape.org/namespaces/inkscape"
   version="1.1"
   id="Layer_1"
   x="0px"
   y="0px"
   viewBox="0 0 997 774"
   style="enable-background:new 0 0 997 774;"
   xml:space="preserve"
   sodipodi:docname="ibp2-simple-network.svg"
   inkscape:version="0.92.3 (2405546, 2018-03-11)"><metadata
   id="metadata88"><rdf:RDF><cc:Work
       rdf:about=""><dc:format>image/svg+xml</dc:format><dc:type
         rdf:resource="http://purl.org/dc/dcmitype/StillImage" /></cc:Work></rdf:RDF></metadata><defs
   id="defs86" /><sodipodi:namedview
   pagecolor="#ffffff"
   bordercolor="#666666"
   borderopacity="1"
   objecttolerance="10"
   gridtolerance="10"
   guidetolerance="10"
   inkscape:pageopacity="0"
   inkscape:pageshadow="2"
   inkscape:window-width="1920"
   inkscape:window-height="1017"
   id="namedview84"
   showgrid="false"
   inkscape:zoom="1.5446266"
   inkscape:cx="377.88326"
   inkscape:cy="386.5"
   inkscape:window-x="-8"
   inkscape:window-y="-8"
   inkscape:window-maximized="1"
   inkscape:current-layer="Layer_1" />
<style
   type="text/css"
   id="style2">
	.st0{fill:#DCDCDC;}
	.st1{fill:#5A6872;}
	.st2{fill:#011688;stroke:#857B7B;stroke-width:0.25;}
	.st3{fill:#FFFFFF;}
	.st4{font-family:'IBMPlexSans-Medium';}
	.st5{font-size:19px;}
	.st6{fill:#FFFFFF;stroke:#FFFFFF;stroke-width:0.25;}
	.st7{fill:#010F5E;}
	.st8{font-size:16px;}
	.st9{fill:#565656;stroke:#000000;stroke-miterlimit:10;}
	.st10{fill:#FFFFFF;stroke:#979797;stroke-width:0.25;}
	.st11{filter:url(#Adobe_OpacityMaskFilter);}
	.st12{mask:url(#mask-2_1_);fill:#0CCAEB;}
	.st13{font-size:14px;}
	.st14{filter:url(#Adobe_OpacityMaskFilter_1_);}
	.st15{mask:url(#mask-4_1_);fill:none;stroke:#001588;stroke-width:0.25;}
	.st16{fill:#001588;}
	.st17{fill:#C5C5C5;}
	.st18{fill:#767171;}
</style>
<rect
   id="Rectangle"
   x="62"
   y="113"
   class="st0"
   width="848"
   height="549"
   inkscape:export-xdpi="96"
   inkscape:export-ydpi="96" />
<g
   id="UI-Icon_x2F_checkmark--outline_x2F__x24_ui-05"
   transform="translate(321.000000, 255.000000)">
	<path
   id="Oval-2"
   class="st1"
   d="M8,14.5c3.6,0,6.5-2.9,6.5-6.5S11.6,1.5,8,1.5S1.5,4.4,1.5,8S4.4,14.5,8,14.5z M8,16   c-4.4,0-8-3.6-8-8s3.6-8,8-8s8,3.6,8,8S12.4,16,8,16z" />
	<polygon
   id="check"
   class="st1"
   points="11.3,4.7 12.7,6.1 6.8,12 3.3,8.6 4.7,7.2 6.8,9.2  " />
</g>
<rect
   id="Rectangle_1_"
   x="86.5"
   y="150.5"
   class="st2"
   width="347"
   height="151" />
<text
   transform="matrix(1 0 0 1 105.206 185)"
   class="st3 st4 st5"
   id="text9"
   style="-inkscape-font-specification:'MS UI Gothic, Normal';font-family:'MS UI Gothic';font-weight:normal;font-style:normal;font-stretch:normal;font-variant:normal;font-size:16.214667px;text-anchor:start;text-align:start;writing-mode:lr;font-variant-ligatures:normal;font-variant-caps:normal;font-variant-numeric:normal;font-feature-settings:normal;">Org 1</text>


<rect
   id="Rectangle_2_"
   x="369.5"
   y="138.5"
   class="st6"
   width="105"
   height="35" />
<text
   transform="matrix(1 0 0 1 392.176 162)"
   class="st7 st4 st8"
   id="text12"
   style="-inkscape-font-specification:'MS UI Gothic, Normal';font-family:'MS UI Gothic';font-weight:normal;font-style:normal;font-stretch:normal;font-variant:normal;font-size:16.214667px;text-anchor:start;text-align:start;writing-mode:lr;font-variant-ligatures:normal;font-variant-caps:normal;font-variant-numeric:normal;font-feature-settings:normal;">Org1 CA</text>


<rect
   id="Rectangle_3_"
   x="311.5"
   y="206.5"
   class="st6"
   width="105"
   height="55" />
<text
   transform="matrix(1 0 0 1 326.368 230)"
   class="st7 st4 st8"
   id="text15"
   style="-inkscape-font-specification:'MS UI Gothic, Normal';font-family:'MS UI Gothic';font-weight:normal;font-style:normal;font-stretch:normal;font-variant:normal;font-size:16.214667px;text-anchor:start;text-align:start;writing-mode:lr;font-variant-ligatures:normal;font-variant-caps:normal;font-variant-numeric:normal;font-feature-settings:normal;">Org1 MSP </text>


<text
   transform="matrix(1 0 0 1 329.616 250)"
   class="st7 st4 st8"
   id="text17"
   style="-inkscape-font-specification:'MS UI Gothic, Normal';font-family:'MS UI Gothic';font-weight:normal;font-style:normal;font-stretch:normal;font-variant:normal;font-size:16.214667px;text-anchor:start;text-align:start;writing-mode:lr;font-variant-ligatures:normal;font-variant-caps:normal;font-variant-numeric:normal;font-feature-settings:normal;">定義</text>


<rect
   id="Rectangle_4_"
   x="107.5"
   y="204.5"
   class="st6"
   width="105"
   height="61" />
<text
   transform="matrix(1 0 0 1 120.124 241)"
   class="st7 st4 st8"
   id="text20"
   style="-inkscape-font-specification:'MS UI Gothic, Normal';font-family:'MS UI Gothic';font-weight:normal;font-style:normal;font-stretch:normal;font-variant:normal;font-size:16.214667px;text-anchor:start;text-align:start;writing-mode:lr;font-variant-ligatures:normal;font-variant-caps:normal;font-variant-numeric:normal;font-feature-settings:normal;">Peer Org1</text>


<path
   id="Line-2"
   class="st9"
   d="M168.6,401.5L168.5,270l0-0.5l1,0l0,0.5l0.1,131.5l4,0l-4.5,9l-4.5-9L168.6,401.5z" />
<ellipse
   id="Oval"
   class="st10"
   cx="323.5"
   cy="388.5"
   rx="194.5"
   ry="51.5" />
<text
   transform="matrix(1 0 0 1 280.7465 400)"
   class="st7 st4 st5"
   id="text24"
   style="-inkscape-font-specification:'MS UI Gothic, Normal';font-family:'MS UI Gothic';font-weight:normal;font-style:normal;font-stretch:normal;font-variant:normal;font-size:16.214667px;text-anchor:start;text-align:start;writing-mode:lr;font-variant-ligatures:normal;font-variant-caps:normal;font-variant-numeric:normal;font-feature-settings:normal;">Channel 1</text>


<rect
   id="Rectangle_5_"
   x="497.5"
   y="307.5"
   class="st2"
   width="347"
   height="151" />
<text
   transform="matrix(1 0 0 1 517.447 342)"
   class="st3 st4 st5"
   id="text27"
   style="-inkscape-font-specification:'MS UI Gothic, Normal';font-family:'MS UI Gothic';font-weight:normal;font-style:normal;font-stretch:normal;font-variant:normal;font-size:16.214667px;text-anchor:start;text-align:start;writing-mode:lr;font-variant-ligatures:normal;font-variant-caps:normal;font-variant-numeric:normal;font-feature-settings:normal;">Orderer Org</text>


<rect
   id="Rectangle_6_"
   x="780.5"
   y="295.5"
   class="st6"
   width="105"
   height="35" />
<text
   transform="matrix(1 0 0 1 791.34 319)"
   class="st7 st4 st8"
   id="text30"
   style="-inkscape-font-specification:'MS UI Gothic, Normal';font-family:'MS UI Gothic';font-weight:normal;font-style:normal;font-stretch:normal;font-variant:normal;font-size:16.214667px;text-anchor:start;text-align:start;writing-mode:lr;font-variant-ligatures:normal;font-variant-caps:normal;font-variant-numeric:normal;font-feature-settings:normal;">Orderer CA</text>


<rect
   id="Rectangle_7_"
   x="694.5"
   y="361.5"
   class="st6"
   width="124"
   height="55" />
<text
   transform="matrix(1 0 0 1 711.92 385)"
   class="st7 st4 st8"
   id="text33"
   style="-inkscape-font-specification:'MS UI Gothic, Normal';font-family:'MS UI Gothic';font-weight:normal;font-style:normal;font-stretch:normal;font-variant:normal;font-size:16.214667px;text-anchor:start;text-align:start;writing-mode:lr;font-variant-ligatures:normal;font-variant-caps:normal;font-variant-numeric:normal;font-feature-settings:normal;">Orderer MSP </text>


<text
   transform="matrix(1 0 0 1 725.616 405)"
   class="st7 st4 st8"
   id="text35"
   style="-inkscape-font-specification:'MS UI Gothic, Normal';font-family:'MS UI Gothic';font-weight:normal;font-style:normal;font-stretch:normal;font-variant:normal;font-size:16.214667px;text-anchor:start;text-align:start;writing-mode:lr;font-variant-ligatures:normal;font-variant-caps:normal;font-variant-numeric:normal;font-feature-settings:normal;">定義</text>


<g
   id="Group-3"
   transform="translate(208.000000, 227.000000)">
	<g
   id="Clip-2">
	</g>
	<defs
   id="defs41">
		<filter
   id="Adobe_OpacityMaskFilter"
   filterUnits="userSpaceOnUse"
   x="0.9"
   y="0"
   width="51"
   height="48">
			<feColorMatrix
   type="matrix"
   values="1 0 0 0 0  0 1 0 0 0  0 0 1 0 0  0 0 0 1 0"
   id="feColorMatrix38" />
		</filter>
	</defs>
	<mask
   maskUnits="userSpaceOnUse"
   x="0.9"
   y="0"
   width="51"
   height="48"
   id="mask-2_1_">
		<g
   class="st11"
   id="g44">
			<polygon
   id="path-1_1_"
   class="st3"
   points="0.9,0 51.9,0 51.9,48 0.9,48    " />
		</g>
	</mask>
	<path
   id="Fill-1"
   class="st12"
   d="M0.9,0h51v39c-25.5,0-25.5,14.9-51,6.4V0z"
   mask="url(#mask-2_1_)" />
</g>
<text
   transform="matrix(1 0 0 1 213 251)"
   class="st3 st4 st13"
   id="text49"
   style="-inkscape-font-specification:'MS UI Gothic, Normal';font-family:'MS UI Gothic';font-weight:normal;font-style:normal;font-stretch:normal;font-variant:normal;font-size:16.214667px;text-anchor:start;text-align:start;writing-mode:lr;font-variant-ligatures:normal;font-variant-caps:normal;font-variant-numeric:normal;font-feature-settings:normal;">台帳</text>


<text
   transform="matrix(1 0 0 1 256.6936 251)"
   class="st3 st4 st13"
   id="text51"
   style="-inkscape-font-specification:'MS UI Gothic, Normal';font-family:'MS UI Gothic';font-weight:normal;font-style:normal;font-stretch:normal;font-variant:normal;font-size:16.214667px;text-anchor:start;text-align:start;writing-mode:lr;font-variant-ligatures:normal;font-variant-caps:normal;font-variant-numeric:normal;font-feature-settings:normal;"> </text>


<text
   class="st3 st4 st13"
   id="text53"
   style="font-style:normal;font-variant:normal;font-weight:normal;font-stretch:normal;font-size:16.21466637px;font-family:'MS UI Gothic';-inkscape-font-specification:'MS UI Gothic, Normal';font-variant-ligatures:normal;font-variant-caps:normal;font-variant-numeric:normal;font-feature-settings:normal;text-align:start;writing-mode:lr-tb;text-anchor:start;fill:#ffffff"
   x="215"
   y="266"
   inkscape:export-xdpi="96"
   inkscape:export-ydpi="96">X</text>


<g
   id="Group-18"
   transform="translate(518.000000, 357.000000)">
	<g
   id="Group-5">
		<polygon
   id="Fill-1_1_"
   class="st3"
   points="1.5,1.5 135.5,1.5 135.5,60.5 1.5,60.5   " />
		<g
   id="Clip-4">
		</g>
		<defs
   id="defs60">
			<filter
   id="Adobe_OpacityMaskFilter_1_"
   filterUnits="userSpaceOnUse"
   x="1.4"
   y="1.4"
   width="134.2"
   height="59.2">
				<feColorMatrix
   type="matrix"
   values="1 0 0 0 0  0 1 0 0 0  0 0 1 0 0  0 0 0 1 0"
   id="feColorMatrix57" />
			</filter>
		</defs>
		<mask
   maskUnits="userSpaceOnUse"
   x="1.4"
   y="1.4"
   width="134.2"
   height="59.2"
   id="mask-4_1_">
			<g
   class="st14"
   id="g63">
				<polygon
   id="path-3_1_"
   class="st3"
   points="0,62 137,62 137,0 0,0     " />
			</g>
		</mask>
		<polygon
   id="Stroke-3"
   class="st15"
   points="1.5,60.5 135.5,60.5 135.5,1.5 1.5,1.5   "
   mask="url(#mask-4_1_)" />
	</g>
	<polygon
   id="Fill-6"
   class="st16"
   points="8,54 46,54 46,37 8,37  " />
	<polygon
   id="Fill-7"
   class="st16"
   points="89,54 127,54 127,37 89,37  " />
	<polygon
   id="Fill-8"
   class="st16"
   points="49,54 86,54 86,37 49,37  " />
	<polygon
   id="Fill-9"
   class="st17"
   points="52,49 59,49 59,41 52,41  " />
	<polygon
   id="Fill-10"
   class="st17"
   points="60,49 67,49 67,41 60,41  " />
	<polygon
   id="Fill-11"
   class="st17"
   points="68,49 75,49 75,41 68,41  " />
	<polygon
   id="Fill-12"
   class="st17"
   points="76,49 83,49 83,41 76,41  " />
	<path
   id="Fill-13"
   class="st18"
   d="M56.5,36.2h0.3l-0.5,0.5v-6.9l0.5,0.5h-0.8v-1h1.3v7.9h-0.8V36.2z M44.9,30.3h8v-1h-8V30.3z    M33.9,30.3h8v-1h-8V30.3z M30.9,30.3h-5.4l0.5-0.5v1.7h-1v-2.2h5.9V30.3z M28.5,30.5l-3,6l-3-6H28.5z" />
	<path
   id="Fill-14"
   class="st18"
   d="M112.5,36.2h0.3l-0.5,0.5v-6.9l0.5,0.5h-0.8v-1h1.3v7.9h-0.8V36.2z M100.9,30.3h8v-1h-8V30.3z    M89.9,30.3h8v-1h-8V30.3z M86.9,30.3h-5.4l0.5-0.5v1.7h-1v-2.2h5.9V30.3z M84.5,30.5l-3,6l-3-6H84.5z" />
	<polygon
   id="Fill-15"
   class="st17"
   points="93,49 100,49 100,41 93,41  " />
	<polygon
   id="Fill-16"
   class="st17"
   points="101,49 108,49 108,41 101,41  " />
	<polygon
   id="Fill-17"
   class="st17"
   points="109,49 116,49 116,41 109,41  " />
</g>
<text
   transform="matrix(1 0 0 1 558.324 379)"
   class="st7 st4 st8"
   id="text81"
   style="-inkscape-font-specification:'MS UI Gothic, Normal';font-family:'MS UI Gothic';font-weight:normal;font-style:normal;font-stretch:normal;font-variant:normal;font-size:16.214667px;text-anchor:start;text-align:start;writing-mode:lr;font-variant-ligatures:normal;font-variant-caps:normal;font-variant-numeric:normal;font-feature-settings:normal;">Orderer</text>


</svg>
