<?xml version="1.0" encoding="UTF-8" standalone="no"?>
<svg
   xmlns:dc="http://purl.org/dc/elements/1.1/"
   xmlns:cc="http://creativecommons.org/ns#"
   xmlns:rdf="http://www.w3.org/1999/02/22-rdf-syntax-ns#"
   xmlns:svg="http://www.w3.org/2000/svg"
   xmlns="http://www.w3.org/2000/svg"
   xmlns:xlink="http://www.w3.org/1999/xlink"
   xmlns:sodipodi="http://sodipodi.sourceforge.net/DTD/sodipodi-0.dtd"
   xmlns:inkscape="http://www.inkscape.org/namespaces/inkscape"
   width="1242px"
   height="993px"
   viewBox="0 0 1242 993"
   version="1.1"
   id="svg2"
   inkscape:version="0.91 r13725"
   sodipodi:docname="v10_txflow.svg"
   inkscape:export-filename="D:\_IBM1_Local\BM120\BM120ABD141_002\UT_kumi\01_work\_Art\01_New\jpn\v10_txflow.png"
   inkscape:export-xdpi="192.91139"
   inkscape:export-ydpi="192.91139">
  <metadata
     id="metadata766">
    <rdf:RDF>
      <cc:Work
         rdf:about="">
        <dc:format>image/svg+xml</dc:format>
        <dc:type
           rdf:resource="http://purl.org/dc/dcmitype/StillImage" />
      </cc:Work>
    </rdf:RDF>
  </metadata>
  <sodipodi:namedview
     pagecolor="#ffffff"
     bordercolor="#666666"
     borderopacity="1"
     objecttolerance="10"
     gridtolerance="10"
     guidetolerance="10"
     inkscape:pageopacity="0"
     inkscape:pageshadow="2"
     inkscape:window-width="1600"
     inkscape:window-height="837"
     id="namedview764"
     showgrid="false"
     inkscape:zoom="0.6722143"
     inkscape:cx="621"
     inkscape:cy="496.5"
     inkscape:window-x="-8"
     inkscape:window-y="-8"
     inkscape:window-maximized="1"
     inkscape:current-layer="svg2" />
  <!-- Generator: Sketch 46.2 (44496) - http://www.bohemiancoding.com/sketch -->
  <title
     id="title4">Artboard Copy</title>
  <desc
     id="desc6">Created with Sketch.</desc>
  <defs
     id="defs8">
    <polygon
       id="path-1"
       points="8.05378522 0.000122007042 16.1074075 0.000122007042 16.1074075 16.0761766 8.05378522 16.0761766 0.000162985075 16.0761766 0.000162985075 0.000122007042 8.05378522 0.000122007042" />
    <rect
       id="path-3"
       x="0"
       y="23"
       width="192"
       height="180" />
    <mask
       id="mask-4"
       maskContentUnits="userSpaceOnUse"
       maskUnits="objectBoundingBox"
       x="0"
       y="0"
       width="192"
       height="180"
       fill="white">
      <use
         xlink:href="#path-3"
         id="use13" />
    </mask>
  </defs>
  <path
     d="m 384.5,250.5 0,521.00098"
     id="Line"
     inkscape:connector-curvature="0"
     style="fill:none;fill-rule:evenodd;stroke:#6e5f5f;stroke-width:1;stroke-linecap:square" />
  <path
     d="m 604.5,250.5 0,521.00098"
     id="path18"
     inkscape:connector-curvature="0"
     style="fill:none;fill-rule:evenodd;stroke:#6e5f5f;stroke-width:1;stroke-linecap:square" />
  <path
     d="m 804.5,250.5 0,521.00098"
     id="path20"
     inkscape:connector-curvature="0"
     style="fill:none;fill-rule:evenodd;stroke:#6e5f5f;stroke-width:1;stroke-linecap:square" />
  <path
     d="m 1004.5,250.5 0,521.00098"
     id="path22"
     inkscape:connector-curvature="0"
     style="fill:none;fill-rule:evenodd;stroke:#6e5f5f;stroke-width:1;stroke-linecap:square" />
  <text
     id="Client-A"
     font-size="18"
     font-weight="300"
     style="font-style:normal;font-variant:normal;font-weight:normal;font-stretch:normal;font-size:17.5px;line-height:125%;font-family:'MS UI Gothic';-inkscape-font-specification:'MS UI Gothic, Normal';text-align:center;writing-mode:lr-tb;text-anchor:middle;fill:#6e5f5f;fill-rule:evenodd;stroke:none;stroke-width:1"
     x="8"
     sodipodi:linespacing="125%">
    <tspan
       x="189.33"
       y="823"
       id="tspan27"
       style="font-style:normal;font-variant:normal;font-weight:normal;font-stretch:normal;font-size:17.5px;line-height:125%;font-family:'MS UI Gothic';-inkscape-font-specification:'MS UI Gothic, Normal';text-align:center;writing-mode:lr-tb;text-anchor:middle">A</tspan>
  </text>
  <text
     id="App-with-SDK"
     font-size="18"
     font-weight="300"
     style="font-weight:normal;font-size:17.5px;font-family:'MS UI Gothic';fill:#6e5f5f;fill-rule:evenodd;stroke:none;stroke-width:1;-inkscape-font-specification:'MS UI Gothic, Normal';font-style:normal;font-stretch:normal;font-variant:normal;text-anchor:start;text-align:start;writing-mode:lr;line-height:125%;"
     sodipodi:linespacing="125%">
    <tspan
       x="351.16501"
       y="802"
       id="tspan30"
       style="-inkscape-font-specification:'MS UI Gothic, Normal';font-family:'MS UI Gothic';font-weight:normal;font-style:normal;font-stretch:normal;font-variant:normal;font-size:17.5px;text-anchor:start;text-align:start;writing-mode:lr;line-height:125%;">SDK による</tspan>
    <tspan
       x="367.83301"
       y="823"
       id="tspan32"
       style="-inkscape-font-specification:'MS UI Gothic, Normal';font-family:'MS UI Gothic';font-weight:normal;font-style:normal;font-stretch:normal;font-variant:normal;font-size:17.5px;text-anchor:start;text-align:start;writing-mode:lr;line-height:125%;">アプリ</tspan>
  </text>
  <path
     d="m 584.5,250.5 0,521.00098"
     id="path34"
     inkscape:connector-curvature="0"
     style="fill:none;fill-rule:evenodd;stroke:#6e5f5f;stroke-width:1;stroke-linecap:square" />
  <path
     d="m 184.5,250.5 0,521.00098"
     id="path36"
     inkscape:connector-curvature="0"
     style="fill:none;fill-rule:evenodd;stroke:#6e5f5f;stroke-width:1;stroke-linecap:square" />
  <text
     id="Peers-A-+-B"
     font-size="18"
     font-weight="300"
     style="font-weight:normal;font-size:17.5px;font-family:'MS UI Gothic';fill:#6e5f5f;fill-rule:evenodd;stroke:none;stroke-width:1;-inkscape-font-specification:'MS UI Gothic, Normal';font-style:normal;font-stretch:normal;font-variant:normal;text-anchor:start;text-align:start;writing-mode:lr;line-height:125%;"
     sodipodi:linespacing="125%">
    <tspan
       x="575.32397"
       y="802"
       id="tspan39"
       style="-inkscape-font-specification:'MS UI Gothic, Normal';font-family:'MS UI Gothic';font-weight:normal;font-style:normal;font-stretch:normal;font-variant:normal;font-size:17.5px;text-anchor:start;text-align:start;writing-mode:lr;line-height:125%;">ピア</tspan>
    <tspan
       x="575.42297"
       y="823"
       id="tspan41"
       style="-inkscape-font-specification:'MS UI Gothic, Normal';font-family:'MS UI Gothic';font-weight:normal;font-style:normal;font-stretch:normal;font-variant:normal;font-size:17.5px;text-anchor:start;text-align:start;writing-mode:lr;line-height:125%;">A + B</tspan>
  </text>
  <text
     id="Ordering-Service"
     font-size="18"
     font-weight="300"
     style="font-weight:normal;font-size:17.5px;font-family:'MS UI Gothic';fill:#6e5f5f;fill-rule:evenodd;stroke:none;stroke-width:1;-inkscape-font-specification:'MS UI Gothic, Normal';font-style:normal;font-stretch:normal;font-variant:normal;text-anchor:start;text-align:start;writing-mode:lr;line-height:125%;"
     sodipodi:linespacing="125%">
    <tspan
       x="770.98401"
       y="802"
       id="tspan44"
       style="-inkscape-font-specification:'MS UI Gothic, Normal';font-family:'MS UI Gothic';font-weight:normal;font-style:normal;font-stretch:normal;font-variant:normal;font-size:17.5px;text-anchor:start;text-align:start;writing-mode:lr;line-height:125%;">順序付け</tspan>
    <tspan
       x="776.15002"
       y="823"
       id="tspan46"
       style="-inkscape-font-specification:'MS UI Gothic, Normal';font-family:'MS UI Gothic';font-weight:normal;font-style:normal;font-stretch:normal;font-variant:normal;font-size:17.5px;text-anchor:start;text-align:start;writing-mode:lr;line-height:125%;">サービス</tspan>
  </text>
  <text
     id="Ledger"
     font-size="18"
     font-weight="300"
     style="font-style:normal;font-variant:normal;font-weight:normal;font-stretch:normal;font-size:17.5px;line-height:125%;font-family:'MS UI Gothic';-inkscape-font-specification:'MS UI Gothic, Normal';text-align:start;writing-mode:lr-tb;text-anchor:start;fill:#6e5f5f;fill-rule:evenodd;stroke:none;stroke-width:1"
     sodipodi:linespacing="125%"
     x="6">
    <tspan
       x="985.32001"
       y="802"
       id="tspan49"
       style="font-style:normal;font-variant:normal;font-weight:normal;font-stretch:normal;font-size:17.5px;line-height:125%;font-family:'MS UI Gothic';-inkscape-font-specification:'MS UI Gothic, Normal';text-align:start;writing-mode:lr-tb;text-anchor:start">台帳</tspan>
  </text>
  <g
     style="fill:none;fill-rule:evenodd;stroke:none;stroke-width:1"
     id="v"
     transform="translate(161,856)">
    <rect
       id="Rectangle"
       x="1.6785715"
       y="11.111111"
       width="15.107142"
       height="37.777779"
       style="fill:#cee07f" />
    <path
       d="m 29.095238,47.777944 4.476191,0 0,-4.444444 -4.476191,0 0,4.444444 z M 6.7142857,43.3335 l 4.4761903,0 0,-4.444444 -4.4761903,0 0,4.444444 z m 5.5952383,-6.666667 c 0.585821,0.01945 1.105059,0.610556 1.119047,1.111111 l 0,6.666667 c 0,0.581667 -0.533226,1.111111 -1.119047,1.111111 l -6.7142859,0 c -0.5858214,0 -1.1190476,-0.529444 -1.1190476,-1.111111 l 0,-6.666667 c 0,-0.581666 0.5332262,-1.111111 1.1190476,-1.111111 l 6.7142859,0 z m 10.071428,0 5.595239,0 0,-5.555555 -5.595239,0 0,5.555555 z m 12.309524,0 5.595238,0 0,-5.555555 -5.595238,0 0,5.555555 z m -5.595238,-7.777777 c 0.619393,0.015 1.120726,0.616666 1.119048,1.111111 l 0,7.777777 c 0,0.581667 -0.533227,1.111112 -1.119048,1.111112 l -7.833333,0 c -0.585822,0 -1.119048,-0.529445 -1.119048,-1.111112 l 0,-7.777777 c 0,-0.581667 0.533226,-1.111111 1.119048,-1.111111 l 7.833333,0 z m 12.309524,0 c 0.619393,0.015 1.120726,0.616666 1.119047,1.111111 l 0,7.777777 c 0,0.581667 -0.533226,1.111112 -1.119047,1.111112 l -7.833333,0 c -0.585822,0 -1.119048,-0.529445 -1.119048,-1.111112 l 0,-7.777777 c 0,-0.581667 0.533226,-1.111111 1.119048,-1.111111 l 7.833333,0 z m -34.6904763,3.333333 4.4761903,0 0,-4.444445 -4.4761903,0 0,4.444445 z m 5.5952383,-6.666667 c 0.585821,0.01945 1.105059,0.610556 1.119047,1.111111 l 0,6.666667 c 0,0.581667 -0.533226,1.111111 -1.119047,1.111111 l -6.7142859,0 c -0.5858214,0 -1.1190476,-0.529444 -1.1190476,-1.111111 l 0,-6.666667 c 0,-0.581666 0.5332262,-1.111111 1.1190476,-1.111111 l 6.7142859,0 z m 10.071428,-1.111111 5.595239,0 0,-5.555555 -5.595239,0 0,5.555555 z m 12.309524,0 5.595238,0 0,-5.555555 -5.595238,0 0,5.555555 z m -27.9761903,-3.333333 4.4761903,0 0,-4.444445 -4.4761903,0 0,4.444445 z M 29.095238,16.666833 c 0.619393,0.015 1.120726,0.616667 1.119048,1.111111 l 0,7.777778 c 0,0.581667 -0.533227,1.111111 -1.119048,1.111111 l -7.833333,0 c -0.585822,0 -1.119048,-0.529444 -1.119048,-1.111111 l 0,-7.777778 c 0,-0.581666 0.533226,-1.111111 1.119048,-1.111111 l 7.833333,0 z m 12.309524,0 c 0.619393,0.015 1.120726,0.616667 1.119047,1.111111 l 0,7.777778 c 0,0.581667 -0.533226,1.111111 -1.119047,1.111111 l -7.833333,0 c -0.585822,0 -1.119048,-0.529444 -1.119048,-1.111111 l 0,-7.777778 c 0,-0.581666 0.533226,-1.111111 1.119048,-1.111111 l 7.833333,0 z M 12.309524,14.444611 c 0.585821,0.01944 1.105059,0.610556 1.119047,1.111111 l 0,6.666667 c 0,0.581667 -0.533226,1.111111 -1.119047,1.111111 l -6.7142859,0 c -0.5858214,0 -1.1190476,-0.529444 -1.1190476,-1.111111 l 0,-6.666667 c 0,-0.581666 0.5332262,-1.111111 1.1190476,-1.111111 l 6.7142859,0 z m -10.0714288,33.333333 0,-35.555555 13.4285718,0 0,35.555555 -13.4285718,0 z M 17.904762,2.8473889 44.761905,15.156278 l 0,32.621666 -8.952381,0 0,-5.555555 c -0.01399,-0.500556 -0.462726,-1.077778 -1.119048,-1.111111 l -6.714285,0 c -0.585822,0 -1.119048,0.529444 -1.119048,1.111111 l 0,5.555555 -8.952381,0 0,-44.9305551 z M 16.768369,1.6666667e-4 C 16.935107,-0.00261111 17.099048,0.03238889 17.257952,0.08683333 L 46.35319,13.420167 c 0.38887,0.18 0.653524,0.598333 0.64681,1.024444 l 0,34.444445 c 0,0.581666 -0.533226,1.111111 -1.119048,1.111111 l -29.095238,0 -15.6666664,0 C 0.50077381,50.000167 0,49.502389 0,48.889056 L 0,11.111278 c 0,-0.613889 0.50077381,-1.111111 1.1190476,-1.111111 l 14.5476194,0 0,-8.8888892 C 15.783048,0.31516667 16.267595,0.00905556 16.768369,1.6666667e-4 l 0,0 z"
       id="Fill-1"
       inkscape:connector-curvature="0"
       style="fill:#659b5a" />
  </g>
  <g
     style="fill:none;fill-rule:evenodd;stroke:none;stroke-width:1"
     id="server-sdk"
     transform="translate(360,854)">
    <g
       id="Group-11"
       style="">
      <g
         id="Gear-/-wrench"
         transform="translate(18.626866,19.366197)"
         style="">
        <g
           id="Page-1-Copy-3"
           style="">
          <mask
             id="mask-2"
             fill="white">
            <use
               xlink:href="#path-1"
               id="use59"
               x="0"
               y="0"
               width="100%"
               height="100%" />
          </mask>
          <g
             id="Clip-2"
             style="" />
        </g>
        <path
           d="M 1.8873211,9.205263 0.2162681,9.0078612 C 0.09768243,8.9950221 0,8.8850869 0,8.76472 L 0,7.0940267 C 0,6.9756659 0.09768243,6.8649283 0.2162681,6.8524904 l 1.671053,-0.197803 C 2.0473113,5.8951719 2.3475943,5.1862106 2.7604332,4.5586976 L 1.7164773,3.2366673 C 1.6417081,3.1447871 1.6501497,2.9983407 1.7345667,2.9136826 L 2.9188154,1.7312779 C 3.0036343,1.6474223 3.149153,1.6377929 3.2444235,1.7132229 L 4.5669553,2.7531933 C 5.1972682,2.3443469 5.9063704,2.0438308 6.6677305,1.8845452 L 6.8647034,0.21465439 C 6.8775669,0.09709601 6.9869069,0 7.1079045,0 L 8.7821733,0 C 8.902367,0 9.010903,0.09709601 9.0253745,0.21465439 L 9.2231512,1.8845452 c 0.7605563,0.1592856 1.4700608,0.4598017 2.0995698,0.8686481 l 1.323737,-1.0399704 c 0.09366,-0.07543 0.239583,-0.065801 0.324402,0.018055 l 1.183445,1.1824047 c 0.08522,0.084658 0.09487,0.2311045 0.01929,0.3241883 l -1.042347,1.3208267 c 0.41123,0.627513 0.711112,1.3364743 0.871102,2.0959898 l 1.671053,0.197803 c 0.120193,0.012438 0.216268,0.1231755 0.217474,0.2415363 l -0.0012,1.6706933 c 0.0012,0.1203669 -0.09607,0.2303021 -0.216268,0.2431412 L 14.002355,9.205263 c -0.15999,0.7603179 -0.459872,1.468076 -0.871504,2.097194 l 1.042749,1.321227 c 0.07557,0.09268 0.06593,0.237926 -0.01929,0.322985 l -1.183445,1.181602 c -0.08482,0.08546 -0.230739,0.09268 -0.325206,0.01846 l -1.322933,-1.040372 c -0.629509,0.409247 -1.3390135,0.710165 -2.0995698,0.869049 L 9.0253745,15.642889 C 9.010903,15.762854 8.902367,15.859148 8.7821733,15.85995 L 7.1079045,15.859148 C 6.9869069,15.85995 6.8775669,15.762854 6.8647034,15.642889 L 6.6677305,13.975405 C 6.1937898,13.877507 5.7443703,13.71782 5.3178638,13.516406 L 6.68381,12.194777 c 0.4007793,0.118762 0.8220599,0.182958 1.2618319,0.182958 2.4605521,0 4.4556051,-1.991672 4.4556051,-4.4483617 0,-2.4574918 -1.995053,-4.4483611 -4.4556051,-4.4483611 -2.4621601,0 -4.4572133,1.9908693 -4.4572133,4.4483611 0,0.4220868 0.063112,0.8277234 0.1728537,1.2132989 L 2.3081997,10.452265 C 2.1277083,10.055054 1.9793757,9.642195 1.8873211,9.205263"
           id="Fill-1-Copy"
           inkscape:connector-curvature="0"
           style="fill:#cee07f" />
        <path
           d="m 0.8578058,14.230954 c 0.1833582,-0.176504 0.4742866,-0.17081 0.6507179,0.01098 0.1760239,0.183824 0.1707269,0.476234 -0.012224,0.654365 -0.1817283,0.176096 -0.4738791,0.171623 -0.65031042,-0.01179 -0.1768388,-0.183418 -0.17154179,-0.476235 0.0118164,-0.653551 m -0.46328507,0.968735 c 0.5349985,0.555132 1.41389559,0.575467 1.97497169,0.04962 l 0.014669,0.01545 4.6752269,-4.524428 C 8.191727,11.140925 9.5220927,10.892844 10.466998,9.9855181 11.409867,9.0818526 11.715464,7.772717 11.366269,6.6303244 L 10.254303,7.6978831 C 9.9976013,7.9435239 9.5881013,7.9362035 9.3407715,7.6791753 L 8.2662924,6.5632176 C 8.01937,6.3070028 8.0275192,5.8982792 8.2850356,5.6501982 L 9.3953715,4.5854834 C 8.2666998,4.1914007 6.9428536,4.445582 6.0020222,5.3480274 5.064858,6.2468126 4.7600759,7.5461876 5.1007148,8.6824799 l -4.68582094,4.5354081 0.001222,8.14e-4 c -0.54518508,0.542118 -0.55700149,1.425042 -0.0215955,1.980987"
           id="Fill-1-Copy-2"
           inkscape:connector-curvature="0"
           style="fill:#659b5a" />
      </g>
      <g
         id="g64"
         style="fill:#659b5a">
        <path
           d="m 45.141948,45.974748 -11.454204,0 c -1.204456,0 -2.18145,-0.974563 -2.18145,-2.177314 0,-1.20275 0.976994,-2.178469 2.18145,-2.178469 l 11.454204,0 c 1.205614,0 2.182607,0.975141 2.182607,2.178469 0,1.203329 -0.976993,2.177314 -2.182607,2.177314 l 0,0 z M 14.423962,27.521594 c 0,-6.370188 5.193459,-11.553801 11.575749,-11.553801 6.382867,0 11.575748,5.183613 11.575748,11.553801 0,6.370766 -5.192881,11.553802 -11.575748,11.553802 -6.38229,0 -11.575749,-5.183036 -11.575749,-11.553802 l 0,0 z m 8.2865,19.100167 c -1.559833,0 -2.829692,-1.266297 -2.829692,-2.823171 0,-0.63777 0.221097,-1.22066 0.580524,-1.694943 1.557517,0.591555 3.233106,0.939902 4.981623,1.001137 0.05672,0.222988 0.09666,0.452909 0.09666,0.693228 0,1.556297 -1.268703,2.823749 -2.829113,2.823749 l 0,0 z m -7.198959,0 c -1.559253,0 -2.829113,-1.266297 -2.829113,-2.823171 0,-1.556875 1.269281,-2.824327 2.829113,-2.824327 1.560411,0 2.829113,1.266874 2.829113,2.824327 0,1.555719 -1.268702,2.823171 -2.829113,2.823171 l 0,0 z M 12.68239,8.3318858 c 0,-1.5568747 1.269281,-2.8243267 2.829113,-2.8243267 1.560411,0 2.829113,1.2668743 2.829113,2.8243267 0,1.5574525 -1.268702,2.8237492 -2.829113,2.8237492 -1.559253,0 -2.829113,-1.2668744 -2.829113,-2.8237492 l 0,0 z M 8.3125452,11.155635 c -1.5598321,0 -2.8296918,-1.2668744 -2.8296918,-2.8237492 0,-1.5568747 1.2692809,-2.8243267 2.8296918,-2.8243267 1.560411,0 2.8291128,1.2668743 2.8291128,2.8243267 0,1.5574525 -1.2687018,2.8237492 -2.8291128,2.8237492 l 0,0 z M 22.710462,5.5081368 c 1.56041,0 2.829113,1.2668743 2.829113,2.8243267 0,1.5574525 -1.268703,2.8237495 -2.829113,2.8237495 -1.559833,0 -2.829692,-1.2668747 -2.829692,-2.8237495 0,-1.5574524 1.269281,-2.8243267 2.829692,-2.8243267 l 0,0 z m 10.977282,0.6464352 11.454204,0 c 1.205614,0 2.182607,0.9751408 2.182607,2.1778915 0,1.2027507 -0.976993,2.1773135 -2.182607,2.1773135 l -11.454204,0 c -1.204456,0 -2.18145,-0.9751404 -2.18145,-2.1773135 5.79e-4,-1.2033284 0.976994,-2.1778915 2.18145,-2.1778915 l 0,0 z M 8.3125452,46.621761 c -1.5598321,0 -2.8296918,-1.266297 -2.8296918,-2.823171 0,-1.556875 1.2692809,-2.824327 2.8296918,-2.824327 1.560411,0 2.8291128,1.266874 2.8291128,2.824327 0,1.555719 -1.2687018,2.823171 -2.8291128,2.823171 l 0,0 z M 10.384026,27.974503 c -0.5174365,0.559204 -1.2507602,0.915061 -2.0714808,0.915061 -1.5604109,0 -2.8296918,-1.266874 -2.8296918,-2.824904 0,-1.556875 1.2698597,-2.823749 2.8296918,-2.823749 0.9827811,0 1.8480688,0.503746 2.3556648,1.264564 -0.192157,0.976873 -0.29576,1.984365 -0.29576,3.016119 0,0.151933 0.0069,0.302132 0.01158,0.452909 l 0,0 z m 34.757922,-4.086579 c 1.205614,0 2.182607,0.974563 2.182607,2.177314 0,1.202751 -0.976993,2.178469 -2.182607,2.178469 l -3.532919,0 c 0.01042,-0.239741 0.01794,-0.480061 0.01794,-0.722113 0,-1.251276 -0.1528,-2.467314 -0.432355,-3.63367 l 3.947331,0 z m 3.505715,11.621391 -9.232238,0 c 0.225727,-0.374921 0.435248,-0.759662 0.629142,-1.154803 l 8.602517,0 c 1.846332,0 3.350601,-1.500838 3.350601,-3.34367 l 0,-9.890054 c 5.79e-4,-1.844564 -1.503111,-3.344247 -3.350022,-3.344247 l -10.459268,0 c -0.322963,-0.401495 -0.664448,-0.786814 -1.025032,-1.154803 l 11.4843,0 c 1.846911,0 3.350601,-1.500261 3.350601,-3.344247 l 0,-9.8906321 c 0,-1.8439867 -1.50369,-3.3436701 -3.350601,-3.3436701 l -45.2976413,0 C 1.5025322,0.0431888 0,1.5440276 0,3.3874366 l 0,9.8900544 c 0,1.843986 1.5025322,3.344247 3.3500217,3.344247 l 11.4860373,0 c -0.360585,0.367989 -0.70207,0.753308 -1.025033,1.154803 l -10.4610043,0 C 1.5025322,17.776541 0,19.276224 0,21.120211 l 0,9.890054 c 0,1.843409 1.5025322,3.34367 3.3500217,3.34367 l 8.6048333,0 c 0.193315,0.39514 0.403414,0.780459 0.628563,1.15538 l -9.2333963,0 C 1.5025322,35.509315 0,37.009576 0,38.852985 l 0,9.889476 c 0,1.843987 1.5025322,3.344248 3.3500217,3.344248 l 3.0409492,0 0,0.734822 C 6.3909709,54.021971 7.3691217,55 8.5729996,55 l 6.9923314,0 c 1.203299,0 2.182028,-0.976874 2.182028,-2.178469 l 0,-0.734822 15.42237,0 0,0.734822 C 33.169729,54.021971 34.14788,55 35.351758,55 l 6.99291,0 c 1.20272,0 2.182029,-0.976874 2.182029,-2.178469 l 0,-0.734822 4.122702,0 C 50.49631,52.086709 52,50.586448 52,48.742461 l 0,-9.889476 c -0.0017,-1.843409 -1.505426,-3.34367 -3.352337,-3.34367 l 0,0 z"
           id="path66"
           inkscape:connector-curvature="0"
           style="" />
      </g>
    </g>
  </g>
  <g
     style="fill:none;fill-rule:evenodd;stroke:none;stroke-width:1"
     id="Peer"
     transform="translate(606,856)">
    <polygon
       id="polygon69"
       points="36.498834,18.054184 21.871087,42.437239 8.5580671,18.054184 "
       style="fill:#cee07f" />
    <polygon
       id="Fill-2"
       points="43.742049,37.903275 43.742049,12.634924 36.499208,18.053935 "
       style="fill:#659b5a" />
    <polygon
       id="Fill-3"
       points="8.5575686,18.054184 0,12.635173 0,37.903524 "
       style="fill:#659b5a" />
    <polygon
       id="Fill-4"
       points="21.871834,42.437239 8.5575686,18.054184 0,37.903524 "
       style="fill:#79bb6b" />
    <polygon
       id="Fill-5"
       points="43.742298,37.903524 36.499457,18.054184 21.87171,42.437239 "
       style="fill:#79bb6b" />
    <polygon
       id="Fill-6"
       points="8.557444,18.053685 36.499457,18.053685 21.87171,-0.00012468962 "
       style="fill:#79bb6b" />
    <polygon
       id="Fill-7"
       points="8.557444,18.053685 21.87171,-0.00012468962 -0.00012461874,12.634674 "
       style="fill:#63b153" />
    <polygon
       id="Fill-8"
       points="36.499457,18.053685 43.742298,12.634674 21.87171,-0.00012468962 "
       style="fill:#63b153" />
    <polygon
       id="Fill-9"
       points="21.87171,42.437364 -0.00012461874,37.903649 21.87171,50.538448 "
       style="fill:#659b5a" />
    <polygon
       id="Fill-10"
       points="21.87171,50.538323 43.742298,37.903524 21.87171,42.437239 "
       style="fill:#63b153" />
  </g>
  <g
     style="fill:none;fill-rule:evenodd;stroke:none;stroke-width:1"
     id="g80"
     transform="translate(545,856)">
    <polygon
       id="polygon82"
       points="36.498834,18.054184 21.871087,42.437239 8.5580671,18.054184 "
       style="fill:#cee07f" />
    <polygon
       id="polygon84"
       points="43.742049,37.903275 43.742049,12.634924 36.499208,18.053935 "
       style="fill:#659b5a" />
    <polygon
       id="polygon86"
       points="8.5575686,18.054184 0,12.635173 0,37.903524 "
       style="fill:#659b5a" />
    <polygon
       id="polygon88"
       points="21.871834,42.437239 8.5575686,18.054184 0,37.903524 "
       style="fill:#79bb6b" />
    <polygon
       id="polygon90"
       points="43.742298,37.903524 36.499457,18.054184 21.87171,42.437239 "
       style="fill:#79bb6b" />
    <polygon
       id="polygon92"
       points="8.557444,18.053685 36.499457,18.053685 21.87171,-0.00012468962 "
       style="fill:#79bb6b" />
    <polygon
       id="polygon94"
       points="8.557444,18.053685 21.87171,-0.00012468962 -0.00012461874,12.634674 "
       style="fill:#63b153" />
    <polygon
       id="polygon96"
       points="36.499457,18.053685 43.742298,12.634674 21.87171,-0.00012468962 "
       style="fill:#63b153" />
    <polygon
       id="polygon98"
       points="21.87171,42.437364 -0.00012461874,37.903649 21.87171,50.538448 "
       style="fill:#659b5a" />
    <polygon
       id="polygon100"
       points="21.87171,50.538323 43.742298,37.903524 21.87171,42.437239 "
       style="fill:#63b153" />
  </g>
  <g
     style="fill:none;fill-rule:evenodd;stroke:none;stroke-width:1"
     id="Group"
     transform="translate(761,839)">
    <g
       id="Icon/UI/settings"
       transform="translate(24,60)"
       style="fill:#6da062">
      <g
         id="settings"
         style="">
        <path
           d="m 21.2,12 c 0,-0.5 0,-1 -0.1,-1.4 L 24,8 21.5,3.9 18,5.1 C 17.2,4.4 16.2,3.8 15.1,3.4 L 14.4,0 9.6,0 8.8,3.4 c -1.1,0.4 -2,1 -2.9,1.7 L 2.5,3.9 0,8 2.9,10.6 C 2.8,11 2.8,11.5 2.8,12 c 0,0.5 0,1 0.1,1.4 L 0,16 2.5,20.1 6,18.9 c 0.8,0.7 1.8,1.3 2.9,1.7 l 0.7,3.4 4.8,0 0.8,-3.4 c 1.1,-0.4 2,-1 2.9,-1.7 L 21.6,20 24,16 21.1,13.4 C 21.2,13 21.2,12.5 21.2,12 l 0,0 0,0 z M 12,15 c -1.7,0 -3,-1.3 -3,-3 0,-1.7 1.3,-3 3,-3 1.7,0 3,1.3 3,3 0,1.7 -1.3,3 -3,3 l 0,0 0,0 z"
           id="Shape"
           inkscape:connector-curvature="0"
           style="" />
      </g>
    </g>
    <g
       id="g106"
       transform="translate(24,0)"
       style="fill:#6da062">
      <g
         id="g108"
         style="">
        <path
           d="m 21.2,12 c 0,-0.5 0,-1 -0.1,-1.4 L 24,8 21.5,3.9 18,5.1 C 17.2,4.4 16.2,3.8 15.1,3.4 L 14.4,0 9.6,0 8.8,3.4 c -1.1,0.4 -2,1 -2.9,1.7 L 2.5,3.9 0,8 2.9,10.6 C 2.8,11 2.8,11.5 2.8,12 c 0,0.5 0,1 0.1,1.4 L 0,16 2.5,20.1 6,18.9 c 0.8,0.7 1.8,1.3 2.9,1.7 l 0.7,3.4 4.8,0 0.8,-3.4 c 1.1,-0.4 2,-1 2.9,-1.7 L 21.6,20 24,16 21.1,13.4 C 21.2,13 21.2,12.5 21.2,12 l 0,0 0,0 z M 12,15 c -1.7,0 -3,-1.3 -3,-3 0,-1.7 1.3,-3 3,-3 1.7,0 3,1.3 3,3 0,1.7 -1.3,3 -3,3 l 0,0 0,0 z"
           id="path110"
           inkscape:connector-curvature="0"
           style="" />
      </g>
    </g>
    <g
       id="block"
       transform="translate(36,27)"
       style="">
      <polygon
         id="polygon113"
         points="12,27 0,20.948276 0,6.0517241 12,12.103448 "
         style="fill:#fefefe;fill-rule:evenodd" />
      <polygon
         id="Stroke-2"
         points="12,27 0,20.948276 0,6.0517241 12,12.103448 "
         style="stroke:#659b5a;stroke-width:1.53999996;stroke-linecap:round;stroke-linejoin:round" />
      <polygon
         id="polygon116"
         points="12,27 24,20.948276 24,6.0517241 12,12.103448 "
         style="fill:#fefefe;fill-rule:evenodd" />
      <polygon
         id="Stroke-5"
         points="12,27 24,20.948276 24,6.0517241 12,12.103448 "
         style="stroke:#659b5a;stroke-width:1.53999996;stroke-linecap:round;stroke-linejoin:round" />
      <polygon
         id="polygon119"
         points="0,6.0517241 11.538462,0 24,6.0517241 12,12.103448 "
         style="fill:#cee07f;fill-rule:evenodd" />
      <polygon
         id="Stroke-8"
         points="0,6.0517241 11.538462,0 24,6.0517241 12,12.103448 "
         style="stroke:#659b5a;stroke-width:1.53999996;stroke-linecap:round;stroke-linejoin:round" />
    </g>
    <g
       id="g122"
       transform="translate(66,27)"
       style="">
      <polygon
         id="polygon124"
         points="12,27 0,20.948276 0,6.0517241 12,12.103448 "
         style="fill:#fefefe;fill-rule:evenodd" />
      <polygon
         id="polygon126"
         points="12,27 0,20.948276 0,6.0517241 12,12.103448 "
         style="stroke:#659b5a;stroke-width:1.53999996;stroke-linecap:round;stroke-linejoin:round" />
      <polygon
         id="polygon128"
         points="12,27 24,20.948276 24,6.0517241 12,12.103448 "
         style="fill:#fefefe;fill-rule:evenodd" />
      <polygon
         id="polygon130"
         points="12,27 24,20.948276 24,6.0517241 12,12.103448 "
         style="stroke:#659b5a;stroke-width:1.53999996;stroke-linecap:round;stroke-linejoin:round" />
      <polygon
         id="polygon132"
         points="0,6.0517241 11.538462,0 24,6.0517241 12,12.103448 "
         style="fill:#cee07f;fill-rule:evenodd" />
      <polygon
         id="polygon134"
         points="0,6.0517241 11.538462,0 24,6.0517241 12,12.103448 "
         style="stroke:#659b5a;stroke-width:1.53999996;stroke-linecap:round;stroke-linejoin:round" />
    </g>
    <g
       id="tx-proposal"
       transform="translate(0,24)"
       style="">
      <path
         d="m -2.3597884,3.7964334 0,25.7934146 20.7297944,0 0,-4.282293 c 0.869014,0.8377 2.014063,1.351223 3.273125,1.351223 1.259062,0 2.40411,-0.513523 3.273125,-1.351223 l 0,4.282293 4.364167,0 0,-25.7934146 -31.6402114,0 z"
         id="path137"
         transform="matrix(0,1,-1,0,30.153458,3.232824)"
         inkscape:connector-curvature="0"
         style="fill:#fefefe;fill-rule:evenodd" />
      <polygon
         id="Stroke-3"
         transform="matrix(0,1,-1,0,30.153458,3.232824)"
         points="-2.3597884,3.7964334 -2.3597884,29.589848 29.280423,29.589848 29.280423,3.7964334 "
         style="stroke:#659b5a;stroke-width:1.99999988" />
      <g
         id="Stroke-13"
         transform="matrix(0,-1,1,0,4.322312,16.956111)"
         style="stroke:#659b5a;stroke-width:1.5999999;stroke-linecap:round">
        <path
           d="m 5.0381449,6.5489438 12.5469801,0"
           transform="matrix(0,1,-1,0,18.181601,-4.441669)"
           id="path141"
           inkscape:connector-curvature="0"
           style="" />
        <path
           d="m 4.7927147,3.0951905 6.0007303,0"
           id="Stroke-15"
           transform="matrix(0,1,-1,0,11.209292,-4.376868)"
           inkscape:connector-curvature="0"
           style="" />
        <path
           d="m 2.092496,2.2317522 4.3641672,0"
           id="Stroke-17"
           transform="matrix(0,1,-1,0,6.827354,-1.721806)"
           inkscape:connector-curvature="0"
           style="" />
        <path
           d="m -4.9718897,5.9733183 11.4559386,0"
           id="Stroke-19"
           transform="matrix(0,1,-1,0,7.05042,5.53826)"
           inkscape:connector-curvature="0"
           style="" />
      </g>
      <text
         id="tx"
         font-size="12"
         font-weight="400"
         style="font-weight:400;font-size:12px;font-family:HelveticaNeue-Medium, 'Helvetica Neue';fill:#659b5a">
        <tspan
           x="4"
           y="28"
           id="tspan147"
           style="">tx</tspan>
      </text>
    </g>
  </g>
  <g
     style="fill:none;fill-rule:evenodd;stroke:none;stroke-width:1"
     id="Group-2"
     transform="translate(987,856)">
    <g
       id="g150"
       style="">
      <polygon
         id="polygon152"
         points="12,27 0,20.948276 0,6.0517241 12,12.103448 "
         style="fill:#fefefe;fill-rule:evenodd" />
      <polygon
         id="polygon154"
         points="12,27 0,20.948276 0,6.0517241 12,12.103448 "
         style="stroke:#659b5a;stroke-width:1.53999996;stroke-linecap:round;stroke-linejoin:round" />
      <polygon
         id="polygon156"
         points="12,27 24,20.948276 24,6.0517241 12,12.103448 "
         style="fill:#fefefe;fill-rule:evenodd" />
      <polygon
         id="polygon158"
         points="12,27 24,20.948276 24,6.0517241 12,12.103448 "
         style="stroke:#659b5a;stroke-width:1.53999996;stroke-linecap:round;stroke-linejoin:round" />
      <polygon
         id="polygon160"
         points="0,6.0517241 11.538462,0 24,6.0517241 12,12.103448 "
         style="fill:#cee07f;fill-rule:evenodd" />
      <polygon
         id="polygon162"
         points="0,6.0517241 11.538462,0 24,6.0517241 12,12.103448 "
         style="stroke:#659b5a;stroke-width:1.53999996;stroke-linecap:round;stroke-linejoin:round" />
    </g>
    <g
       id="g164"
       transform="translate(12,6)"
       style="">
      <polygon
         id="polygon166"
         points="12,27 0,20.948276 0,6.0517241 12,12.103448 "
         style="fill:#fefefe;fill-rule:evenodd" />
      <polygon
         id="polygon168"
         points="12,27 0,20.948276 0,6.0517241 12,12.103448 "
         style="stroke:#659b5a;stroke-width:1.53999996;stroke-linecap:round;stroke-linejoin:round" />
      <polygon
         id="polygon170"
         points="12,27 24,20.948276 24,6.0517241 12,12.103448 "
         style="fill:#fefefe;fill-rule:evenodd" />
      <polygon
         id="polygon172"
         points="12,27 24,20.948276 24,6.0517241 12,12.103448 "
         style="stroke:#659b5a;stroke-width:1.53999996;stroke-linecap:round;stroke-linejoin:round" />
      <polygon
         id="polygon174"
         points="0,6.0517241 11.538462,0 24,6.0517241 12,12.103448 "
         style="fill:#cee07f;fill-rule:evenodd" />
      <polygon
         id="polygon176"
         points="0,6.0517241 11.538462,0 24,6.0517241 12,12.103448 "
         style="stroke:#659b5a;stroke-width:1.53999996;stroke-linecap:round;stroke-linejoin:round" />
    </g>
    <g
       id="g178"
       transform="translate(24,12)"
       style="">
      <polygon
         id="polygon180"
         points="12,27 0,20.948276 0,6.0517241 12,12.103448 "
         style="fill:#fefefe;fill-rule:evenodd" />
      <polygon
         id="polygon182"
         points="12,27 0,20.948276 0,6.0517241 12,12.103448 "
         style="stroke:#659b5a;stroke-width:1.53999996;stroke-linecap:round;stroke-linejoin:round" />
      <polygon
         id="polygon184"
         points="12,27 24,20.948276 24,6.0517241 12,12.103448 "
         style="fill:#fefefe;fill-rule:evenodd" />
      <polygon
         id="polygon186"
         points="12,27 24,20.948276 24,6.0517241 12,12.103448 "
         style="stroke:#659b5a;stroke-width:1.53999996;stroke-linecap:round;stroke-linejoin:round" />
      <polygon
         id="polygon188"
         points="0,6.0517241 11.538462,0 24,6.0517241 12,12.103448 "
         style="fill:#cee07f;fill-rule:evenodd" />
      <polygon
         id="polygon190"
         points="0,6.0517241 11.538462,0 24,6.0517241 12,12.103448 "
         style="stroke:#659b5a;stroke-width:1.53999996;stroke-linecap:round;stroke-linejoin:round" />
    </g>
    <g
       id="g192"
       transform="translate(36,18)"
       style="">
      <polygon
         id="polygon194"
         points="12,27 0,20.948276 0,6.0517241 12,12.103448 "
         style="fill:#fefefe;fill-rule:evenodd" />
      <polygon
         id="polygon196"
         points="12,27 0,20.948276 0,6.0517241 12,12.103448 "
         style="stroke:#659b5a;stroke-width:1.53999996;stroke-linecap:round;stroke-linejoin:round" />
      <polygon
         id="polygon198"
         points="12,27 24,20.948276 24,6.0517241 12,12.103448 "
         style="fill:#fefefe;fill-rule:evenodd" />
      <polygon
         id="polygon200"
         points="12,27 24,20.948276 24,6.0517241 12,12.103448 "
         style="stroke:#659b5a;stroke-width:1.53999996;stroke-linecap:round;stroke-linejoin:round" />
      <polygon
         id="polygon202"
         points="0,6.0517241 11.538462,0 24,6.0517241 12,12.103448 "
         style="fill:#cee07f;fill-rule:evenodd" />
      <polygon
         id="polygon204"
         points="0,6.0517241 11.538462,0 24,6.0517241 12,12.103448 "
         style="stroke:#659b5a;stroke-width:1.53999996;stroke-linecap:round;stroke-linejoin:round" />
    </g>
    <g
       id="g206"
       transform="translate(48,24)"
       style="">
      <polygon
         id="polygon208"
         points="12,27 0,20.948276 0,6.0517241 12,12.103448 "
         style="fill:#fefefe;fill-rule:evenodd" />
      <polygon
         id="polygon210"
         points="12,27 0,20.948276 0,6.0517241 12,12.103448 "
         style="stroke:#659b5a;stroke-width:1.53999996;stroke-linecap:round;stroke-linejoin:round" />
      <polygon
         id="polygon212"
         points="12,27 24,20.948276 24,6.0517241 12,12.103448 "
         style="fill:#fefefe;fill-rule:evenodd" />
      <polygon
         id="polygon214"
         points="12,27 24,20.948276 24,6.0517241 12,12.103448 "
         style="stroke:#659b5a;stroke-width:1.53999996;stroke-linecap:round;stroke-linejoin:round" />
      <polygon
         id="polygon216"
         points="0,6.0517241 11.538462,0 24,6.0517241 12,12.103448 "
         style="fill:#cee07f;fill-rule:evenodd" />
      <polygon
         id="polygon218"
         points="0,6.0517241 11.538462,0 24,6.0517241 12,12.103448 "
         style="stroke:#659b5a;stroke-width:1.53999996;stroke-linecap:round;stroke-linejoin:round" />
    </g>
  </g>
  <g
     id="Arrow"
     transform="matrix(-1,0,0,1,381,274)"
     style="fill:none;fill-rule:evenodd;stroke:#659b5a;stroke-width:2;stroke-linecap:round">
    <path
       d="m 2e-4,6.2599278 6,6.2599282"
       id="Stroke-1"
       inkscape:connector-curvature="0"
       style="" />
    <path
       d="M 2e-4,6.2599278 6.0002,0"
       id="path222"
       inkscape:connector-curvature="0"
       style="" />
    <polyline
       id="polyline224"
       points="0 6.12975523 47.0273035 6.12975523 192 6.12975523"
       style="" />
  </g>
  <g
     id="g226"
     transform="matrix(-1,0,0,1,582,274)"
     style="fill:none;fill-rule:evenodd;stroke:#659b5a;stroke-width:2;stroke-linecap:round">
    <path
       d="m 2e-4,6.2599278 6,6.2599282"
       id="path228"
       inkscape:connector-curvature="0"
       style="" />
    <path
       d="M 2e-4,6.2599278 6.0002,0"
       id="path230"
       inkscape:connector-curvature="0"
       style="" />
    <polyline
       id="polyline232"
       points="0 6.12975523 47.0273035 6.12975523 192 6.12975523"
       style="" />
  </g>
  <g
     id="g234"
     transform="translate(609,703)"
     style="fill:none;fill-rule:evenodd;stroke:#659b5a;stroke-width:2;stroke-linecap:round">
    <path
       d="m 2e-4,6.2599278 6,6.2599282"
       id="path236"
       inkscape:connector-curvature="0"
       style="" />
    <path
       d="M 2e-4,6.2599278 6.0002,0"
       id="path238"
       inkscape:connector-curvature="0"
       style="" />
    <polyline
       id="polyline240"
       points="0 6.12975523 47.0273035 6.12975523 192 6.12975523"
       style="" />
  </g>
  <g
     style="fill:none;fill-rule:evenodd;stroke:none;stroke-width:1"
     id="g242"
     transform="translate(475,231)">
    <path
       d="m -2.3597884,3.7964334 0,25.7934146 20.7297944,0 0,-4.282293 c 0.869014,0.8377 2.014063,1.351223 3.273125,1.351223 1.259062,0 2.40411,-0.513523 3.273125,-1.351223 l 0,4.282293 4.364167,0 0,-25.7934146 -31.6402114,0 z"
       id="path244"
       transform="matrix(0,1,-1,0,30.153458,3.232824)"
       inkscape:connector-curvature="0"
       style="fill:#fefefe" />
    <polygon
       id="polygon246"
       transform="matrix(0,1,-1,0,30.153458,3.232824)"
       points="-2.3597884,3.7964334 -2.3597884,29.589848 29.280423,29.589848 29.280423,3.7964334 "
       style="stroke:#659b5a;stroke-width:1.99999988" />
    <g
       id="g248"
       transform="matrix(0,-1,1,0,4.322312,16.956111)"
       style="stroke:#659b5a;stroke-width:1.5999999;stroke-linecap:round">
      <path
         d="m 5.0381449,6.5489438 12.5469801,0"
         transform="matrix(0,1,-1,0,18.181601,-4.441669)"
         id="path250"
         inkscape:connector-curvature="0"
         style="" />
      <path
         d="m 4.7927147,3.0951905 6.0007303,0"
         id="path252"
         transform="matrix(0,1,-1,0,11.209292,-4.376868)"
         inkscape:connector-curvature="0"
         style="" />
      <path
         d="m 2.092496,2.2317522 4.3641672,0"
         id="path254"
         transform="matrix(0,1,-1,0,6.827354,-1.721806)"
         inkscape:connector-curvature="0"
         style="" />
      <path
         d="m -4.9718897,5.9733183 11.4559386,0"
         id="path256"
         transform="matrix(0,1,-1,0,7.05042,5.53826)"
         inkscape:connector-curvature="0"
         style="" />
    </g>
    <text
       id="text258"
       font-size="12"
       font-weight="400"
       style="font-weight:400;font-size:12px;font-family:HelveticaNeue-Medium, 'Helvetica Neue';fill:#659b5a">
      <tspan
         x="4"
         y="28"
         id="tspan260"
         style="">tx</tspan>
    </text>
  </g>
  <g
     style="fill:none;fill-rule:evenodd;stroke:none;stroke-width:1"
     id="g262"
     transform="translate(433,231)">
    <path
       d="m -2.3597884,3.7964334 0,25.7934146 20.7297944,0 0,-4.282293 c 0.869014,0.8377 2.014063,1.351223 3.273125,1.351223 1.259062,0 2.40411,-0.513523 3.273125,-1.351223 l 0,4.282293 4.364167,0 0,-25.7934146 -31.6402114,0 z"
       id="path264"
       transform="matrix(0,1,-1,0,30.153458,3.232824)"
       inkscape:connector-curvature="0"
       style="fill:#fefefe" />
    <polygon
       id="polygon266"
       transform="matrix(0,1,-1,0,30.153458,3.232824)"
       points="-2.3597884,3.7964334 -2.3597884,29.589848 29.280423,29.589848 29.280423,3.7964334 "
       style="stroke:#659b5a;stroke-width:1.99999988" />
    <g
       id="g268"
       transform="matrix(0,-1,1,0,4.322312,16.956111)"
       style="stroke:#659b5a;stroke-width:1.5999999;stroke-linecap:round">
      <path
         d="m 5.0381449,6.5489438 12.5469801,0"
         transform="matrix(0,1,-1,0,18.181601,-4.441669)"
         id="path270"
         inkscape:connector-curvature="0"
         style="" />
      <path
         d="m 4.7927147,3.0951905 6.0007303,0"
         id="path272"
         transform="matrix(0,1,-1,0,11.209292,-4.376868)"
         inkscape:connector-curvature="0"
         style="" />
      <path
         d="m 2.092496,2.2317522 4.3641672,0"
         id="path274"
         transform="matrix(0,1,-1,0,6.827354,-1.721806)"
         inkscape:connector-curvature="0"
         style="" />
      <path
         d="m -4.9718897,5.9733183 11.4559386,0"
         id="path276"
         transform="matrix(0,1,-1,0,7.05042,5.53826)"
         inkscape:connector-curvature="0"
         style="" />
    </g>
    <text
       id="text278"
       font-size="12"
       font-weight="400"
       style="font-weight:400;font-size:12px;font-family:HelveticaNeue-Medium, 'Helvetica Neue';fill:#659b5a">
      <tspan
         x="4"
         y="28"
         id="tspan280"
         style="">tx</tspan>
    </text>
  </g>
  <g
     style="fill:none;fill-rule:evenodd;stroke:none;stroke-width:1"
     id="g282"
     transform="translate(497,314)">
    <g
       id="signature"
       transform="translate(0,14)"
       style="">
      <path
         d="M 0.27248474,22 55.325192,22"
         id="path285"
         inkscape:connector-curvature="0"
         style="stroke:#cee07f;stroke-width:2;stroke-linecap:square;stroke-dasharray:2, 4, 2, 4" />
      <path
         d="m 14.857604,13.603111 c -1.675454,0.641647 -3.394942,1.554706 -4.8681031,2.596235 -1.446131,1.063059 -3.5579967,3.236471 -1.3423688,5.78753 0.7808322,0.954 1.21332,0.999882 1.3288535,0.988235 0.5859514,-0.042 1.2721764,-1.328118 1.7268994,-2.178706 0.146924,-0.273882 0.29036,-0.543882 0.433796,-0.790941 1.403405,-2.363294 2.280588,-4.404706 2.720923,-6.402353 M 9.9454673,23.999699 c -0.7808322,0 -1.5455334,-0.469765 -2.3324693,-1.432588 -2.018567,-2.323412 -1.4587743,-4.929177 1.5455334,-7.135412 1.8088626,-1.279059 3.8823626,-2.33647 5.9113926,-3.025412 0.08807,-0.657882 0.131229,-1.31647 0.131229,-1.986 0,-0.218117 0.0096,-0.513529 0.02093,-0.8668231 C 15.296632,7.2988756 15.492821,1.3108756 12.861272,1.0249933 11.417321,0.8742874 8.2874522,3.9392286 7.1155498,5.5793462 3.4067056,10.419229 1.7726691,14.39617 2.3834709,17.093346 2.4458154,17.371464 2.220416,17.638287 1.8794831,17.69017 1.5302667,17.73217 1.2120045,17.55817 1.1479161,17.279346 0.47128198,14.283935 2.1183977,10.168993 6.041306,5.0502874 c 0.028338,-0.039882 4.10471,-5.30435294 6.976481,-5.04070588 3.76029,0.40835294 3.556689,6.59752938 3.458594,9.57176468 -0.0109,0.342 -0.02093,0.6285878 -0.02093,0.8392938 0,0.538236 -0.02572,1.070471 -0.07978,1.598118 0.810043,-0.202941 1.482753,-0.278823 2.018567,0.01306 0.600775,0.326823 0.761214,0.966 0.823994,1.889294 0.03052,0.436941 -0.0074,0.924 -0.04316,1.394823 -0.04055,0.518824 -0.106378,1.382471 0.05275,1.584706 0.01221,-0.02612 0.303875,-0.06635 1.028031,-0.516 0.155643,-0.111882 0.349652,-0.262941 0.549329,-0.418235 0.876311,-0.680824 1.867719,-1.451647 3.139896,-1.545529 l 0.0061,0 c 1.947939,0 2.190341,0.921882 2.366911,1.594588 0.0981,0.37447 0.190958,0.728117 0.531019,1.005176 0.999692,0.741883 2.012027,0.164824 3.926832,-1.231764 1.360243,-0.99353 2.775856,-2.018471 4.296539,-1.74953 0.861924,0.139765 1.495396,0.766941 2.10707,1.371883 0.421588,0.416823 0.855384,0.846705 1.285692,1.022117 0.877619,0.233647 2.166799,0.233647 3.125073,-0.02718 0.328725,-0.09318 0.684918,0.05365 0.794347,0.321882 0.110302,0.267882 -0.06627,0.558706 -0.394558,0.647647 -1.215935,0.334235 -2.789371,0.334235 -4.005743,0 -0.749006,-0.298941 -1.269561,-0.814941 -1.773113,-1.312588 -0.472161,-0.468 -0.96089,-0.950471 -1.394686,-1.021765 -0.924268,-0.171176 -2.080039,0.68753 -3.203984,1.510235 -1.631421,1.190824 -3.660887,2.674589 -5.630625,1.208824 -0.622573,-0.506824 -0.772113,-1.074706 -0.890698,-1.530706 -0.163055,-0.620117 -0.207524,-0.786706 -1.089939,-0.786706 -0.779088,0.05965 -1.603082,0.69953 -2.331161,1.264588 -0.211884,0.165883 -0.418973,0.326118 -0.621266,0.469765 -0.755981,0.471883 -1.68025,0.945177 -2.441899,0.612706 -0.85146,-0.372 -0.774292,-1.375412 -0.684917,-2.538 0.03313,-0.441176 0.06845,-0.897882 0.04316,-1.273765 -0.06278,-0.914823 -0.220604,-1.069764 -0.268125,-1.095176 -0.0885,-0.05082 -0.4181,-0.04482 -1.475777,0.256235 -0.404585,2.297647 -1.348473,4.606235 -2.952427,7.309412 -0.13646,0.234 -0.274664,0.492706 -0.415485,0.757059 -0.707152,1.324941 -1.439155,2.693294 -2.766265,2.789294 -0.04752,0.0035 -0.09417,0.0046 -0.1416917,0.0046"
         id="path287"
         inkscape:connector-curvature="0"
         style="fill:#659b5a;fill-rule:evenodd" />
    </g>
    <g
       id="Icon/UI/checkmark"
       transform="translate(47,0)"
       style="fill:#659b5a">
      <g
         id="checkmark"
         style="">
        <polygon
           id="polygon291"
           points="22.425,2.6444444 19.741667,0 7.8583333,11.522222 2.6833333,6.4222222 0,9.2555556 7.8583333,17 "
           style="" />
      </g>
    </g>
  </g>
  <g
     style="fill:none;fill-rule:evenodd;stroke:none;stroke-width:1"
     id="g293"
     transform="translate(497,365)">
    <g
       id="g295"
       transform="translate(0,14)"
       style="">
      <path
         d="M 0.27248474,22 55.325192,22"
         id="path297"
         inkscape:connector-curvature="0"
         style="stroke:#cee07f;stroke-width:2;stroke-linecap:square;stroke-dasharray:2, 4, 2, 4" />
      <path
         d="m 14.857604,13.603111 c -1.675454,0.641647 -3.394942,1.554706 -4.8681031,2.596235 -1.446131,1.063059 -3.5579967,3.236471 -1.3423688,5.78753 0.7808322,0.954 1.21332,0.999882 1.3288535,0.988235 0.5859514,-0.042 1.2721764,-1.328118 1.7268994,-2.178706 0.146924,-0.273882 0.29036,-0.543882 0.433796,-0.790941 1.403405,-2.363294 2.280588,-4.404706 2.720923,-6.402353 M 9.9454673,23.999699 c -0.7808322,0 -1.5455334,-0.469765 -2.3324693,-1.432588 -2.018567,-2.323412 -1.4587743,-4.929177 1.5455334,-7.135412 1.8088626,-1.279059 3.8823626,-2.33647 5.9113926,-3.025412 0.08807,-0.657882 0.131229,-1.31647 0.131229,-1.986 0,-0.218117 0.0096,-0.513529 0.02093,-0.8668231 C 15.296632,7.2988756 15.492821,1.3108756 12.861272,1.0249933 11.417321,0.8742874 8.2874522,3.9392286 7.1155498,5.5793462 3.4067056,10.419229 1.7726691,14.39617 2.3834709,17.093346 2.4458154,17.371464 2.220416,17.638287 1.8794831,17.69017 1.5302667,17.73217 1.2120045,17.55817 1.1479161,17.279346 0.47128198,14.283935 2.1183977,10.168993 6.041306,5.0502874 c 0.028338,-0.039882 4.10471,-5.30435294 6.976481,-5.04070588 3.76029,0.40835294 3.556689,6.59752938 3.458594,9.57176468 -0.0109,0.342 -0.02093,0.6285878 -0.02093,0.8392938 0,0.538236 -0.02572,1.070471 -0.07978,1.598118 0.810043,-0.202941 1.482753,-0.278823 2.018567,0.01306 0.600775,0.326823 0.761214,0.966 0.823994,1.889294 0.03052,0.436941 -0.0074,0.924 -0.04316,1.394823 -0.04055,0.518824 -0.106378,1.382471 0.05275,1.584706 0.01221,-0.02612 0.303875,-0.06635 1.028031,-0.516 0.155643,-0.111882 0.349652,-0.262941 0.549329,-0.418235 0.876311,-0.680824 1.867719,-1.451647 3.139896,-1.545529 l 0.0061,0 c 1.947939,0 2.190341,0.921882 2.366911,1.594588 0.0981,0.37447 0.190958,0.728117 0.531019,1.005176 0.999692,0.741883 2.012027,0.164824 3.926832,-1.231764 1.360243,-0.99353 2.775856,-2.018471 4.296539,-1.74953 0.861924,0.139765 1.495396,0.766941 2.10707,1.371883 0.421588,0.416823 0.855384,0.846705 1.285692,1.022117 0.877619,0.233647 2.166799,0.233647 3.125073,-0.02718 0.328725,-0.09318 0.684918,0.05365 0.794347,0.321882 0.110302,0.267882 -0.06627,0.558706 -0.394558,0.647647 -1.215935,0.334235 -2.789371,0.334235 -4.005743,0 -0.749006,-0.298941 -1.269561,-0.814941 -1.773113,-1.312588 -0.472161,-0.468 -0.96089,-0.950471 -1.394686,-1.021765 -0.924268,-0.171176 -2.080039,0.68753 -3.203984,1.510235 -1.631421,1.190824 -3.660887,2.674589 -5.630625,1.208824 -0.622573,-0.506824 -0.772113,-1.074706 -0.890698,-1.530706 -0.163055,-0.620117 -0.207524,-0.786706 -1.089939,-0.786706 -0.779088,0.05965 -1.603082,0.69953 -2.331161,1.264588 -0.211884,0.165883 -0.418973,0.326118 -0.621266,0.469765 -0.755981,0.471883 -1.68025,0.945177 -2.441899,0.612706 -0.85146,-0.372 -0.774292,-1.375412 -0.684917,-2.538 0.03313,-0.441176 0.06845,-0.897882 0.04316,-1.273765 -0.06278,-0.914823 -0.220604,-1.069764 -0.268125,-1.095176 -0.0885,-0.05082 -0.4181,-0.04482 -1.475777,0.256235 -0.404585,2.297647 -1.348473,4.606235 -2.952427,7.309412 -0.13646,0.234 -0.274664,0.492706 -0.415485,0.757059 -0.707152,1.324941 -1.439155,2.693294 -2.766265,2.789294 -0.04752,0.0035 -0.09417,0.0046 -0.1416917,0.0046"
         id="path299"
         inkscape:connector-curvature="0"
         style="fill:#659b5a;fill-rule:evenodd" />
    </g>
    <g
       id="g301"
       transform="translate(47,0)"
       style="fill:#659b5a">
      <g
         id="g303"
         style="">
        <polygon
           id="polygon305"
           points="22.425,2.6444444 19.741667,0 7.8583333,11.522222 2.6833333,6.4222222 0,9.2555556 7.8583333,17 "
           style="" />
      </g>
    </g>
  </g>
  <g
     style="fill:none;fill-rule:evenodd;stroke:none;stroke-width:1"
     id="certificate"
     transform="translate(451,322)">
    <g
       id="Cert-1-Copy"
       style="">
      <path
         d="m 0,0 0,25.384615 21.62069,0 0,-4.214423 C 22.527052,21.994615 23.72131,22.5 25.034483,22.5 c 1.313172,0 2.507431,-0.505385 3.413793,-1.329808 l 0,4.214423 4.551724,0 L 33,0 0,0 Z"
         id="path309"
         inkscape:connector-curvature="0"
         style="fill:#fefefe" />
      <path
         d="m 0,0 0,25.384615 21.62069,0 0,-4.214423 C 22.527052,21.994615 23.72131,22.5 25.034483,22.5 c 1.313172,0 2.507431,-0.505385 3.413793,-1.329808 l 0,4.214423 4.551724,0 L 33,0 0,0 Z"
         id="path311"
         inkscape:connector-curvature="0"
         style="stroke:#659b5a;stroke-width:1.99999988" />
      <path
         d="m 30.241379,17.192308 c 0,2.867884 -2.292362,5.192307 -5.120689,5.192307 C 22.292362,22.384615 20,20.060192 20,17.192308 20,14.324423 22.292362,12 25.12069,12 c 2.828327,0 5.120689,2.324423 5.120689,5.192308"
         id="path313"
         inkscape:connector-curvature="0"
         style="fill:#cee07f" />
      <path
         d="m 30.241379,17.192308 c 0,2.867884 -2.292362,5.192307 -5.120689,5.192307 C 22.292362,22.384615 20,20.060192 20,17.192308 20,14.324423 22.292362,12 25.12069,12 c 2.828327,0 5.120689,2.324423 5.120689,5.192308 z"
         id="Stroke-7"
         inkscape:connector-curvature="0"
         style="stroke:#659b5a;stroke-width:1.5999999;stroke-linecap:round" />
      <path
         d="M 24.413793,22.329808 C 23.100621,22.329808 21.906362,21.824423 21,21 l 0,8.829808 3.413793,-3.461539 3.413793,3.461539 0,-8.829808 c -0.906362,0.824423 -2.100621,1.329808 -3.413793,1.329808"
         id="path316"
         inkscape:connector-curvature="0"
         style="fill:#659b5a" />
      <path
         d="M 24.413793,22.329808 C 23.100621,22.329808 21.906362,21.824423 21,21 l 0,8.829808 3.413793,-3.461539 3.413793,3.461539 0,-8.829808 c -0.906362,0.824423 -2.100621,1.329808 -3.413793,1.329808 z"
         id="Stroke-11"
         inkscape:connector-curvature="0"
         style="stroke:#659b5a;stroke-width:1.5999999;stroke-linecap:round" />
      <path
         d="M 4,4 17.086207,4"
         id="path319"
         inkscape:connector-curvature="0"
         style="stroke:#659b5a;stroke-width:1.5999999;stroke-linecap:round" />
      <path
         d="m 4,8 6.258621,0"
         id="path321"
         inkscape:connector-curvature="0"
         style="stroke:#659b5a;stroke-width:1.5999999;stroke-linecap:round" />
      <path
         d="m 4,12 4.5517241,0"
         id="path323"
         inkscape:connector-curvature="0"
         style="stroke:#659b5a;stroke-width:1.5999999;stroke-linecap:round" />
      <path
         d="m 4,15 11.948276,0"
         id="path325"
         inkscape:connector-curvature="0"
         style="stroke:#659b5a;stroke-width:1.5999999;stroke-linecap:round" />
    </g>
  </g>
  <g
     style="fill:none;fill-rule:evenodd;stroke:none;stroke-width:1"
     id="g327"
     transform="translate(409,319)">
    <g
       id="g329"
       style="">
      <g
         id="g331"
         style="">
        <path
           d="m -2.3597884,3.7964334 0,25.7934146 20.7297944,0 0,-4.282293 c 0.869014,0.8377 2.014063,1.351223 3.273125,1.351223 1.259062,0 2.40411,-0.513523 3.273125,-1.351223 l 0,4.282293 4.364167,0 0,-25.7934146 -31.6402114,0 z"
           id="path333"
           transform="matrix(0,1,-1,0,30.153458,3.232824)"
           inkscape:connector-curvature="0"
           style="fill:#fefefe" />
        <polygon
           id="polygon335"
           transform="matrix(0,1,-1,0,30.153458,3.232824)"
           points="-2.3597884,3.7964334 -2.3597884,29.589848 29.280423,29.589848 29.280423,3.7964334 "
           style="stroke:#659b5a;stroke-width:1.99999988" />
        <g
           id="g337"
           transform="matrix(0,-1,1,0,4.322312,16.956111)"
           style="stroke:#659b5a;stroke-width:1.5999999;stroke-linecap:round">
          <path
             d="m 5.0381449,6.5489438 12.5469801,0"
             transform="matrix(0,1,-1,0,18.181601,-4.441669)"
             id="path339"
             inkscape:connector-curvature="0"
             style="" />
          <path
             d="m 4.7927147,3.0951905 6.0007303,0"
             id="path341"
             transform="matrix(0,1,-1,0,11.209292,-4.376868)"
             inkscape:connector-curvature="0"
             style="" />
          <path
             d="m 2.092496,2.2317522 4.3641672,0"
             id="path343"
             transform="matrix(0,1,-1,0,6.827354,-1.721806)"
             inkscape:connector-curvature="0"
             style="" />
          <path
             d="m -4.9718897,5.9733183 11.4559386,0"
             id="path345"
             transform="matrix(0,1,-1,0,7.05042,5.53826)"
             inkscape:connector-curvature="0"
             style="" />
        </g>
        <text
           id="text347"
           font-size="12"
           font-weight="400"
           style="font-weight:400;font-size:12px;font-family:HelveticaNeue-Medium, 'Helvetica Neue';fill:#659b5a">
          <tspan
             x="4"
             y="28"
             id="tspan349"
             style="">tx</tspan>
        </text>
      </g>
    </g>
  </g>
  <g
     style="fill:none;fill-rule:evenodd;stroke:none;stroke-width:1"
     id="g351"
     transform="translate(451,368)">
    <g
       id="g353"
       style="">
      <path
         d="m 0,0 0,25.384615 21.62069,0 0,-4.214423 C 22.527052,21.994615 23.72131,22.5 25.034483,22.5 c 1.313172,0 2.507431,-0.505385 3.413793,-1.329808 l 0,4.214423 4.551724,0 L 33,0 0,0 Z"
         id="path355"
         inkscape:connector-curvature="0"
         style="fill:#fefefe" />
      <path
         d="m 0,0 0,25.384615 21.62069,0 0,-4.214423 C 22.527052,21.994615 23.72131,22.5 25.034483,22.5 c 1.313172,0 2.507431,-0.505385 3.413793,-1.329808 l 0,4.214423 4.551724,0 L 33,0 0,0 Z"
         id="path357"
         inkscape:connector-curvature="0"
         style="stroke:#659b5a;stroke-width:1.99999988" />
      <path
         d="m 30.241379,17.192308 c 0,2.867884 -2.292362,5.192307 -5.120689,5.192307 C 22.292362,22.384615 20,20.060192 20,17.192308 20,14.324423 22.292362,12 25.12069,12 c 2.828327,0 5.120689,2.324423 5.120689,5.192308"
         id="path359"
         inkscape:connector-curvature="0"
         style="fill:#cee07f" />
      <path
         d="m 30.241379,17.192308 c 0,2.867884 -2.292362,5.192307 -5.120689,5.192307 C 22.292362,22.384615 20,20.060192 20,17.192308 20,14.324423 22.292362,12 25.12069,12 c 2.828327,0 5.120689,2.324423 5.120689,5.192308 z"
         id="path361"
         inkscape:connector-curvature="0"
         style="stroke:#659b5a;stroke-width:1.5999999;stroke-linecap:round" />
      <path
         d="M 24.413793,22.329808 C 23.100621,22.329808 21.906362,21.824423 21,21 l 0,8.829808 3.413793,-3.461539 3.413793,3.461539 0,-8.829808 c -0.906362,0.824423 -2.100621,1.329808 -3.413793,1.329808"
         id="path363"
         inkscape:connector-curvature="0"
         style="fill:#659b5a" />
      <path
         d="M 24.413793,22.329808 C 23.100621,22.329808 21.906362,21.824423 21,21 l 0,8.829808 3.413793,-3.461539 3.413793,3.461539 0,-8.829808 c -0.906362,0.824423 -2.100621,1.329808 -3.413793,1.329808 z"
         id="path365"
         inkscape:connector-curvature="0"
         style="stroke:#659b5a;stroke-width:1.5999999;stroke-linecap:round" />
      <path
         d="M 4,4 17.086207,4"
         id="path367"
         inkscape:connector-curvature="0"
         style="stroke:#659b5a;stroke-width:1.5999999;stroke-linecap:round" />
      <path
         d="m 4,8 6.258621,0"
         id="path369"
         inkscape:connector-curvature="0"
         style="stroke:#659b5a;stroke-width:1.5999999;stroke-linecap:round" />
      <path
         d="m 4,12 4.5517241,0"
         id="path371"
         inkscape:connector-curvature="0"
         style="stroke:#659b5a;stroke-width:1.5999999;stroke-linecap:round" />
      <path
         d="m 4,15 11.948276,0"
         id="path373"
         inkscape:connector-curvature="0"
         style="stroke:#659b5a;stroke-width:1.5999999;stroke-linecap:round" />
    </g>
  </g>
  <g
     style="fill:none;fill-rule:evenodd;stroke:none;stroke-width:1"
     id="g375"
     transform="translate(409,365)">
    <g
       id="g377"
       style="">
      <g
         id="g379"
         style="">
        <path
           d="m -2.3597884,3.7964334 0,25.7934146 20.7297944,0 0,-4.282293 c 0.869014,0.8377 2.014063,1.351223 3.273125,1.351223 1.259062,0 2.40411,-0.513523 3.273125,-1.351223 l 0,4.282293 4.364167,0 0,-25.7934146 -31.6402114,0 z"
           id="path381"
           transform="matrix(0,1,-1,0,30.153458,3.232824)"
           inkscape:connector-curvature="0"
           style="fill:#fefefe" />
        <polygon
           id="polygon383"
           transform="matrix(0,1,-1,0,30.153458,3.232824)"
           points="-2.3597884,3.7964334 -2.3597884,29.589848 29.280423,29.589848 29.280423,3.7964334 "
           style="stroke:#659b5a;stroke-width:1.99999988" />
        <g
           id="g385"
           transform="matrix(0,-1,1,0,4.322312,16.956111)"
           style="stroke:#659b5a;stroke-width:1.5999999;stroke-linecap:round">
          <path
             d="m 5.0381449,6.5489438 12.5469801,0"
             transform="matrix(0,1,-1,0,18.181601,-4.441669)"
             id="path387"
             inkscape:connector-curvature="0"
             style="" />
          <path
             d="m 4.7927147,3.0951905 6.0007303,0"
             id="path389"
             transform="matrix(0,1,-1,0,11.209292,-4.376868)"
             inkscape:connector-curvature="0"
             style="" />
          <path
             d="m 2.092496,2.2317522 4.3641672,0"
             id="path391"
             transform="matrix(0,1,-1,0,6.827354,-1.721806)"
             inkscape:connector-curvature="0"
             style="" />
          <path
             d="m -4.9718897,5.9733183 11.4559386,0"
             id="path393"
             transform="matrix(0,1,-1,0,7.05042,5.53826)"
             inkscape:connector-curvature="0"
             style="" />
        </g>
        <text
           id="text395"
           font-size="12"
           font-weight="400"
           style="font-weight:400;font-size:12px;font-family:HelveticaNeue-Medium, 'Helvetica Neue';fill:#659b5a">
          <tspan
             x="4"
             y="28"
             id="tspan397"
             style="">tx</tspan>
        </text>
      </g>
    </g>
  </g>
  <g
     id="g399"
     transform="matrix(-1,0,0,1,802,550)"
     style="fill:none;fill-rule:evenodd;stroke:#659b5a;stroke-width:2;stroke-linecap:round">
    <path
       d="m 2e-4,6.2599278 6,6.2599282"
       id="path401"
       inkscape:connector-curvature="0"
       style="" />
    <path
       d="M 2e-4,6.2599278 6.0002,0"
       id="path403"
       inkscape:connector-curvature="0"
       style="" />
    <polyline
       id="polyline405"
       points="0 6.12975523 100.912755 6.12975523 412 6.12975523"
       style="" />
  </g>
  <g
     style="fill:none;fill-rule:evenodd;stroke:none;stroke-width:1"
     id="g407"
     transform="translate(753,495)">
    <g
       id="g409"
       style="">
      <g
         id="g411"
         style="">
        <path
           d="m -2.3597884,3.7964334 0,25.7934146 20.7297944,0 0,-4.282293 c 0.869014,0.8377 2.014063,1.351223 3.273125,1.351223 1.259062,0 2.40411,-0.513523 3.273125,-1.351223 l 0,4.282293 4.364167,0 0,-25.7934146 -31.6402114,0 z"
           id="path413"
           transform="matrix(0,1,-1,0,30.153458,3.232824)"
           inkscape:connector-curvature="0"
           style="fill:#fefefe" />
        <polygon
           id="polygon415"
           transform="matrix(0,1,-1,0,30.153458,3.232824)"
           points="-2.3597884,3.7964334 -2.3597884,29.589848 29.280423,29.589848 29.280423,3.7964334 "
           style="stroke:#659b5a;stroke-width:1.99999988" />
        <g
           id="g417"
           transform="matrix(0,-1,1,0,4.322312,16.956111)"
           style="stroke:#659b5a;stroke-width:1.5999999;stroke-linecap:round">
          <path
             d="m 5.0381449,6.5489438 12.5469801,0"
             transform="matrix(0,1,-1,0,18.181601,-4.441669)"
             id="path419"
             inkscape:connector-curvature="0"
             style="" />
          <path
             d="m 4.7927147,3.0951905 6.0007303,0"
             id="path421"
             transform="matrix(0,1,-1,0,11.209292,-4.376868)"
             inkscape:connector-curvature="0"
             style="" />
          <path
             d="m 2.092496,2.2317522 4.3641672,0"
             id="path423"
             transform="matrix(0,1,-1,0,6.827354,-1.721806)"
             inkscape:connector-curvature="0"
             style="" />
          <path
             d="m -4.9718897,5.9733183 11.4559386,0"
             id="path425"
             transform="matrix(0,1,-1,0,7.05042,5.53826)"
             inkscape:connector-curvature="0"
             style="" />
        </g>
        <text
           id="text427"
           font-size="12"
           font-weight="400"
           style="font-weight:400;font-size:12px;font-family:HelveticaNeue-Medium, 'Helvetica Neue';fill:#659b5a">
          <tspan
             x="4"
             y="28"
             id="tspan429"
             style="">tx</tspan>
        </text>
      </g>
    </g>
  </g>
  <g
     style="fill:none;fill-rule:evenodd;stroke:none;stroke-width:1"
     id="g431"
     transform="translate(819,522)">
    <g
       id="g433"
       transform="translate(0.729971,0.511109)"
       style="">
      <polygon
         id="polygon435"
         points="8.5,19 0,14.741379 0,4.2586207 8.5,8.5172414 "
         style="fill:#fefefe;fill-rule:evenodd" />
      <polygon
         id="polygon437"
         points="8.5,19 0,14.741379 0,4.2586207 8.5,8.5172414 "
         style="stroke:#659b5a;stroke-width:1.53999996;stroke-linecap:round;stroke-linejoin:round" />
      <polygon
         id="polygon439"
         points="8.5,19 17,14.741379 17,4.2586207 8.5,8.5172414 "
         style="fill:#fefefe;fill-rule:evenodd" />
      <polygon
         id="polygon441"
         points="8.5,19 17,14.741379 17,4.2586207 8.5,8.5172414 "
         style="stroke:#659b5a;stroke-width:1.53999996;stroke-linecap:round;stroke-linejoin:round" />
      <polygon
         id="polygon443"
         points="0,4.2586207 8.1730769,0 17,4.2586207 8.5,8.5172414 "
         style="fill:#cee07f;fill-rule:evenodd" />
      <polygon
         id="polygon445"
         points="0,4.2586207 8.1730769,0 17,4.2586207 8.5,8.5172414 "
         style="stroke:#659b5a;stroke-width:1.53999996;stroke-linecap:round;stroke-linejoin:round" />
    </g>
    <g
       id="g447"
       transform="translate(22.00129,0.511109)"
       style="">
      <polygon
         id="polygon449"
         points="8.5,19 0,14.741379 0,4.2586207 8.5,8.5172414 "
         style="fill:#fefefe;fill-rule:evenodd" />
      <polygon
         id="polygon451"
         points="8.5,19 0,14.741379 0,4.2586207 8.5,8.5172414 "
         style="stroke:#659b5a;stroke-width:1.53999996;stroke-linecap:round;stroke-linejoin:round" />
      <polygon
         id="polygon453"
         points="8.5,19 17,14.741379 17,4.2586207 8.5,8.5172414 "
         style="fill:#fefefe;fill-rule:evenodd" />
      <polygon
         id="polygon455"
         points="8.5,19 17,14.741379 17,4.2586207 8.5,8.5172414 "
         style="stroke:#659b5a;stroke-width:1.53999996;stroke-linecap:round;stroke-linejoin:round" />
      <polygon
         id="polygon457"
         points="0,4.2586207 8.1730769,0 17,4.2586207 8.5,8.5172414 "
         style="fill:#cee07f;fill-rule:evenodd" />
      <polygon
         id="polygon459"
         points="0,4.2586207 8.1730769,0 17,4.2586207 8.5,8.5172414 "
         style="stroke:#659b5a;stroke-width:1.53999996;stroke-linecap:round;stroke-linejoin:round" />
    </g>
    <g
       id="g461"
       transform="translate(43.981654,0.511109)"
       style="">
      <polygon
         id="polygon463"
         points="8.5,19 0,14.741379 0,4.2586207 8.5,8.5172414 "
         style="fill:#fefefe;fill-rule:evenodd" />
      <polygon
         id="polygon465"
         points="8.5,19 0,14.741379 0,4.2586207 8.5,8.5172414 "
         style="stroke:#659b5a;stroke-width:1.53999996;stroke-linecap:round;stroke-linejoin:round" />
      <polygon
         id="polygon467"
         points="8.5,19 17,14.741379 17,4.2586207 8.5,8.5172414 "
         style="fill:#fefefe;fill-rule:evenodd" />
      <polygon
         id="polygon469"
         points="8.5,19 17,14.741379 17,4.2586207 8.5,8.5172414 "
         style="stroke:#659b5a;stroke-width:1.53999996;stroke-linecap:round;stroke-linejoin:round" />
      <polygon
         id="polygon471"
         points="0,4.2586207 8.1730769,0 17,4.2586207 8.5,8.5172414 "
         style="fill:#cee07f;fill-rule:evenodd" />
      <polygon
         id="polygon473"
         points="0,4.2586207 8.1730769,0 17,4.2586207 8.5,8.5172414 "
         style="stroke:#659b5a;stroke-width:1.53999996;stroke-linecap:round;stroke-linejoin:round" />
    </g>
    <g
       id="g475"
       transform="translate(65.252974,0.511109)"
       style="">
      <polygon
         id="polygon477"
         points="8.5,19 0,14.741379 0,4.2586207 8.5,8.5172414 "
         style="fill:#fefefe;fill-rule:evenodd" />
      <polygon
         id="polygon479"
         points="8.5,19 0,14.741379 0,4.2586207 8.5,8.5172414 "
         style="stroke:#659b5a;stroke-width:1.53999996;stroke-linecap:round;stroke-linejoin:round" />
      <polygon
         id="polygon481"
         points="8.5,19 17,14.741379 17,4.2586207 8.5,8.5172414 "
         style="fill:#fefefe;fill-rule:evenodd" />
      <polygon
         id="polygon483"
         points="8.5,19 17,14.741379 17,4.2586207 8.5,8.5172414 "
         style="stroke:#659b5a;stroke-width:1.53999996;stroke-linecap:round;stroke-linejoin:round" />
      <polygon
         id="polygon485"
         points="0,4.2586207 8.1730769,0 17,4.2586207 8.5,8.5172414 "
         style="fill:#cee07f;fill-rule:evenodd" />
      <polygon
         id="polygon487"
         points="0,4.2586207 8.1730769,0 17,4.2586207 8.5,8.5172414 "
         style="stroke:#659b5a;stroke-width:1.53999996;stroke-linecap:round;stroke-linejoin:round" />
    </g>
  </g>
  <g
     style="fill:none;fill-rule:evenodd;stroke:none;stroke-width:1"
     id="g489"
     transform="translate(831,550)">
    <g
       id="g491"
       transform="translate(0.729971,0.511109)"
       style="">
      <polygon
         id="polygon493"
         points="8.5,19 0,14.741379 0,4.2586207 8.5,8.5172414 "
         style="fill:#fefefe;fill-rule:evenodd" />
      <polygon
         id="polygon495"
         points="8.5,19 0,14.741379 0,4.2586207 8.5,8.5172414 "
         style="stroke:#659b5a;stroke-width:1.53999996;stroke-linecap:round;stroke-linejoin:round" />
      <polygon
         id="polygon497"
         points="8.5,19 17,14.741379 17,4.2586207 8.5,8.5172414 "
         style="fill:#fefefe;fill-rule:evenodd" />
      <polygon
         id="polygon499"
         points="8.5,19 17,14.741379 17,4.2586207 8.5,8.5172414 "
         style="stroke:#659b5a;stroke-width:1.53999996;stroke-linecap:round;stroke-linejoin:round" />
      <polygon
         id="polygon501"
         points="0,4.2586207 8.1730769,0 17,4.2586207 8.5,8.5172414 "
         style="fill:#cee07f;fill-rule:evenodd" />
      <polygon
         id="polygon503"
         points="0,4.2586207 8.1730769,0 17,4.2586207 8.5,8.5172414 "
         style="stroke:#659b5a;stroke-width:1.53999996;stroke-linecap:round;stroke-linejoin:round" />
    </g>
    <g
       id="g505"
       transform="translate(22.00129,0.511109)"
       style="">
      <polygon
         id="polygon507"
         points="8.5,19 0,14.741379 0,4.2586207 8.5,8.5172414 "
         style="fill:#fefefe;fill-rule:evenodd" />
      <polygon
         id="polygon509"
         points="8.5,19 0,14.741379 0,4.2586207 8.5,8.5172414 "
         style="stroke:#659b5a;stroke-width:1.53999996;stroke-linecap:round;stroke-linejoin:round" />
      <polygon
         id="polygon511"
         points="8.5,19 17,14.741379 17,4.2586207 8.5,8.5172414 "
         style="fill:#fefefe;fill-rule:evenodd" />
      <polygon
         id="polygon513"
         points="8.5,19 17,14.741379 17,4.2586207 8.5,8.5172414 "
         style="stroke:#659b5a;stroke-width:1.53999996;stroke-linecap:round;stroke-linejoin:round" />
      <polygon
         id="polygon515"
         points="0,4.2586207 8.1730769,0 17,4.2586207 8.5,8.5172414 "
         style="fill:#cee07f;fill-rule:evenodd" />
      <polygon
         id="polygon517"
         points="0,4.2586207 8.1730769,0 17,4.2586207 8.5,8.5172414 "
         style="stroke:#659b5a;stroke-width:1.53999996;stroke-linecap:round;stroke-linejoin:round" />
    </g>
    <g
       id="g519"
       transform="translate(43.981654,0.511109)"
       style="">
      <polygon
         id="polygon521"
         points="8.5,19 0,14.741379 0,4.2586207 8.5,8.5172414 "
         style="fill:#fefefe;fill-rule:evenodd" />
      <polygon
         id="polygon523"
         points="8.5,19 0,14.741379 0,4.2586207 8.5,8.5172414 "
         style="stroke:#659b5a;stroke-width:1.53999996;stroke-linecap:round;stroke-linejoin:round" />
      <polygon
         id="polygon525"
         points="8.5,19 17,14.741379 17,4.2586207 8.5,8.5172414 "
         style="fill:#fefefe;fill-rule:evenodd" />
      <polygon
         id="polygon527"
         points="8.5,19 17,14.741379 17,4.2586207 8.5,8.5172414 "
         style="stroke:#659b5a;stroke-width:1.53999996;stroke-linecap:round;stroke-linejoin:round" />
      <polygon
         id="polygon529"
         points="0,4.2586207 8.1730769,0 17,4.2586207 8.5,8.5172414 "
         style="fill:#cee07f;fill-rule:evenodd" />
      <polygon
         id="polygon531"
         points="0,4.2586207 8.1730769,0 17,4.2586207 8.5,8.5172414 "
         style="stroke:#659b5a;stroke-width:1.53999996;stroke-linecap:round;stroke-linejoin:round" />
    </g>
    <g
       id="g533"
       transform="translate(65.252974,0.511109)"
       style="">
      <polygon
         id="polygon535"
         points="8.5,19 0,14.741379 0,4.2586207 8.5,8.5172414 "
         style="fill:#fefefe;fill-rule:evenodd" />
      <polygon
         id="polygon537"
         points="8.5,19 0,14.741379 0,4.2586207 8.5,8.5172414 "
         style="stroke:#659b5a;stroke-width:1.53999996;stroke-linecap:round;stroke-linejoin:round" />
      <polygon
         id="polygon539"
         points="8.5,19 17,14.741379 17,4.2586207 8.5,8.5172414 "
         style="fill:#fefefe;fill-rule:evenodd" />
      <polygon
         id="polygon541"
         points="8.5,19 17,14.741379 17,4.2586207 8.5,8.5172414 "
         style="stroke:#659b5a;stroke-width:1.53999996;stroke-linecap:round;stroke-linejoin:round" />
      <polygon
         id="polygon543"
         points="0,4.2586207 8.1730769,0 17,4.2586207 8.5,8.5172414 "
         style="fill:#cee07f;fill-rule:evenodd" />
      <polygon
         id="polygon545"
         points="0,4.2586207 8.1730769,0 17,4.2586207 8.5,8.5172414 "
         style="stroke:#659b5a;stroke-width:1.53999996;stroke-linecap:round;stroke-linejoin:round" />
    </g>
  </g>
  <g
     style="fill:none;fill-rule:evenodd;stroke:none;stroke-width:1"
     id="Group-3-Copy"
     transform="translate(820,577)">
    <g
       id="g548"
       transform="translate(0.729971,0.344704)"
       style="">
      <polygon
         id="polygon550"
         points="8.5,19 0,14.741379 0,4.2586207 8.5,8.5172414 "
         style="fill:#fefefe;fill-rule:evenodd" />
      <polygon
         id="polygon552"
         points="8.5,19 0,14.741379 0,4.2586207 8.5,8.5172414 "
         style="stroke:#659b5a;stroke-width:1.53999996;stroke-linecap:round;stroke-linejoin:round" />
      <polygon
         id="polygon554"
         points="8.5,19 17,14.741379 17,4.2586207 8.5,8.5172414 "
         style="fill:#fefefe;fill-rule:evenodd" />
      <polygon
         id="polygon556"
         points="8.5,19 17,14.741379 17,4.2586207 8.5,8.5172414 "
         style="stroke:#659b5a;stroke-width:1.53999996;stroke-linecap:round;stroke-linejoin:round" />
      <polygon
         id="polygon558"
         points="0,4.2586207 8.1730769,0 17,4.2586207 8.5,8.5172414 "
         style="fill:#cee07f;fill-rule:evenodd" />
      <polygon
         id="polygon560"
         points="0,4.2586207 8.1730769,0 17,4.2586207 8.5,8.5172414 "
         style="stroke:#659b5a;stroke-width:1.53999996;stroke-linecap:round;stroke-linejoin:round" />
    </g>
    <g
       id="g562"
       transform="translate(22.00129,0.344704)"
       style="">
      <polygon
         id="polygon564"
         points="8.5,19 0,14.741379 0,4.2586207 8.5,8.5172414 "
         style="fill:#fefefe;fill-rule:evenodd" />
      <polygon
         id="polygon566"
         points="8.5,19 0,14.741379 0,4.2586207 8.5,8.5172414 "
         style="stroke:#659b5a;stroke-width:1.53999996;stroke-linecap:round;stroke-linejoin:round" />
      <polygon
         id="polygon568"
         points="8.5,19 17,14.741379 17,4.2586207 8.5,8.5172414 "
         style="fill:#fefefe;fill-rule:evenodd" />
      <polygon
         id="polygon570"
         points="8.5,19 17,14.741379 17,4.2586207 8.5,8.5172414 "
         style="stroke:#659b5a;stroke-width:1.53999996;stroke-linecap:round;stroke-linejoin:round" />
      <polygon
         id="polygon572"
         points="0,4.2586207 8.1730769,0 17,4.2586207 8.5,8.5172414 "
         style="fill:#cee07f;fill-rule:evenodd" />
      <polygon
         id="polygon574"
         points="0,4.2586207 8.1730769,0 17,4.2586207 8.5,8.5172414 "
         style="stroke:#659b5a;stroke-width:1.53999996;stroke-linecap:round;stroke-linejoin:round" />
    </g>
    <g
       id="g576"
       transform="translate(43.981654,0.344704)"
       style="">
      <polygon
         id="polygon578"
         points="8.5,19 0,14.741379 0,4.2586207 8.5,8.5172414 "
         style="fill:#fefefe;fill-rule:evenodd" />
      <polygon
         id="polygon580"
         points="8.5,19 0,14.741379 0,4.2586207 8.5,8.5172414 "
         style="stroke:#659b5a;stroke-width:1.53999996;stroke-linecap:round;stroke-linejoin:round" />
      <polygon
         id="polygon582"
         points="8.5,19 17,14.741379 17,4.2586207 8.5,8.5172414 "
         style="fill:#fefefe;fill-rule:evenodd" />
      <polygon
         id="polygon584"
         points="8.5,19 17,14.741379 17,4.2586207 8.5,8.5172414 "
         style="stroke:#659b5a;stroke-width:1.53999996;stroke-linecap:round;stroke-linejoin:round" />
      <polygon
         id="polygon586"
         points="0,4.2586207 8.1730769,0 17,4.2586207 8.5,8.5172414 "
         style="fill:#cee07f;fill-rule:evenodd" />
      <polygon
         id="polygon588"
         points="0,4.2586207 8.1730769,0 17,4.2586207 8.5,8.5172414 "
         style="stroke:#659b5a;stroke-width:1.53999996;stroke-linecap:round;stroke-linejoin:round" />
    </g>
    <g
       id="g590"
       transform="translate(65.252974,0.344704)"
       style="">
      <polygon
         id="polygon592"
         points="8.5,19 0,14.741379 0,4.2586207 8.5,8.5172414 "
         style="fill:#fefefe;fill-rule:evenodd" />
      <polygon
         id="polygon594"
         points="8.5,19 0,14.741379 0,4.2586207 8.5,8.5172414 "
         style="stroke:#659b5a;stroke-width:1.53999996;stroke-linecap:round;stroke-linejoin:round" />
      <polygon
         id="polygon596"
         points="8.5,19 17,14.741379 17,4.2586207 8.5,8.5172414 "
         style="fill:#fefefe;fill-rule:evenodd" />
      <polygon
         id="polygon598"
         points="8.5,19 17,14.741379 17,4.2586207 8.5,8.5172414 "
         style="stroke:#659b5a;stroke-width:1.53999996;stroke-linecap:round;stroke-linejoin:round" />
      <polygon
         id="polygon600"
         points="0,4.2586207 8.1730769,0 17,4.2586207 8.5,8.5172414 "
         style="fill:#cee07f;fill-rule:evenodd" />
      <polygon
         id="polygon602"
         points="0,4.2586207 8.1730769,0 17,4.2586207 8.5,8.5172414 "
         style="stroke:#659b5a;stroke-width:1.53999996;stroke-linecap:round;stroke-linejoin:round" />
    </g>
  </g>
  <g
     style="fill:none;fill-rule:evenodd;stroke:none;stroke-width:1"
     id="g604"
     transform="translate(543,679)">
    <g
       id="g606"
       transform="translate(0,22)"
       style="">
      <polygon
         id="polygon608"
         points="12,27 0,20.948276 0,6.0517241 12,12.103448 "
         style="fill:#fefefe;fill-rule:evenodd" />
      <polygon
         id="polygon610"
         points="12,27 0,20.948276 0,6.0517241 12,12.103448 "
         style="stroke:#659b5a;stroke-width:1.53999996;stroke-linecap:round;stroke-linejoin:round" />
      <polygon
         id="polygon612"
         points="12,27 24,20.948276 24,6.0517241 12,12.103448 "
         style="fill:#fefefe;fill-rule:evenodd" />
      <polygon
         id="polygon614"
         points="12,27 24,20.948276 24,6.0517241 12,12.103448 "
         style="stroke:#659b5a;stroke-width:1.53999996;stroke-linecap:round;stroke-linejoin:round" />
      <polygon
         id="polygon616"
         points="0,6.0517241 11.538462,0 24,6.0517241 12,12.103448 "
         style="fill:#cee07f;fill-rule:evenodd" />
      <polygon
         id="polygon618"
         points="0,6.0517241 11.538462,0 24,6.0517241 12,12.103448 "
         style="stroke:#659b5a;stroke-width:1.53999996;stroke-linecap:round;stroke-linejoin:round" />
    </g>
    <g
       id="g620"
       transform="translate(16,0)"
       style="fill:#659b5a">
      <g
         id="g622"
         style="">
        <polygon
           id="polygon624"
           points="22.425,2.6444444 19.741667,0 7.8583333,11.522222 2.6833333,6.4222222 0,9.2555556 7.8583333,17 "
           style="" />
      </g>
    </g>
  </g>
  <text
     id="Transaction-Flow"
     font-size="48"
     font-weight="300"
     style="font-weight:normal;font-size:35px;font-family:'MS UI Gothic';fill:#6e5f5f;fill-rule:evenodd;stroke:none;stroke-width:1;-inkscape-font-specification:'MS UI Gothic, Normal';font-style:normal;font-stretch:normal;font-variant:normal;text-anchor:start;text-align:start;writing-mode:lr;line-height:125%;"
     sodipodi:linespacing="125%">
    <tspan
       x="167"
       y="126"
       id="tspan627"
       style="-inkscape-font-specification:'MS UI Gothic, Normal';font-family:'MS UI Gothic';font-weight:normal;font-style:normal;font-stretch:normal;font-variant:normal;font-size:35px;text-anchor:start;text-align:start;writing-mode:lr;line-height:125%;">トランザクション・フロー</tspan>
  </text>
  <g
     style="fill:none;fill-rule:evenodd;stroke:none;stroke-width:1"
     id="Group-5"
     transform="translate(153,269)">
    <text
       id="1"
       font-size="14"
       font-weight="300"
       style="font-weight:300;font-size:14px;font-family:HelveticaNeue-Light, 'Helvetica Neue';fill:#6e5f5f">
      <tspan
         x="7"
         y="16"
         id="tspan631"
         style="">1</tspan>
    </text>
    <path
       d="M 11.5,23 C 17.851275,23 23,17.851275 23,11.5 23,5.1487254 17.851275,0 11.5,0 5.1487254,0 0,5.1487254 0,11.5 0,17.851275 5.1487254,23 11.5,23 Z"
       id="Oval"
       inkscape:connector-curvature="0"
       style="stroke:#6e5f5f" />
  </g>
  <g
     style="fill:none;fill-rule:evenodd;stroke:none;stroke-width:1"
     id="g634"
     transform="translate(341,545)">
    <text
       id="3"
       font-size="14"
       font-weight="300"
       style="font-weight:300;font-size:14px;font-family:HelveticaNeue-Light, 'Helvetica Neue';fill:#6e5f5f">
      <tspan
         x="7"
         y="16"
         id="tspan637"
         style="">3</tspan>
    </text>
    <circle
       id="circle639"
       cx="11.5"
       cy="11.5"
       r="11.5"
       style="stroke:#6e5f5f" />
  </g>
  <g
     style="fill:none;fill-rule:evenodd;stroke:none;stroke-width:1"
     id="g641"
     transform="translate(508,668)">
    <text
       id="4"
       font-size="14"
       font-weight="300"
       style="font-weight:300;font-size:14px;font-family:HelveticaNeue-Light, 'Helvetica Neue';fill:#6e5f5f">
      <tspan
         x="7"
         y="16"
         id="tspan644"
         style="">4</tspan>
    </text>
    <circle
       id="circle646"
       cx="11.5"
       cy="11.5"
       r="11.5"
       style="stroke:#6e5f5f" />
  </g>
  <rect
     id="Rectangle-2"
     x="27.5"
     y="26.5"
     width="1184"
     height="936"
     style="fill:none;fill-rule:evenodd;stroke:#6e5f5f;stroke-width:1" />
  <g
     style="fill:none;fill-rule:evenodd;stroke:none;stroke-width:1"
     id="Group-6"
     transform="translate(353,322)">
    <g
       id="g650"
       style="stroke:#6e5f5f">
      <circle
         id="circle652"
         cx="11.5"
         cy="11.5"
         r="11.5"
         style="" />
    </g>
    <text
       id="2"
       font-size="14"
       font-weight="300"
       style="font-weight:300;font-size:14px;font-family:HelveticaNeue-Light, 'Helvetica Neue';fill:#6e5f5f">
      <tspan
         x="8"
         y="16"
         id="tspan655"
         style="">2</tspan>
    </text>
  </g>
  <g
     id="g657"
     transform="translate(388,427)"
     style="fill:none;fill-rule:evenodd;stroke:#659b5a;stroke-width:2;stroke-linecap:round">
    <path
       d="M 2.2291667e-4,6.2599278 6.6877229,12.519856"
       id="path659"
       inkscape:connector-curvature="0"
       style="" />
    <path
       d="M 2.2291667e-4,6.2599278 6.6877229,0"
       id="path661"
       inkscape:connector-curvature="0"
       style="" />
    <polyline
       id="polyline663"
       points="0 6.12975523 52.4158487 6.12975523 214 6.12975523"
       style="" />
  </g>
  <g
     style="fill:none;fill-rule:evenodd;stroke:none;stroke-width:1"
     transform="translate(969,75)"
     id="g666">
    <path
       style="fill:#fefefe"
       inkscape:connector-curvature="0"
       transform="matrix(0,1,-1,0,30.153458,3.232824)"
       id="path668"
       d="m -2.3597884,3.7964334 0,25.7934146 20.7297944,0 0,-4.282293 c 0.869014,0.8377 2.014063,1.351223 3.273125,1.351223 1.259062,0 2.40411,-0.513523 3.273125,-1.351223 l 0,4.282293 4.364167,0 0,-25.7934146 -31.6402114,0 z" />
    <polygon
       style="stroke:#659b5a;stroke-width:1.99999988"
       points="29.280423,29.589848 29.280423,3.7964334 -2.3597884,3.7964334 -2.3597884,29.589848 "
       transform="matrix(0,1,-1,0,30.153458,3.232824)"
       id="polygon670" />
    <g
       style="stroke:#659b5a;stroke-width:1.5999999;stroke-linecap:round"
       transform="matrix(0,-1,1,0,4.322312,16.956111)"
       id="g672">
      <path
         inkscape:connector-curvature="0"
         id="path674"
         transform="matrix(0,1,-1,0,18.181601,-4.441669)"
         d="m 5.0381449,6.5489438 12.5469801,0"
         style="" />
      <path
         inkscape:connector-curvature="0"
         transform="matrix(0,1,-1,0,11.209292,-4.376868)"
         id="path676"
         d="m 4.7927147,3.0951905 6.0007303,0"
         style="" />
      <path
         inkscape:connector-curvature="0"
         transform="matrix(0,1,-1,0,6.827354,-1.721806)"
         id="path678"
         d="m 2.092496,2.2317522 4.3641672,0"
         style="" />
      <path
         inkscape:connector-curvature="0"
         transform="matrix(0,1,-1,0,7.05042,5.53826)"
         id="path680"
         d="m -4.9718897,5.9733183 11.4559386,0"
         style="" />
    </g>
    <text
       style="font-weight:400;font-size:12px;font-family:HelveticaNeue-Medium, 'Helvetica Neue';fill:#659b5a"
       font-weight="400"
       font-size="12"
       id="text682">
      <tspan
         id="tspan684"
         y="28"
         x="4"
         style="">tx</tspan>
    </text>
  </g>
  <g
     style="fill:none;fill-rule:evenodd;stroke:none;stroke-width:1"
     transform="translate(969,124)"
     id="g686">
    <g
       id="g688"
       style="">
      <path
         style="fill:#fefefe"
         inkscape:connector-curvature="0"
         id="path690"
         d="m 0,0 0,25.384615 21.62069,0 0,-4.214423 C 22.527052,21.994615 23.72131,22.5 25.034483,22.5 c 1.313172,0 2.507431,-0.505385 3.413793,-1.329808 l 0,4.214423 4.551724,0 L 33,0 0,0 Z" />
      <path
         style="stroke:#659b5a;stroke-width:1.99999988"
         inkscape:connector-curvature="0"
         id="path692"
         d="m 0,0 0,25.384615 21.62069,0 0,-4.214423 C 22.527052,21.994615 23.72131,22.5 25.034483,22.5 c 1.313172,0 2.507431,-0.505385 3.413793,-1.329808 l 0,4.214423 4.551724,0 L 33,0 0,0 Z" />
      <path
         style="fill:#cee07f"
         inkscape:connector-curvature="0"
         id="path694"
         d="m 30.241379,17.192308 c 0,2.867884 -2.292362,5.192307 -5.120689,5.192307 C 22.292362,22.384615 20,20.060192 20,17.192308 20,14.324423 22.292362,12 25.12069,12 c 2.828327,0 5.120689,2.324423 5.120689,5.192308" />
      <path
         style="stroke:#659b5a;stroke-width:1.5999999;stroke-linecap:round"
         inkscape:connector-curvature="0"
         id="path696"
         d="m 30.241379,17.192308 c 0,2.867884 -2.292362,5.192307 -5.120689,5.192307 C 22.292362,22.384615 20,20.060192 20,17.192308 20,14.324423 22.292362,12 25.12069,12 c 2.828327,0 5.120689,2.324423 5.120689,5.192308 z" />
      <path
         style="fill:#659b5a"
         inkscape:connector-curvature="0"
         id="path698"
         d="M 24.413793,22.329808 C 23.100621,22.329808 21.906362,21.824423 21,21 l 0,8.829808 3.413793,-3.461539 3.413793,3.461539 0,-8.829808 c -0.906362,0.824423 -2.100621,1.329808 -3.413793,1.329808" />
      <path
         style="stroke:#659b5a;stroke-width:1.5999999;stroke-linecap:round"
         inkscape:connector-curvature="0"
         id="path700"
         d="M 24.413793,22.329808 C 23.100621,22.329808 21.906362,21.824423 21,21 l 0,8.829808 3.413793,-3.461539 3.413793,3.461539 0,-8.829808 c -0.906362,0.824423 -2.100621,1.329808 -3.413793,1.329808 z" />
      <path
         style="stroke:#659b5a;stroke-width:1.5999999;stroke-linecap:round"
         inkscape:connector-curvature="0"
         id="path702"
         d="M 4,4 17.086207,4" />
      <path
         style="stroke:#659b5a;stroke-width:1.5999999;stroke-linecap:round"
         inkscape:connector-curvature="0"
         id="path704"
         d="m 4,8 6.258621,0" />
      <path
         style="stroke:#659b5a;stroke-width:1.5999999;stroke-linecap:round"
         inkscape:connector-curvature="0"
         id="path706"
         d="m 4,12 4.5517241,0" />
      <path
         style="stroke:#659b5a;stroke-width:1.5999999;stroke-linecap:round"
         inkscape:connector-curvature="0"
         id="path708"
         d="m 4,15 11.948276,0" />
    </g>
  </g>
  <g
     style="fill:none;fill-rule:evenodd;stroke:none;stroke-width:1"
     transform="translate(969,213)"
     id="g710">
    <g
       transform="translate(0.981654,0.511109)"
       id="g712"
       style="">
      <polygon
         style="fill:#fefefe;fill-rule:evenodd"
         points="0,4.2586207 8.5,8.5172414 8.5,19 0,14.741379 "
         id="polygon714" />
      <polygon
         style="stroke:#659b5a;stroke-width:1.53999996;stroke-linecap:round;stroke-linejoin:round"
         points="0,4.2586207 8.5,8.5172414 8.5,19 0,14.741379 "
         id="polygon716" />
      <polygon
         style="fill:#fefefe;fill-rule:evenodd"
         points="17,4.2586207 8.5,8.5172414 8.5,19 17,14.741379 "
         id="polygon718" />
      <polygon
         style="stroke:#659b5a;stroke-width:1.53999996;stroke-linecap:round;stroke-linejoin:round"
         points="17,4.2586207 8.5,8.5172414 8.5,19 17,14.741379 "
         id="polygon720" />
      <polygon
         style="fill:#cee07f;fill-rule:evenodd"
         points="17,4.2586207 8.5,8.5172414 0,4.2586207 8.1730769,0 "
         id="polygon722" />
      <polygon
         style="stroke:#659b5a;stroke-width:1.53999996;stroke-linecap:round;stroke-linejoin:round"
         points="17,4.2586207 8.5,8.5172414 0,4.2586207 8.1730769,0 "
         id="polygon724" />
    </g>
    <g
       transform="translate(22.252974,0.511109)"
       id="g726"
       style="">
      <polygon
         style="fill:#fefefe;fill-rule:evenodd"
         points="0,4.2586207 8.5,8.5172414 8.5,19 0,14.741379 "
         id="polygon728" />
      <polygon
         style="stroke:#659b5a;stroke-width:1.53999996;stroke-linecap:round;stroke-linejoin:round"
         points="0,4.2586207 8.5,8.5172414 8.5,19 0,14.741379 "
         id="polygon730" />
      <polygon
         style="fill:#fefefe;fill-rule:evenodd"
         points="17,4.2586207 8.5,8.5172414 8.5,19 17,14.741379 "
         id="polygon732" />
      <polygon
         style="stroke:#659b5a;stroke-width:1.53999996;stroke-linecap:round;stroke-linejoin:round"
         points="17,4.2586207 8.5,8.5172414 8.5,19 17,14.741379 "
         id="polygon734" />
      <polygon
         style="fill:#cee07f;fill-rule:evenodd"
         points="17,4.2586207 8.5,8.5172414 0,4.2586207 8.1730769,0 "
         id="polygon736" />
      <polygon
         style="stroke:#659b5a;stroke-width:1.53999996;stroke-linecap:round;stroke-linejoin:round"
         points="17,4.2586207 8.5,8.5172414 0,4.2586207 8.1730769,0 "
         id="polygon738" />
    </g>
  </g>
  <text
     style="font-weight:normal;font-size:13.75px;font-family:'MS UI Gothic';fill:#6e5f5f;fill-rule:evenodd;stroke:none;stroke-width:1;-inkscape-font-specification:'MS UI Gothic, Normal';font-style:normal;font-stretch:normal;font-variant:normal;text-anchor:start;text-align:start;writing-mode:lr;line-height:125%;"
     font-weight="normal"
     font-size="12"
     id="Transaction-proposal"
     x="956"
     y="35"
     sodipodi:linespacing="125%">
    <tspan
       id="tspan741"
       y="95"
       x="1024.49"
       style="-inkscape-font-specification:'MS UI Gothic, Normal';font-family:'MS UI Gothic';font-weight:normal;font-style:normal;font-stretch:normal;font-variant:normal;font-size:13.75px;text-anchor:start;text-align:start;writing-mode:lr;line-height:125%;">トランザクション・プロポーザル</tspan>
  </text>
  <text
     style="font-weight:normal;font-size:13.75px;font-family:'MS UI Gothic';fill:#6e5f5f;fill-rule:evenodd;stroke:none;stroke-width:1;-inkscape-font-specification:'MS UI Gothic, Normal';font-style:normal;font-stretch:normal;font-variant:normal;text-anchor:start;text-align:start;writing-mode:lr;line-height:125%;"
     font-weight="normal"
     font-size="12"
     id="Certificate"
     x="956"
     y="35"
     sodipodi:linespacing="125%">
    <tspan
       id="tspan744"
       y="142"
       x="1024.062"
       style="-inkscape-font-specification:'MS UI Gothic, Normal';font-family:'MS UI Gothic';font-weight:normal;font-style:normal;font-stretch:normal;font-variant:normal;font-size:13.75px;text-anchor:start;text-align:start;writing-mode:lr;line-height:125%;">証明書</tspan>
  </text>
  <g
     style="fill:none;fill-rule:evenodd;stroke:none;stroke-width:1"
     transform="translate(965,170)"
     id="g746">
    <path
       style="stroke:#cee07f;stroke-width:2;stroke-linecap:square;stroke-dasharray:2, 4, 2, 4"
       inkscape:connector-curvature="0"
       id="path748"
       d="M 0.27248474,22 55.325192,22" />
    <path
       style="fill:#659b5a;fill-rule:evenodd"
       inkscape:connector-curvature="0"
       id="path750"
       d="m 14.857604,13.603111 c -1.675454,0.641647 -3.394942,1.554706 -4.8681031,2.596235 -1.446131,1.063059 -3.5579967,3.236471 -1.3423688,5.78753 0.7808322,0.954 1.21332,0.999882 1.3288535,0.988235 0.5859514,-0.042 1.2721764,-1.328118 1.7268994,-2.178706 0.146924,-0.273882 0.29036,-0.543882 0.433796,-0.790941 1.403405,-2.363294 2.280588,-4.404706 2.720923,-6.402353 M 9.9454673,23.999699 c -0.7808322,0 -1.5455334,-0.469765 -2.3324693,-1.432588 -2.018567,-2.323412 -1.4587743,-4.929177 1.5455334,-7.135412 1.8088626,-1.279059 3.8823626,-2.33647 5.9113926,-3.025412 0.08807,-0.657882 0.131229,-1.31647 0.131229,-1.986 0,-0.218117 0.0096,-0.513529 0.02093,-0.8668231 C 15.296632,7.2988756 15.492821,1.3108756 12.861272,1.0249933 11.417321,0.8742874 8.2874522,3.9392286 7.1155498,5.5793462 3.4067056,10.419229 1.7726691,14.39617 2.3834709,17.093346 2.4458154,17.371464 2.220416,17.638287 1.8794831,17.69017 1.5302667,17.73217 1.2120045,17.55817 1.1479161,17.279346 0.47128198,14.283935 2.1183977,10.168993 6.041306,5.0502874 c 0.028338,-0.039882 4.10471,-5.30435294 6.976481,-5.04070588 3.76029,0.40835294 3.556689,6.59752938 3.458594,9.57176468 -0.0109,0.342 -0.02093,0.6285878 -0.02093,0.8392938 0,0.538236 -0.02572,1.070471 -0.07978,1.598118 0.810043,-0.202941 1.482753,-0.278823 2.018567,0.01306 0.600775,0.326823 0.761214,0.966 0.823994,1.889294 0.03052,0.436941 -0.0074,0.924 -0.04316,1.394823 -0.04055,0.518824 -0.106378,1.382471 0.05275,1.584706 0.01221,-0.02612 0.303875,-0.06635 1.028031,-0.516 0.155643,-0.111882 0.349652,-0.262941 0.549329,-0.418235 0.876311,-0.680824 1.867719,-1.451647 3.139896,-1.545529 l 0.0061,0 c 1.947939,0 2.190341,0.921882 2.366911,1.594588 0.0981,0.37447 0.190958,0.728117 0.531019,1.005176 0.999692,0.741883 2.012027,0.164824 3.926832,-1.231764 1.360243,-0.99353 2.775856,-2.018471 4.296539,-1.74953 0.861924,0.139765 1.495396,0.766941 2.10707,1.371883 0.421588,0.416823 0.855384,0.846705 1.285692,1.022117 0.877619,0.233647 2.166799,0.233647 3.125073,-0.02718 0.328725,-0.09318 0.684918,0.05365 0.794347,0.321882 0.110302,0.267882 -0.06627,0.558706 -0.394558,0.647647 -1.215935,0.334235 -2.789371,0.334235 -4.005743,0 -0.749006,-0.298941 -1.269561,-0.814941 -1.773113,-1.312588 -0.472161,-0.468 -0.96089,-0.950471 -1.394686,-1.021765 -0.924268,-0.171176 -2.080039,0.68753 -3.203984,1.510235 -1.631421,1.190824 -3.660887,2.674589 -5.630625,1.208824 -0.622573,-0.506824 -0.772113,-1.074706 -0.890698,-1.530706 -0.163055,-0.620117 -0.207524,-0.786706 -1.089939,-0.786706 -0.779088,0.05965 -1.603082,0.69953 -2.331161,1.264588 -0.211884,0.165883 -0.418973,0.326118 -0.621266,0.469765 -0.755981,0.471883 -1.68025,0.945177 -2.441899,0.612706 -0.85146,-0.372 -0.774292,-1.375412 -0.684917,-2.538 0.03313,-0.441176 0.06845,-0.897882 0.04316,-1.273765 -0.06278,-0.914823 -0.220604,-1.069764 -0.268125,-1.095176 -0.0885,-0.05082 -0.4181,-0.04482 -1.475777,0.256235 -0.404585,2.297647 -1.348473,4.606235 -2.952427,7.309412 -0.13646,0.234 -0.274664,0.492706 -0.415485,0.757059 -0.707152,1.324941 -1.439155,2.693294 -2.766265,2.789294 -0.04752,0.0035 -0.09417,0.0046 -0.1416917,0.0046" />
  </g>
  <text
     style="font-weight:normal;font-size:13.75px;font-family:'MS UI Gothic';fill:#6e5f5f;fill-rule:evenodd;stroke:none;stroke-width:1;-inkscape-font-specification:'MS UI Gothic, Normal';font-style:normal;font-stretch:normal;font-variant:normal;text-anchor:start;text-align:start;writing-mode:lr;line-height:125%;"
     font-weight="normal"
     font-size="12"
     id="Signature"
     x="956"
     y="35"
     sodipodi:linespacing="125%">
    <tspan
       id="tspan753"
       y="181"
       x="1024.4399"
       style="-inkscape-font-specification:'MS UI Gothic, Normal';font-family:'MS UI Gothic';font-weight:normal;font-style:normal;font-stretch:normal;font-variant:normal;font-size:13.75px;text-anchor:start;text-align:start;writing-mode:lr;line-height:125%;">署名</tspan>
  </text>
  <text
     style="font-style:normal;font-variant:normal;font-weight:normal;font-stretch:normal;font-size:13.75px;line-height:125%;font-family:'MS UI Gothic';-inkscape-font-specification:'MS UI Gothic, Normal';text-align:start;writing-mode:lr-tb;text-anchor:start;fill:#474a47;fill-rule:evenodd;stroke:none;stroke-width:1"
     font-weight="normal"
     font-size="12"
     id="Ordered-Transactions"
     x="956"
     y="37"
     sodipodi:linespacing="125%">
    <tspan
       id="tspan756"
       y="218"
       x="1024"
       style="font-style:normal;font-variant:normal;font-weight:normal;font-stretch:normal;font-size:13.75px;line-height:125%;font-family:'MS UI Gothic';-inkscape-font-specification:'MS UI Gothic, Normal';text-align:start;writing-mode:lr-tb;text-anchor:start">順序付けられた</tspan>
    <tspan
       id="tspan758"
       y="232"
       x="1024"
       style="font-style:normal;font-variant:normal;font-weight:normal;font-stretch:normal;font-size:13.75px;line-height:125%;font-family:'MS UI Gothic';-inkscape-font-specification:'MS UI Gothic, Normal';text-align:start;writing-mode:lr-tb;text-anchor:start">トランザクション</tspan>
  </text>
  <text
     style="font-weight:normal;font-size:17.5px;font-family:'MS UI Gothic';fill:#6e5f5f;fill-rule:evenodd;stroke:none;stroke-width:1;-inkscape-font-specification:'MS UI Gothic, Normal';font-style:normal;font-stretch:normal;font-variant:normal;text-anchor:start;text-align:start;writing-mode:lr;line-height:125%;"
     font-weight="300"
     font-size="18"
     id="Key"
     x="956"
     y="35"
     sodipodi:linespacing="125%">
    <tspan
       id="tspan761"
       y="52"
       x="1046"
       style="-inkscape-font-specification:'MS UI Gothic, Normal';font-family:'MS UI Gothic';font-weight:normal;font-style:normal;font-stretch:normal;font-variant:normal;font-size:17.5px;text-anchor:start;text-align:start;writing-mode:lr;line-height:125%;">鍵</tspan>
  </text>
  <use
     height="100%"
     width="100%"
     y="0"
     x="0"
     style="fill:none;fill-rule:evenodd;stroke:#979797;stroke-width:2;stroke-dasharray:2, 2, 2"
     xlink:href="#path-3"
     mask="url(#mask-4)"
     id="Rectangle-3"
     transform="translate(956,35)" />
  <text
     y="-22.806175"
     id="Client-A-8"
     font-size="18"
     font-weight="300"
     style="font-style:normal;font-variant:normal;font-weight:normal;font-stretch:normal;font-size:17.5px;line-height:125%;font-family:'MS UI Gothic';-inkscape-font-specification:'MS UI Gothic, Normal';text-align:center;writing-mode:lr-tb;text-anchor:middle;fill:#6e5f5f;fill-rule:evenodd;stroke:none;stroke-width:1"
     x="9.1758575"
     sodipodi:linespacing="125%">
    <tspan
       x="190.50586"
       y="800.19385"
       id="tspan27-2"
       style="font-style:normal;font-variant:normal;font-weight:normal;font-stretch:normal;font-size:17.5px;line-height:125%;font-family:'MS UI Gothic';-inkscape-font-specification:'MS UI Gothic, Normal';text-align:center;writing-mode:lr-tb;text-anchor:middle">クライアント</tspan>
  </text>
</svg>
