<?xml version="1.0" encoding="utf-8"?>
<!-- Generator: Adobe Illustrator 22.0.0, SVG Export Plug-In . SVG Version: 6.00 Build 0)  -->
<svg version="1.1" id="Layer_1" xmlns="http://www.w3.org/2000/svg" xmlns:xlink="http://www.w3.org/1999/xlink" x="0px" y="0px"
	 viewBox="0 0 997 774" style="enable-background:new 0 0 997 774;" xml:space="preserve">
<style type="text/css">
	.st0{fill:#DCDCDC;stroke:#DCDCDC;}
	.st1{fill:#5A6872;}
	.st2{fill:#011688;stroke:#857B7B;}
	.st3{fill:#FFFFFF;}
	.st4{font-family:'IBMPlexSans-Medium';}
	.st5{font-size:19px;}
	.st6{fill:#FFFFFF;stroke:#FFFFFF;}
	.st7{fill:#010F5E;}
	.st8{font-size:16px;}
	.st9{filter:url(#Adobe_OpacityMaskFilter);}
	.st10{mask:url(#mask-2_1_);fill:#0CCAEB;}
	.st11{filter:url(#Adobe_OpacityMaskFilter_1_);}
	.st12{mask:url(#mask-4_1_);fill:#0CCAEB;}
	.st13{font-size:14px;}
	.st14{fill:#FFFFFF;stroke:#979797;}
	.st15{fill:#011688;}
	.st16{filter:url(#Adobe_OpacityMaskFilter_2_);}
	.st17{mask:url(#mask-6_1_);fill:none;stroke:#001588;}
	.st18{fill:#001588;}
	.st19{fill:#C5C5C5;}
	.st20{fill:#767171;}
	.st21{stroke:#FFFFFF;}
</style>
<title>Build your network</title>
<desc>Created with Sketch.</desc>
<rect id="Rectangle" x="62.5" y="113.5" class="st0" width="847" height="548"/>
<g id="UI-Icon_x2F_checkmark--outline_x2F__x24_ui-05" transform="translate(321.000000, 255.000000)">
	<path id="Oval-2" class="st1" d="M8,14.5c3.6,0,6.5-2.9,6.5-6.5S11.6,1.5,8,1.5S1.5,4.4,1.5,8S4.4,14.5,8,14.5z M8,16
		c-4.4,0-8-3.6-8-8s3.6-8,8-8s8,3.6,8,8S12.4,16,8,16z"/>
	<polygon id="check" class="st1" points="11.3,4.7 12.7,6.1 6.8,12 3.3,8.6 4.7,7.2 6.8,9.2 	"/>
</g>
<rect id="Rectangle_1_" x="86.5" y="150.5" class="st2" width="347" height="151"/>
<text transform="matrix(1 0 0 1 105.206 185)" class="st3 st4 st5">Org 1</text>
<rect id="Rectangle_2_" x="369.5" y="138.5" class="st6" width="105" height="35"/>
<text transform="matrix(1 0 0 1 392.176 162)" class="st7 st4 st8">CA de Org1</text>
<rect id="Rectangle_3_" x="311.5" y="206.5" class="st6" width="105" height="55"/>
<text transform="matrix(1 0 0 1 326.368 230)" class="st7 st4 st8">Definición de </text>
<text transform="matrix(1 0 0 1 329.616 250)" class="st7 st4 st8">MSP de Org1</text>
<rect id="Rectangle_4_" x="84.5" y="471.5" class="st2" width="347" height="151"/>
<text transform="matrix(1 0 0 1 103.206 506)" class="st3 st4 st5">Org 2</text>
<rect id="Rectangle_5_" x="103.5" y="529.5" class="st6" width="105" height="61"/>
<text transform="matrix(1 0 0 1 116.124 566)" class="st7 st4 st8">Org2 igual</text>
<rect id="Rectangle_6_" x="367.5" y="459.5" class="st6" width="105" height="35"/>
<text transform="matrix(1 0 0 1 390.176 483)" class="st7 st4 st8">CA de Org2</text>
<rect id="Rectangle_7_" x="311.5" y="530.5" class="st6" width="105" height="55"/>
<text transform="matrix(1 0 0 1 326.368 554)" class="st7 st4 st8">Definición de </text>
<text transform="matrix(1 0 0 1 329.616 574)" class="st7 st4 st8">MSP de Org2</text>
<rect id="Rectangle_8_" x="107.5" y="204.5" class="st6" width="105" height="61"/>
<g id="Group-3" transform="translate(208.000000, 227.000000)">
	<g id="Clip-2">
	</g>
	<defs>
		<filter id="Adobe_OpacityMaskFilter" filterUnits="userSpaceOnUse" x="0.9" y="0" width="51" height="48">
			<feColorMatrix  type="matrix" values="1 0 0 0 0  0 1 0 0 0  0 0 1 0 0  0 0 0 1 0"/>
		</filter>
	</defs>
	<mask maskUnits="userSpaceOnUse" x="0.9" y="0" width="51" height="48" id="mask-2_1_">
		<g class="st9">
			<polygon id="path-1_1_" class="st3" points="0.9,0 51.9,0 51.9,48 0.9,48 			"/>
		</g>
	</mask>
	<path id="Fill-1" class="st10" d="M0.9,0h51v39c-25.5,0-25.5,14.9-51,6.4V0z"/>
</g>
<g id="Group-3-Copy" transform="translate(202.000000, 558.000000)">
	<g id="Clip-2_1_">
	</g>
	<defs>
		<filter id="Adobe_OpacityMaskFilter_1_" filterUnits="userSpaceOnUse" x="0.9" y="0" width="51" height="48">
			<feColorMatrix  type="matrix" values="1 0 0 0 0  0 1 0 0 0  0 0 1 0 0  0 0 0 1 0"/>
		</filter>
	</defs>
	<mask maskUnits="userSpaceOnUse" x="0.9" y="0" width="51" height="48" id="mask-4_1_">
		<g class="st11">
			<polygon id="path-3_1_" class="st3" points="0.9,0 51.9,0 51.9,48 0.9,48 			"/>
		</g>
	</mask>
	<path id="Fill-1_1_" class="st12" d="M0.9,0h51v39c-25.5,0-25.5,14.9-51,6.4V0z"/>
</g>
<text transform="matrix(1 0 0 1 120.124 241)" class="st7 st4 st8">Org1 igual</text>
<text transform="matrix(1 0 0 1 213 251)" class="st3 st4 st13">Libro mayor</text>
<text transform="matrix(1 0 0 1 256.6936 251)" class="st3 st4 st13"> </text>
<text transform="matrix(1 0 0 1 213 266)" class="st3 st4 st13">X</text>
<text transform="matrix(1 0 0 1 207 582)" class="st3 st4 st13">Libro mayor</text>
<text transform="matrix(1 0 0 1 250.6936 582)" class="st3 st4 st13"> </text>
<text transform="matrix(1 0 0 1 207 597)" class="st3 st4 st13">X</text>
<ellipse id="Oval" class="st14" cx="323.5" cy="388.5" rx="194.5" ry="51.5"/>
<text transform="matrix(1 0 0 1 280.7465 400)" class="st7 st4 st5">Canal 1</text>
<rect id="Rectangle_9_" x="497.5" y="307.5" class="st2" width="347" height="151"/>
<text transform="matrix(1 0 0 1 517.447 342)" class="st3 st4 st5">Org de clasificador</text>
<rect id="Rectangle_10_" x="780.5" y="295.5" class="st6" width="105" height="35"/>
<text transform="matrix(1 0 0 1 791.34 319)" class="st7 st4 st8">CA de clasif.</text>
<rect id="Rectangle_11_" x="694.5" y="360.5" class="st6" width="124" height="55"/>
<text transform="matrix(1 0 0 1 711.92 385)" class="st7 st4 st8">Defin. de MSP </text>
<text transform="matrix(1 0 0 1 725.616 405)" class="st7 st4 st8">de clasificador</text>
<rect id="Rectangle_12_" x="526" y="402" class="st15" width="10" height="10"/>
<g id="Group-18" transform="translate(518.000000, 357.000000)">
	<g id="Group-5">
		<polygon id="Fill-1_2_" class="st3" points="1.5,1.5 135.5,1.5 135.5,60.5 1.5,60.5 		"/>
		<g id="Clip-4">
		</g>
		<defs>
			<filter id="Adobe_OpacityMaskFilter_2_" filterUnits="userSpaceOnUse" x="1" y="1" width="135" height="60">
				<feColorMatrix  type="matrix" values="1 0 0 0 0  0 1 0 0 0  0 0 1 0 0  0 0 0 1 0"/>
			</filter>
		</defs>
		<mask maskUnits="userSpaceOnUse" x="1" y="1" width="135" height="60" id="mask-6_1_">
			<g class="st16">
				<polygon id="path-5_1_" class="st3" points="0,62 137,62 137,0 0,0 				"/>
			</g>
		</mask>
		<polygon id="Stroke-3" class="st17" points="1.5,60.5 135.5,60.5 135.5,1.5 1.5,1.5 		"/>
	</g>
	<polygon id="Fill-6" class="st18" points="8,54 46,54 46,37 8,37 	"/>
	<polygon id="Fill-7" class="st18" points="89,54 127,54 127,37 89,37 	"/>
	<polygon id="Fill-8" class="st18" points="49,54 86,54 86,37 49,37 	"/>
	<polygon id="Fill-9" class="st19" points="52,49 59,49 59,41 52,41 	"/>
	<polygon id="Fill-10" class="st19" points="60,49 67,49 67,41 60,41 	"/>
	<polygon id="Fill-11" class="st19" points="68,49 75,49 75,41 68,41 	"/>
	<polygon id="Fill-12" class="st19" points="76,49 83,49 83,41 76,41 	"/>
	<path id="Fill-13" class="st20" d="M56.5,36.2h0.3l-0.5,0.5v-6.9l0.5,0.5h-0.8v-1h1.3v7.9h-0.8V36.2z M44.9,30.3h8v-1h-8V30.3z
		 M33.9,30.3h8v-1h-8V30.3z M30.9,30.3h-5.4l0.5-0.5v1.7h-1v-2.2h5.9V30.3z M28.5,30.5l-3,6l-3-6H28.5z"/>
	<path id="Fill-14" class="st20" d="M112.5,36.2h0.3l-0.5,0.5v-6.9l0.5,0.5h-0.8v-1h1.3v7.9h-0.8V36.2z M100.9,30.3h8v-1h-8V30.3z
		 M89.9,30.3h8v-1h-8V30.3z M86.9,30.3h-5.4l0.5-0.5v1.7h-1v-2.2h5.9V30.3z M84.5,30.5l-3,6l-3-6H84.5z"/>
	<polygon id="Fill-15" class="st19" points="93,49 100,49 100,41 93,41 	"/>
	<polygon id="Fill-16" class="st19" points="101,49 108,49 108,41 101,41 	"/>
	<polygon id="Fill-17" class="st19" points="109,49 116,49 116,41 109,41 	"/>
</g>
<text transform="matrix(1 0 0 1 558.324 379)" class="st7 st4 st8">Clasificador</text>
<g>
	<line class="st21" x1="156" y1="265.5" x2="156" y2="360.5"/>
	<line class="st21" x1="158" y1="415.5" x2="158" y2="526.5"/>
</g>
</svg>
