<?xml version="1.0" encoding="UTF-8" standalone="no"?>
<!-- Generator: Adobe Illustrator 22.0.0, SVG Export Plug-In . SVG Version: 6.00 Build 0)  -->

<svg
   xmlns:dc="http://purl.org/dc/elements/1.1/"
   xmlns:cc="http://creativecommons.org/ns#"
   xmlns:rdf="http://www.w3.org/1999/02/22-rdf-syntax-ns#"
   xmlns:svg="http://www.w3.org/2000/svg"
   xmlns="http://www.w3.org/2000/svg"
   xmlns:sodipodi="http://sodipodi.sourceforge.net/DTD/sodipodi-0.dtd"
   xmlns:inkscape="http://www.inkscape.org/namespaces/inkscape"
   version="1.1"
   id="Layer_1"
   x="0px"
   y="0px"
   viewBox="0 0 997 774"
   style="enable-background:new 0 0 997 774;"
   xml:space="preserve"
   sodipodi:docname="ibp-v2-build-network.svg"
   inkscape:version="0.92.2 (5c3e80d, 2017-08-06)"
   inkscape:export-filename="Y:\Projekte\EXTERN\BM140\AB\D141\Automatische Artwork-Suche\BM140ABD141_S001_CD_DOC_Ship-Artwork-Neu\images\ibp-v2-build-network.png"
   inkscape:export-xdpi="89.550003"
   inkscape:export-ydpi="89.550003"><metadata
     id="metadata130"><rdf:RDF><cc:Work
         rdf:about=""><dc:format>image/svg+xml</dc:format><dc:type
           rdf:resource="http://purl.org/dc/dcmitype/StillImage" /></cc:Work></rdf:RDF></metadata><defs
     id="defs128"><mask
       id="mask-4_1_-0"
       height="59.2"
       width="134.2"
       y="1.4"
       x="1.4"
       maskUnits="userSpaceOnUse"><g
         style="filter:url(#Adobe_OpacityMaskFilter_1_-7)"
         id="g63"
         class="st14"><polygon
           style="fill:#ffffff"
           points="0,62 137,62 137,0 0,0 "
           class="st3"
           id="path-3_1_-2" /></g></mask><filter
       height="59.200001"
       width="134.2"
       y="1.4"
       x="1.4"
       filterUnits="userSpaceOnUse"
       id="Adobe_OpacityMaskFilter_1_-7"><feColorMatrix
         id="feColorMatrix57"
         values="1 0 0 0 0  0 1 0 0 0  0 0 1 0 0  0 0 0 1 0"
         type="matrix" /></filter><mask
       id="mask-2_1_"
       height="48"
       width="51"
       y="0"
       x="0.9"
       maskUnits="userSpaceOnUse"><g
         style="filter:url(#Adobe_OpacityMaskFilter)"
         id="g44"
         class="st11"><polygon
           style="fill:#ffffff"
           points="0.9,0 51.9,0 51.9,48 0.9,48 "
           class="st3"
           id="path-1_1_" /></g></mask><filter
       height="48"
       width="51"
       y="0"
       x="0.89999998"
       filterUnits="userSpaceOnUse"
       id="Adobe_OpacityMaskFilter"><feColorMatrix
         id="feColorMatrix38"
         values="1 0 0 0 0  0 1 0 0 0  0 0 1 0 0  0 0 0 1 0"
         type="matrix" /></filter><filter
       height="48"
       width="51"
       y="0"
       x="0.89999998"
       filterUnits="userSpaceOnUse"
       id="filter4847"><feColorMatrix
         id="feColorMatrix4845"
         values="1 0 0 0 0  0 1 0 0 0  0 0 1 0 0  0 0 0 1 0"
         type="matrix" /></filter><filter
       height="59.200001"
       width="134.2"
       y="1.4"
       x="1.4"
       filterUnits="userSpaceOnUse"
       id="filter4871"><feColorMatrix
         id="feColorMatrix4869"
         values="1 0 0 0 0  0 1 0 0 0  0 0 1 0 0  0 0 0 1 0"
         type="matrix" /></filter></defs><sodipodi:namedview
     pagecolor="#ffffff"
     bordercolor="#666666"
     borderopacity="1"
     objecttolerance="10"
     gridtolerance="10"
     guidetolerance="10"
     inkscape:pageopacity="0"
     inkscape:pageshadow="2"
     inkscape:window-width="2101"
     inkscape:window-height="1364"
     id="namedview126"
     showgrid="false"
     inkscape:zoom="1.2196382"
     inkscape:cx="617.4531"
     inkscape:cy="294.3615"
     inkscape:window-x="1338"
     inkscape:window-y="0"
     inkscape:window-maximized="0"
     inkscape:current-layer="Layer_1" /><style
     type="text/css"
     id="style2">
	.st0{fill:#DCDCDC;stroke:#DCDCDC;}
	.st1{fill:#5A6872;}
	.st2{fill:#011688;stroke:#857B7B;}
	.st3{fill:#FFFFFF;}
	.st4{font-family:'IBMPlexSans-Medium';}
	.st5{font-size:19px;}
	.st6{fill:#FFFFFF;stroke:#FFFFFF;}
	.st7{fill:#010F5E;}
	.st8{font-size:16px;}
	.st9{filter:url(#Adobe_OpacityMaskFilter);}
	.st10{mask:url(#mask-2_1_);fill:#0CCAEB;}
	.st11{filter:url(#Adobe_OpacityMaskFilter_1_);}
	.st12{mask:url(#mask-4_1_);fill:#0CCAEB;}
	.st13{font-size:14px;}
	.st14{fill:#FFFFFF;stroke:#979797;}
	.st15{fill:#011688;}
	.st16{filter:url(#Adobe_OpacityMaskFilter_2_);}
	.st17{mask:url(#mask-6_1_);fill:none;stroke:#001588;}
	.st18{fill:#001588;}
	.st19{fill:#C5C5C5;}
	.st20{fill:#767171;}
	.st21{stroke:#FFFFFF;}
</style><title
     id="title4">Build your network</title><desc
     id="desc6">Created with Sketch.</desc><rect
     id="Rectangle"
     x="62.5"
     y="113.5"
     class="st0"
     width="847"
     height="548" /><rect
     id="Rectangle_4_"
     x="84.587234"
     y="471.58725"
     class="st2"
     width="423.89755"
     height="170.50349"
     style="fill:#011688;stroke:#857b7b;stroke-width:1.17447531" /><text
     transform="matrix(1 0 0 1 103.206 506)"
     class="st3 st4 st5"
     id="text24">Organisation 2</text>
<rect
     id="Rectangle_5_"
     x="103.66197"
     y="529.66199"
     class="st6"
     width="185.02776"
     height="60.676064"
     style="fill:#ffffff;stroke:#ffffff;stroke-width:1.32393777" /><text
     transform="matrix(1 0 0 1 116.124 566)"
     class="st7 st4 st8"
     id="text27">Peer - Organisation 2</text>
<g
     id="g5102"
     transform="translate(112,6)"><rect
       style="fill:#ffffff;stroke:#ffffff;stroke-width:1.69683385"
       height="34.303165"
       width="308.46207"
       class="st6"
       y="459.84842"
       x="301.21896"
       id="Rectangle_6_" /><text
       style="font-size:16px;font-family:IBMPlexSans-Medium;fill:#010f5e"
       y="483"
       x="308.91095"
       id="text30"
       class="st7 st4 st8">Organisation 2 - Zertifizierungsstelle</text>
</g><rect
     id="Rectangle_7_"
     x="319.65744"
     y="530.65741"
     class="st6"
     width="182.57709"
     height="54.685135"
     style="fill:#ffffff;stroke:#ffffff;stroke-width:1.3148669" /><text
     class="st7 st4 st8"
     id="text33"
     transform="matrix(1 0 0 1 326.368 554)">Organisation 2 - MSP</text>
<text
     class="st7 st4 st8"
     id="text35"
     x="325.616"
     y="574"
     style="font-size:16px;font-family:IBMPlexSans-Medium;fill:#010f5e">Definition</text>
<text
     transform="matrix(1 0 0 1 256.6936 251)"
     class="st3 st4 st13"
     id="text66" />
<text
     transform="matrix(1 0 0 1 250.6936 582)"
     class="st3 st4 st13"
     id="text72" />
<g
     id="g5098"
     transform="translate(2,6)"><g
       transform="matrix(1.0643071,0,0,1,251.94212,566)"
       id="Group-3-Copy"><g
         id="Clip-2_1_" /><defs
         id="defs54"><filter
           height="48"
           width="51"
           y="0"
           x="0.89999998"
           filterUnits="userSpaceOnUse"
           id="Adobe_OpacityMaskFilter_1_"><feColorMatrix
             id="feColorMatrix51"
             values="1 0 0 0 0  0 1 0 0 0  0 0 1 0 0  0 0 0 1 0"
             type="matrix" /></filter></defs><mask
         id="mask-4_1_"
         height="48"
         width="51"
         y="0"
         x="0.9"
         maskUnits="userSpaceOnUse"><g
           style="filter:url(#Adobe_OpacityMaskFilter_1_)"
           id="g57"
           class="st11"><polygon
             style="fill:#ffffff"
             points="51.9,48 0.9,48 0.9,0 51.9,0 "
             class="st3"
             id="path-3_1_" /></g></mask><path
         style="fill:#0ccaeb"
         inkscape:connector-curvature="0"
         mask="url(#mask-4_1_)"
         d="m 0.9,0 h 51 v 39 c -25.5,0 -25.5,14.9 -51,6.4 z"
         class="st12"
         id="Fill-1_1_" /></g><text
       style="font-size:14px;font-family:IBMPlexSans-Medium;fill:#ffffff"
       y="590"
       x="257"
       id="text70"
       class="st3 st4 st13">Ledger</text>
<text
       style="font-size:14px;font-family:IBMPlexSans-Medium;fill:#ffffff"
       y="605"
       x="257"
       id="text74"
       class="st3 st4 st13">X</text>
</g><g
     id="g123"><line
       class="st21"
       x1="156"
       y1="265.5"
       x2="156"
       y2="360.5"
       id="line119"
       style="stroke:#ffffff" /><line
       class="st21"
       x1="158"
       y1="415.5"
       x2="158"
       y2="526.5"
       id="line121"
       style="stroke:#ffffff" /></g><g
     id="UI-Icon_x2F_checkmark--outline_x2F__x24_ui-05"
     transform="translate(318.9541,234.69864)"><path
       id="Oval-2"
       class="st1"
       d="m 8,14.5 c 3.6,0 6.5,-2.9 6.5,-6.5 C 14.5,4.4 11.6,1.5 8,1.5 4.4,1.5 1.5,4.4 1.5,8 c 0,3.6 2.9,6.5 6.5,6.5 z M 8,16 C 3.6,16 0,12.4 0,8 0,3.6 3.6,0 8,0 c 4.4,0 8,3.6 8,8 0,4.4 -3.6,8 -8,8 z"
       inkscape:connector-curvature="0"
       style="fill:#5a6872" /><polygon
       id="check"
       class="st1"
       points="6.8,12 3.3,8.6 4.7,7.2 6.8,9.2 11.3,4.7 12.7,6.1 "
       style="fill:#5a6872" /></g><rect
     id="Rectangle_1_"
     x="84.469154"
     y="130.21368"
     class="st2"
     width="435.67435"
     height="150.96989"
     style="fill:#011688;stroke:#857b7b;stroke-width:0.2800999" /><text
     y="164.69864"
     x="103.16007"
     class="st3 st4 st5"
     id="text9"
     style="font-size:19px;font-family:IBMPlexSans-Medium;fill:#ffffff">Organisation 1</text>
<rect
     id="Rectangle_2_"
     x="368.92075"
     y="118.28848"
     class="st6"
     width="311.79733"
     height="34.820301"
     style="fill:#ffffff;stroke:#ffffff;stroke-width:0.42969847" /><text
     class="st7 st4 st8"
     id="text12"
     x="378.28036"
     y="141.69864"
     style="font-size:16px;font-family:IBMPlexSans-Medium;fill:#010f5e">Organisation 1 - Zertifizierungsstelle</text>
<rect
     id="Rectangle_3_"
     x="323.49539"
     y="186.2399"
     class="st6"
     width="186.0849"
     height="54.917435"
     style="fill:#ffffff;stroke:#ffffff;stroke-width:0.33256361" /><text
     class="st7 st4 st8"
     id="text15"
     x="332.51047"
     y="209.69864"
     style="font-size:16px;font-family:IBMPlexSans-Medium;fill:#010f5e">Organisation 1 - MSP</text>
<text
     class="st7 st4 st8"
     id="text17"
     x="331.83859"
     y="229.69864"
     style="font-size:16px;font-family:IBMPlexSans-Medium;fill:#010f5e">Definition</text>
<rect
     id="Rectangle_4_-5"
     x="93.494362"
     y="184.23886"
     class="st6"
     width="183.76788"
     height="60.919483"
     style="fill:#ffffff;stroke:#ffffff;stroke-width:0.33051667" /><text
     class="st7 st4 st8"
     id="text20"
     x="100.88218"
     y="220.69864"
     style="font-size:16px;font-family:IBMPlexSans-Medium;fill:#010f5e">Peer - Organisation 1</text>
<path
     inkscape:connector-curvature="0"
     id="Line-2"
     class="st9"
     d="m 166.5541,381.19864 -0.1,-131.5 v -0.5 h 1 v 0.5 l 0.1,131.5 h 4 l -4.5,9 -4.5,-9 z"
     style="filter:url(#Adobe_OpacityMaskFilter)" /><g
     transform="translate(-2.0459008,-20.301362)"
     id="g4841"><g
       transform="matrix(1.0909439,0,0,1,249.91815,249)"
       id="Group-3"><g
         id="Clip-2" /><defs
         id="defs41"><filter
           height="48"
           width="51"
           y="0"
           x="0.89999998"
           filterUnits="userSpaceOnUse"
           id="filter4980"><feColorMatrix
             id="feColorMatrix4978"
             values="1 0 0 0 0  0 1 0 0 0  0 0 1 0 0  0 0 0 1 0"
             type="matrix" /></filter></defs><mask
         id="mask4854"
         height="48"
         width="51"
         y="0"
         x="0.9"
         maskUnits="userSpaceOnUse"><g
           style="filter:url(#Adobe_OpacityMaskFilter)"
           id="g4852"
           class="st11"><polygon
             style="fill:#ffffff"
             points="51.9,48 0.9,48 0.9,0 51.9,0 "
             class="st3"
             id="polygon4850" /></g></mask><path
         style="fill:#0ccaeb"
         inkscape:connector-curvature="0"
         mask="url(#mask-4_1_)"
         d="m 0.9,0 h 51 v 39 c -25.5,0 -25.5,14.9 -51,6.4 z"
         class="st12"
         id="Fill-1" /></g><text
       style="font-size:14px;font-family:IBMPlexSans-Medium;fill:#ffffff"
       y="273"
       x="255"
       id="text49"
       class="st3 st4 st13">Ledger</text>
<text
       style="font-size:14px;font-family:IBMPlexSans-Medium;fill:#ffffff"
       y="288"
       x="255"
       id="text53"
       class="st3 st4 st13">X</text>
</g><g
     id="g5108"
     transform="translate(-158.24364,46.73517)"><ellipse
       ry="57.39407"
       rx="222.60699"
       cy="331"
       cx="455.45001"
       id="path5104"
       style="fill:#ffffff;fill-opacity:1;stroke:none;stroke-opacity:1" /><text
       style="font-size:19px;font-family:IBMPlexSans-Medium;fill:#010f5e"
       y="338.08325"
       x="419.94098"
       id="text24-8"
       class="st7 st4 st5">Kanal 1</text>
</g><g
     id="g5085"
     transform="translate(0,-34)"><g
       transform="translate(-34.045901,-20.301362)"
       id="g4961"><rect
         id="Rectangle_5_-9"
         x="416.79407"
         y="357.49472"
         class="st2"
         width="395.82397"
         height="151.01053"
         style="fill:#011688;stroke:#857b7b;stroke-width:0.26701856" /><text
         class="st3 st4 st5"
         id="text27-6"
         x="425.44702"
         y="392"
         style="font-size:19px;font-family:IBMPlexSans-Medium;fill:#ffffff">Anordnungsknoten - Organisation</text>
<g
         id="g4908"
         transform="translate(-32)"><rect
           style="fill:#ffffff;stroke:#ffffff;stroke-width:0.31973276"
           height="54.970909"
           width="202.92976"
           class="st6"
           y="411.51456"
           x="632.92151"
           id="Rectangle_7_-0" /><text
           style="font-size:16px;font-family:IBMPlexSans-Medium;fill:#010f5e"
           y="435"
           x="633.91998"
           id="text33-0"
           class="st7 st4 st8">Anordnungsknoten - MSP</text>
<text
           style="font-size:16px;font-family:IBMPlexSans-Medium;fill:#010f5e"
           y="455"
           x="632.47467"
           id="text35-6"
           class="st7 st4 st8">Definition</text>
</g><g
         id="g4903"><g
           transform="matrix(1.1858792,0,0,0.99962383,425.73228,407.01166)"
           id="Group-5"><polygon
             id="Fill-1_1_-4"
             class="st3"
             points="135.5,60.5 1.5,60.5 1.5,1.5 135.5,1.5 "
             style="fill:#ffffff" /><g
             id="Clip-4" /><defs
             id="defs60"><filter
               id="filter5001"
               filterUnits="userSpaceOnUse"
               x="1.4"
               y="1.4"
               width="134.2"
               height="59.200001"><feColorMatrix
                 type="matrix"
                 values="1 0 0 0 0  0 1 0 0 0  0 0 1 0 0  0 0 0 1 0"
                 id="feColorMatrix4999" /></filter></defs><mask
             maskUnits="userSpaceOnUse"
             x="1.4"
             y="1.4"
             width="134.2"
             height="59.2"
             id="mask4878"><g
               class="st14"
               id="g4876"
               style="fill:#ffffff;stroke:#979797;filter:url(#Adobe_OpacityMaskFilter_1_-7)"><polygon
                 id="polygon4874"
                 class="st3"
                 points="137,0 0,0 0,62 137,62 "
                 style="fill:#ffffff" /></g></mask><polygon
             id="Stroke-3"
             class="st15"
             points="135.5,1.5 1.5,1.5 1.5,60.5 135.5,60.5 "
             mask="url(#mask-4_1_-0)"
             style="fill:none;stroke:#001588;stroke-width:0.25" /></g><g
           transform="translate(13.465005)"
           id="g4877"><polygon
             style="fill:#001588;filter:url(#Adobe_OpacityMaskFilter_2_)"
             points="8,37 8,54 46,54 46,37 "
             class="st16"
             id="Fill-6"
             transform="translate(426,407)" /><polygon
             style="fill:#001588;filter:url(#Adobe_OpacityMaskFilter_2_)"
             points="89,37 89,54 127,54 127,37 "
             class="st16"
             id="Fill-7"
             transform="translate(426,407)" /><polygon
             style="fill:#001588;filter:url(#Adobe_OpacityMaskFilter_2_)"
             points="49,37 49,54 86,54 86,37 "
             class="st16"
             id="Fill-8"
             transform="translate(426,407)" /><polygon
             mask="url(#mask-6_1_)"
             style="fill:#c5c5c5;stroke:#001588"
             points="52,41 52,49 59,49 59,41 "
             class="st17"
             id="Fill-9"
             transform="translate(426,407)" /><polygon
             mask="url(#mask-6_1_)"
             style="fill:#c5c5c5;stroke:#001588"
             points="60,41 60,49 67,49 67,41 "
             class="st17"
             id="Fill-10"
             transform="translate(426,407)" /><polygon
             mask="url(#mask-6_1_)"
             style="fill:#c5c5c5;stroke:#001588"
             points="68,41 68,49 75,49 75,41 "
             class="st17"
             id="Fill-11"
             transform="translate(426,407)" /><polygon
             mask="url(#mask-6_1_)"
             style="fill:#c5c5c5;stroke:#001588"
             points="76,41 76,49 83,49 83,41 "
             class="st17"
             id="Fill-12"
             transform="translate(426,407)" /><path
             style="fill:#767171"
             inkscape:connector-curvature="0"
             d="m 482.5,443.2 h 0.3 l -0.5,0.5 v -6.9 l 0.5,0.5 H 482 v -1 h 1.3 v 7.9 h -0.8 z m -11.6,-5.9 h 8 v -1 h -8 z m -11,0 h 8 v -1 h -8 z m -3,0 h -5.4 l 0.5,-0.5 v 1.7 h -1 v -2.2 h 5.9 z m -2.4,0.2 -3,6 -3,-6 z"
             class="st18"
             id="Fill-13" /><path
             style="fill:#767171"
             inkscape:connector-curvature="0"
             d="m 538.5,443.2 h 0.3 l -0.5,0.5 v -6.9 l 0.5,0.5 H 538 v -1 h 1.3 v 7.9 h -0.8 z m -11.6,-5.9 h 8 v -1 h -8 z m -11,0 h 8 v -1 h -8 z m -3,0 h -5.4 l 0.5,-0.5 v 1.7 h -1 v -2.2 h 5.9 z m -2.4,0.2 -3,6 -3,-6 z"
             class="st18"
             id="Fill-14" /><polygon
             mask="url(#mask-6_1_)"
             style="fill:#c5c5c5;stroke:#001588"
             points="93,41 93,49 100,49 100,41 "
             class="st17"
             id="Fill-15"
             transform="translate(426,407)" /><polygon
             mask="url(#mask-6_1_)"
             style="fill:#c5c5c5;stroke:#001588"
             points="101,41 101,49 108,49 108,41 "
             class="st17"
             id="Fill-16"
             transform="translate(426,407)" /><polygon
             mask="url(#mask-6_1_)"
             style="fill:#c5c5c5;stroke:#001588"
             points="109,41 109,49 116,49 116,41 "
             class="st17"
             id="Fill-17"
             transform="translate(426,407)" /></g><text
           style="font-size:16px;font-family:IBMPlexSans-Medium;fill:#010f5e"
           y="429"
           x="431.68375"
           id="text81"
           class="st7 st4 st8">Anordnungsknoten</text>
</g></g><g
       transform="translate(-56.045901,-20.301362)"
       id="g4928"><rect
         id="Rectangle_6_-4"
         x="780.55658"
         y="345.55658"
         class="st6"
         width="175.61847"
         height="44.163101"
         style="fill:#ffffff;stroke:#ffffff;stroke-width:0.36318359" /><text
         class="st7 st4 st8"
         id="text30-1"
         x="791.34003"
         y="369"
         style="font-size:16px;font-family:IBMPlexSans-Medium;fill:#010f5e">Anordnungsknoten -</text>
<text
         class="st7 st4 st8"
         id="text30-8"
         x="790.74628"
         y="384.57672"
         style="font-size:16px;font-family:IBMPlexSans-Medium;fill:#010f5e">Zertifizierungsstelle</text>
</g></g></svg>
