<?xml version="1.0" encoding="UTF-8" standalone="no"?>
<!-- Generator: Adobe Illustrator 22.0.0, SVG Export Plug-In . SVG Version: 6.00 Build 0)  -->

<svg
   xmlns:dc="http://purl.org/dc/elements/1.1/"
   xmlns:cc="http://creativecommons.org/ns#"
   xmlns:rdf="http://www.w3.org/1999/02/22-rdf-syntax-ns#"
   xmlns:svg="http://www.w3.org/2000/svg"
   xmlns="http://www.w3.org/2000/svg"
   xmlns:sodipodi="http://sodipodi.sourceforge.net/DTD/sodipodi-0.dtd"
   xmlns:inkscape="http://www.inkscape.org/namespaces/inkscape"
   version="1.1"
   id="Layer_1"
   x="0px"
   y="0px"
   viewBox="0 0 997 774"
   style="enable-background:new 0 0 997 774;"
   xml:space="preserve"
   sodipodi:docname="ibp2-join-network.svg"
   inkscape:version="0.92.2 (5c3e80d, 2017-08-06)"
   inkscape:export-filename="ibp2-join-network.png"
   inkscape:export-xdpi="83.07"
   inkscape:export-ydpi="83.07"><metadata
     id="metadata99"><rdf:RDF><cc:Work
         rdf:about=""><dc:format>image/svg+xml</dc:format><dc:type
           rdf:resource="http://purl.org/dc/dcmitype/StillImage" /></cc:Work></rdf:RDF></metadata><defs
     id="defs97" /><sodipodi:namedview
     pagecolor="#ffffff"
     bordercolor="#666666"
     borderopacity="1"
     objecttolerance="10"
     gridtolerance="10"
     guidetolerance="10"
     inkscape:pageopacity="0"
     inkscape:pageshadow="2"
     inkscape:window-width="2508"
     inkscape:window-height="1186"
     id="namedview95"
     showgrid="false"
     inkscape:zoom="1.2196382"
     inkscape:cx="350.47231"
     inkscape:cy="379.45353"
     inkscape:window-x="882"
     inkscape:window-y="10"
     inkscape:window-maximized="0"
     inkscape:current-layer="Layer_1" /><style
     type="text/css"
     id="style2">
	.st0{fill:#DCDCDC;}
	.st1{fill:#FFFFFF;}
	.st2{fill:none;stroke:#001588;stroke-width:3;}
	.st3{fill:#001588;}
	.st4{fill:#C5C5C5;}
	.st5{fill:#767171;}
	.st6{fill:#5A6872;}
	.st7{fill:#A2A3A2;}
	.st8{font-family:'IBMPlexSans-Medium';}
	.st9{font-size:19px;}
	.st10{fill:#565656;}
	.st11{font-size:16px;}
	.st12{fill:#011688;stroke:#857B7B;}
	.st13{fill:#FFFFFF;stroke:#FFFFFF;}
	.st14{fill:#010F5E;}
	.st15{fill:#0CCAEB;}
	.st16{fill:#A2A3A2;stroke:#777777;stroke-miterlimit:10;}
	.st17{font-size:14px;}
	.st18{fill:none;stroke:#000000;stroke-width:2;stroke-miterlimit:10;}
	.st19{fill:#979797;stroke:#A2A3A2;}
</style><title
     id="title4">Build your network Copy 2</title><desc
     id="desc6">Created with Sketch.</desc><rect
     id="Rectangle"
     x="7.625"
     y="108"
     class="st0"
     width="980.00635"
     height="542.44067"
     style="fill:#dcdcdc;stroke-width:1.0685786" /><g
     id="Group-18"
     transform="translate(518.000000, 357.000000)"><g
       id="Group-5"><polygon
         id="Fill-1"
         class="st1"
         points="-4.5,-3.5 129.5,-3.5 129.5,55.5 -4.5,55.5   " /><g
         id="Clip-4" /><polygon
         id="Stroke-3"
         class="st2"
         points="-4.5,55.5 129.5,55.5 129.5,-3.5 -4.5,-3.5   " /></g><polygon
       id="Fill-6"
       class="st3"
       points="2,49 40,49 40,32 2,32  " /><polygon
       id="Fill-7"
       class="st3"
       points="83,49 121,49 121,32 83,32  " /><polygon
       id="Fill-8"
       class="st3"
       points="43,49 80,49 80,32 43,32  " /><polygon
       id="Fill-9"
       class="st4"
       points="46,44 53,44 53,36 46,36  " /><polygon
       id="Fill-10"
       class="st4"
       points="54,44 61,44 61,36 54,36  " /><polygon
       id="Fill-11"
       class="st4"
       points="62,44 69,44 69,36 62,36  " /><polygon
       id="Fill-12"
       class="st4"
       points="70,44 77,44 77,36 70,36  " /><path
       id="Fill-13"
       class="st5"
       d="M50.5,31.2h0.3l-0.5,0.5v-6.9l0.5,0.5H50v-1h1.3v7.9h-0.8V31.2z M38.9,25.3h8v-1h-8V25.3z    M27.9,25.3h8v-1h-8C27.9,24.3,27.9,25.3,27.9,25.3z M24.9,25.3h-5.4l0.5-0.5v1.7h-1v-2.2h5.9V25.3z M22.5,25.5l-3,6l-3-6H22.5z" /><path
       id="Fill-14"
       class="st5"
       d="M106.5,31.2h0.3l-0.5,0.5v-6.9l0.5,0.5H106v-1h1.3v7.9h-0.8V31.2z M94.9,25.3h8v-1h-8V25.3z    M83.9,25.3h8v-1h-8V25.3z M80.9,25.3h-5.4l0.5-0.5v1.7h-1v-2.2h5.9V25.3z M78.5,25.5l-3,6l-3-6H78.5z" /><polygon
       id="Fill-15"
       class="st4"
       points="87,44 94,44 94,36 87,36  " /><polygon
       id="Fill-16"
       class="st4"
       points="95,44 102,44 102,36 95,36  " /><polygon
       id="Fill-17"
       class="st4"
       points="103,44 110,44 110,36 103,36  " /></g><g
     id="UI-Icon_x2F_checkmark--outline_x2F__x24_ui-05"
     transform="translate(321.000000, 255.000000)"><path
       id="Oval-2"
       class="st6"
       d="M2,9.5c3.6,0,6.5-2.9,6.5-6.5S5.6-3.5,2-3.5S-4.5-0.6-4.5,3S-1.6,9.5,2,9.5z M2,11   c-4.4,0-8-3.6-8-8s3.6-8,8-8s8,3.6,8,8S6.4,11,2,11z" /><polygon
       id="check"
       class="st6"
       points="5.3,-0.3 6.7,1.1 0.8,7 -2.7,3.6 -1.3,2.2 0.8,4.2  " /></g><rect
     id="Rectangle_1_"
     x="14"
     y="145"
     class="st7"
     width="348"
     height="152"
     style="fill:#a2a3a2" /><text
     class="st1 st8 st9"
     id="text30"
     x="49.206001"
     y="180"
     style="font-size:19px;font-family:IBMPlexSans-Medium;fill:#ffffff">Organisation 1</text>
<rect
     id="Rectangle_2_"
     x="356.18845"
     y="133"
     class="st4"
     width="310.97882"
     height="36"
     style="fill:#c5c5c5;stroke-width:1.71282291" /><text
     class="st10 st8 st11"
     id="text33"
     x="365.13879"
     y="157"
     style="font-size:16px;font-family:IBMPlexSans-Medium;fill:#565656">Organisation 1 - Zertifizierungsstelle</text>
<rect
     id="Rectangle_3_"
     x="305"
     y="201"
     class="st4"
     width="188.81145"
     height="56"
     style="fill:#c5c5c5;stroke-width:1.33463109" /><text
     class="st10 st8 st11"
     id="text36"
     x="315.65573"
     y="225"
     style="font-size:16px;font-family:IBMPlexSans-Medium;fill:#565656">Organisation 1 - MSP</text>
<text
     class="st10 st8 st11"
     id="text38"
     x="314.98386"
     y="245"
     style="font-size:16px;font-family:IBMPlexSans-Medium;fill:#565656">Definition</text>
<rect
     id="Rectangle_4_"
     x="12.5"
     y="466.5"
     class="st12"
     width="347"
     height="151"
     style="fill:#011688;stroke:#857b7b" /><text
     class="st1 st8 st9"
     id="text41"
     x="47.206001"
     y="501"
     style="font-size:19px;font-family:IBMPlexSans-Medium;fill:#ffffff">Organisation 2</text>
<rect
     id="Rectangle_5_"
     x="21.721144"
     y="524.42493"
     class="st13"
     width="179.93407"
     height="60.975613"
     style="fill:#ffffff;stroke:#ffffff;stroke-width:1.3088057" /><text
     class="st14 st8 st11"
     id="text44"
     x="22.124001"
     y="561"
     style="font-size:16px;font-family:IBMPlexSans-Medium;fill:#010f5e">Peer - Organisation 2</text>
<g
     id="g4840"
     transform="translate(0,6)"><rect
       style="fill:#ffffff;stroke:#ffffff;stroke-width:1.68803"
       height="34.31197"
       width="305.19119"
       class="st13"
       y="454.84402"
       x="339.84402"
       id="Rectangle_6_" /><text
       style="font-size:16px;font-family:IBMPlexSans-Medium;fill:#010f5e"
       y="478"
       x="345.90057"
       id="text47"
       class="st14 st8 st11">Organisation 2 - Zertifizierungsstelle</text>
</g><rect
     id="Rectangle_7_"
     x="305.66608"
     y="525.66608"
     class="st13"
     width="187.46785"
     height="54.66785"
     style="fill:#ffffff;stroke:#ffffff;stroke-width:1.33215082" /><text
     class="st14 st8 st11"
     id="text50"
     x="315.64999"
     y="549"
     style="font-size:16px;font-family:IBMPlexSans-Medium;fill:#010f5e">Organisation 2 - MSP</text>
<text
     class="st14 st8 st11"
     id="text52"
     x="314.97812"
     y="569"
     style="font-size:16px;font-family:IBMPlexSans-Medium;fill:#010f5e">Definition</text>
<rect
     id="Rectangle_8_"
     x="27.706631"
     y="199.05475"
     class="st4"
     width="181.6478"
     height="61.97525"
     style="fill:#c5c5c5;stroke-width:1.3088057" /><text
     class="st10 st8 st11"
     id="text55"
     x="34.034435"
     y="236"
     style="font-size:16px;font-family:IBMPlexSans-Medium;fill:#565656">Peer - Organisation 1</text>
<g
     id="Group-3-Copy"
     transform="matrix(1.0964606,0,0,1,198.49195,566)"><g
       id="Clip-2_1_" /><path
       id="Fill-1_2_"
       class="st15"
       d="m -5.1,-5 h 51 v 39 c -25.5,0 -25.5,14.9 -51,6.4 0,0 0,-45.4 0,-45.4 z"
       inkscape:connector-curvature="0"
       style="fill:#0ccaeb" /></g><g
     id="Group-3"
     transform="matrix(1.1093524,0,0,0.99893157,210.01071,247.02082)"><g
       id="Clip-2" /><path
       id="Fill-1_1_"
       class="st16"
       d="M -9,-5 H 43 V 34.8 C 17,34.8 17,50 -9,41.3 Z"
       inkscape:connector-curvature="0"
       style="fill:#a2a3a2;stroke:#777777;stroke-miterlimit:10" /></g><text
     class="st1 st8 st17"
     id="text63"
     x="207"
     y="266"
     style="font-size:14px;font-family:IBMPlexSans-Medium;fill:#ffffff">Ledger</text>
<text
     transform="matrix(1 0 0 1 250.6936 246)"
     class="st1 st8 st17"
     id="text65" />
<line
     class="st18"
     x1="35"
     y1="261"
     x2="35"
     y2="523.5"
     id="line67"
     style="fill:none;stroke:#000000;stroke-width:2;stroke-miterlimit:10" /><ellipse
     id="Oval"
     class="st19"
     cx="207.5"
     cy="383.5"
     rx="194.5"
     ry="51.5"
     style="fill:#979797;stroke:#a2a3a2" /><text
     class="st1 st8 st17"
     id="text70"
     x="207"
     y="281"
     style="font-size:14px;font-family:IBMPlexSans-Medium;fill:#ffffff">X</text>
<rect
     id="Rectangle_9_"
     x="373"
     y="302"
     class="st7"
     width="452.12924"
     height="152"
     style="fill:#a2a3a2;stroke-width:1.13983428" /><text
     class="st1 st8 st17"
     id="text73"
     x="197"
     y="585"
     style="font-size:14px;font-family:IBMPlexSans-Medium;fill:#ffffff">Ledger</text>
<text
     transform="matrix(1 0 0 1 244.6936 577)"
     class="st1 st8 st17"
     id="text75" />
<text
     class="st1 st8 st17"
     id="text77"
     x="197"
     y="600"
     style="font-size:14px;font-family:IBMPlexSans-Medium;fill:#ffffff">X</text>
<text
     class="st10 st8 st9"
     id="text81"
     x="162.74649"
     y="395"
     style="font-size:19px;font-family:IBMPlexSans-Medium;fill:#565656">Kanal 1</text>
<rect
     id="Rectangle_10_"
     x="774"
     y="290"
     class="st4"
     width="178.97246"
     height="48.298729"
     style="fill:#c5c5c5;stroke-width:1.50507033" /><text
     class="st10 st8 st11"
     id="text84"
     style="font-size:16px;font-family:IBMPlexSans-Medium;fill:#565656"
     x="787.22803"
     y="310">Anordnungsknoten-</text>
<text
     class="st1 st8 st9"
     id="text86"
     x="439.45721"
     y="337"
     style="font-size:19px;font-family:IBMPlexSans-Medium;fill:#ffffff">Anordnungsknoten - Organisation</text>
<rect
     id="Rectangle_11_"
     x="606"
     y="356"
     class="st4"
     width="210"
     height="56"
     style="fill:#c5c5c5;stroke-width:1.29614818" /><text
     class="st10 st8 st11"
     id="text79"
     x="607.86267"
     y="400"
     style="font-size:16px;font-family:IBMPlexSans-Medium;fill:#565656">Definition</text>
<rect
     id="Rectangle-Copy"
     x="384"
     y="355"
     class="st4"
     width="210"
     height="56"
     style="fill:#c5c5c5;stroke-width:1.29614806" /><text
     class="st10 st8 st11"
     id="text90"
     x="609.30798"
     y="380"
     style="font-size:16px;font-family:IBMPlexSans-Medium;fill:#565656">Anordnungsknoten - MSP</text>
<text
     class="st10 st8 st11"
     id="text92"
     x="413.71875"
     y="379"
     style="font-size:16px;font-family:IBMPlexSans-Medium;fill:#565656">Anordnungsknoten</text>
<text
     y="328.38016"
     x="786.63428"
     class="st10 st8 st11"
     id="text84-4"
     style="font-size:16px;font-family:IBMPlexSans-Medium;fill:#565656">Zertifizierungsstelle</text>
</svg>
