<?xml version="1.0" encoding="UTF-8" standalone="no"?>
<!-- Generator: Adobe Illustrator 22.0.0, SVG Export Plug-In . SVG Version: 6.00 Build 0)  -->

<svg
   xmlns:dc="http://purl.org/dc/elements/1.1/"
   xmlns:cc="http://creativecommons.org/ns#"
   xmlns:rdf="http://www.w3.org/1999/02/22-rdf-syntax-ns#"
   xmlns:svg="http://www.w3.org/2000/svg"
   xmlns="http://www.w3.org/2000/svg"
   xmlns:sodipodi="http://sodipodi.sourceforge.net/DTD/sodipodi-0.dtd"
   xmlns:inkscape="http://www.inkscape.org/namespaces/inkscape"
   version="1.1"
   id="Layer_1"
   x="0px"
   y="0px"
   viewBox="0 0 997 774"
   style="enable-background:new 0 0 997 774;"
   xml:space="preserve"
   sodipodi:docname="ibp2-simple-network.svg"
   inkscape:version="0.92.2 (5c3e80d, 2017-08-06)"
   inkscape:export-filename="Y:\Projekte\EXTERN\BM140\AB\D141\Automatische Artwork-Suche\BM140ABD141_S001_CD_DOC_Ship-Artwork-Neu\images\ibp2-simple-network.png"
   inkscape:export-xdpi="96"
   inkscape:export-ydpi="96"><metadata
     id="metadata88"><rdf:RDF><cc:Work
         rdf:about=""><dc:format>image/svg+xml</dc:format><dc:type
           rdf:resource="http://purl.org/dc/dcmitype/StillImage" /></cc:Work></rdf:RDF></metadata><defs
     id="defs86" /><sodipodi:namedview
     pagecolor="#ffffff"
     bordercolor="#666666"
     borderopacity="1"
     objecttolerance="10"
     gridtolerance="10"
     guidetolerance="10"
     inkscape:pageopacity="0"
     inkscape:pageshadow="2"
     inkscape:window-width="2697"
     inkscape:window-height="1311"
     id="namedview84"
     showgrid="false"
     inkscape:zoom="1.7248289"
     inkscape:cx="640.26648"
     inkscape:cy="379.80371"
     inkscape:window-x="688"
     inkscape:window-y="28"
     inkscape:window-maximized="0"
     inkscape:current-layer="Layer_1" /><style
     type="text/css"
     id="style2">
	.st0{fill:#DCDCDC;}
	.st1{fill:#5A6872;}
	.st2{fill:#011688;stroke:#857B7B;stroke-width:0.25;}
	.st3{fill:#FFFFFF;}
	.st4{font-family:'IBMPlexSans-Medium';}
	.st5{font-size:19px;}
	.st6{fill:#FFFFFF;stroke:#FFFFFF;stroke-width:0.25;}
	.st7{fill:#010F5E;}
	.st8{font-size:16px;}
	.st9{fill:#565656;stroke:#000000;stroke-miterlimit:10;}
	.st10{fill:#FFFFFF;stroke:#979797;stroke-width:0.25;}
	.st11{filter:url(#Adobe_OpacityMaskFilter);}
	.st12{mask:url(#mask-2_1_);fill:#0CCAEB;}
	.st13{font-size:14px;}
	.st14{filter:url(#Adobe_OpacityMaskFilter_1_);}
	.st15{mask:url(#mask-4_1_);fill:none;stroke:#001588;stroke-width:0.25;}
	.st16{fill:#001588;}
	.st17{fill:#C5C5C5;}
	.st18{fill:#767171;}
</style><rect
     id="Rectangle"
     x="62"
     y="113"
     class="st0"
     width="848"
     height="549" /><g
     id="UI-Icon_x2F_checkmark--outline_x2F__x24_ui-05"
     transform="translate(321.000000, 255.000000)"><path
       id="Oval-2"
       class="st1"
       d="M8,14.5c3.6,0,6.5-2.9,6.5-6.5S11.6,1.5,8,1.5S1.5,4.4,1.5,8S4.4,14.5,8,14.5z M8,16   c-4.4,0-8-3.6-8-8s3.6-8,8-8s8,3.6,8,8S12.4,16,8,16z" /><polygon
       id="check"
       class="st1"
       points="11.3,4.7 12.7,6.1 6.8,12 3.3,8.6 4.7,7.2 6.8,9.2  " /></g><rect
     id="Rectangle_1_"
     x="86.515053"
     y="150.51506"
     class="st2"
     width="435.67435"
     height="150.96989"
     style="fill:#011688;stroke:#857b7b;stroke-width:0.2800999" /><text
     transform="matrix(1 0 0 1 105.206 185)"
     class="st3 st4 st5"
     id="text9">Organisation 1</text>
<rect
     id="Rectangle_2_"
     x="370.96667"
     y="138.58984"
     class="st6"
     width="311.79733"
     height="34.820301"
     style="fill:#ffffff;stroke:#ffffff;stroke-width:0.42969847" /><text
     class="st7 st4 st8"
     id="text12"
     x="380.32626"
     y="162"
     style="font-size:16px;font-family:IBMPlexSans-Medium;fill:#010f5e">Organisation 1 - Zertifizierungsstelle</text>
<rect
     id="Rectangle_3_"
     x="325.54129"
     y="206.54128"
     class="st6"
     width="186.0849"
     height="54.917435"
     style="fill:#ffffff;stroke:#ffffff;stroke-width:0.33256361" /><text
     class="st7 st4 st8"
     id="text15"
     x="334.5564"
     y="230"
     style="font-size:16px;font-family:IBMPlexSans-Medium;fill:#010f5e">Organisation 1 - MSP </text>
<text
     class="st7 st4 st8"
     id="text17"
     x="333.88452"
     y="250"
     style="font-size:16px;font-family:IBMPlexSans-Medium;fill:#010f5e">Definition</text>
<rect
     id="Rectangle_4_"
     x="95.54026"
     y="204.54025"
     class="st6"
     width="183.76788"
     height="60.919483"
     style="fill:#ffffff;stroke:#ffffff;stroke-width:0.33051667" /><text
     class="st7 st4 st8"
     id="text20"
     x="102.92811"
     y="241"
     style="font-size:16px;font-family:IBMPlexSans-Medium;fill:#010f5e">Peer - Organisation 1</text>
<path
     id="Line-2"
     class="st9"
     d="M168.6,401.5L168.5,270l0-0.5l1,0l0,0.5l0.1,131.5l4,0l-4.5,9l-4.5-9L168.6,401.5z" /><g
     id="g4965"
     transform="translate(-58)"><ellipse
       style="fill:#ffffff;stroke:#979797;stroke-width:0.25"
       ry="51.5"
       rx="194.5"
       cy="430.5"
       cx="323.5"
       class="st10"
       id="Oval" /><text
       style="font-size:19px;font-family:IBMPlexSans-Medium;fill:#010f5e"
       y="442"
       x="280.74649"
       id="text24"
       class="st7 st4 st5">Kanal 1</text>
</g><text
     transform="matrix(1 0 0 1 256.6936 251)"
     class="st3 st4 st13"
     id="text51" />
<g
     id="g4841"><g
       transform="matrix(1.0909439,0,0,1,249.91815,249)"
       id="Group-3"><g
         id="Clip-2" /><defs
         id="defs41"><filter
           height="48"
           width="51"
           y="0"
           x="0.89999998"
           filterUnits="userSpaceOnUse"
           id="Adobe_OpacityMaskFilter"><feColorMatrix
             id="feColorMatrix38"
             values="1 0 0 0 0  0 1 0 0 0  0 0 1 0 0  0 0 0 1 0"
             type="matrix" /></filter></defs><mask
         id="mask-2_1_"
         height="48"
         width="51"
         y="0"
         x="0.9"
         maskUnits="userSpaceOnUse"><g
           style="filter:url(#Adobe_OpacityMaskFilter)"
           id="g44"
           class="st11"><polygon
             style="fill:#ffffff"
             points="0.9,0 51.9,0 51.9,48 0.9,48 "
             class="st3"
             id="path-1_1_" /></g></mask><path
         style="fill:#0ccaeb"
         inkscape:connector-curvature="0"
         mask="url(#mask-2_1_)"
         d="m 0.9,0 h 51 v 39 c -25.5,0 -25.5,14.9 -51,6.4 z"
         class="st12"
         id="Fill-1" /></g><text
       style="font-size:14px;font-family:IBMPlexSans-Medium;fill:#ffffff"
       y="273"
       x="255"
       id="text49"
       class="st3 st4 st13">Ledger</text>
<text
       style="font-size:14px;font-family:IBMPlexSans-Medium;fill:#ffffff"
       y="288"
       x="255"
       id="text53"
       class="st3 st4 st13">X</text>
</g><g
     id="g4961"
     transform="translate(-32)"><rect
       style="fill:#011688;stroke:#857b7b;stroke-width:0.26701856"
       height="151.01053"
       width="395.82397"
       class="st2"
       y="357.49472"
       x="416.79407"
       id="Rectangle_5_" /><text
       style="font-size:19px;font-family:IBMPlexSans-Medium;fill:#ffffff"
       y="392"
       x="425.44702"
       id="text27"
       class="st3 st4 st5">Anordnungsknoten - Organisation</text>
<g
       transform="translate(-32)"
       id="g4908"><rect
         id="Rectangle_7_"
         x="632.92151"
         y="411.51456"
         class="st6"
         width="202.92976"
         height="54.970909"
         style="fill:#ffffff;stroke:#ffffff;stroke-width:0.31973276" /><text
         class="st7 st4 st8"
         id="text33"
         x="633.91998"
         y="435"
         style="font-size:16px;font-family:IBMPlexSans-Medium;fill:#010f5e">Anordnungsknoten - MSP</text>
<text
         class="st7 st4 st8"
         id="text35"
         x="632.47467"
         y="455"
         style="font-size:16px;font-family:IBMPlexSans-Medium;fill:#010f5e">Definition</text>
</g><g
       id="g4903"><g
         id="Group-5"
         transform="matrix(1.1858792,0,0,0.99962383,425.73228,407.01166)"><polygon
           style="fill:#ffffff"
           points="1.5,60.5 1.5,1.5 135.5,1.5 135.5,60.5 "
           class="st3"
           id="Fill-1_1_" /><g
           id="Clip-4" /><defs
           id="defs60"><filter
             height="59.200001"
             width="134.2"
             y="1.4"
             x="1.4"
             filterUnits="userSpaceOnUse"
             id="Adobe_OpacityMaskFilter_1_"><feColorMatrix
               id="feColorMatrix57"
               values="1 0 0 0 0  0 1 0 0 0  0 0 1 0 0  0 0 0 1 0"
               type="matrix" /></filter></defs><mask
           id="mask-4_1_"
           height="59.2"
           width="134.2"
           y="1.4"
           x="1.4"
           maskUnits="userSpaceOnUse"><g
             style="filter:url(#Adobe_OpacityMaskFilter_1_)"
             id="g63"
             class="st14"><polygon
               style="fill:#ffffff"
               points="0,0 0,62 137,62 137,0 "
               class="st3"
               id="path-3_1_" /></g></mask><polygon
           style="fill:none;stroke:#001588;stroke-width:0.25"
           mask="url(#mask-4_1_)"
           points="1.5,1.5 1.5,60.5 135.5,60.5 135.5,1.5 "
           class="st15"
           id="Stroke-3" /></g><g
         id="g4877"
         transform="translate(13.465005)"><polygon
           transform="translate(426,407)"
           id="Fill-6"
           class="st16"
           points="8,54 46,54 46,37 8,37 "
           style="fill:#001588" /><polygon
           transform="translate(426,407)"
           id="Fill-7"
           class="st16"
           points="89,54 127,54 127,37 89,37 "
           style="fill:#001588" /><polygon
           transform="translate(426,407)"
           id="Fill-8"
           class="st16"
           points="49,54 86,54 86,37 49,37 "
           style="fill:#001588" /><polygon
           transform="translate(426,407)"
           id="Fill-9"
           class="st17"
           points="52,49 59,49 59,41 52,41 "
           style="fill:#c5c5c5" /><polygon
           transform="translate(426,407)"
           id="Fill-10"
           class="st17"
           points="60,49 67,49 67,41 60,41 "
           style="fill:#c5c5c5" /><polygon
           transform="translate(426,407)"
           id="Fill-11"
           class="st17"
           points="68,49 75,49 75,41 68,41 "
           style="fill:#c5c5c5" /><polygon
           transform="translate(426,407)"
           id="Fill-12"
           class="st17"
           points="76,49 83,49 83,41 76,41 "
           style="fill:#c5c5c5" /><path
           id="Fill-13"
           class="st18"
           d="m 482.5,443.2 h 0.3 l -0.5,0.5 v -6.9 l 0.5,0.5 H 482 v -1 h 1.3 v 7.9 h -0.8 z m -11.6,-5.9 h 8 v -1 h -8 z m -11,0 h 8 v -1 h -8 z m -3,0 h -5.4 l 0.5,-0.5 v 1.7 h -1 v -2.2 h 5.9 z m -2.4,0.2 -3,6 -3,-6 z"
           inkscape:connector-curvature="0"
           style="fill:#767171" /><path
           id="Fill-14"
           class="st18"
           d="m 538.5,443.2 h 0.3 l -0.5,0.5 v -6.9 l 0.5,0.5 H 538 v -1 h 1.3 v 7.9 h -0.8 z m -11.6,-5.9 h 8 v -1 h -8 z m -11,0 h 8 v -1 h -8 z m -3,0 h -5.4 l 0.5,-0.5 v 1.7 h -1 v -2.2 h 5.9 z m -2.4,0.2 -3,6 -3,-6 z"
           inkscape:connector-curvature="0"
           style="fill:#767171" /><polygon
           transform="translate(426,407)"
           id="Fill-15"
           class="st17"
           points="93,49 100,49 100,41 93,41 "
           style="fill:#c5c5c5" /><polygon
           transform="translate(426,407)"
           id="Fill-16"
           class="st17"
           points="101,49 108,49 108,41 101,41 "
           style="fill:#c5c5c5" /><polygon
           transform="translate(426,407)"
           id="Fill-17"
           class="st17"
           points="109,49 116,49 116,41 109,41 "
           style="fill:#c5c5c5" /></g><text
         class="st7 st4 st8"
         id="text81"
         x="431.68375"
         y="429"
         style="font-size:16px;font-family:IBMPlexSans-Medium;fill:#010f5e">Anordnungsknoten</text>
</g></g><g
     id="g4928"
     transform="translate(-54)"><rect
       style="fill:#ffffff;stroke:#ffffff;stroke-width:0.36318359"
       height="44.163101"
       width="175.61847"
       class="st6"
       y="345.55658"
       x="780.55658"
       id="Rectangle_6_" /><text
       style="font-size:16px;font-family:IBMPlexSans-Medium;fill:#010f5e"
       y="369"
       x="791.34003"
       id="text30"
       class="st7 st4 st8">Anordnungsknoten -</text>
<text
       style="font-size:16px;font-family:IBMPlexSans-Medium;fill:#010f5e"
       y="384.57672"
       x="790.74628"
       id="text30-8"
       class="st7 st4 st8">Zertifizierungsstelle</text>
</g></svg>
