<svg id="Layer_1" data-name="Layer 1" xmlns="http://www.w3.org/2000/svg" viewBox="0 0 666.74 472.08"><defs><style>.cls-1,.cls-2,.cls-23,.cls-25,.cls-3,.cls-31,.cls-38,.cls-43,.cls-48,.cls-49{fill:none;}.cls-1,.cls-2{stroke:#82bfe9;}.cls-1,.cls-13,.cls-2,.cls-23,.cls-25,.cls-26,.cls-3,.cls-38,.cls-4,.cls-49{stroke-miterlimit:10;}.cls-1{stroke-width:1.04px;stroke-dasharray:2.09 1.04;}.cls-2{stroke-dasharray:2 1;}.cls-3,.cls-4,.cls-48{stroke:#009fe3;}.cls-13,.cls-26,.cls-4,.cls-42{fill:#fff;}.cls-27,.cls-5{font-size:12px;}.cls-16,.cls-27,.cls-41,.cls-5{fill:#1d1d1b;font-family:MyriadPro-Regular, Myriad Pro;}.cls-6{letter-spacing:-0.01em;}.cls-7{letter-spacing:0em;}.cls-8{letter-spacing:0em;}.cls-9{letter-spacing:-0.01em;}.cls-10{letter-spacing:0em;}.cls-11{letter-spacing:0em;}.cls-12{letter-spacing:0.01em;}.cls-13{stroke:#fff;stroke-width:2px;}.cls-14{letter-spacing:-0.01em;}.cls-15{letter-spacing:0.02em;}.cls-16{font-size:15px;}.cls-17{letter-spacing:0.01em;}.cls-18{letter-spacing:-0.01em;}.cls-19{letter-spacing:0em;}.cls-20{letter-spacing:0em;}.cls-21{letter-spacing:0.02em;}.cls-22{letter-spacing:-0.01em;}.cls-23{stroke:#96c77d;}.cls-24{fill:#96c77d;}.cls-25,.cls-26,.cls-43{stroke:#95c11f;}.cls-27{letter-spacing:-0.02em;}.cls-28{letter-spacing:-0.01em;}.cls-29{letter-spacing:0.02em;}.cls-30{letter-spacing:0em;}.cls-32{letter-spacing:-0.03em;}.cls-33{letter-spacing:0em;}.cls-34{letter-spacing:0.02em;}.cls-35{letter-spacing:0em;}.cls-36{letter-spacing:-0.02em;}.cls-37{fill:#95c11f;}.cls-38{stroke:#f9b233;stroke-width:0.5px;}.cls-39{fill:#f9b233;}.cls-40{fill:#009fe3;}.cls-41{font-size:14px;}.cls-43,.cls-48{stroke-miterlimit:8;}.cls-44{letter-spacing:0.01em;}.cls-45{letter-spacing:0em;}.cls-46{letter-spacing:-0.01em;}.cls-47{letter-spacing:0em;}.cls-49{stroke:#1d1d1b;stroke-width:0.25px;}</style></defs><title>k8s-archi-diagram</title><path class="cls-1" d="M327.77,107" transform="translate(-16.33 -15.4)"/><path class="cls-2" d="M328.06,113.2" transform="translate(-16.33 -15.4)"/><rect class="cls-3" x="36.8" y="162.05" width="285.24" height="266.6"/><rect class="cls-4" x="52.59" y="198.2" width="94.07" height="35.29" rx="4.67"/><rect class="cls-4" x="62.72" y="209.59" width="94.07" height="35.29" rx="4.67"/><rect class="cls-4" x="75.04" y="219.59" width="94.07" height="35.29" rx="4.67"/><text class="cls-5" transform="translate(95.27 233.85)"><tspan class="cls-6">C</tspan><tspan x="6.83" y="0">o</tspan><tspan class="cls-7" x="13.42" y="0">n</tspan><tspan class="cls-8" x="20.03" y="0">t</tspan><tspan class="cls-9" x="24" y="0">r</tspan><tspan x="27.8" y="0">olle</tspan><tspan class="cls-10" x="46.07" y="0">r</tspan><tspan class="cls-11" x="49.93" y="0">-</tspan><tspan class="cls-12"><tspan x="4.51" y="14.4">M</tspan><tspan class="cls-8" x="14.23" y="14.4">anager</tspan></tspan></text><rect class="cls-4" x="189.91" y="200.98" width="94.07" height="35.29" rx="4.67"/><rect class="cls-4" x="200.04" y="212.37" width="94.07" height="35.29" rx="4.67"/><rect class="cls-4" x="212.37" y="222.37" width="94.07" height="35.29" rx="4.67"/><text class="cls-5" transform="translate(232.59 235.04)"><tspan class="cls-6">C</tspan><tspan x="6.83" y="0">o</tspan><tspan class="cls-7" x="13.42" y="0">n</tspan><tspan class="cls-8" x="20.03" y="0">t</tspan><tspan class="cls-9" x="24" y="0">r</tspan><tspan x="27.8" y="0">olle</tspan><tspan class="cls-10" x="46.07" y="0">r</tspan><tspan class="cls-11" x="49.93" y="0">-</tspan><tspan class="cls-12"><tspan x="4.51" y="14.4">M</tspan><tspan class="cls-8" x="14.23" y="14.4">anager</tspan></tspan></text><ellipse class="cls-4" cx="100.08" cy="383.32" rx="34.31" ry="10.03"/><rect class="cls-4" x="65.76" y="328.55" width="68.63" height="54.77"/><line class="cls-13" x1="66.58" y1="383.32" x2="133.58" y2="383.32"/><ellipse class="cls-4" cx="100.03" cy="338.57" rx="34.31" ry="10.03"/><ellipse class="cls-4" cx="100.08" cy="333.54" rx="34.31" ry="10.03"/><ellipse class="cls-4" cx="100.08" cy="328.54" rx="34.31" ry="10.03"/><text class="cls-5" transform="translate(90.54 373.29)">e<tspan class="cls-14" x="6.01" y="0">tc</tspan><tspan x="15.22" y="0">d</tspan></text><rect class="cls-4" x="186.09" y="286.26" width="121.98" height="37.26" rx="9.7"/><text class="cls-5" transform="translate(222.22 308.52)">API-<tspan class="cls-12" x="20.28" y="0">S</tspan><tspan class="cls-8" x="26.27" y="0">e</tspan><tspan class="cls-15" x="32.28" y="0">r</tspan><tspan class="cls-9" x="36.5" y="0">v</tspan><tspan class="cls-8" x="42.16" y="0">er</tspan></text><rect class="cls-4" x="188.82" y="344.95" width="94.07" height="35.29" rx="4.67"/><rect class="cls-4" x="198.95" y="356.34" width="94.07" height="35.29" rx="4.67"/><rect class="cls-4" x="211.27" y="366.34" width="94.07" height="35.29" rx="4.67"/><text class="cls-5" transform="translate(231.07 387.15)"><tspan class="cls-12">S</tspan><tspan x="5.99" y="0">cheduler</tspan></text><text class="cls-16" transform="translate(36.8 155.82)"><tspan class="cls-17">M</tspan><tspan x="12.15" y="0">as</tspan><tspan class="cls-18" x="25.32" y="0">t</tspan><tspan class="cls-19" x="30.19" y="0">e</tspan><tspan class="cls-20" x="37.71" y="0">r</tspan><tspan class="cls-21" x="42.67" y="0">k</tspan><tspan x="49.96" y="0">no</tspan><tspan class="cls-22" x="66.52" y="0">t</tspan><tspan class="cls-19" x="71.4" y="0">en</tspan></text><path class="cls-23" d="M551.69,159.41V121.74" transform="translate(-16.33 -15.4)"/><polygon class="cls-24" points="535.36 151.08 539.43 141.13 535.36 143.49 531.3 141.13 535.36 151.08"/><rect class="cls-25" x="375.48" y="66.1" width="235.91" height="176.49"/><rect class="cls-25" x="384.94" y="124.38" width="215.43" height="104.82"/><rect class="cls-25" x="395.96" y="152.53" width="84.71" height="66.4"/><rect class="cls-25" x="502.77" y="152.53" width="84.71" height="66.4"/><rect class="cls-26" x="414.04" y="167.63" width="48.62" height="27.29" rx="4.67"/><rect class="cls-26" x="419.28" y="176.44" width="48.62" height="27.29" rx="4.67"/><rect class="cls-26" x="425.65" y="184.18" width="48.62" height="27.29" rx="4.67"/><rect class="cls-26" x="521.48" y="167.63" width="48.62" height="27.29" rx="4.67"/><rect class="cls-26" x="526.72" y="176.44" width="48.62" height="27.29" rx="4.67"/><rect class="cls-26" x="533.09" y="184.18" width="48.62" height="27.29" rx="4.67"/><rect class="cls-26" x="395.96" y="79.72" width="71.94" height="25.48"/><rect class="cls-26" x="493.44" y="79.72" width="94.04" height="25.48"/><text class="cls-5" transform="translate(414.04 96.45)"><tspan class="cls-18">K</tspan><tspan x="6.43" y="0">ubelet</tspan></text><text class="cls-27" transform="translate(522.11 96.68)">P<tspan class="cls-9" x="6.19" y="0">r</tspan><tspan class="cls-28" x="10" y="0">o</tspan><tspan class="cls-29" x="16.42" y="0">x</tspan><tspan class="cls-30" x="22.15" y="0">y</tspan></text><line class="cls-31" x1="419.28" y1="105.2" x2="419.28" y2="154.35"/><text class="cls-16" transform="translate(375.48 59.5)"><tspan class="cls-32">W</tspan><tspan class="cls-19" x="12.19" y="0">o</tspan><tspan class="cls-20" x="20.43" y="0">r</tspan><tspan class="cls-33" x="25.4" y="0">ke</tspan><tspan class="cls-20" x="39.94" y="0">r</tspan><tspan class="cls-34" x="44.91" y="0">k</tspan><tspan x="52.2" y="0">no</tspan><tspan class="cls-22" x="68.76" y="0">t</tspan><tspan x="73.63" y="0">en</tspan></text><text class="cls-5" transform="translate(545.13 138.39)"><tspan class="cls-6">C</tspan><tspan x="6.83" y="0">o</tspan><tspan class="cls-35" x="13.42" y="0">n</tspan><tspan x="20.03" y="0">tainer</tspan></text><text class="cls-5" transform="translate(457.25 163.92)"><tspan class="cls-36">P</tspan><tspan x="6.08" y="0">od</tspan></text><text class="cls-5" transform="translate(563.94 163.53)"><tspan class="cls-36">P</tspan><tspan x="6.08" y="0">od</tspan></text><path class="cls-23" d="M442,159.15V121.48" transform="translate(-16.33 -15.4)"/><polygon class="cls-24" points="425.65 150.82 429.71 140.87 425.65 143.23 421.58 140.87 425.65 150.82"/><line class="cls-25" x1="443.59" y1="106.2" x2="515.36" y2="147.31"/><polygon class="cls-37" points="521.48 150.82 510.83 149.4 514.9 147.05 514.87 142.35 521.48 150.82"/><line class="cls-25" x1="521.48" y1="105.2" x2="449.67" y2="147.5"/><polygon class="cls-37" points="443.59 151.08 450.1 142.53 450.13 147.23 454.23 149.53 443.59 151.08"/><line class="cls-38" x1="298.05" y1="280.48" x2="392.48" y2="92.99"/><polygon class="cls-39" points="296.47 283.63 300.52 280.11 298.17 280.25 296.89 278.28 296.47 283.63"/><polygon class="cls-39" points="394.07 89.84 393.64 95.2 392.36 93.23 390.01 93.37 394.07 89.84"/><line class="cls-3" x1="244.14" y1="256.31" x2="244.14" y2="278.72"/><polygon class="cls-40" points="244.14 285.78 240.07 275.83 244.14 278.19 248.2 275.83 244.14 285.78"/><line class="cls-3" x1="169.11" y1="250.21" x2="223.81" y2="280.89"/><polygon class="cls-40" points="229.97 284.35 219.3 283.02 223.35 280.63 223.28 275.93 229.97 284.35"/><line class="cls-3" x1="186.09" y1="313.81" x2="139.86" y2="351.47"/><polygon class="cls-40" points="134.39 355.93 139.53 346.5 140.27 351.14 144.67 352.8 134.39 355.93"/><line class="cls-3" x1="245.98" y1="342.57" x2="245.98" y2="334.6"/><polygon class="cls-40" points="245.98 327.54 250.04 337.49 245.98 335.13 241.91 337.49 245.98 327.54"/><path class="cls-23" d="M552.78,371V333.29" transform="translate(-16.33 -15.4)"/><polygon class="cls-24" points="536.45 362.63 540.51 352.68 536.45 355.04 532.38 352.68 536.45 362.63"/><rect class="cls-25" x="376.57" y="277.65" width="235.91" height="176.49"/><rect class="cls-25" x="386.03" y="335.93" width="215.43" height="104.82"/><rect class="cls-25" x="397.05" y="364.08" width="84.71" height="66.4"/><rect class="cls-25" x="503.86" y="364.08" width="84.71" height="66.4"/><rect class="cls-26" x="415.13" y="379.18" width="48.62" height="27.29" rx="4.67"/><rect class="cls-26" x="420.36" y="387.99" width="48.62" height="27.29" rx="4.67"/><rect class="cls-26" x="426.73" y="395.72" width="48.62" height="27.29" rx="4.67"/><rect class="cls-26" x="522.57" y="379.18" width="48.62" height="27.29" rx="4.67"/><rect class="cls-26" x="527.8" y="387.99" width="48.62" height="27.29" rx="4.67"/><rect class="cls-26" x="534.17" y="395.72" width="48.62" height="27.29" rx="4.67"/><rect class="cls-26" x="397.05" y="291.27" width="71.94" height="25.48"/><rect class="cls-26" x="494.52" y="291.27" width="94.04" height="25.48"/><text class="cls-5" transform="translate(415.13 308)"><tspan class="cls-18">K</tspan><tspan x="6.43" y="0">ubelet</tspan></text><text class="cls-27" transform="translate(523.11 307.37)">P<tspan class="cls-9" x="6.19" y="0">r</tspan><tspan class="cls-28" x="10" y="0">o</tspan><tspan class="cls-29" x="16.42" y="0">x</tspan><tspan class="cls-30" x="22.15" y="0">y</tspan></text><line class="cls-31" x1="420.36" y1="316.75" x2="420.36" y2="365.89"/><text class="cls-16" transform="translate(376.57 271.05)"><tspan class="cls-32">W</tspan><tspan class="cls-19" x="12.19" y="0">o</tspan><tspan class="cls-20" x="20.43" y="0">r</tspan><tspan class="cls-33" x="25.4" y="0">ke</tspan><tspan class="cls-20" x="39.94" y="0">r</tspan><tspan class="cls-34" x="44.91" y="0">k</tspan><tspan x="52.2" y="0">no</tspan><tspan class="cls-22" x="68.76" y="0">t</tspan><tspan x="73.63" y="0">en</tspan></text><text class="cls-5" transform="translate(546.21 349.94)"><tspan class="cls-6">C</tspan><tspan x="6.83" y="0">o</tspan><tspan class="cls-35" x="13.42" y="0">n</tspan><tspan x="20.03" y="0">tainer</tspan></text><text class="cls-5" transform="translate(458.34 375.47)"><tspan class="cls-36">P</tspan><tspan x="6.08" y="0">od</tspan></text><text class="cls-5" transform="translate(565.02 375.08)"><tspan class="cls-36">P</tspan><tspan x="6.08" y="0">od</tspan></text><path class="cls-23" d="M443.06,370.7V333" transform="translate(-16.33 -15.4)"/><polygon class="cls-24" points="426.73 362.37 430.8 352.42 426.73 354.78 422.67 352.42 426.73 362.37"/><line class="cls-25" x1="444.67" y1="317.75" x2="516.44" y2="358.86"/><polygon class="cls-37" points="522.57 362.37 511.91 360.95 515.98 358.6 515.95 353.89 522.57 362.37"/><line class="cls-25" x1="522.57" y1="316.75" x2="450.76" y2="359.04"/><polygon class="cls-37" points="444.67 362.63 451.18 354.08 451.21 358.78 455.31 361.08 444.67 362.63"/><line class="cls-38" x1="310.29" y1="314.96" x2="393.54" y2="306.16"/><polygon class="cls-39" points="306.78 315.33 311.94 316.83 310.55 314.93 311.51 312.79 306.78 315.33"/><polygon class="cls-39" points="397.05 305.79 392.32 308.33 393.28 306.19 391.89 304.29 397.05 305.79"/><text class="cls-41" transform="translate(447.49 204.57)">......</text><text class="cls-41" transform="translate(559.57 205.75)">......</text><text class="cls-41" transform="translate(453.22 417.29)">......</text><text class="cls-41" transform="translate(559.57 417.29)">......</text><rect class="cls-42" x="257.64" y="78.46" width="25.13" height="8.67"/><text class="cls-5" transform="translate(257.64 87.13)">Cloud</text><line class="cls-3" x1="270.21" y1="198.2" x2="270.21" y2="108.54"/><polygon class="cls-40" points="270.21 101.47 274.27 111.42 270.21 109.06 266.14 111.42 270.21 101.47"/><path class="cls-43" d="M580.85,40.89c-.77-4.19,3.16-8,8.78-8.62a13.22,13.22,0,0,1,6.57,1c2.1-2.95,7-4.08,11-2.51a8.74,8.74,0,0,1,1.88,1c1.64-2.45,5.62-3.45,8.9-2.23A6.74,6.74,0,0,1,620.25,31a9.24,9.24,0,0,1,10.4-.64,5.41,5.41,0,0,1,2.49,3.22c4.32.88,6.87,4.21,5.69,7.44a5.23,5.23,0,0,1-.37.8c3.46,3.36,2.62,8.19-1.89,10.77a12.35,12.35,0,0,1-4.82,1.52c0,3.62-4,6.53-8.86,6.5a11.07,11.07,0,0,1-4.58-1c-1.64,4.06-7.37,6.36-12.79,5.13A10.61,10.61,0,0,1,600,61.64c-5.55,2.5-12.76,1.15-16.1-3l-.12-.16c-3.63.32-6.93-1.61-7.35-4.32a4.2,4.2,0,0,1,1.74-3.94c-3.15-1.39-4.2-4.42-2.36-6.78a7.09,7.09,0,0,1,5-2.43Z" transform="translate(-16.33 -15.4)"/><text class="cls-5" transform="translate(571.19 32.65)"><tspan class="cls-44">I</tspan><tspan class="cls-45" x="2.99" y="0">n</tspan><tspan class="cls-46" x="9.6" y="0">t</tspan><tspan x="13.5" y="0">e</tspan><tspan class="cls-47" x="19.51" y="0">r</tspan><tspan class="cls-11" x="23.48" y="0">net</tspan></text><line class="cls-43" x1="589.19" y1="49.32" x2="569.58" y2="72.48"/><polygon class="cls-37" points="565.02 77.87 568.35 67.64 569.92 72.07 574.55 72.9 565.02 77.87"/><path class="cls-48" d="M259.65,92c-.76-4.19,3.17-8.05,8.79-8.62a13.22,13.22,0,0,1,6.57,1c2.1-3,7-4.08,10.95-2.51a8.16,8.16,0,0,1,1.89,1c1.63-2.45,5.62-3.44,8.89-2.22a6.69,6.69,0,0,1,2.32,1.43,9.22,9.22,0,0,1,10.4-.64A5.42,5.42,0,0,1,312,84.71c4.32.88,6.86,4.21,5.69,7.44a5.23,5.23,0,0,1-.37.8c3.46,3.36,2.61,8.18-1.9,10.77a12.46,12.46,0,0,1-4.81,1.51c0,3.62-4,6.53-8.86,6.5a11.07,11.07,0,0,1-4.58-1c-1.65,4.06-7.37,6.35-12.8,5.12a10.49,10.49,0,0,1-5.55-3.08c-5.55,2.5-12.76,1.16-16.1-3l-.12-.16c-3.64.32-6.93-1.62-7.35-4.32a4.22,4.22,0,0,1,1.74-4c-3.15-1.38-4.2-4.42-2.36-6.78a7,7,0,0,1,5-2.42Z" transform="translate(-16.33 -15.4)"/><rect class="cls-49" x="0.13" y="0.13" width="666.49" height="471.83"/></svg>
