<?xml version="1.0" encoding="UTF-8"?>
<svg width="2387px" height="1001px" viewBox="0 0 2387 1001" version="1.1" xmlns="http://www.w3.org/2000/svg" xmlns:xlink="http://www.w3.org/1999/xlink">
    <!-- Generator: Sketch 54.1 (76490) - https://sketchapp.com -->
    <title>IBP_Deployment 2</title>
    <desc>Created with Sketch.</desc>
    <g id="IBP_Deployment-2" stroke="none" stroke-width="1" fill="none" fill-rule="evenodd">
        <rect fill="#FFFFFF" x="0" y="0" width="2387" height="1001"></rect>
        <g id="Group" opacity="0.866699219" transform="translate(524.000000, 107.000000)">
            <rect id="Rectangle" stroke="#FFFFFF" fill="#011688" x="0.5" y="0.5" width="1124" height="853"></rect>
            <text id="IBM-Blockchain-Platf" font-family="IBMPlexSans-SemiBold, IBM Plex Sans" font-size="37.07" font-weight="500" fill="#FFFFFF">
                <tspan x="193.9768" y="83">IBM Blockchain Platform</tspan>
            </text>
            <text id="The-service-that-all" font-family="IBMPlexSans, IBM Plex Sans" font-size="28.07" font-weight="normal" fill="#FFFFFF">
                <tspan x="192" y="128">The service that allows you to deploy and manage your </tspan>
                <tspan x="192" y="165">Hyperledger Fabric nodes.</tspan>
            </text>
        </g>
        <g id="Group" transform="translate(574.000000, 153.000000)">
            <circle id="Oval" stroke="#979797" fill="#FFFFFF" cx="51" cy="36" r="36"></circle>
            <rect id="Rectangle" stroke="#FFFCFC" fill="#011688" x="0.5" y="186.5" width="1021" height="109"></rect>
        </g>
        <g id="Group" transform="translate(572.000000, 797.000000)" fill="#011688" stroke="#FFFAFA">
            <rect id="Rectangle" x="0.5" y="0.5" width="1021" height="109"></rect>
        </g>
        <g id="Group-3" transform="translate(574.000000, 459.000000)">
            <g id="Group" fill="#011688" stroke="#FFFBFB">
                <rect id="Rectangle" x="0.5" y="0.5" width="1021" height="327"></rect>
            </g>
            <g id="Group" transform="translate(35.000000, 102.000000)" fill="#FFFFFF" stroke="#979797">
                <rect id="Rectangle" x="0.5" y="0.5" width="294" height="173"></rect>
            </g>
            <g id="Group" transform="translate(350.000000, 102.000000)" fill="#FFFFFF" stroke="#979797">
                <rect id="Rectangle" x="0.5" y="0.5" width="327" height="173"></rect>
            </g>
            <g id="Group" transform="translate(698.000000, 101.000000)" fill="#FFFFFF" stroke="#979797">
                <rect id="Rectangle" x="0.5" y="0.5" width="294" height="174"></rect>
            </g>
            <text id="Hyperledger-Fabric-C" font-family="IBMPlexSans-SemiBold, IBM Plex Sans" font-size="37.07" font-weight="500" fill="#FFFFFF">
                <tspan x="244.420285" y="63">Hyperledger Fabric Components</tspan>
            </text>
            <text id="Certificate-Authorit" font-family="IBMPlexSans-SemiBold, IBM Plex Sans" font-size="25.07" font-weight="500" line-spacing="32" fill="#000000">
                <tspan x="114" y="181">Certificate </tspan>
                <tspan x="114" y="213">Authority</tspan>
            </text>
            <text id="Peer" font-family="IBMPlexSans-SemiBold, IBM Plex Sans" font-size="25.07" font-weight="500" fill="#000000">
                <tspan x="484.80045" y="198">Peer</tspan>
            </text>
            <text id="Ordering-Service" font-family="IBMPlexSans-SemiBold, IBM Plex Sans" font-size="25.07" font-weight="500" line-spacing="31" fill="#000000">
                <tspan x="787.76239" y="185.39513">Ordering </tspan>
                <tspan x="795.58423" y="216.39513">Service</tspan>
            </text>
        </g>
        <text id="Blockchain-Service" font-family="IBMPlexSans-SemiBold, IBM Plex Sans" font-size="37.07" font-weight="500" fill="#000000">
            <tspan x="530.003655" y="79">Blockchain Service</tspan>
        </text>
        <text id="IBM-Blockchain-Platf" font-family="IBMPlexSans-SemiBold, IBM Plex Sans" font-size="37.07" font-weight="500" fill="#FFFFFF">
            <tspan x="780.89699" y="409">IBM Blockchain Platform Console (UI)</tspan>
        </text>
        <g id="IBP_2_0_Service_Tile_Icon" transform="translate(585.000000, 152.000000)" fill="#13171A" fill-rule="nonzero">
            <path d="M41.5,0 C18.5801829,-1.25125444e-15 2.80686807e-15,16.5654643 0,37 C-2.80686807e-15,57.4345357 18.5801829,74 41.5,74 C64.4198171,74 83,57.4345357 83,37 C83,27.1869899 78.6276911,17.7758951 70.8449314,10.8370491 C63.0621717,3.89820309 52.5064843,6.00873572e-16 41.5,0 Z M23.34375,50.875 L18.15625,50.875 L18.15625,23.125 L23.34375,23.125 L23.34375,50.875 Z M57.0625,57.8125 L25.9375,57.8125 L25.9375,53.1875 L57.0625,53.1875 L57.0625,57.8125 Z M57.0625,20.8125 L25.9375,20.8125 L25.9375,16.1875 L57.0625,16.1875 L57.0625,20.8125 Z M64.84375,50.875 L59.65625,50.875 L59.65625,23.125 L64.84375,23.125 L64.84375,50.875 Z" id="Shape"></path>
        </g>
        <text id="IBM-Blockchain-Platf" font-family="IBMPlexSans-SemiBold, IBM Plex Sans" font-size="37.07" font-weight="500" fill="#FFFFFF">
            <tspan x="680.3421" y="866">IBM Blockchain Platform Extension for VS Code  </tspan>
        </text>
    </g>
</svg>