<svg id="Layer_1" data-name="Layer 1" xmlns="http://www.w3.org/2000/svg" viewBox="0 0 1018.61 774"><defs><style>.cls-1{fill:#dcdcdc;stroke:#dcdcdc;}.cls-2{fill:#5a6872;}.cls-26,.cls-3{fill:#011688;}.cls-3{stroke:#857b7b;}.cls-13,.cls-16,.cls-18,.cls-32,.cls-4,.cls-7{isolation:isolate;font-family:IBMPlexSans-Medium, IBM Plex Sans;font-weight:500;}.cls-18,.cls-4{font-size:19px;}.cls-13,.cls-16,.cls-17,.cls-27,.cls-4,.cls-6{fill:#fff;}.cls-5{letter-spacing:-0.02em;}.cls-29,.cls-6{stroke:#fff;}.cls-7{font-size:16px;}.cls-18,.cls-31,.cls-32,.cls-7{fill:#010f5e;}.cls-8{letter-spacing:-0.02em;}.cls-9{letter-spacing:0em;}.cls-10{letter-spacing:-0.02em;}.cls-11{letter-spacing:0em;}.cls-12{fill:#0ccaeb;}.cls-13,.cls-16{font-size:14px;}.cls-13{letter-spacing:-0.01em;}.cls-14{letter-spacing:0em;}.cls-15{letter-spacing:-0.01em;}.cls-17{stroke:#979797;}.cls-19{letter-spacing:0em;}.cls-20{letter-spacing:0.01em;}.cls-21{letter-spacing:-0.01em;}.cls-22{letter-spacing:0em;}.cls-23{letter-spacing:0.01em;}.cls-24{letter-spacing:-0.01em;}.cls-25{letter-spacing:0em;}.cls-28,.cls-29,.cls-30{fill:none;}.cls-28{stroke:#001588;}.cls-30{stroke:#12c3f4;stroke-width:2px;}.cls-32{font-size:12px;}.cls-33{letter-spacing:0em;}.cls-34{letter-spacing:0.01em;}.cls-35{letter-spacing:-0.01em;}</style></defs><title>ibp-v2-build-network_Raft</title><rect id="Rectangle" class="cls-1" x="89.15" y="120.09" width="847" height="548"/><g id="UI-Icon_checkmark--outline_ui-05" data-name="UI-Icon/checkmark--outline/$ui-05"><path id="Oval-2" class="cls-2" d="M355.65,276.09a6.5,6.5,0,1,0-6.5-6.5A6.49,6.49,0,0,0,355.65,276.09Zm0,1.5a8,8,0,1,1,8-8A8,8,0,0,1,355.65,277.59Z"/><polygon id="check" class="cls-2" points="358.95 266.29 360.35 267.69 354.45 273.59 350.95 270.19 352.35 268.79 354.45 270.79 358.95 266.29"/></g><rect id="Rectangle-2" data-name="Rectangle" class="cls-3" x="113.15" y="157.09" width="347" height="151"/><text class="cls-4" transform="translate(131.86 191.59)">O<tspan class="cls-5" x="13.53" y="0">r</tspan><tspan x="20.44" y="0">g 1</tspan></text><rect id="Rectangle-3" data-name="Rectangle" class="cls-6" x="396.15" y="145.09" width="105" height="35"/><text class="cls-7" transform="translate(418.83 168.59)">O<tspan class="cls-8" x="11.39" y="0">r</tspan><tspan x="17.22" y="0">g1 </tspan><tspan class="cls-9" x="39.18" y="0">C</tspan><tspan x="49.28" y="0">A</tspan></text><rect id="Rectangle-4" data-name="Rectangle" class="cls-6" x="338.15" y="213.09" width="105" height="55"/><text class="cls-7" transform="translate(353.02 236.59)">O<tspan class="cls-8" x="11.39" y="0">r</tspan><tspan x="17.22" y="0">g1 MSP </tspan></text><text class="cls-7" transform="translate(356.27 256.59)">definition</text><rect id="Rectangle-5" data-name="Rectangle" class="cls-3" x="111.15" y="478.09" width="347" height="151"/><text class="cls-4" transform="translate(129.86 512.59)">O<tspan class="cls-5" x="13.53" y="0">r</tspan><tspan x="20.44" y="0">g 2</tspan></text><rect id="Rectangle-6" data-name="Rectangle" class="cls-6" x="130.15" y="536.09" width="105" height="61"/><text class="cls-7" transform="translate(142.77 572.59)"><tspan class="cls-10">P</tspan><tspan class="cls-11" x="9.71" y="0">eer O</tspan><tspan class="cls-8" x="48.8" y="0">r</tspan><tspan x="54.62" y="0">g2</tspan></text><rect id="Rectangle-7" data-name="Rectangle" class="cls-6" x="394.15" y="466.09" width="105" height="35"/><text class="cls-7" transform="translate(416.83 489.59)">O<tspan class="cls-8" x="11.39" y="0">r</tspan><tspan x="17.22" y="0">g2 </tspan><tspan class="cls-9" x="39.18" y="0">C</tspan><tspan x="49.28" y="0">A</tspan></text><rect id="Rectangle-8" data-name="Rectangle" class="cls-6" x="338.15" y="537.09" width="105" height="55"/><text class="cls-7" transform="translate(353.02 560.59)">O<tspan class="cls-8" x="11.39" y="0">r</tspan><tspan x="17.22" y="0">g2 MSP </tspan></text><text class="cls-7" transform="translate(356.27 580.59)">definition</text><rect id="Rectangle-9" data-name="Rectangle" class="cls-6" x="134.15" y="211.09" width="105" height="61"/><g id="Group-3"><path id="Fill-1" class="cls-12" d="M235.55,233.59h51v39c-25.5,0-25.5,14.9-51,6.4Z"/></g><g id="Group-3-Copy"><path id="Fill-1-2" data-name="Fill-1" class="cls-12" d="M229.55,564.59h51v39c-25.5,0-25.5,14.9-51,6.4Z"/></g><text class="cls-7" transform="translate(146.77 247.59)"><tspan class="cls-10">P</tspan><tspan class="cls-11" x="9.71" y="0">eer O</tspan><tspan class="cls-8" x="48.8" y="0">r</tspan><tspan x="54.62" y="0">g1</tspan></text><text class="cls-13" transform="translate(239.65 257.59)">L<tspan class="cls-14" x="7.04" y="0">ed</tspan><tspan class="cls-15" x="23.11" y="0">g</tspan><tspan class="cls-14" x="30.55" y="0">er</tspan></text><text class="cls-16" transform="translate(283.35 257.59)"> </text><text class="cls-16" transform="translate(239.65 272.59)">X</text><text class="cls-13" transform="translate(233.65 588.59)">L<tspan class="cls-14" x="7.04" y="0">ed</tspan><tspan class="cls-15" x="23.11" y="0">g</tspan><tspan class="cls-14" x="30.55" y="0">er</tspan></text><text class="cls-16" transform="translate(277.35 588.59)"> </text><text class="cls-16" transform="translate(233.65 603.59)">X</text><ellipse id="Oval" class="cls-17" cx="350.15" cy="395.09" rx="194.5" ry="51.5"/><text class="cls-18" transform="translate(307.4 406.59)">Channel 1</text><rect id="Rectangle-10" data-name="Rectangle" class="cls-3" x="524.15" y="286.59" width="347" height="214.5"/><text class="cls-4" transform="translate(544.1 321.09)">O<tspan class="cls-19" x="13.53" y="0">r</tspan><tspan x="20.71" y="0">dering Se</tspan><tspan class="cls-20" x="102.47" y="0">r</tspan><tspan x="109.91" y="0">vi</tspan><tspan class="cls-21" x="124.68" y="0">c</tspan><tspan x="134.25" y="0">e O</tspan><tspan class="cls-5" x="162.83" y="0">r</tspan><tspan x="169.74" y="0">g</tspan></text><rect id="Rectangle-11" data-name="Rectangle" class="cls-6" x="738.57" y="274.59" width="173.58" height="35"/><text class="cls-7" transform="translate(754.02 298.09)">O<tspan class="cls-22" x="11.39" y="0">r</tspan><tspan class="cls-11" x="17.44" y="0">dering se</tspan><tspan class="cls-23" x="84.62" y="0">r</tspan><tspan class="cls-11" x="90.89" y="0">vi</tspan><tspan class="cls-24" x="103.33" y="0">c</tspan><tspan x="111.39" y="0">e </tspan><tspan class="cls-25" x="124.06" y="0">C</tspan><tspan x="134.16" y="0">A</tspan></text><rect id="Rectangle-12" data-name="Rectangle" class="cls-6" x="721.15" y="371.64" width="135.83" height="55"/><text class="cls-7" transform="translate(728.19 395.44)">O<tspan class="cls-22" x="11.39" y="0">r</tspan><tspan class="cls-11" x="17.44" y="0">dering se</tspan><tspan class="cls-23" x="84.62" y="0">r</tspan><tspan class="cls-11" x="90.89" y="0">vi</tspan><tspan class="cls-24" x="103.33" y="0">c</tspan><tspan x="111.39" y="0">e </tspan></text><text class="cls-7" transform="translate(734.89 415.44)">MSP definition</text><rect id="Rectangle-13" data-name="Rectangle" class="cls-26" x="552.65" y="408.59" width="10" height="10"/><g id="Group-18"><g id="Group-5"><polygon id="Fill-1-3" data-name="Fill-1" class="cls-27" points="546.15 337.59 705.65 337.59 705.65 474.12 546.15 474.12 546.15 337.59"/><polygon id="Stroke-3" class="cls-28" points="546.15 474.12 705.65 474.12 705.65 337.59 546.15 337.59 546.15 474.12"/></g></g><line class="cls-29" x1="182.65" y1="272.09" x2="182.65" y2="367.09"/><line class="cls-29" x1="184.65" y1="422.09" x2="184.65" y2="533.09"/><circle class="cls-30" cx="625.9" cy="419.09" r="32.14"/><circle class="cls-31" cx="595.04" cy="412.58" r="8.35"/><circle class="cls-31" cx="625.9" cy="389.06" r="8.35"/><circle class="cls-31" cx="656.63" cy="412.58" r="8.35"/><circle class="cls-31" cx="607.67" cy="446.93" r="8.35"/><circle class="cls-31" cx="642.6" cy="446.93" r="8.35"/><text class="cls-32" transform="translate(562.65 363.52)">O<tspan class="cls-33" x="8.54" y="0">r</tspan><tspan x="13.08" y="0">dering se</tspan><tspan class="cls-34" x="63.47" y="0">r</tspan><tspan x="68.17" y="0">vi</tspan><tspan class="cls-35" x="77.5" y="0">c</tspan><tspan x="83.54" y="0">e nodes </tspan></text></svg>