<svg id="Layer_1" data-name="Layer 1" xmlns="http://www.w3.org/2000/svg" viewBox="0 0 1018.61 776.28"><defs><style>.cls-1{fill:#dcdcdc;}.cls-2{fill:#5a6872;}.cls-20,.cls-3{fill:#011688;stroke:#857b7b;}.cls-13,.cls-3,.cls-6{stroke-width:0.25px;}.cls-14,.cls-16,.cls-19,.cls-33,.cls-4,.cls-7{isolation:isolate;font-family:IBMPlexSans-Medium, IBM Plex Sans;font-weight:500;}.cls-14,.cls-4{font-size:19px;}.cls-13,.cls-16,.cls-19,.cls-24,.cls-29,.cls-4,.cls-6{fill:#fff;}.cls-5{letter-spacing:-0.02em;}.cls-24,.cls-6{stroke:#fff;}.cls-7{font-size:16px;}.cls-14,.cls-32,.cls-33,.cls-7{fill:#010f5e;}.cls-8{letter-spacing:-0.02em;}.cls-9{letter-spacing:0em;}.cls-10{letter-spacing:-0.02em;}.cls-11{letter-spacing:0em;}.cls-12{fill:#565656;stroke:#000;stroke-miterlimit:10;}.cls-13{stroke:#979797;}.cls-15{fill:#0ccaeb;}.cls-16,.cls-19{font-size:14px;}.cls-16{letter-spacing:-0.01em;}.cls-17{letter-spacing:0em;}.cls-18{letter-spacing:-0.01em;}.cls-21{letter-spacing:0em;}.cls-22{letter-spacing:0.01em;}.cls-23{letter-spacing:-0.01em;}.cls-25{letter-spacing:0em;}.cls-26{letter-spacing:0.01em;}.cls-27{letter-spacing:-0.01em;}.cls-28{letter-spacing:0em;}.cls-30,.cls-31{fill:none;}.cls-30{stroke:#001588;}.cls-31{stroke:#12c3f4;stroke-width:2px;}.cls-33{font-size:12px;}.cls-34{letter-spacing:0em;}.cls-35{letter-spacing:0.01em;}.cls-36{letter-spacing:-0.01em;}</style></defs><title>ibp-v2-build-network_Raft</title><rect id="Rectangle" class="cls-1" x="83.82" y="120.73" width="848" height="549"/><g id="UI-Icon_checkmark--outline_ui-05" data-name="UI-Icon/checkmark--outline/$ui-05"><path id="Oval-2" class="cls-2" d="M350.82,277.23a6.5,6.5,0,1,0-6.5-6.5A6.49,6.49,0,0,0,350.82,277.23Zm0,1.5a8,8,0,1,1,8-8A8,8,0,0,1,350.82,278.73Z"/><polygon id="check" class="cls-2" points="354.12 267.43 355.52 268.83 349.62 274.73 346.12 271.33 347.52 269.93 349.62 271.93 354.12 267.43"/></g><rect id="Rectangle-2" data-name="Rectangle" class="cls-3" x="108.32" y="158.23" width="347" height="151"/><text class="cls-4" transform="translate(127.03 192.73)">O<tspan class="cls-5" x="13.53" y="0">r</tspan><tspan x="20.44" y="0">g 1</tspan></text><rect id="Rectangle-3" data-name="Rectangle" class="cls-6" x="391.32" y="146.23" width="105" height="35"/><text class="cls-7" transform="translate(414 169.73)">O<tspan class="cls-8" x="11.39" y="0">r</tspan><tspan x="17.22" y="0">g1 </tspan><tspan class="cls-9" x="39.18" y="0">C</tspan><tspan x="49.28" y="0">A</tspan></text><rect id="Rectangle-4" data-name="Rectangle" class="cls-6" x="333.32" y="214.23" width="105" height="55"/><text class="cls-7" transform="translate(348.19 237.73)">O<tspan class="cls-8" x="11.39" y="0">r</tspan><tspan x="17.22" y="0">g1 MSP </tspan></text><text class="cls-7" transform="translate(351.44 257.73)">definition</text><rect id="Rectangle-5" data-name="Rectangle" class="cls-6" x="129.32" y="212.23" width="105" height="61"/><text class="cls-7" transform="translate(141.95 248.73)"><tspan class="cls-10">P</tspan><tspan class="cls-11" x="9.71" y="0">eer O</tspan><tspan class="cls-8" x="48.8" y="0">r</tspan><tspan x="54.62" y="0">g1</tspan></text><path id="Line-2" class="cls-12" d="M190.42,409.23l-.1-131.5v-.5h1v.5l.1,131.5h4l-4.5,9-4.5-9Z"/><ellipse id="Oval" class="cls-13" cx="345.32" cy="396.23" rx="194.5" ry="51.5"/><text class="cls-14" transform="translate(302.57 407.73)">Channel 1</text><g id="Group-3"><path id="Fill-1" class="cls-15" d="M230.72,234.73h51v39c-25.5,0-25.5,14.9-51,6.4Z"/></g><text class="cls-16" transform="translate(234.82 258.73)">L<tspan class="cls-17" x="7.04" y="0">ed</tspan><tspan class="cls-18" x="23.11" y="0">g</tspan><tspan class="cls-17" x="30.55" y="0">er</tspan></text><text class="cls-19" transform="translate(278.52 258.73)"> </text><text class="cls-19" transform="translate(234.82 273.73)">X</text><rect id="Rectangle-6" data-name="Rectangle" class="cls-20" x="507.83" y="280.6" width="347" height="214.5"/><text class="cls-4" transform="translate(527.78 315.1)">O<tspan class="cls-21" x="13.53" y="0">r</tspan><tspan x="20.71" y="0">dering Se</tspan><tspan class="cls-22" x="102.47" y="0">r</tspan><tspan x="109.91" y="0">vi</tspan><tspan class="cls-23" x="124.68" y="0">c</tspan><tspan x="134.25" y="0">e O</tspan><tspan class="cls-5" x="162.83" y="0">r</tspan><tspan x="169.74" y="0">g</tspan></text><rect id="Rectangle-7" data-name="Rectangle" class="cls-24" x="722.25" y="268.6" width="173.58" height="35"/><text class="cls-7" transform="translate(737.7 292.1)">O<tspan class="cls-25" x="11.39" y="0">r</tspan><tspan class="cls-11" x="17.44" y="0">dering se</tspan><tspan class="cls-26" x="84.62" y="0">r</tspan><tspan class="cls-11" x="90.89" y="0">vi</tspan><tspan class="cls-27" x="103.33" y="0">c</tspan><tspan x="111.39" y="0">e </tspan><tspan class="cls-28" x="124.06" y="0">C</tspan><tspan x="134.16" y="0">A</tspan></text><rect id="Rectangle-8" data-name="Rectangle" class="cls-24" x="704.83" y="365.65" width="135.83" height="55"/><text class="cls-7" transform="translate(711.87 389.45)">O<tspan class="cls-25" x="11.39" y="0">r</tspan><tspan class="cls-11" x="17.44" y="0">dering se</tspan><tspan class="cls-26" x="84.62" y="0">r</tspan><tspan class="cls-11" x="90.89" y="0">vi</tspan><tspan class="cls-27" x="103.33" y="0">c</tspan><tspan x="111.39" y="0">e </tspan></text><text class="cls-7" transform="translate(718.56 409.45)">MSP definition</text><g id="Group-18"><g id="Group-5"><polygon id="Fill-1-2" data-name="Fill-1" class="cls-29" points="529.83 331.6 689.33 331.6 689.33 468.13 529.83 468.13 529.83 331.6"/><polygon id="Stroke-3" class="cls-30" points="529.83 468.13 689.33 468.13 689.33 331.6 529.83 331.6 529.83 468.13"/></g></g><circle class="cls-31" cx="609.58" cy="413.1" r="32.14"/><circle class="cls-32" cx="578.71" cy="406.59" r="8.35"/><circle class="cls-32" cx="609.58" cy="383.07" r="8.35"/><circle class="cls-32" cx="640.31" cy="406.59" r="8.35"/><circle class="cls-32" cx="591.35" cy="440.95" r="8.35"/><circle class="cls-32" cx="626.27" cy="440.95" r="8.35"/><text class="cls-33" transform="translate(546.33 357.53)">O<tspan class="cls-34" x="8.54" y="0">r</tspan><tspan x="13.08" y="0">dering se</tspan><tspan class="cls-35" x="63.47" y="0">r</tspan><tspan x="68.17" y="0">vi</tspan><tspan class="cls-36" x="77.5" y="0">c</tspan><tspan x="83.54" y="0">e nodes </tspan></text></svg>