<?xml version="1.0" encoding="UTF-8" standalone="no"?>
<!-- Generator: Adobe Illustrator 22.0.0, SVG Export Plug-In . SVG Version: 6.00 Build 0)  -->

<svg
   xmlns:dc="http://purl.org/dc/elements/1.1/"
   xmlns:cc="http://creativecommons.org/ns#"
   xmlns:rdf="http://www.w3.org/1999/02/22-rdf-syntax-ns#"
   xmlns:svg="http://www.w3.org/2000/svg"
   xmlns="http://www.w3.org/2000/svg"
   xmlns:sodipodi="http://sodipodi.sourceforge.net/DTD/sodipodi-0.dtd"
   xmlns:inkscape="http://www.inkscape.org/namespaces/inkscape"
   version="1.1"
   id="Layer_1"
   x="0px"
   y="0px"
   viewBox="0 0 997 774"
   style="enable-background:new 0 0 997 774;"
   xml:space="preserve"
   inkscape:version="0.91 r13725"
   sodipodi:docname="ibp-v2-build-network.svg"><metadata
     id="metadata130"><rdf:RDF><cc:Work
         rdf:about=""><dc:format>image/svg+xml</dc:format><dc:type
           rdf:resource="http://purl.org/dc/dcmitype/StillImage" /></cc:Work></rdf:RDF></metadata><defs
     id="defs128" /><sodipodi:namedview
     pagecolor="#ffffff"
     bordercolor="#666666"
     borderopacity="1"
     objecttolerance="10"
     gridtolerance="10"
     guidetolerance="10"
     inkscape:pageopacity="0"
     inkscape:pageshadow="2"
     inkscape:window-width="1920"
     inkscape:window-height="1015"
     id="namedview126"
     showgrid="false"
     inkscape:zoom="1.557783"
     inkscape:cx="476.90309"
     inkscape:cy="386.5"
     inkscape:window-x="-8"
     inkscape:window-y="-8"
     inkscape:window-maximized="1"
     inkscape:current-layer="Layer_1" /><style
     type="text/css"
     id="style3">
	.st0{fill:#DCDCDC;stroke:#DCDCDC;}
	.st1{fill:#5A6872;}
	.st2{fill:#011688;stroke:#857B7B;}
	.st3{fill:#FFFFFF;}
	.st4{font-family:'IBMPlexSans-Medium';}
	.st5{font-size:19px;}
	.st6{fill:#FFFFFF;stroke:#FFFFFF;}
	.st7{fill:#010F5E;}
	.st8{font-size:16px;}
	.st9{filter:url(#Adobe_OpacityMaskFilter);}
	.st10{mask:url(#mask-2_1_);fill:#0CCAEB;}
	.st11{filter:url(#Adobe_OpacityMaskFilter_1_);}
	.st12{mask:url(#mask-4_1_);fill:#0CCAEB;}
	.st13{font-size:14px;}
	.st14{fill:#FFFFFF;stroke:#979797;}
	.st15{fill:#011688;}
	.st16{filter:url(#Adobe_OpacityMaskFilter_2_);}
	.st17{mask:url(#mask-6_1_);fill:none;stroke:#001588;}
	.st18{fill:#001588;}
	.st19{fill:#C5C5C5;}
	.st20{fill:#767171;}
	.st21{stroke:#FFFFFF;}
</style><title
     id="title5">Build your network</title><desc
     id="desc7">Created with Sketch.</desc><rect
     id="Rectangle"
     x="62.5"
     y="113.5"
     class="st0"
     width="847"
     height="548"
     inkscape:export-xdpi="90"
     inkscape:export-ydpi="90" /><g
     id="UI-Icon_x2F_checkmark--outline_x2F__x24_ui-05"
     transform="translate(321.000000, 255.000000)"><path
       id="Oval-2"
       class="st1"
       d="M8,14.5c3.6,0,6.5-2.9,6.5-6.5S11.6,1.5,8,1.5S1.5,4.4,1.5,8S4.4,14.5,8,14.5z M8,16   c-4.4,0-8-3.6-8-8s3.6-8,8-8s8,3.6,8,8S12.4,16,8,16z" /><polygon
       id="check"
       class="st1"
       points="11.3,4.7 12.7,6.1 6.8,12 3.3,8.6 4.7,7.2 6.8,9.2  " /></g><rect
     id="Rectangle_1_"
     x="86.5"
     y="150.5"
     class="st2"
     width="347"
     height="151" /><text
     transform="matrix(1 0 0 1 105.206 185)"
     class="st3 st4 st5"
     id="text14"><tspan
       style="-inkscape-font-specification:Gulim;font-family:Gulim;font-weight:normal;font-style:normal;font-stretch:normal;font-variant:normal"
       id="tspan4258">조직 1</tspan></text>
<rect
     id="Rectangle_2_"
     x="369.5"
     y="138.5"
     class="st6"
     width="105"
     height="35" /><text
     transform="matrix(1 0 0 1 392.176 162)"
     class="st7 st4 st8"
     id="text17"><tspan
       style="-inkscape-font-specification:Gulim;font-family:Gulim;font-weight:normal;font-style:normal;font-stretch:normal;font-variant:normal"
       id="tspan4264">조직1</tspan><tspan
       style="-inkscape-font-specification:Arial;font-family:Arial;font-weight:normal;font-style:normal;font-stretch:normal;font-variant:normal"
       id="tspan4298"> CA</tspan></text>
<rect
     id="Rectangle_3_"
     x="311.5"
     y="206.5"
     class="st6"
     width="105"
     height="55" /><text
     transform="matrix(1 0 0 1 326.368 230)"
     class="st7 st4 st8"
     id="text20"><tspan
       style="-inkscape-font-specification:Gulim;font-family:Gulim;font-weight:normal;font-style:normal;font-stretch:normal;font-variant:normal"
       id="tspan4266">조직1</tspan><tspan
       style="-inkscape-font-specification:Arial;font-family:Arial;font-weight:normal;font-style:normal;font-stretch:normal;font-variant:normal"
       id="tspan4296"> MSP </tspan></text>
<text
     class="st7 st4 st8"
     id="text22"
     x="325.616"
     y="250"
     style="font-size:16px;font-family:IBMPlexSans-Medium;fill:#010f5e"><tspan
       style="font-style:normal;font-variant:normal;font-weight:normal;font-stretch:normal;font-family:Gulim;-inkscape-font-specification:Gulim"
       id="tspan4268">정의</tspan></text>
<rect
     id="Rectangle_4_"
     x="84.5"
     y="471.5"
     class="st2"
     width="347"
     height="151" /><text
     transform="matrix(1 0 0 1 103.206 506)"
     class="st3 st4 st5"
     id="text25"><tspan
       style="-inkscape-font-specification:Gulim;font-family:Gulim;font-weight:normal;font-style:normal;font-stretch:normal;font-variant:normal"
       id="tspan4284">조직 2</tspan></text>
<rect
     id="Rectangle_5_"
     x="103.5"
     y="529.5"
     class="st6"
     width="105"
     height="61" /><text
     transform="matrix(1 0 0 1 116.124 566)"
     class="st7 st4 st8"
     id="text28"><tspan
       style="-inkscape-font-specification:Gulim;font-family:Gulim;font-weight:normal;font-style:normal;font-stretch:normal;font-variant:normal"
       id="tspan4286">피어 조직2</tspan></text>
<rect
     id="Rectangle_6_"
     x="367.5"
     y="459.5"
     class="st6"
     width="105"
     height="35" /><text
     transform="matrix(1 0 0 1 390.176 483)"
     class="st7 st4 st8"
     id="text31"><tspan
       style="-inkscape-font-specification:Gulim;font-family:Gulim;font-weight:normal;font-style:normal;font-stretch:normal;font-variant:normal"
       id="tspan4280">조직2</tspan><tspan
       style="-inkscape-font-specification:Arial;font-family:Arial;font-weight:normal;font-style:normal;font-stretch:normal;font-variant:normal"
       id="tspan4306"> CA</tspan></text>
<rect
     id="Rectangle_7_"
     x="311.5"
     y="530.5"
     class="st6"
     width="105"
     height="55" /><text
     transform="matrix(1 0 0 1 326.368 554)"
     class="st7 st4 st8"
     id="text34"><tspan
       style="-inkscape-font-specification:Gulim;font-family:Gulim;font-weight:normal;font-style:normal;font-stretch:normal;font-variant:normal"
       id="tspan4290">조직2</tspan><tspan
       style="-inkscape-font-specification:Arial;font-family:Arial;font-weight:normal;font-style:normal;font-stretch:normal;font-variant:normal"
       id="tspan4304"> MSP </tspan></text>
<text
     class="st7 st4 st8"
     id="text36"
     x="325.616"
     y="574"
     style="font-size:16px;font-family:IBMPlexSans-Medium;fill:#010f5e"><tspan
       style="font-style:normal;font-variant:normal;font-weight:normal;font-stretch:normal;font-family:Gulim;-inkscape-font-specification:Gulim"
       id="tspan4292">정의</tspan></text>
<rect
     id="Rectangle_8_"
     x="107.5"
     y="204.5"
     class="st6"
     width="105"
     height="61" /><g
     id="Group-3"
     transform="translate(208.000000, 227.000000)"><g
       id="Clip-2" /><defs
       id="defs41"><filter
         id="Adobe_OpacityMaskFilter"
         filterUnits="userSpaceOnUse"
         x="0.9"
         y="0"
         width="51"
         height="48"><feColorMatrix
           type="matrix"
           values="1 0 0 0 0  0 1 0 0 0  0 0 1 0 0  0 0 0 1 0"
           id="feColorMatrix44" /></filter></defs><mask
       maskUnits="userSpaceOnUse"
       x="0.9"
       y="0"
       width="51"
       height="48"
       id="mask-2_1_"><g
         class="st9"
         id="g47"><polygon
           id="path-1_1_"
           class="st3"
           points="0.9,0 51.9,0 51.9,48 0.9,48    " /></g></mask><path
       id="Fill-1"
       class="st10"
       d="M0.9,0h51v39c-25.5,0-25.5,14.9-51,6.4V0z"
       mask="url(#mask-2_1_)" /></g><g
     id="Group-3-Copy"
     transform="translate(202.000000, 558.000000)"><g
       id="Clip-2_1_" /><defs
       id="defs53"><filter
         id="Adobe_OpacityMaskFilter_1_"
         filterUnits="userSpaceOnUse"
         x="0.9"
         y="0"
         width="51"
         height="48"><feColorMatrix
           type="matrix"
           values="1 0 0 0 0  0 1 0 0 0  0 0 1 0 0  0 0 0 1 0"
           id="feColorMatrix56" /></filter></defs><mask
       maskUnits="userSpaceOnUse"
       x="0.9"
       y="0"
       width="51"
       height="48"
       id="mask-4_1_"><g
         class="st11"
         id="g59"><polygon
           id="path-3_1_"
           class="st3"
           points="0.9,0 51.9,0 51.9,48 0.9,48    " /></g></mask><path
       id="Fill-1_1_"
       class="st12"
       d="M0.9,0h51v39c-25.5,0-25.5,14.9-51,6.4V0z"
       mask="url(#mask-4_1_)" /></g><text
     transform="matrix(1 0 0 1 120.124 241)"
     class="st7 st4 st8"
     id="text63"><tspan
       style="-inkscape-font-specification:Gulim;font-family:Gulim;font-weight:normal;font-style:normal;font-stretch:normal;font-variant:normal"
       id="tspan4260">피어 조직1</tspan></text>
<text
     transform="matrix(1 0 0 1 213 251)"
     class="st3 st4 st13"
     id="text65"><tspan
       style="-inkscape-font-specification:Gulim;font-family:Gulim;font-weight:normal;font-style:normal;font-stretch:normal;font-variant:normal"
       id="tspan4262">원장</tspan></text>
<text
     transform="matrix(1 0 0 1 256.6936 251)"
     class="st3 st4 st13"
     id="text67" />
<text
     transform="matrix(1 0 0 1 213 266)"
     class="st3 st4 st13"
     id="text69"><tspan
       style="-inkscape-font-specification:Arial;font-family:Arial;font-weight:normal;font-style:normal;font-stretch:normal;font-variant:normal"
       id="tspan4294">X</tspan></text>
<text
     transform="matrix(1 0 0 1 207 582)"
     class="st3 st4 st13"
     id="text71"><tspan
       style="-inkscape-font-specification:Gulim;font-family:Gulim;font-weight:normal;font-style:normal;font-stretch:normal;font-variant:normal"
       id="tspan4288">원장</tspan></text>
<text
     transform="matrix(1 0 0 1 250.6936 582)"
     class="st3 st4 st13"
     id="text73" />
<text
     transform="matrix(1 0 0 1 207 597)"
     class="st3 st4 st13"
     id="text75"><tspan
       style="-inkscape-font-specification:Arial;font-family:Arial;font-weight:normal;font-style:normal;font-stretch:normal;font-variant:normal"
       id="tspan4308">X</tspan></text>
<ellipse
     id="Oval"
     class="st14"
     cx="323.5"
     cy="388.5"
     rx="194.5"
     ry="51.5" /><text
     class="st7 st4 st5"
     id="text78"
     x="292.74649"
     y="392"
     style="font-size:19px;font-family:IBMPlexSans-Medium;fill:#010f5e"><tspan
       style="font-style:normal;font-variant:normal;font-weight:normal;font-stretch:normal;font-family:Gulim;-inkscape-font-specification:Gulim"
       id="tspan4282">채널 1</tspan></text>
<rect
     id="Rectangle_9_"
     x="497.5"
     y="307.5"
     class="st2"
     width="347"
     height="151" /><text
     transform="matrix(1 0 0 1 517.447 342)"
     class="st3 st4 st5"
     id="text81"><tspan
       style="-inkscape-font-specification:Gulim;font-family:Gulim;font-weight:normal;font-style:normal;font-stretch:normal;font-variant:normal"
       id="tspan4270">순서 지정자 조직</tspan></text>
<rect
     id="Rectangle_10_"
     x="780.5"
     y="295.5"
     class="st6"
     width="105"
     height="35" /><text
     class="st7 st4 st8"
     id="text84"
     x="781.34003"
     y="319"
     style="font-size:16px;font-family:IBMPlexSans-Medium;fill:#010f5e"><tspan
       style="font-style:normal;font-variant:normal;font-weight:normal;font-stretch:normal;font-size:14.75px;font-family:Gulim;-inkscape-font-specification:Gulim"
       id="tspan4274">순서 지정자</tspan><tspan
       style="font-style:normal;font-variant:normal;font-weight:normal;font-stretch:normal;font-size:14.75px;font-family:Arial;-inkscape-font-specification:Arial"
       id="tspan4302"> CA</tspan></text>
<rect
     id="Rectangle_11_"
     x="694.5"
     y="360.5"
     class="st6"
     width="124"
     height="55" /><text
     transform="translate(711.92,385)"
     class="st7 st4 st8"
     id="text87"
     style="font-size:16px;font-family:IBMPlexSans-Medium;fill:#010f5e"><tspan
       style="font-style:normal;font-variant:normal;font-weight:normal;font-stretch:normal;font-family:Gulim;-inkscape-font-specification:Gulim"
       id="tspan4276"> 순서 지정자</tspan></text>
<text
     class="st7 st4 st8"
     id="text89"
     style="font-size:16px;font-family:IBMPlexSans-Medium;fill:#010f5e"
     x="723.61603"
     y="403"><tspan
       style="font-style:normal;font-variant:normal;font-weight:normal;font-stretch:normal;font-family:Arial;-inkscape-font-specification:Arial"
       id="tspan4300">MSP</tspan><tspan
       style="font-style:normal;font-variant:normal;font-weight:normal;font-stretch:normal;font-family:Gulim;-inkscape-font-specification:Gulim"
       id="tspan4278"> 정의</tspan></text>
<rect
     id="Rectangle_12_"
     x="526"
     y="402"
     class="st15"
     width="10"
     height="10" /><g
     id="Group-18"
     transform="translate(518.000000, 357.000000)"><g
       id="Group-5"><polygon
         id="Fill-1_2_"
         class="st3"
         points="1.5,1.5 135.5,1.5 135.5,60.5 1.5,60.5   " /><g
         id="Clip-4" /><defs
         id="defs96"><filter
           id="Adobe_OpacityMaskFilter_2_"
           filterUnits="userSpaceOnUse"
           x="1"
           y="1"
           width="135"
           height="60"><feColorMatrix
             type="matrix"
             values="1 0 0 0 0  0 1 0 0 0  0 0 1 0 0  0 0 0 1 0"
             id="feColorMatrix99" /></filter></defs><mask
         maskUnits="userSpaceOnUse"
         x="1"
         y="1"
         width="135"
         height="60"
         id="mask-6_1_"><g
           class="st16"
           id="g102"><polygon
             id="path-5_1_"
             class="st3"
             points="0,62 137,62 137,0 0,0     " /></g></mask><polygon
         id="Stroke-3"
         class="st17"
         points="1.5,60.5 135.5,60.5 135.5,1.5 1.5,1.5   "
         mask="url(#mask-6_1_)" /></g><polygon
       id="Fill-6"
       class="st18"
       points="8,54 46,54 46,37 8,37  " /><polygon
       id="Fill-7"
       class="st18"
       points="89,54 127,54 127,37 89,37  " /><polygon
       id="Fill-8"
       class="st18"
       points="49,54 86,54 86,37 49,37  " /><polygon
       id="Fill-9"
       class="st19"
       points="52,49 59,49 59,41 52,41  " /><polygon
       id="Fill-10"
       class="st19"
       points="60,49 67,49 67,41 60,41  " /><polygon
       id="Fill-11"
       class="st19"
       points="68,49 75,49 75,41 68,41  " /><polygon
       id="Fill-12"
       class="st19"
       points="76,49 83,49 83,41 76,41  " /><path
       id="Fill-13"
       class="st20"
       d="M56.5,36.2h0.3l-0.5,0.5v-6.9l0.5,0.5h-0.8v-1h1.3v7.9h-0.8V36.2z M44.9,30.3h8v-1h-8V30.3z    M33.9,30.3h8v-1h-8V30.3z M30.9,30.3h-5.4l0.5-0.5v1.7h-1v-2.2h5.9V30.3z M28.5,30.5l-3,6l-3-6H28.5z" /><path
       id="Fill-14"
       class="st20"
       d="M112.5,36.2h0.3l-0.5,0.5v-6.9l0.5,0.5h-0.8v-1h1.3v7.9h-0.8V36.2z M100.9,30.3h8v-1h-8V30.3z    M89.9,30.3h8v-1h-8V30.3z M86.9,30.3h-5.4l0.5-0.5v1.7h-1v-2.2h5.9V30.3z M84.5,30.5l-3,6l-3-6H84.5z" /><polygon
       id="Fill-15"
       class="st19"
       points="93,49 100,49 100,41 93,41  " /><polygon
       id="Fill-16"
       class="st19"
       points="101,49 108,49 108,41 101,41  " /><polygon
       id="Fill-17"
       class="st19"
       points="109,49 116,49 116,41 109,41  " /></g><text
     class="st7 st4 st8"
     id="text118"
     x="544.32397"
     y="379"
     style="font-size:16px;font-family:IBMPlexSans-Medium;fill:#010f5e"><tspan
       style="font-style:normal;font-variant:normal;font-weight:normal;font-stretch:normal;font-family:Gulim;-inkscape-font-specification:Gulim"
       id="tspan4272">순서 지정자</tspan></text>
<g
     id="g120"><line
       class="st21"
       x1="156"
       y1="265.5"
       x2="156"
       y2="360.5"
       id="line122" /><line
       class="st21"
       x1="158"
       y1="415.5"
       x2="158"
       y2="526.5"
       id="line124" /></g></svg>
