<?xml version="1.0" encoding="UTF-8" standalone="no"?>
<svg
   xmlns:dc="http://purl.org/dc/elements/1.1/"
   xmlns:cc="http://creativecommons.org/ns#"
   xmlns:rdf="http://www.w3.org/1999/02/22-rdf-syntax-ns#"
   xmlns:svg="http://www.w3.org/2000/svg"
   xmlns="http://www.w3.org/2000/svg"
   xmlns:xlink="http://www.w3.org/1999/xlink"
   xmlns:sodipodi="http://sodipodi.sourceforge.net/DTD/sodipodi-0.dtd"
   xmlns:inkscape="http://www.inkscape.org/namespaces/inkscape"
   width="1242px"
   height="993px"
   viewBox="0 0 1242 993"
   version="1.1"
   id="svg2"
   inkscape:version="0.91 r13725"
   sodipodi:docname="v10_txflow.svg"
   inkscape:export-filename="V:\PUB\ABD141\ART\WORK\ship2\images\v10_txflow.png"
   inkscape:export-xdpi="184.05797"
   inkscape:export-ydpi="184.05797">
  <metadata
     id="metadata766">
    <rdf:RDF>
      <cc:Work
         rdf:about="">
        <dc:format>image/svg+xml</dc:format>
        <dc:type
           rdf:resource="http://purl.org/dc/dcmitype/StillImage" />
      </cc:Work>
    </rdf:RDF>
  </metadata>
  <sodipodi:namedview
     pagecolor="#ffffff"
     bordercolor="#666666"
     borderopacity="1"
     objecttolerance="10"
     gridtolerance="10"
     guidetolerance="10"
     inkscape:pageopacity="0"
     inkscape:pageshadow="2"
     inkscape:window-width="1920"
     inkscape:window-height="1015"
     id="namedview764"
     showgrid="false"
     inkscape:zoom="0.88824635"
     inkscape:cx="606.54412"
     inkscape:cy="516.35156"
     inkscape:window-x="-8"
     inkscape:window-y="-8"
     inkscape:window-maximized="1"
     inkscape:current-layer="svg2" />
  <!-- Generator: Sketch 46.2 (44496) - http://www.bohemiancoding.com/sketch -->
  <title
     id="title4">Artboard Copy</title>
  <desc
     id="desc6">Created with Sketch.</desc>
  <defs
     id="defs8">
    <polygon
       id="path-1"
       points="8.05378522 0.000122007042 16.1074075 0.000122007042 16.1074075 16.0761766 8.05378522 16.0761766 0.000162985075 16.0761766 0.000162985075 0.000122007042 8.05378522 0.000122007042" />
    <rect
       id="path-3"
       x="0"
       y="23"
       width="192"
       height="180" />
    <mask
       id="mask-4"
       maskContentUnits="userSpaceOnUse"
       maskUnits="objectBoundingBox"
       x="0"
       y="0"
       width="192"
       height="180"
       fill="white">
      <use
         xlink:href="#path-3"
         id="use13" />
    </mask>
  </defs>
  <path
     d="m 384.5,250.5 0,521.00098"
     id="Line"
     inkscape:connector-curvature="0"
     style="fill:none;fill-rule:evenodd;stroke:#6e5f5f;stroke-width:1;stroke-linecap:square" />
  <path
     d="m 604.5,250.5 0,521.00098"
     id="path18"
     inkscape:connector-curvature="0"
     style="fill:none;fill-rule:evenodd;stroke:#6e5f5f;stroke-width:1;stroke-linecap:square" />
  <path
     d="m 804.5,250.5 0,521.00098"
     id="path20"
     inkscape:connector-curvature="0"
     style="fill:none;fill-rule:evenodd;stroke:#6e5f5f;stroke-width:1;stroke-linecap:square" />
  <path
     d="m 1004.5,250.5 0,521.00098"
     id="path22"
     inkscape:connector-curvature="0"
     style="fill:none;fill-rule:evenodd;stroke:#6e5f5f;stroke-width:1;stroke-linecap:square" />
  <text
     id="Client-A"
     font-size="18"
     font-weight="300"
     style="font-style:normal;font-variant:normal;font-weight:normal;font-stretch:normal;font-size:18px;line-height:125%;font-family:Gulim;-inkscape-font-specification:'Gulim, Normal';text-align:center;writing-mode:lr-tb;text-anchor:middle;fill:#6e5f5f;fill-rule:evenodd;stroke:none;stroke-width:1"
     sodipodi:linespacing="125%"
     x="183.01529"
     y="803.83105">
    <tspan
       sodipodi:role="line"
       id="tspan6071"
       x="183.01529"
       y="803.83105">클라이언트</tspan>
    <tspan
       sodipodi:role="line"
       id="tspan6073"
       x="183.01529"
       y="826.33105">A</tspan>
  </text>
  <text
     id="App-with-SDK"
     font-size="18"
     font-weight="300"
     style="font-weight:normal;font-size:17.99999952px;font-family:Gulim;fill:#6e5f5f;fill-rule:evenodd;stroke:none;stroke-width:1;-inkscape-font-specification:'Gulim, Normal';font-style:normal;font-stretch:normal;font-variant:normal;text-anchor:start;text-align:start;writing-mode:lr;line-height:125%;"
     sodipodi:linespacing="125%">
    <tspan
       x="351.16501"
       y="802"
       id="tspan30"
       style="-inkscape-font-specification:'Gulim, Normal';font-family:Gulim;font-weight:normal;font-style:normal;font-stretch:normal;font-variant:normal;font-size:17.99999952px;text-anchor:start;text-align:start;writing-mode:lr;line-height:125%;">SDK가 있는</tspan>
    <tspan
       x="367.83301"
       y="823"
       id="tspan32"
       style="-inkscape-font-specification:'Gulim, Normal';font-family:Gulim;font-weight:normal;font-style:normal;font-stretch:normal;font-variant:normal;font-size:17.99999952px;text-anchor:start;text-align:start;writing-mode:lr;line-height:125%;">앱</tspan>
  </text>
  <path
     d="m 584.5,250.5 0,521.00098"
     id="path34"
     inkscape:connector-curvature="0"
     style="fill:none;fill-rule:evenodd;stroke:#6e5f5f;stroke-width:1;stroke-linecap:square" />
  <path
     d="m 184.5,250.5 0,521.00098"
     id="path36"
     inkscape:connector-curvature="0"
     style="fill:none;fill-rule:evenodd;stroke:#6e5f5f;stroke-width:1;stroke-linecap:square" />
  <text
     id="Peers-A-+-B"
     font-size="18"
     font-weight="300"
     style="font-weight:normal;font-size:17.99999952px;font-family:Gulim;fill:#6e5f5f;fill-rule:evenodd;stroke:none;stroke-width:1;-inkscape-font-specification:'Gulim, Normal';font-style:normal;font-stretch:normal;font-variant:normal;text-anchor:start;text-align:start;writing-mode:lr;line-height:125%;"
     sodipodi:linespacing="125%">
    <tspan
       x="575.32397"
       y="802"
       id="tspan39"
       style="-inkscape-font-specification:'Gulim, Normal';font-family:Gulim;font-weight:normal;font-style:normal;font-stretch:normal;font-variant:normal;font-size:17.99999952px;text-anchor:start;text-align:start;writing-mode:lr;line-height:125%;">피어</tspan>
    <tspan
       x="575.42297"
       y="823"
       id="tspan41"
       style="-inkscape-font-specification:'Gulim, Normal';font-family:Gulim;font-weight:normal;font-style:normal;font-stretch:normal;font-variant:normal;font-size:17.99999952px;text-anchor:start;text-align:start;writing-mode:lr;line-height:125%;">A + B</tspan>
  </text>
  <text
     id="Ordering-Service"
     font-size="18"
     font-weight="300"
     style="font-style:normal;font-variant:normal;font-weight:normal;font-stretch:normal;font-size:18px;line-height:125%;font-family:Gulim;-inkscape-font-specification:'Gulim, Normal';text-align:start;writing-mode:lr-tb;text-anchor:start;fill:#6e5f5f;fill-rule:evenodd;stroke:none;stroke-width:1"
     sodipodi:linespacing="125%"
     x="-4">
    <tspan
       x="766.98401"
       y="802"
       id="tspan44"
       style="font-style:normal;font-variant:normal;font-weight:normal;font-stretch:normal;font-size:18px;line-height:125%;font-family:Gulim;-inkscape-font-specification:'Gulim, Normal';text-align:start;writing-mode:lr-tb;text-anchor:start">순서 지정</tspan>
    <tspan
       x="772.15002"
       y="823"
       id="tspan46"
       style="font-style:normal;font-variant:normal;font-weight:normal;font-stretch:normal;font-size:18px;line-height:125%;font-family:Gulim;-inkscape-font-specification:'Gulim, Normal';text-align:start;writing-mode:lr-tb;text-anchor:start">서비스</tspan>
  </text>
  <text
     id="Ledger"
     font-size="18"
     font-weight="300"
     style="font-style:normal;font-variant:normal;font-weight:normal;font-stretch:normal;font-size:18px;line-height:125%;font-family:Gulim;-inkscape-font-specification:'Gulim, Normal';text-align:start;writing-mode:lr-tb;text-anchor:start;fill:#6e5f5f;fill-rule:evenodd;stroke:none;stroke-width:1"
     sodipodi:linespacing="125%"
     x="8">
    <tspan
       x="987.32001"
       y="802"
       id="tspan49"
       style="font-style:normal;font-variant:normal;font-weight:normal;font-stretch:normal;font-size:18px;line-height:125%;font-family:Gulim;-inkscape-font-specification:'Gulim, Normal';text-align:start;writing-mode:lr-tb;text-anchor:start">원장</tspan>
  </text>
  <rect
     style="fill:#cee07f;fill-rule:evenodd;stroke:none;stroke-width:1"
     height="37.777779"
     width="15.107142"
     y="867.11108"
     x="162.67857"
     id="Rectangle" />
  <path
     style="fill:#659b5a;fill-rule:evenodd;stroke:none;stroke-width:1"
     inkscape:connector-curvature="0"
     id="Fill-1"
     d="m 190.09524,903.77794 4.47619,0 0,-4.44444 -4.47619,0 0,4.44444 z m -22.38095,-4.44444 4.47619,0 0,-4.44444 -4.47619,0 0,4.44444 z m 5.59523,-6.66667 c 0.58582,0.0195 1.10506,0.61056 1.11905,1.11111 l 0,6.66667 c 0,0.58167 -0.53323,1.11111 -1.11905,1.11111 l -6.71428,0 c -0.58582,0 -1.11905,-0.52944 -1.11905,-1.11111 l 0,-6.66667 c 0,-0.58166 0.53323,-1.11111 1.11905,-1.11111 l 6.71428,0 z m 10.07143,0 5.59524,0 0,-5.55555 -5.59524,0 0,5.55555 z m 12.30953,0 5.59523,0 0,-5.55555 -5.59523,0 0,5.55555 z m -5.59524,-7.77777 c 0.61939,0.015 1.12072,0.61666 1.11905,1.11111 l 0,7.77777 c 0,0.58167 -0.53323,1.11112 -1.11905,1.11112 l -7.83333,0 c -0.58583,0 -1.11905,-0.52945 -1.11905,-1.11112 l 0,-7.77777 c 0,-0.58167 0.53322,-1.11111 1.11905,-1.11111 l 7.83333,0 z m 12.30952,0 c 0.61939,0.015 1.12073,0.61666 1.11905,1.11111 l 0,7.77777 c 0,0.58167 -0.53323,1.11112 -1.11905,1.11112 l -7.83333,0 c -0.58582,0 -1.11905,-0.52945 -1.11905,-1.11112 l 0,-7.77777 c 0,-0.58167 0.53323,-1.11111 1.11905,-1.11111 l 7.83333,0 z m -34.69047,3.33333 4.47619,0 0,-4.44445 -4.47619,0 0,4.44445 z m 5.59523,-6.66667 c 0.58582,0.0195 1.10506,0.61056 1.11905,1.11111 l 0,6.66667 c 0,0.58167 -0.53322,1.11111 -1.11905,1.11111 l -6.71428,0 c -0.58582,0 -1.11905,-0.52944 -1.11905,-1.11111 l 0,-6.66667 c 0,-0.58166 0.53323,-1.11111 1.11905,-1.11111 l 6.71428,0 z m 10.07143,-1.11111 5.59524,0 0,-5.55555 -5.59524,0 0,5.55555 z m 12.30953,0 5.59523,0 0,-5.55555 -5.59523,0 0,5.55555 z m -27.97619,-3.33333 4.47619,0 0,-4.44445 -4.47619,0 0,4.44445 z m 22.38095,-4.44445 c 0.61939,0.015 1.12072,0.61667 1.11905,1.11111 l 0,7.77778 c 0,0.58167 -0.53323,1.11111 -1.11905,1.11111 l -7.83333,0 c -0.58583,0 -1.11905,-0.52944 -1.11905,-1.11111 l 0,-7.77778 c 0,-0.58166 0.53322,-1.11111 1.11905,-1.11111 l 7.83333,0 z m 12.30952,0 c 0.61939,0.015 1.12073,0.61667 1.11905,1.11111 l 0,7.77778 c 0,0.58167 -0.53323,1.11111 -1.11905,1.11111 l -7.83333,0 c -0.58582,0 -1.11905,-0.52944 -1.11905,-1.11111 l 0,-7.77778 c 0,-0.58166 0.53323,-1.11111 1.11905,-1.11111 l 7.83333,0 z m -29.09524,-2.22222 c 0.58582,0.0194 1.10506,0.61056 1.11905,1.11111 l 0,6.66667 c 0,0.58167 -0.53323,1.11111 -1.11905,1.11111 l -6.71428,0 c -0.58582,0 -1.11905,-0.52944 -1.11905,-1.11111 l 0,-6.66667 c 0,-0.58166 0.53323,-1.11111 1.11905,-1.11111 l 6.71428,0 z m -10.07142,33.33333 0,-35.55555 13.42857,0 0,35.55555 -13.42857,0 z m 15.66666,-44.93055 26.85715,12.30889 0,32.62166 -8.95239,0 0,-5.55555 c -0.014,-0.50056 -0.46272,-1.07778 -1.11904,-1.11111 l -6.71429,0 c -0.58582,0 -1.11905,0.52944 -1.11905,1.11111 l 0,5.55555 -8.95238,0 0,-44.93055 z m -1.13639,-2.84722 c 0.16674,-0.003 0.33068,0.0322 0.48958,0.0867 l 29.09524,13.33334 c 0.38887,0.18 0.65352,0.59833 0.64681,1.02444 l 0,34.44445 c 0,0.58166 -0.53323,1.11111 -1.11905,1.11111 l -29.09524,0 -15.66666,0 c -0.61828,0 -1.11905,-0.49778 -1.11905,-1.11111 l 0,-37.77778 c 0,-0.61389 0.50077,-1.11111 1.11905,-1.11111 l 14.54762,0 0,-8.88889 c 0.11638,-0.79611 0.60092,-1.10222 1.1017,-1.11111 l 0,0 z" />
  <g
     style="fill:none;fill-rule:evenodd;stroke:none;stroke-width:1"
     id="Group-11"
     transform="translate(360,854)">
    <g
       transform="translate(18.626866,19.366197)"
       id="Gear-/-wrench">
      <g
         id="Page-1-Copy-3">
        <mask
           fill="white"
           id="mask-2">
          <use
             height="100%"
             width="100%"
             y="0"
             x="0"
             id="use59"
             xlink:href="#path-1" />
        </mask>
        <g
           id="Clip-2" />
      </g>
      <path
         style="fill:#cee07f"
         inkscape:connector-curvature="0"
         id="Fill-1-Copy"
         d="M 1.8873211,9.205263 0.2162681,9.0078612 C 0.09768243,8.9950221 0,8.8850869 0,8.76472 L 0,7.0940267 C 0,6.9756659 0.09768243,6.8649283 0.2162681,6.8524904 l 1.671053,-0.197803 C 2.0473113,5.8951719 2.3475943,5.1862106 2.7604332,4.5586976 L 1.7164773,3.2366673 C 1.6417081,3.1447871 1.6501497,2.9983407 1.7345667,2.9136826 L 2.9188154,1.7312779 C 3.0036343,1.6474223 3.149153,1.6377929 3.2444235,1.7132229 L 4.5669553,2.7531933 C 5.1972682,2.3443469 5.9063704,2.0438308 6.6677305,1.8845452 L 6.8647034,0.21465439 C 6.8775669,0.09709601 6.9869069,0 7.1079045,0 L 8.7821733,0 C 8.902367,0 9.010903,0.09709601 9.0253745,0.21465439 L 9.2231512,1.8845452 c 0.7605563,0.1592856 1.4700608,0.4598017 2.0995698,0.8686481 l 1.323737,-1.0399704 c 0.09366,-0.07543 0.239583,-0.065801 0.324402,0.018055 l 1.183445,1.1824047 c 0.08522,0.084658 0.09487,0.2311045 0.01929,0.3241883 l -1.042347,1.3208267 c 0.41123,0.627513 0.711112,1.3364743 0.871102,2.0959898 l 1.671053,0.197803 c 0.120193,0.012438 0.216268,0.1231755 0.217474,0.2415363 l -0.0012,1.6706933 c 0.0012,0.1203669 -0.09607,0.2303021 -0.216268,0.2431412 L 14.002355,9.205263 c -0.15999,0.7603179 -0.459872,1.468076 -0.871504,2.097194 l 1.042749,1.321227 c 0.07557,0.09268 0.06593,0.237926 -0.01929,0.322985 l -1.183445,1.181602 c -0.08482,0.08546 -0.230739,0.09268 -0.325206,0.01846 l -1.322933,-1.040372 c -0.629509,0.409247 -1.3390135,0.710165 -2.0995698,0.869049 L 9.0253745,15.642889 C 9.010903,15.762854 8.902367,15.859148 8.7821733,15.85995 L 7.1079045,15.859148 C 6.9869069,15.85995 6.8775669,15.762854 6.8647034,15.642889 L 6.6677305,13.975405 C 6.1937898,13.877507 5.7443703,13.71782 5.3178638,13.516406 L 6.68381,12.194777 c 0.4007793,0.118762 0.8220599,0.182958 1.2618319,0.182958 2.4605521,0 4.4556051,-1.991672 4.4556051,-4.4483617 0,-2.4574918 -1.995053,-4.4483611 -4.4556051,-4.4483611 -2.4621601,0 -4.4572133,1.9908693 -4.4572133,4.4483611 0,0.4220868 0.063112,0.8277234 0.1728537,1.2132989 L 2.3081997,10.452265 C 2.1277083,10.055054 1.9793757,9.642195 1.8873211,9.205263" />
      <path
         style="fill:#659b5a"
         inkscape:connector-curvature="0"
         id="Fill-1-Copy-2"
         d="m 0.8578058,14.230954 c 0.1833582,-0.176504 0.4742866,-0.17081 0.6507179,0.01098 0.1760239,0.183824 0.1707269,0.476234 -0.012224,0.654365 -0.1817283,0.176096 -0.4738791,0.171623 -0.65031042,-0.01179 -0.1768388,-0.183418 -0.17154179,-0.476235 0.0118164,-0.653551 m -0.46328507,0.968735 c 0.5349985,0.555132 1.41389559,0.575467 1.97497169,0.04962 l 0.014669,0.01545 4.6752269,-4.524428 C 8.191727,11.140925 9.5220927,10.892844 10.466998,9.9855181 11.409867,9.0818526 11.715464,7.772717 11.366269,6.6303244 L 10.254303,7.6978831 C 9.9976013,7.9435239 9.5881013,7.9362035 9.3407715,7.6791753 L 8.2662924,6.5632176 C 8.01937,6.3070028 8.0275192,5.8982792 8.2850356,5.6501982 L 9.3953715,4.5854834 C 8.2666998,4.1914007 6.9428536,4.445582 6.0020222,5.3480274 5.064858,6.2468126 4.7600759,7.5461876 5.1007148,8.6824799 l -4.68582094,4.5354081 0.001222,8.14e-4 c -0.54518508,0.542118 -0.55700149,1.425042 -0.0215955,1.980987" />
    </g>
    <g
       style="fill:#659b5a"
       id="g64">
      <path
         inkscape:connector-curvature="0"
         id="path66"
         d="m 45.141948,45.974748 -11.454204,0 c -1.204456,0 -2.18145,-0.974563 -2.18145,-2.177314 0,-1.20275 0.976994,-2.178469 2.18145,-2.178469 l 11.454204,0 c 1.205614,0 2.182607,0.975141 2.182607,2.178469 0,1.203329 -0.976993,2.177314 -2.182607,2.177314 l 0,0 z M 14.423962,27.521594 c 0,-6.370188 5.193459,-11.553801 11.575749,-11.553801 6.382867,0 11.575748,5.183613 11.575748,11.553801 0,6.370766 -5.192881,11.553802 -11.575748,11.553802 -6.38229,0 -11.575749,-5.183036 -11.575749,-11.553802 l 0,0 z m 8.2865,19.100167 c -1.559833,0 -2.829692,-1.266297 -2.829692,-2.823171 0,-0.63777 0.221097,-1.22066 0.580524,-1.694943 1.557517,0.591555 3.233106,0.939902 4.981623,1.001137 0.05672,0.222988 0.09666,0.452909 0.09666,0.693228 0,1.556297 -1.268703,2.823749 -2.829113,2.823749 l 0,0 z m -7.198959,0 c -1.559253,0 -2.829113,-1.266297 -2.829113,-2.823171 0,-1.556875 1.269281,-2.824327 2.829113,-2.824327 1.560411,0 2.829113,1.266874 2.829113,2.824327 0,1.555719 -1.268702,2.823171 -2.829113,2.823171 l 0,0 z M 12.68239,8.3318858 c 0,-1.5568747 1.269281,-2.8243267 2.829113,-2.8243267 1.560411,0 2.829113,1.2668743 2.829113,2.8243267 0,1.5574525 -1.268702,2.8237492 -2.829113,2.8237492 -1.559253,0 -2.829113,-1.2668744 -2.829113,-2.8237492 l 0,0 z M 8.3125452,11.155635 c -1.5598321,0 -2.8296918,-1.2668744 -2.8296918,-2.8237492 0,-1.5568747 1.2692809,-2.8243267 2.8296918,-2.8243267 1.560411,0 2.8291128,1.2668743 2.8291128,2.8243267 0,1.5574525 -1.2687018,2.8237492 -2.8291128,2.8237492 l 0,0 z M 22.710462,5.5081368 c 1.56041,0 2.829113,1.2668743 2.829113,2.8243267 0,1.5574525 -1.268703,2.8237495 -2.829113,2.8237495 -1.559833,0 -2.829692,-1.2668747 -2.829692,-2.8237495 0,-1.5574524 1.269281,-2.8243267 2.829692,-2.8243267 l 0,0 z m 10.977282,0.6464352 11.454204,0 c 1.205614,0 2.182607,0.9751408 2.182607,2.1778915 0,1.2027507 -0.976993,2.1773135 -2.182607,2.1773135 l -11.454204,0 c -1.204456,0 -2.18145,-0.9751404 -2.18145,-2.1773135 5.79e-4,-1.2033284 0.976994,-2.1778915 2.18145,-2.1778915 l 0,0 z M 8.3125452,46.621761 c -1.5598321,0 -2.8296918,-1.266297 -2.8296918,-2.823171 0,-1.556875 1.2692809,-2.824327 2.8296918,-2.824327 1.560411,0 2.8291128,1.266874 2.8291128,2.824327 0,1.555719 -1.2687018,2.823171 -2.8291128,2.823171 l 0,0 z M 10.384026,27.974503 c -0.5174365,0.559204 -1.2507602,0.915061 -2.0714808,0.915061 -1.5604109,0 -2.8296918,-1.266874 -2.8296918,-2.824904 0,-1.556875 1.2698597,-2.823749 2.8296918,-2.823749 0.9827811,0 1.8480688,0.503746 2.3556648,1.264564 -0.192157,0.976873 -0.29576,1.984365 -0.29576,3.016119 0,0.151933 0.0069,0.302132 0.01158,0.452909 l 0,0 z m 34.757922,-4.086579 c 1.205614,0 2.182607,0.974563 2.182607,2.177314 0,1.202751 -0.976993,2.178469 -2.182607,2.178469 l -3.532919,0 c 0.01042,-0.239741 0.01794,-0.480061 0.01794,-0.722113 0,-1.251276 -0.1528,-2.467314 -0.432355,-3.63367 l 3.947331,0 z m 3.505715,11.621391 -9.232238,0 c 0.225727,-0.374921 0.435248,-0.759662 0.629142,-1.154803 l 8.602517,0 c 1.846332,0 3.350601,-1.500838 3.350601,-3.34367 l 0,-9.890054 c 5.79e-4,-1.844564 -1.503111,-3.344247 -3.350022,-3.344247 l -10.459268,0 c -0.322963,-0.401495 -0.664448,-0.786814 -1.025032,-1.154803 l 11.4843,0 c 1.846911,0 3.350601,-1.500261 3.350601,-3.344247 l 0,-9.8906321 c 0,-1.8439867 -1.50369,-3.3436701 -3.350601,-3.3436701 l -45.2976413,0 C 1.5025322,0.0431888 0,1.5440276 0,3.3874366 l 0,9.8900544 c 0,1.843986 1.5025322,3.344247 3.3500217,3.344247 l 11.4860373,0 c -0.360585,0.367989 -0.70207,0.753308 -1.025033,1.154803 l -10.4610043,0 C 1.5025322,17.776541 0,19.276224 0,21.120211 l 0,9.890054 c 0,1.843409 1.5025322,3.34367 3.3500217,3.34367 l 8.6048333,0 c 0.193315,0.39514 0.403414,0.780459 0.628563,1.15538 l -9.2333963,0 C 1.5025322,35.509315 0,37.009576 0,38.852985 l 0,9.889476 c 0,1.843987 1.5025322,3.344248 3.3500217,3.344248 l 3.0409492,0 0,0.734822 C 6.3909709,54.021971 7.3691217,55 8.5729996,55 l 6.9923314,0 c 1.203299,0 2.182028,-0.976874 2.182028,-2.178469 l 0,-0.734822 15.42237,0 0,0.734822 C 33.169729,54.021971 34.14788,55 35.351758,55 l 6.99291,0 c 1.20272,0 2.182029,-0.976874 2.182029,-2.178469 l 0,-0.734822 4.122702,0 C 50.49631,52.086709 52,50.586448 52,48.742461 l 0,-9.889476 c -0.0017,-1.843409 -1.505426,-3.34367 -3.352337,-3.34367 l 0,0 z" />
    </g>
  </g>
  <polygon
     style="fill:#cee07f;fill-rule:evenodd;stroke:none;stroke-width:1"
     points="8.5580671,18.054184 36.498834,18.054184 21.871087,42.437239 "
     id="polygon69"
     transform="translate(606,856)" />
  <polygon
     style="fill:#659b5a;fill-rule:evenodd;stroke:none;stroke-width:1"
     points="36.499208,18.053935 43.742049,37.903275 43.742049,12.634924 "
     id="Fill-2"
     transform="translate(606,856)" />
  <polygon
     style="fill:#659b5a;fill-rule:evenodd;stroke:none;stroke-width:1"
     points="0,37.903524 8.5575686,18.054184 0,12.635173 "
     id="Fill-3"
     transform="translate(606,856)" />
  <polygon
     style="fill:#79bb6b;fill-rule:evenodd;stroke:none;stroke-width:1"
     points="0,37.903524 21.871834,42.437239 8.5575686,18.054184 "
     id="Fill-4"
     transform="translate(606,856)" />
  <polygon
     style="fill:#79bb6b;fill-rule:evenodd;stroke:none;stroke-width:1"
     points="21.87171,42.437239 43.742298,37.903524 36.499457,18.054184 "
     id="Fill-5"
     transform="translate(606,856)" />
  <polygon
     style="fill:#79bb6b;fill-rule:evenodd;stroke:none;stroke-width:1"
     points="21.87171,-0.00012468962 8.557444,18.053685 36.499457,18.053685 "
     id="Fill-6"
     transform="translate(606,856)" />
  <polygon
     style="fill:#63b153;fill-rule:evenodd;stroke:none;stroke-width:1"
     points="-0.00012461874,12.634674 8.557444,18.053685 21.87171,-0.00012468962 "
     id="Fill-7"
     transform="translate(606,856)" />
  <polygon
     style="fill:#63b153;fill-rule:evenodd;stroke:none;stroke-width:1"
     points="21.87171,-0.00012468962 36.499457,18.053685 43.742298,12.634674 "
     id="Fill-8"
     transform="translate(606,856)" />
  <polygon
     style="fill:#659b5a;fill-rule:evenodd;stroke:none;stroke-width:1"
     points="21.87171,50.538448 21.87171,42.437364 -0.00012461874,37.903649 "
     id="Fill-9"
     transform="translate(606,856)" />
  <polygon
     style="fill:#63b153;fill-rule:evenodd;stroke:none;stroke-width:1"
     points="21.87171,42.437239 21.87171,50.538323 43.742298,37.903524 "
     id="Fill-10"
     transform="translate(606,856)" />
  <polygon
     style="fill:#cee07f;fill-rule:evenodd;stroke:none;stroke-width:1"
     points="8.5580671,18.054184 36.498834,18.054184 21.871087,42.437239 "
     id="polygon82"
     transform="translate(545,856)" />
  <polygon
     style="fill:#659b5a;fill-rule:evenodd;stroke:none;stroke-width:1"
     points="36.499208,18.053935 43.742049,37.903275 43.742049,12.634924 "
     id="polygon84"
     transform="translate(545,856)" />
  <polygon
     style="fill:#659b5a;fill-rule:evenodd;stroke:none;stroke-width:1"
     points="0,37.903524 8.5575686,18.054184 0,12.635173 "
     id="polygon86"
     transform="translate(545,856)" />
  <polygon
     style="fill:#79bb6b;fill-rule:evenodd;stroke:none;stroke-width:1"
     points="0,37.903524 21.871834,42.437239 8.5575686,18.054184 "
     id="polygon88"
     transform="translate(545,856)" />
  <polygon
     style="fill:#79bb6b;fill-rule:evenodd;stroke:none;stroke-width:1"
     points="21.87171,42.437239 43.742298,37.903524 36.499457,18.054184 "
     id="polygon90"
     transform="translate(545,856)" />
  <polygon
     style="fill:#79bb6b;fill-rule:evenodd;stroke:none;stroke-width:1"
     points="21.87171,-0.00012468962 8.557444,18.053685 36.499457,18.053685 "
     id="polygon92"
     transform="translate(545,856)" />
  <polygon
     style="fill:#63b153;fill-rule:evenodd;stroke:none;stroke-width:1"
     points="-0.00012461874,12.634674 8.557444,18.053685 21.87171,-0.00012468962 "
     id="polygon94"
     transform="translate(545,856)" />
  <polygon
     style="fill:#63b153;fill-rule:evenodd;stroke:none;stroke-width:1"
     points="21.87171,-0.00012468962 36.499457,18.053685 43.742298,12.634674 "
     id="polygon96"
     transform="translate(545,856)" />
  <polygon
     style="fill:#659b5a;fill-rule:evenodd;stroke:none;stroke-width:1"
     points="21.87171,50.538448 21.87171,42.437364 -0.00012461874,37.903649 "
     id="polygon98"
     transform="translate(545,856)" />
  <polygon
     style="fill:#63b153;fill-rule:evenodd;stroke:none;stroke-width:1"
     points="21.87171,42.437239 21.87171,50.538323 43.742298,37.903524 "
     id="polygon100"
     transform="translate(545,856)" />
  <g
     style="fill:#6da062;fill-rule:evenodd;stroke:none;stroke-width:1"
     transform="translate(785,899)"
     id="Icon/UI/settings">
    <g
       id="settings">
      <path
         inkscape:connector-curvature="0"
         id="Shape"
         d="m 21.2,12 c 0,-0.5 0,-1 -0.1,-1.4 L 24,8 21.5,3.9 18,5.1 C 17.2,4.4 16.2,3.8 15.1,3.4 L 14.4,0 9.6,0 8.8,3.4 c -1.1,0.4 -2,1 -2.9,1.7 L 2.5,3.9 0,8 2.9,10.6 C 2.8,11 2.8,11.5 2.8,12 c 0,0.5 0,1 0.1,1.4 L 0,16 2.5,20.1 6,18.9 c 0.8,0.7 1.8,1.3 2.9,1.7 l 0.7,3.4 4.8,0 0.8,-3.4 c 1.1,-0.4 2,-1 2.9,-1.7 L 21.6,20 24,16 21.1,13.4 C 21.2,13 21.2,12.5 21.2,12 l 0,0 0,0 z M 12,15 c -1.7,0 -3,-1.3 -3,-3 0,-1.7 1.3,-3 3,-3 1.7,0 3,1.3 3,3 0,1.7 -1.3,3 -3,3 l 0,0 0,0 z" />
    </g>
  </g>
  <g
     style="fill:#6da062;fill-rule:evenodd;stroke:none;stroke-width:1"
     transform="translate(785,839)"
     id="g106">
    <g
       id="g108"
       style="">
      <path
         inkscape:connector-curvature="0"
         id="path110"
         d="m 21.2,12 c 0,-0.5 0,-1 -0.1,-1.4 L 24,8 21.5,3.9 18,5.1 C 17.2,4.4 16.2,3.8 15.1,3.4 L 14.4,0 9.6,0 8.8,3.4 c -1.1,0.4 -2,1 -2.9,1.7 L 2.5,3.9 0,8 2.9,10.6 C 2.8,11 2.8,11.5 2.8,12 c 0,0.5 0,1 0.1,1.4 L 0,16 2.5,20.1 6,18.9 c 0.8,0.7 1.8,1.3 2.9,1.7 l 0.7,3.4 4.8,0 0.8,-3.4 c 1.1,-0.4 2,-1 2.9,-1.7 L 21.6,20 24,16 21.1,13.4 C 21.2,13 21.2,12.5 21.2,12 l 0,0 0,0 z M 12,15 c -1.7,0 -3,-1.3 -3,-3 0,-1.7 1.3,-3 3,-3 1.7,0 3,1.3 3,3 0,1.7 -1.3,3 -3,3 l 0,0 0,0 z"
         style="" />
    </g>
  </g>
  <g
     style="fill:none;fill-rule:evenodd;stroke:none;stroke-width:1"
     transform="translate(797,866)"
     id="block">
    <polygon
       style="fill:#fefefe;fill-rule:evenodd"
       points="0,6.0517241 12,12.103448 12,27 0,20.948276 "
       id="polygon113" />
    <polygon
       style="stroke:#659b5a;stroke-width:1.53999996;stroke-linecap:round;stroke-linejoin:round"
       points="0,6.0517241 12,12.103448 12,27 0,20.948276 "
       id="Stroke-2" />
    <polygon
       style="fill:#fefefe;fill-rule:evenodd"
       points="24,6.0517241 12,12.103448 12,27 24,20.948276 "
       id="polygon116" />
    <polygon
       style="stroke:#659b5a;stroke-width:1.53999996;stroke-linecap:round;stroke-linejoin:round"
       points="24,6.0517241 12,12.103448 12,27 24,20.948276 "
       id="Stroke-5" />
    <polygon
       style="fill:#cee07f;fill-rule:evenodd"
       points="24,6.0517241 12,12.103448 0,6.0517241 11.538462,0 "
       id="polygon119" />
    <polygon
       style="stroke:#659b5a;stroke-width:1.53999996;stroke-linecap:round;stroke-linejoin:round"
       points="24,6.0517241 12,12.103448 0,6.0517241 11.538462,0 "
       id="Stroke-8" />
  </g>
  <g
     style="fill:none;fill-rule:evenodd;stroke:none;stroke-width:1"
     transform="translate(827,866)"
     id="g122">
    <polygon
       style="fill:#fefefe;fill-rule:evenodd"
       points="0,6.0517241 12,12.103448 12,27 0,20.948276 "
       id="polygon124" />
    <polygon
       style="stroke:#659b5a;stroke-width:1.53999996;stroke-linecap:round;stroke-linejoin:round"
       points="0,6.0517241 12,12.103448 12,27 0,20.948276 "
       id="polygon126" />
    <polygon
       style="fill:#fefefe;fill-rule:evenodd"
       points="24,6.0517241 12,12.103448 12,27 24,20.948276 "
       id="polygon128" />
    <polygon
       style="stroke:#659b5a;stroke-width:1.53999996;stroke-linecap:round;stroke-linejoin:round"
       points="24,6.0517241 12,12.103448 12,27 24,20.948276 "
       id="polygon130" />
    <polygon
       style="fill:#cee07f;fill-rule:evenodd"
       points="24,6.0517241 12,12.103448 0,6.0517241 11.538462,0 "
       id="polygon132" />
    <polygon
       style="stroke:#659b5a;stroke-width:1.53999996;stroke-linecap:round;stroke-linejoin:round"
       points="24,6.0517241 12,12.103448 0,6.0517241 11.538462,0 "
       id="polygon134" />
  </g>
  <g
     style="fill:none;fill-rule:evenodd;stroke:none;stroke-width:1"
     transform="translate(761,863)"
     id="tx-proposal">
    <path
       style="fill:#fefefe;fill-rule:evenodd"
       inkscape:connector-curvature="0"
       transform="matrix(0,1,-1,0,30.153458,3.232824)"
       id="path137"
       d="m -2.3597884,3.7964334 0,25.7934146 20.7297944,0 0,-4.282293 c 0.869014,0.8377 2.014063,1.351223 3.273125,1.351223 1.259062,0 2.40411,-0.513523 3.273125,-1.351223 l 0,4.282293 4.364167,0 0,-25.7934146 -31.6402114,0 z" />
    <polygon
       style="stroke:#659b5a;stroke-width:1.99999988"
       points="29.280423,29.589848 29.280423,3.7964334 -2.3597884,3.7964334 -2.3597884,29.589848 "
       transform="matrix(0,1,-1,0,30.153458,3.232824)"
       id="Stroke-3" />
    <g
       style="stroke:#659b5a;stroke-width:1.5999999;stroke-linecap:round"
       transform="matrix(0,-1,1,0,4.322312,16.956111)"
       id="Stroke-13">
      <path
         inkscape:connector-curvature="0"
         id="path141"
         transform="matrix(0,1,-1,0,18.181601,-4.441669)"
         d="m 5.0381449,6.5489438 12.5469801,0" />
      <path
         inkscape:connector-curvature="0"
         transform="matrix(0,1,-1,0,11.209292,-4.376868)"
         id="Stroke-15"
         d="m 4.7927147,3.0951905 6.0007303,0" />
      <path
         inkscape:connector-curvature="0"
         transform="matrix(0,1,-1,0,6.827354,-1.721806)"
         id="Stroke-17"
         d="m 2.092496,2.2317522 4.3641672,0" />
      <path
         inkscape:connector-curvature="0"
         transform="matrix(0,1,-1,0,7.05042,5.53826)"
         id="Stroke-19"
         d="m -4.9718897,5.9733183 11.4559386,0" />
    </g>
    <text
       style="font-weight:400;font-size:12px;font-family:HelveticaNeue-Medium, 'Helvetica Neue';fill:#659b5a"
       font-weight="400"
       font-size="12"
       id="tx">
      <tspan
         id="tspan147"
         y="28"
         x="4">tx</tspan>
    </text>
  </g>
  <g
     style="fill:none;fill-rule:evenodd;stroke:none;stroke-width:1"
     id="g150"
     transform="translate(987,856)">
    <polygon
       style="fill:#fefefe;fill-rule:evenodd"
       points="0,6.0517241 12,12.103448 12,27 0,20.948276 "
       id="polygon152" />
    <polygon
       style="stroke:#659b5a;stroke-width:1.53999996;stroke-linecap:round;stroke-linejoin:round"
       points="0,6.0517241 12,12.103448 12,27 0,20.948276 "
       id="polygon154" />
    <polygon
       style="fill:#fefefe;fill-rule:evenodd"
       points="24,6.0517241 12,12.103448 12,27 24,20.948276 "
       id="polygon156" />
    <polygon
       style="stroke:#659b5a;stroke-width:1.53999996;stroke-linecap:round;stroke-linejoin:round"
       points="24,6.0517241 12,12.103448 12,27 24,20.948276 "
       id="polygon158" />
    <polygon
       style="fill:#cee07f;fill-rule:evenodd"
       points="24,6.0517241 12,12.103448 0,6.0517241 11.538462,0 "
       id="polygon160" />
    <polygon
       style="stroke:#659b5a;stroke-width:1.53999996;stroke-linecap:round;stroke-linejoin:round"
       points="24,6.0517241 12,12.103448 0,6.0517241 11.538462,0 "
       id="polygon162" />
  </g>
  <g
     style="fill:none;fill-rule:evenodd;stroke:none;stroke-width:1"
     transform="translate(999,862)"
     id="g164">
    <polygon
       style="fill:#fefefe;fill-rule:evenodd"
       points="0,6.0517241 12,12.103448 12,27 0,20.948276 "
       id="polygon166" />
    <polygon
       style="stroke:#659b5a;stroke-width:1.53999996;stroke-linecap:round;stroke-linejoin:round"
       points="0,6.0517241 12,12.103448 12,27 0,20.948276 "
       id="polygon168" />
    <polygon
       style="fill:#fefefe;fill-rule:evenodd"
       points="24,6.0517241 12,12.103448 12,27 24,20.948276 "
       id="polygon170" />
    <polygon
       style="stroke:#659b5a;stroke-width:1.53999996;stroke-linecap:round;stroke-linejoin:round"
       points="24,6.0517241 12,12.103448 12,27 24,20.948276 "
       id="polygon172" />
    <polygon
       style="fill:#cee07f;fill-rule:evenodd"
       points="24,6.0517241 12,12.103448 0,6.0517241 11.538462,0 "
       id="polygon174" />
    <polygon
       style="stroke:#659b5a;stroke-width:1.53999996;stroke-linecap:round;stroke-linejoin:round"
       points="24,6.0517241 12,12.103448 0,6.0517241 11.538462,0 "
       id="polygon176" />
  </g>
  <g
     style="fill:none;fill-rule:evenodd;stroke:none;stroke-width:1"
     transform="translate(1011,868)"
     id="g178">
    <polygon
       style="fill:#fefefe;fill-rule:evenodd"
       points="0,6.0517241 12,12.103448 12,27 0,20.948276 "
       id="polygon180" />
    <polygon
       style="stroke:#659b5a;stroke-width:1.53999996;stroke-linecap:round;stroke-linejoin:round"
       points="0,6.0517241 12,12.103448 12,27 0,20.948276 "
       id="polygon182" />
    <polygon
       style="fill:#fefefe;fill-rule:evenodd"
       points="24,6.0517241 12,12.103448 12,27 24,20.948276 "
       id="polygon184" />
    <polygon
       style="stroke:#659b5a;stroke-width:1.53999996;stroke-linecap:round;stroke-linejoin:round"
       points="24,6.0517241 12,12.103448 12,27 24,20.948276 "
       id="polygon186" />
    <polygon
       style="fill:#cee07f;fill-rule:evenodd"
       points="24,6.0517241 12,12.103448 0,6.0517241 11.538462,0 "
       id="polygon188" />
    <polygon
       style="stroke:#659b5a;stroke-width:1.53999996;stroke-linecap:round;stroke-linejoin:round"
       points="24,6.0517241 12,12.103448 0,6.0517241 11.538462,0 "
       id="polygon190" />
  </g>
  <g
     style="fill:none;fill-rule:evenodd;stroke:none;stroke-width:1"
     transform="translate(1023,874)"
     id="g192">
    <polygon
       style="fill:#fefefe;fill-rule:evenodd"
       points="0,6.0517241 12,12.103448 12,27 0,20.948276 "
       id="polygon194" />
    <polygon
       style="stroke:#659b5a;stroke-width:1.53999996;stroke-linecap:round;stroke-linejoin:round"
       points="0,6.0517241 12,12.103448 12,27 0,20.948276 "
       id="polygon196" />
    <polygon
       style="fill:#fefefe;fill-rule:evenodd"
       points="24,6.0517241 12,12.103448 12,27 24,20.948276 "
       id="polygon198" />
    <polygon
       style="stroke:#659b5a;stroke-width:1.53999996;stroke-linecap:round;stroke-linejoin:round"
       points="24,6.0517241 12,12.103448 12,27 24,20.948276 "
       id="polygon200" />
    <polygon
       style="fill:#cee07f;fill-rule:evenodd"
       points="24,6.0517241 12,12.103448 0,6.0517241 11.538462,0 "
       id="polygon202" />
    <polygon
       style="stroke:#659b5a;stroke-width:1.53999996;stroke-linecap:round;stroke-linejoin:round"
       points="24,6.0517241 12,12.103448 0,6.0517241 11.538462,0 "
       id="polygon204" />
  </g>
  <g
     style="fill:none;fill-rule:evenodd;stroke:none;stroke-width:1"
     transform="translate(1035,880)"
     id="g206">
    <polygon
       style="fill:#fefefe;fill-rule:evenodd"
       points="0,6.0517241 12,12.103448 12,27 0,20.948276 "
       id="polygon208" />
    <polygon
       style="stroke:#659b5a;stroke-width:1.53999996;stroke-linecap:round;stroke-linejoin:round"
       points="0,6.0517241 12,12.103448 12,27 0,20.948276 "
       id="polygon210" />
    <polygon
       style="fill:#fefefe;fill-rule:evenodd"
       points="24,6.0517241 12,12.103448 12,27 24,20.948276 "
       id="polygon212" />
    <polygon
       style="stroke:#659b5a;stroke-width:1.53999996;stroke-linecap:round;stroke-linejoin:round"
       points="24,6.0517241 12,12.103448 12,27 24,20.948276 "
       id="polygon214" />
    <polygon
       style="fill:#cee07f;fill-rule:evenodd"
       points="24,6.0517241 12,12.103448 0,6.0517241 11.538462,0 "
       id="polygon216" />
    <polygon
       style="stroke:#659b5a;stroke-width:1.53999996;stroke-linecap:round;stroke-linejoin:round"
       points="24,6.0517241 12,12.103448 0,6.0517241 11.538462,0 "
       id="polygon218" />
  </g>
  <path
     style="fill:none;fill-rule:evenodd;stroke:#659b5a;stroke-width:2;stroke-linecap:round"
     inkscape:connector-curvature="0"
     id="Stroke-1"
     d="m 380.9998,280.25993 -6,6.25993" />
  <path
     style="fill:none;fill-rule:evenodd;stroke:#659b5a;stroke-width:2;stroke-linecap:round"
     inkscape:connector-curvature="0"
     id="path222"
     d="m 380.9998,280.25993 -6,-6.25993" />
  <polyline
     style="fill:none;fill-rule:evenodd;stroke:#659b5a;stroke-width:2;stroke-linecap:round"
     points="0 6.12975523 47.0273035 6.12975523 192 6.12975523"
     id="polyline224"
     transform="matrix(-1,0,0,1,381,274)" />
  <path
     style="fill:none;fill-rule:evenodd;stroke:#659b5a;stroke-width:2;stroke-linecap:round"
     inkscape:connector-curvature="0"
     id="path228"
     d="m 581.9998,280.25993 -6,6.25993" />
  <path
     style="fill:none;fill-rule:evenodd;stroke:#659b5a;stroke-width:2;stroke-linecap:round"
     inkscape:connector-curvature="0"
     id="path230"
     d="m 581.9998,280.25993 -6,-6.25993" />
  <polyline
     style="fill:none;fill-rule:evenodd;stroke:#659b5a;stroke-width:2;stroke-linecap:round"
     points="0 6.12975523 47.0273035 6.12975523 192 6.12975523"
     id="polyline232"
     transform="matrix(-1,0,0,1,582,274)" />
  <path
     style="fill:none;fill-rule:evenodd;stroke:#659b5a;stroke-width:2;stroke-linecap:round"
     inkscape:connector-curvature="0"
     id="path236"
     d="m 609.0002,709.25993 6,6.25993" />
  <path
     style="fill:none;fill-rule:evenodd;stroke:#659b5a;stroke-width:2;stroke-linecap:round"
     inkscape:connector-curvature="0"
     id="path238"
     d="m 609.0002,709.25993 6,-6.25993" />
  <polyline
     style="fill:none;fill-rule:evenodd;stroke:#659b5a;stroke-width:2;stroke-linecap:round"
     points="0 6.12975523 47.0273035 6.12975523 192 6.12975523"
     id="polyline240"
     transform="translate(609,703)" />
  <path
     style="fill:#fefefe;fill-rule:evenodd;stroke:none;stroke-width:1"
     inkscape:connector-curvature="0"
     id="path244"
     d="m 501.35703,231.87303 -25.79342,0 0,20.7298 4.2823,0 c -0.83771,0.86901 -1.35123,2.01406 -1.35123,3.27312 0,1.25906 0.51352,2.40411 1.35123,3.27313 l -4.2823,0 0,4.36416 25.79342,0 0,-31.64021 z" />
  <polygon
     style="fill:none;fill-rule:evenodd;stroke:#659b5a;stroke-width:1.99999988"
     points="29.280423,29.589848 29.280423,3.7964334 -2.3597884,3.7964334 -2.3597884,29.589848 "
     transform="matrix(0,1,-1,0,505.15346,234.23282)"
     id="polygon246" />
  <g
     style="fill:none;fill-rule:evenodd;stroke:#659b5a;stroke-width:1.5999999;stroke-linecap:round"
     transform="matrix(0,-1,1,0,479.32231,247.95611)"
     id="g248">
    <path
       inkscape:connector-curvature="0"
       id="path250"
       transform="matrix(0,1,-1,0,18.181601,-4.441669)"
       d="m 5.0381449,6.5489438 12.5469801,0" />
    <path
       inkscape:connector-curvature="0"
       transform="matrix(0,1,-1,0,11.209292,-4.376868)"
       id="path252"
       d="m 4.7927147,3.0951905 6.0007303,0" />
    <path
       inkscape:connector-curvature="0"
       transform="matrix(0,1,-1,0,6.827354,-1.721806)"
       id="path254"
       d="m 2.092496,2.2317522 4.3641672,0" />
    <path
       inkscape:connector-curvature="0"
       transform="matrix(0,1,-1,0,7.05042,5.53826)"
       id="path256"
       d="m -4.9718897,5.9733183 11.4559386,0" />
  </g>
  <text
     style="font-weight:400;font-size:12px;font-family:HelveticaNeue-Medium, 'Helvetica Neue';fill:#659b5a;fill-rule:evenodd;stroke:none;stroke-width:1"
     font-weight="400"
     font-size="12"
     id="text258"
     x="475"
     y="231">
    <tspan
       id="tspan260"
       y="259"
       x="479">tx</tspan>
  </text>
  <path
     style="fill:#fefefe;fill-rule:evenodd;stroke:none;stroke-width:1"
     inkscape:connector-curvature="0"
     id="path264"
     d="m 459.35703,231.87303 -25.79342,0 0,20.7298 4.2823,0 c -0.83771,0.86901 -1.35123,2.01406 -1.35123,3.27312 0,1.25906 0.51352,2.40411 1.35123,3.27313 l -4.2823,0 0,4.36416 25.79342,0 0,-31.64021 z" />
  <polygon
     style="fill:none;fill-rule:evenodd;stroke:#659b5a;stroke-width:1.99999988"
     points="29.280423,29.589848 29.280423,3.7964334 -2.3597884,3.7964334 -2.3597884,29.589848 "
     transform="matrix(0,1,-1,0,463.15346,234.23282)"
     id="polygon266" />
  <g
     style="fill:none;fill-rule:evenodd;stroke:#659b5a;stroke-width:1.5999999;stroke-linecap:round"
     transform="matrix(0,-1,1,0,437.32231,247.95611)"
     id="g268">
    <path
       inkscape:connector-curvature="0"
       id="path270"
       transform="matrix(0,1,-1,0,18.181601,-4.441669)"
       d="m 5.0381449,6.5489438 12.5469801,0" />
    <path
       inkscape:connector-curvature="0"
       transform="matrix(0,1,-1,0,11.209292,-4.376868)"
       id="path272"
       d="m 4.7927147,3.0951905 6.0007303,0" />
    <path
       inkscape:connector-curvature="0"
       transform="matrix(0,1,-1,0,6.827354,-1.721806)"
       id="path274"
       d="m 2.092496,2.2317522 4.3641672,0" />
    <path
       inkscape:connector-curvature="0"
       transform="matrix(0,1,-1,0,7.05042,5.53826)"
       id="path276"
       d="m -4.9718897,5.9733183 11.4559386,0" />
  </g>
  <text
     style="font-weight:400;font-size:12px;font-family:HelveticaNeue-Medium, 'Helvetica Neue';fill:#659b5a;fill-rule:evenodd;stroke:none;stroke-width:1"
     font-weight="400"
     font-size="12"
     id="text278"
     x="433"
     y="231">
    <tspan
       id="tspan280"
       y="259"
       x="437">tx</tspan>
  </text>
  <g
     style="fill:none;fill-rule:evenodd;stroke:none;stroke-width:1"
     transform="translate(497,328)"
     id="signature">
    <path
       style="stroke:#cee07f;stroke-width:2;stroke-linecap:square;stroke-dasharray:2, 4, 2, 4"
       inkscape:connector-curvature="0"
       id="path285"
       d="M 0.27248474,22 55.325192,22" />
    <path
       style="fill:#659b5a;fill-rule:evenodd"
       inkscape:connector-curvature="0"
       id="path287"
       d="m 14.857604,13.603111 c -1.675454,0.641647 -3.394942,1.554706 -4.8681031,2.596235 -1.446131,1.063059 -3.5579967,3.236471 -1.3423688,5.78753 0.7808322,0.954 1.21332,0.999882 1.3288535,0.988235 0.5859514,-0.042 1.2721764,-1.328118 1.7268994,-2.178706 0.146924,-0.273882 0.29036,-0.543882 0.433796,-0.790941 1.403405,-2.363294 2.280588,-4.404706 2.720923,-6.402353 M 9.9454673,23.999699 c -0.7808322,0 -1.5455334,-0.469765 -2.3324693,-1.432588 -2.018567,-2.323412 -1.4587743,-4.929177 1.5455334,-7.135412 1.8088626,-1.279059 3.8823626,-2.33647 5.9113926,-3.025412 0.08807,-0.657882 0.131229,-1.31647 0.131229,-1.986 0,-0.218117 0.0096,-0.513529 0.02093,-0.8668231 C 15.296632,7.2988756 15.492821,1.3108756 12.861272,1.0249933 11.417321,0.8742874 8.2874522,3.9392286 7.1155498,5.5793462 3.4067056,10.419229 1.7726691,14.39617 2.3834709,17.093346 2.4458154,17.371464 2.220416,17.638287 1.8794831,17.69017 1.5302667,17.73217 1.2120045,17.55817 1.1479161,17.279346 0.47128198,14.283935 2.1183977,10.168993 6.041306,5.0502874 c 0.028338,-0.039882 4.10471,-5.30435294 6.976481,-5.04070588 3.76029,0.40835294 3.556689,6.59752938 3.458594,9.57176468 -0.0109,0.342 -0.02093,0.6285878 -0.02093,0.8392938 0,0.538236 -0.02572,1.070471 -0.07978,1.598118 0.810043,-0.202941 1.482753,-0.278823 2.018567,0.01306 0.600775,0.326823 0.761214,0.966 0.823994,1.889294 0.03052,0.436941 -0.0074,0.924 -0.04316,1.394823 -0.04055,0.518824 -0.106378,1.382471 0.05275,1.584706 0.01221,-0.02612 0.303875,-0.06635 1.028031,-0.516 0.155643,-0.111882 0.349652,-0.262941 0.549329,-0.418235 0.876311,-0.680824 1.867719,-1.451647 3.139896,-1.545529 l 0.0061,0 c 1.947939,0 2.190341,0.921882 2.366911,1.594588 0.0981,0.37447 0.190958,0.728117 0.531019,1.005176 0.999692,0.741883 2.012027,0.164824 3.926832,-1.231764 1.360243,-0.99353 2.775856,-2.018471 4.296539,-1.74953 0.861924,0.139765 1.495396,0.766941 2.10707,1.371883 0.421588,0.416823 0.855384,0.846705 1.285692,1.022117 0.877619,0.233647 2.166799,0.233647 3.125073,-0.02718 0.328725,-0.09318 0.684918,0.05365 0.794347,0.321882 0.110302,0.267882 -0.06627,0.558706 -0.394558,0.647647 -1.215935,0.334235 -2.789371,0.334235 -4.005743,0 -0.749006,-0.298941 -1.269561,-0.814941 -1.773113,-1.312588 -0.472161,-0.468 -0.96089,-0.950471 -1.394686,-1.021765 -0.924268,-0.171176 -2.080039,0.68753 -3.203984,1.510235 -1.631421,1.190824 -3.660887,2.674589 -5.630625,1.208824 -0.622573,-0.506824 -0.772113,-1.074706 -0.890698,-1.530706 -0.163055,-0.620117 -0.207524,-0.786706 -1.089939,-0.786706 -0.779088,0.05965 -1.603082,0.69953 -2.331161,1.264588 -0.211884,0.165883 -0.418973,0.326118 -0.621266,0.469765 -0.755981,0.471883 -1.68025,0.945177 -2.441899,0.612706 -0.85146,-0.372 -0.774292,-1.375412 -0.684917,-2.538 0.03313,-0.441176 0.06845,-0.897882 0.04316,-1.273765 -0.06278,-0.914823 -0.220604,-1.069764 -0.268125,-1.095176 -0.0885,-0.05082 -0.4181,-0.04482 -1.475777,0.256235 -0.404585,2.297647 -1.348473,4.606235 -2.952427,7.309412 -0.13646,0.234 -0.274664,0.492706 -0.415485,0.757059 -0.707152,1.324941 -1.439155,2.693294 -2.766265,2.789294 -0.04752,0.0035 -0.09417,0.0046 -0.1416917,0.0046" />
  </g>
  <g
     style="fill:#659b5a;fill-rule:evenodd;stroke:none;stroke-width:1"
     transform="translate(544,314)"
     id="Icon/UI/checkmark">
    <g
       id="checkmark">
      <polygon
         points="7.8583333,11.522222 2.6833333,6.4222222 0,9.2555556 7.8583333,17 22.425,2.6444444 19.741667,0 "
         id="polygon291" />
    </g>
  </g>
  <g
     style="fill:none;fill-rule:evenodd;stroke:none;stroke-width:1"
     transform="translate(497,379)"
     id="g295">
    <path
       style="stroke:#cee07f;stroke-width:2;stroke-linecap:square;stroke-dasharray:2, 4, 2, 4"
       inkscape:connector-curvature="0"
       id="path297"
       d="M 0.27248474,22 55.325192,22" />
    <path
       style="fill:#659b5a;fill-rule:evenodd"
       inkscape:connector-curvature="0"
       id="path299"
       d="m 14.857604,13.603111 c -1.675454,0.641647 -3.394942,1.554706 -4.8681031,2.596235 -1.446131,1.063059 -3.5579967,3.236471 -1.3423688,5.78753 0.7808322,0.954 1.21332,0.999882 1.3288535,0.988235 0.5859514,-0.042 1.2721764,-1.328118 1.7268994,-2.178706 0.146924,-0.273882 0.29036,-0.543882 0.433796,-0.790941 1.403405,-2.363294 2.280588,-4.404706 2.720923,-6.402353 M 9.9454673,23.999699 c -0.7808322,0 -1.5455334,-0.469765 -2.3324693,-1.432588 -2.018567,-2.323412 -1.4587743,-4.929177 1.5455334,-7.135412 1.8088626,-1.279059 3.8823626,-2.33647 5.9113926,-3.025412 0.08807,-0.657882 0.131229,-1.31647 0.131229,-1.986 0,-0.218117 0.0096,-0.513529 0.02093,-0.8668231 C 15.296632,7.2988756 15.492821,1.3108756 12.861272,1.0249933 11.417321,0.8742874 8.2874522,3.9392286 7.1155498,5.5793462 3.4067056,10.419229 1.7726691,14.39617 2.3834709,17.093346 2.4458154,17.371464 2.220416,17.638287 1.8794831,17.69017 1.5302667,17.73217 1.2120045,17.55817 1.1479161,17.279346 0.47128198,14.283935 2.1183977,10.168993 6.041306,5.0502874 c 0.028338,-0.039882 4.10471,-5.30435294 6.976481,-5.04070588 3.76029,0.40835294 3.556689,6.59752938 3.458594,9.57176468 -0.0109,0.342 -0.02093,0.6285878 -0.02093,0.8392938 0,0.538236 -0.02572,1.070471 -0.07978,1.598118 0.810043,-0.202941 1.482753,-0.278823 2.018567,0.01306 0.600775,0.326823 0.761214,0.966 0.823994,1.889294 0.03052,0.436941 -0.0074,0.924 -0.04316,1.394823 -0.04055,0.518824 -0.106378,1.382471 0.05275,1.584706 0.01221,-0.02612 0.303875,-0.06635 1.028031,-0.516 0.155643,-0.111882 0.349652,-0.262941 0.549329,-0.418235 0.876311,-0.680824 1.867719,-1.451647 3.139896,-1.545529 l 0.0061,0 c 1.947939,0 2.190341,0.921882 2.366911,1.594588 0.0981,0.37447 0.190958,0.728117 0.531019,1.005176 0.999692,0.741883 2.012027,0.164824 3.926832,-1.231764 1.360243,-0.99353 2.775856,-2.018471 4.296539,-1.74953 0.861924,0.139765 1.495396,0.766941 2.10707,1.371883 0.421588,0.416823 0.855384,0.846705 1.285692,1.022117 0.877619,0.233647 2.166799,0.233647 3.125073,-0.02718 0.328725,-0.09318 0.684918,0.05365 0.794347,0.321882 0.110302,0.267882 -0.06627,0.558706 -0.394558,0.647647 -1.215935,0.334235 -2.789371,0.334235 -4.005743,0 -0.749006,-0.298941 -1.269561,-0.814941 -1.773113,-1.312588 -0.472161,-0.468 -0.96089,-0.950471 -1.394686,-1.021765 -0.924268,-0.171176 -2.080039,0.68753 -3.203984,1.510235 -1.631421,1.190824 -3.660887,2.674589 -5.630625,1.208824 -0.622573,-0.506824 -0.772113,-1.074706 -0.890698,-1.530706 -0.163055,-0.620117 -0.207524,-0.786706 -1.089939,-0.786706 -0.779088,0.05965 -1.603082,0.69953 -2.331161,1.264588 -0.211884,0.165883 -0.418973,0.326118 -0.621266,0.469765 -0.755981,0.471883 -1.68025,0.945177 -2.441899,0.612706 -0.85146,-0.372 -0.774292,-1.375412 -0.684917,-2.538 0.03313,-0.441176 0.06845,-0.897882 0.04316,-1.273765 -0.06278,-0.914823 -0.220604,-1.069764 -0.268125,-1.095176 -0.0885,-0.05082 -0.4181,-0.04482 -1.475777,0.256235 -0.404585,2.297647 -1.348473,4.606235 -2.952427,7.309412 -0.13646,0.234 -0.274664,0.492706 -0.415485,0.757059 -0.707152,1.324941 -1.439155,2.693294 -2.766265,2.789294 -0.04752,0.0035 -0.09417,0.0046 -0.1416917,0.0046" />
  </g>
  <g
     style="fill:#659b5a;fill-rule:evenodd;stroke:none;stroke-width:1"
     transform="translate(544,365)"
     id="g301">
    <g
       id="g303">
      <polygon
         points="7.8583333,11.522222 2.6833333,6.4222222 0,9.2555556 7.8583333,17 22.425,2.6444444 19.741667,0 "
         id="polygon305" />
    </g>
  </g>
  <g
     style="fill:none;fill-rule:evenodd;stroke:none;stroke-width:1"
     id="Cert-1-Copy"
     transform="translate(451,322)">
    <path
       style="fill:#fefefe"
       inkscape:connector-curvature="0"
       id="path309"
       d="m 0,0 0,25.384615 21.62069,0 0,-4.214423 C 22.527052,21.994615 23.72131,22.5 25.034483,22.5 c 1.313172,0 2.507431,-0.505385 3.413793,-1.329808 l 0,4.214423 4.551724,0 L 33,0 0,0 Z" />
    <path
       style="stroke:#659b5a;stroke-width:1.99999988"
       inkscape:connector-curvature="0"
       id="path311"
       d="m 0,0 0,25.384615 21.62069,0 0,-4.214423 C 22.527052,21.994615 23.72131,22.5 25.034483,22.5 c 1.313172,0 2.507431,-0.505385 3.413793,-1.329808 l 0,4.214423 4.551724,0 L 33,0 0,0 Z" />
    <path
       style="fill:#cee07f"
       inkscape:connector-curvature="0"
       id="path313"
       d="m 30.241379,17.192308 c 0,2.867884 -2.292362,5.192307 -5.120689,5.192307 C 22.292362,22.384615 20,20.060192 20,17.192308 20,14.324423 22.292362,12 25.12069,12 c 2.828327,0 5.120689,2.324423 5.120689,5.192308" />
    <path
       style="stroke:#659b5a;stroke-width:1.5999999;stroke-linecap:round"
       inkscape:connector-curvature="0"
       id="Stroke-7"
       d="m 30.241379,17.192308 c 0,2.867884 -2.292362,5.192307 -5.120689,5.192307 C 22.292362,22.384615 20,20.060192 20,17.192308 20,14.324423 22.292362,12 25.12069,12 c 2.828327,0 5.120689,2.324423 5.120689,5.192308 z" />
    <path
       style="fill:#659b5a"
       inkscape:connector-curvature="0"
       id="path316"
       d="M 24.413793,22.329808 C 23.100621,22.329808 21.906362,21.824423 21,21 l 0,8.829808 3.413793,-3.461539 3.413793,3.461539 0,-8.829808 c -0.906362,0.824423 -2.100621,1.329808 -3.413793,1.329808" />
    <path
       style="stroke:#659b5a;stroke-width:1.5999999;stroke-linecap:round"
       inkscape:connector-curvature="0"
       id="Stroke-11"
       d="M 24.413793,22.329808 C 23.100621,22.329808 21.906362,21.824423 21,21 l 0,8.829808 3.413793,-3.461539 3.413793,3.461539 0,-8.829808 c -0.906362,0.824423 -2.100621,1.329808 -3.413793,1.329808 z" />
    <path
       style="stroke:#659b5a;stroke-width:1.5999999;stroke-linecap:round"
       inkscape:connector-curvature="0"
       id="path319"
       d="M 4,4 17.086207,4" />
    <path
       style="stroke:#659b5a;stroke-width:1.5999999;stroke-linecap:round"
       inkscape:connector-curvature="0"
       id="path321"
       d="m 4,8 6.258621,0" />
    <path
       style="stroke:#659b5a;stroke-width:1.5999999;stroke-linecap:round"
       inkscape:connector-curvature="0"
       id="path323"
       d="m 4,12 4.5517241,0" />
    <path
       style="stroke:#659b5a;stroke-width:1.5999999;stroke-linecap:round"
       inkscape:connector-curvature="0"
       id="path325"
       d="m 4,15 11.948276,0" />
  </g>
  <g
     style="fill:none;fill-rule:evenodd;stroke:none;stroke-width:1"
     id="g329"
     transform="translate(409,319)">
    <g
       id="g331">
      <path
         style="fill:#fefefe"
         inkscape:connector-curvature="0"
         transform="matrix(0,1,-1,0,30.153458,3.232824)"
         id="path333"
         d="m -2.3597884,3.7964334 0,25.7934146 20.7297944,0 0,-4.282293 c 0.869014,0.8377 2.014063,1.351223 3.273125,1.351223 1.259062,0 2.40411,-0.513523 3.273125,-1.351223 l 0,4.282293 4.364167,0 0,-25.7934146 -31.6402114,0 z" />
      <polygon
         style="stroke:#659b5a;stroke-width:1.99999988"
         points="29.280423,29.589848 29.280423,3.7964334 -2.3597884,3.7964334 -2.3597884,29.589848 "
         transform="matrix(0,1,-1,0,30.153458,3.232824)"
         id="polygon335" />
      <g
         style="stroke:#659b5a;stroke-width:1.5999999;stroke-linecap:round"
         transform="matrix(0,-1,1,0,4.322312,16.956111)"
         id="g337">
        <path
           inkscape:connector-curvature="0"
           id="path339"
           transform="matrix(0,1,-1,0,18.181601,-4.441669)"
           d="m 5.0381449,6.5489438 12.5469801,0" />
        <path
           inkscape:connector-curvature="0"
           transform="matrix(0,1,-1,0,11.209292,-4.376868)"
           id="path341"
           d="m 4.7927147,3.0951905 6.0007303,0" />
        <path
           inkscape:connector-curvature="0"
           transform="matrix(0,1,-1,0,6.827354,-1.721806)"
           id="path343"
           d="m 2.092496,2.2317522 4.3641672,0" />
        <path
           inkscape:connector-curvature="0"
           transform="matrix(0,1,-1,0,7.05042,5.53826)"
           id="path345"
           d="m -4.9718897,5.9733183 11.4559386,0" />
      </g>
      <text
         style="font-weight:400;font-size:12px;font-family:HelveticaNeue-Medium, 'Helvetica Neue';fill:#659b5a"
         font-weight="400"
         font-size="12"
         id="text347">
        <tspan
           id="tspan349"
           y="28"
           x="4">tx</tspan>
      </text>
    </g>
  </g>
  <g
     style="fill:none;fill-rule:evenodd;stroke:none;stroke-width:1"
     id="g353"
     transform="translate(451,368)">
    <path
       style="fill:#fefefe"
       inkscape:connector-curvature="0"
       id="path355"
       d="m 0,0 0,25.384615 21.62069,0 0,-4.214423 C 22.527052,21.994615 23.72131,22.5 25.034483,22.5 c 1.313172,0 2.507431,-0.505385 3.413793,-1.329808 l 0,4.214423 4.551724,0 L 33,0 0,0 Z" />
    <path
       style="stroke:#659b5a;stroke-width:1.99999988"
       inkscape:connector-curvature="0"
       id="path357"
       d="m 0,0 0,25.384615 21.62069,0 0,-4.214423 C 22.527052,21.994615 23.72131,22.5 25.034483,22.5 c 1.313172,0 2.507431,-0.505385 3.413793,-1.329808 l 0,4.214423 4.551724,0 L 33,0 0,0 Z" />
    <path
       style="fill:#cee07f"
       inkscape:connector-curvature="0"
       id="path359"
       d="m 30.241379,17.192308 c 0,2.867884 -2.292362,5.192307 -5.120689,5.192307 C 22.292362,22.384615 20,20.060192 20,17.192308 20,14.324423 22.292362,12 25.12069,12 c 2.828327,0 5.120689,2.324423 5.120689,5.192308" />
    <path
       style="stroke:#659b5a;stroke-width:1.5999999;stroke-linecap:round"
       inkscape:connector-curvature="0"
       id="path361"
       d="m 30.241379,17.192308 c 0,2.867884 -2.292362,5.192307 -5.120689,5.192307 C 22.292362,22.384615 20,20.060192 20,17.192308 20,14.324423 22.292362,12 25.12069,12 c 2.828327,0 5.120689,2.324423 5.120689,5.192308 z" />
    <path
       style="fill:#659b5a"
       inkscape:connector-curvature="0"
       id="path363"
       d="M 24.413793,22.329808 C 23.100621,22.329808 21.906362,21.824423 21,21 l 0,8.829808 3.413793,-3.461539 3.413793,3.461539 0,-8.829808 c -0.906362,0.824423 -2.100621,1.329808 -3.413793,1.329808" />
    <path
       style="stroke:#659b5a;stroke-width:1.5999999;stroke-linecap:round"
       inkscape:connector-curvature="0"
       id="path365"
       d="M 24.413793,22.329808 C 23.100621,22.329808 21.906362,21.824423 21,21 l 0,8.829808 3.413793,-3.461539 3.413793,3.461539 0,-8.829808 c -0.906362,0.824423 -2.100621,1.329808 -3.413793,1.329808 z" />
    <path
       style="stroke:#659b5a;stroke-width:1.5999999;stroke-linecap:round"
       inkscape:connector-curvature="0"
       id="path367"
       d="M 4,4 17.086207,4" />
    <path
       style="stroke:#659b5a;stroke-width:1.5999999;stroke-linecap:round"
       inkscape:connector-curvature="0"
       id="path369"
       d="m 4,8 6.258621,0" />
    <path
       style="stroke:#659b5a;stroke-width:1.5999999;stroke-linecap:round"
       inkscape:connector-curvature="0"
       id="path371"
       d="m 4,12 4.5517241,0" />
    <path
       style="stroke:#659b5a;stroke-width:1.5999999;stroke-linecap:round"
       inkscape:connector-curvature="0"
       id="path373"
       d="m 4,15 11.948276,0" />
  </g>
  <g
     style="fill:none;fill-rule:evenodd;stroke:none;stroke-width:1"
     id="g377"
     transform="translate(409,365)">
    <g
       id="g379">
      <path
         style="fill:#fefefe"
         inkscape:connector-curvature="0"
         transform="matrix(0,1,-1,0,30.153458,3.232824)"
         id="path381"
         d="m -2.3597884,3.7964334 0,25.7934146 20.7297944,0 0,-4.282293 c 0.869014,0.8377 2.014063,1.351223 3.273125,1.351223 1.259062,0 2.40411,-0.513523 3.273125,-1.351223 l 0,4.282293 4.364167,0 0,-25.7934146 -31.6402114,0 z" />
      <polygon
         style="stroke:#659b5a;stroke-width:1.99999988"
         points="29.280423,29.589848 29.280423,3.7964334 -2.3597884,3.7964334 -2.3597884,29.589848 "
         transform="matrix(0,1,-1,0,30.153458,3.232824)"
         id="polygon383" />
      <g
         style="stroke:#659b5a;stroke-width:1.5999999;stroke-linecap:round"
         transform="matrix(0,-1,1,0,4.322312,16.956111)"
         id="g385">
        <path
           inkscape:connector-curvature="0"
           id="path387"
           transform="matrix(0,1,-1,0,18.181601,-4.441669)"
           d="m 5.0381449,6.5489438 12.5469801,0" />
        <path
           inkscape:connector-curvature="0"
           transform="matrix(0,1,-1,0,11.209292,-4.376868)"
           id="path389"
           d="m 4.7927147,3.0951905 6.0007303,0" />
        <path
           inkscape:connector-curvature="0"
           transform="matrix(0,1,-1,0,6.827354,-1.721806)"
           id="path391"
           d="m 2.092496,2.2317522 4.3641672,0" />
        <path
           inkscape:connector-curvature="0"
           transform="matrix(0,1,-1,0,7.05042,5.53826)"
           id="path393"
           d="m -4.9718897,5.9733183 11.4559386,0" />
      </g>
      <text
         style="font-weight:400;font-size:12px;font-family:HelveticaNeue-Medium, 'Helvetica Neue';fill:#659b5a"
         font-weight="400"
         font-size="12"
         id="text395">
        <tspan
           id="tspan397"
           y="28"
           x="4">tx</tspan>
      </text>
    </g>
  </g>
  <path
     style="fill:none;fill-rule:evenodd;stroke:#659b5a;stroke-width:2;stroke-linecap:round"
     inkscape:connector-curvature="0"
     id="path401"
     d="m 801.9998,556.25993 -6,6.25993" />
  <path
     style="fill:none;fill-rule:evenodd;stroke:#659b5a;stroke-width:2;stroke-linecap:round"
     inkscape:connector-curvature="0"
     id="path403"
     d="m 801.9998,556.25993 -6,-6.25993" />
  <polyline
     style="fill:none;fill-rule:evenodd;stroke:#659b5a;stroke-width:2;stroke-linecap:round"
     points="0 6.12975523 100.912755 6.12975523 412 6.12975523"
     id="polyline405"
     transform="matrix(-1,0,0,1,802,550)" />
  <g
     style="fill:none;fill-rule:evenodd;stroke:none;stroke-width:1"
     id="g409"
     transform="translate(753,495)">
    <g
       id="g411">
      <path
         style="fill:#fefefe"
         inkscape:connector-curvature="0"
         transform="matrix(0,1,-1,0,30.153458,3.232824)"
         id="path413"
         d="m -2.3597884,3.7964334 0,25.7934146 20.7297944,0 0,-4.282293 c 0.869014,0.8377 2.014063,1.351223 3.273125,1.351223 1.259062,0 2.40411,-0.513523 3.273125,-1.351223 l 0,4.282293 4.364167,0 0,-25.7934146 -31.6402114,0 z" />
      <polygon
         style="stroke:#659b5a;stroke-width:1.99999988"
         points="29.280423,29.589848 29.280423,3.7964334 -2.3597884,3.7964334 -2.3597884,29.589848 "
         transform="matrix(0,1,-1,0,30.153458,3.232824)"
         id="polygon415" />
      <g
         style="stroke:#659b5a;stroke-width:1.5999999;stroke-linecap:round"
         transform="matrix(0,-1,1,0,4.322312,16.956111)"
         id="g417">
        <path
           inkscape:connector-curvature="0"
           id="path419"
           transform="matrix(0,1,-1,0,18.181601,-4.441669)"
           d="m 5.0381449,6.5489438 12.5469801,0" />
        <path
           inkscape:connector-curvature="0"
           transform="matrix(0,1,-1,0,11.209292,-4.376868)"
           id="path421"
           d="m 4.7927147,3.0951905 6.0007303,0" />
        <path
           inkscape:connector-curvature="0"
           transform="matrix(0,1,-1,0,6.827354,-1.721806)"
           id="path423"
           d="m 2.092496,2.2317522 4.3641672,0" />
        <path
           inkscape:connector-curvature="0"
           transform="matrix(0,1,-1,0,7.05042,5.53826)"
           id="path425"
           d="m -4.9718897,5.9733183 11.4559386,0" />
      </g>
      <text
         style="font-weight:400;font-size:12px;font-family:HelveticaNeue-Medium, 'Helvetica Neue';fill:#659b5a"
         font-weight="400"
         font-size="12"
         id="text427">
        <tspan
           id="tspan429"
           y="28"
           x="4">tx</tspan>
      </text>
    </g>
  </g>
  <g
     style="fill:none;fill-rule:evenodd;stroke:none;stroke-width:1"
     transform="translate(819.72997,522.51111)"
     id="g433">
    <polygon
       style="fill:#fefefe;fill-rule:evenodd"
       points="0,4.2586207 8.5,8.5172414 8.5,19 0,14.741379 "
       id="polygon435" />
    <polygon
       style="stroke:#659b5a;stroke-width:1.53999996;stroke-linecap:round;stroke-linejoin:round"
       points="0,4.2586207 8.5,8.5172414 8.5,19 0,14.741379 "
       id="polygon437" />
    <polygon
       style="fill:#fefefe;fill-rule:evenodd"
       points="17,4.2586207 8.5,8.5172414 8.5,19 17,14.741379 "
       id="polygon439" />
    <polygon
       style="stroke:#659b5a;stroke-width:1.53999996;stroke-linecap:round;stroke-linejoin:round"
       points="17,4.2586207 8.5,8.5172414 8.5,19 17,14.741379 "
       id="polygon441" />
    <polygon
       style="fill:#cee07f;fill-rule:evenodd"
       points="17,4.2586207 8.5,8.5172414 0,4.2586207 8.1730769,0 "
       id="polygon443" />
    <polygon
       style="stroke:#659b5a;stroke-width:1.53999996;stroke-linecap:round;stroke-linejoin:round"
       points="17,4.2586207 8.5,8.5172414 0,4.2586207 8.1730769,0 "
       id="polygon445" />
  </g>
  <g
     style="fill:none;fill-rule:evenodd;stroke:none;stroke-width:1"
     transform="translate(841.00129,522.51111)"
     id="g447">
    <polygon
       style="fill:#fefefe;fill-rule:evenodd"
       points="0,4.2586207 8.5,8.5172414 8.5,19 0,14.741379 "
       id="polygon449" />
    <polygon
       style="stroke:#659b5a;stroke-width:1.53999996;stroke-linecap:round;stroke-linejoin:round"
       points="0,4.2586207 8.5,8.5172414 8.5,19 0,14.741379 "
       id="polygon451" />
    <polygon
       style="fill:#fefefe;fill-rule:evenodd"
       points="17,4.2586207 8.5,8.5172414 8.5,19 17,14.741379 "
       id="polygon453" />
    <polygon
       style="stroke:#659b5a;stroke-width:1.53999996;stroke-linecap:round;stroke-linejoin:round"
       points="17,4.2586207 8.5,8.5172414 8.5,19 17,14.741379 "
       id="polygon455" />
    <polygon
       style="fill:#cee07f;fill-rule:evenodd"
       points="17,4.2586207 8.5,8.5172414 0,4.2586207 8.1730769,0 "
       id="polygon457" />
    <polygon
       style="stroke:#659b5a;stroke-width:1.53999996;stroke-linecap:round;stroke-linejoin:round"
       points="17,4.2586207 8.5,8.5172414 0,4.2586207 8.1730769,0 "
       id="polygon459" />
  </g>
  <g
     style="fill:none;fill-rule:evenodd;stroke:none;stroke-width:1"
     transform="translate(862.98165,522.51111)"
     id="g461">
    <polygon
       style="fill:#fefefe;fill-rule:evenodd"
       points="0,4.2586207 8.5,8.5172414 8.5,19 0,14.741379 "
       id="polygon463" />
    <polygon
       style="stroke:#659b5a;stroke-width:1.53999996;stroke-linecap:round;stroke-linejoin:round"
       points="0,4.2586207 8.5,8.5172414 8.5,19 0,14.741379 "
       id="polygon465" />
    <polygon
       style="fill:#fefefe;fill-rule:evenodd"
       points="17,4.2586207 8.5,8.5172414 8.5,19 17,14.741379 "
       id="polygon467" />
    <polygon
       style="stroke:#659b5a;stroke-width:1.53999996;stroke-linecap:round;stroke-linejoin:round"
       points="17,4.2586207 8.5,8.5172414 8.5,19 17,14.741379 "
       id="polygon469" />
    <polygon
       style="fill:#cee07f;fill-rule:evenodd"
       points="17,4.2586207 8.5,8.5172414 0,4.2586207 8.1730769,0 "
       id="polygon471" />
    <polygon
       style="stroke:#659b5a;stroke-width:1.53999996;stroke-linecap:round;stroke-linejoin:round"
       points="17,4.2586207 8.5,8.5172414 0,4.2586207 8.1730769,0 "
       id="polygon473" />
  </g>
  <g
     style="fill:none;fill-rule:evenodd;stroke:none;stroke-width:1"
     transform="translate(884.25297,522.51111)"
     id="g475">
    <polygon
       style="fill:#fefefe;fill-rule:evenodd"
       points="0,4.2586207 8.5,8.5172414 8.5,19 0,14.741379 "
       id="polygon477" />
    <polygon
       style="stroke:#659b5a;stroke-width:1.53999996;stroke-linecap:round;stroke-linejoin:round"
       points="0,4.2586207 8.5,8.5172414 8.5,19 0,14.741379 "
       id="polygon479" />
    <polygon
       style="fill:#fefefe;fill-rule:evenodd"
       points="17,4.2586207 8.5,8.5172414 8.5,19 17,14.741379 "
       id="polygon481" />
    <polygon
       style="stroke:#659b5a;stroke-width:1.53999996;stroke-linecap:round;stroke-linejoin:round"
       points="17,4.2586207 8.5,8.5172414 8.5,19 17,14.741379 "
       id="polygon483" />
    <polygon
       style="fill:#cee07f;fill-rule:evenodd"
       points="17,4.2586207 8.5,8.5172414 0,4.2586207 8.1730769,0 "
       id="polygon485" />
    <polygon
       style="stroke:#659b5a;stroke-width:1.53999996;stroke-linecap:round;stroke-linejoin:round"
       points="17,4.2586207 8.5,8.5172414 0,4.2586207 8.1730769,0 "
       id="polygon487" />
  </g>
  <g
     style="fill:none;fill-rule:evenodd;stroke:none;stroke-width:1"
     transform="translate(831.72997,550.51111)"
     id="g491">
    <polygon
       style="fill:#fefefe;fill-rule:evenodd"
       points="0,4.2586207 8.5,8.5172414 8.5,19 0,14.741379 "
       id="polygon493" />
    <polygon
       style="stroke:#659b5a;stroke-width:1.53999996;stroke-linecap:round;stroke-linejoin:round"
       points="0,4.2586207 8.5,8.5172414 8.5,19 0,14.741379 "
       id="polygon495" />
    <polygon
       style="fill:#fefefe;fill-rule:evenodd"
       points="17,4.2586207 8.5,8.5172414 8.5,19 17,14.741379 "
       id="polygon497" />
    <polygon
       style="stroke:#659b5a;stroke-width:1.53999996;stroke-linecap:round;stroke-linejoin:round"
       points="17,4.2586207 8.5,8.5172414 8.5,19 17,14.741379 "
       id="polygon499" />
    <polygon
       style="fill:#cee07f;fill-rule:evenodd"
       points="17,4.2586207 8.5,8.5172414 0,4.2586207 8.1730769,0 "
       id="polygon501" />
    <polygon
       style="stroke:#659b5a;stroke-width:1.53999996;stroke-linecap:round;stroke-linejoin:round"
       points="17,4.2586207 8.5,8.5172414 0,4.2586207 8.1730769,0 "
       id="polygon503" />
  </g>
  <g
     style="fill:none;fill-rule:evenodd;stroke:none;stroke-width:1"
     transform="translate(853.00129,550.51111)"
     id="g505">
    <polygon
       style="fill:#fefefe;fill-rule:evenodd"
       points="0,4.2586207 8.5,8.5172414 8.5,19 0,14.741379 "
       id="polygon507" />
    <polygon
       style="stroke:#659b5a;stroke-width:1.53999996;stroke-linecap:round;stroke-linejoin:round"
       points="0,4.2586207 8.5,8.5172414 8.5,19 0,14.741379 "
       id="polygon509" />
    <polygon
       style="fill:#fefefe;fill-rule:evenodd"
       points="17,4.2586207 8.5,8.5172414 8.5,19 17,14.741379 "
       id="polygon511" />
    <polygon
       style="stroke:#659b5a;stroke-width:1.53999996;stroke-linecap:round;stroke-linejoin:round"
       points="17,4.2586207 8.5,8.5172414 8.5,19 17,14.741379 "
       id="polygon513" />
    <polygon
       style="fill:#cee07f;fill-rule:evenodd"
       points="17,4.2586207 8.5,8.5172414 0,4.2586207 8.1730769,0 "
       id="polygon515" />
    <polygon
       style="stroke:#659b5a;stroke-width:1.53999996;stroke-linecap:round;stroke-linejoin:round"
       points="17,4.2586207 8.5,8.5172414 0,4.2586207 8.1730769,0 "
       id="polygon517" />
  </g>
  <g
     style="fill:none;fill-rule:evenodd;stroke:none;stroke-width:1"
     transform="translate(874.98165,550.51111)"
     id="g519">
    <polygon
       style="fill:#fefefe;fill-rule:evenodd"
       points="0,4.2586207 8.5,8.5172414 8.5,19 0,14.741379 "
       id="polygon521" />
    <polygon
       style="stroke:#659b5a;stroke-width:1.53999996;stroke-linecap:round;stroke-linejoin:round"
       points="0,4.2586207 8.5,8.5172414 8.5,19 0,14.741379 "
       id="polygon523" />
    <polygon
       style="fill:#fefefe;fill-rule:evenodd"
       points="17,4.2586207 8.5,8.5172414 8.5,19 17,14.741379 "
       id="polygon525" />
    <polygon
       style="stroke:#659b5a;stroke-width:1.53999996;stroke-linecap:round;stroke-linejoin:round"
       points="17,4.2586207 8.5,8.5172414 8.5,19 17,14.741379 "
       id="polygon527" />
    <polygon
       style="fill:#cee07f;fill-rule:evenodd"
       points="17,4.2586207 8.5,8.5172414 0,4.2586207 8.1730769,0 "
       id="polygon529" />
    <polygon
       style="stroke:#659b5a;stroke-width:1.53999996;stroke-linecap:round;stroke-linejoin:round"
       points="17,4.2586207 8.5,8.5172414 0,4.2586207 8.1730769,0 "
       id="polygon531" />
  </g>
  <g
     style="fill:none;fill-rule:evenodd;stroke:none;stroke-width:1"
     transform="translate(896.25297,550.51111)"
     id="g533">
    <polygon
       style="fill:#fefefe;fill-rule:evenodd"
       points="0,4.2586207 8.5,8.5172414 8.5,19 0,14.741379 "
       id="polygon535" />
    <polygon
       style="stroke:#659b5a;stroke-width:1.53999996;stroke-linecap:round;stroke-linejoin:round"
       points="0,4.2586207 8.5,8.5172414 8.5,19 0,14.741379 "
       id="polygon537" />
    <polygon
       style="fill:#fefefe;fill-rule:evenodd"
       points="17,4.2586207 8.5,8.5172414 8.5,19 17,14.741379 "
       id="polygon539" />
    <polygon
       style="stroke:#659b5a;stroke-width:1.53999996;stroke-linecap:round;stroke-linejoin:round"
       points="17,4.2586207 8.5,8.5172414 8.5,19 17,14.741379 "
       id="polygon541" />
    <polygon
       style="fill:#cee07f;fill-rule:evenodd"
       points="17,4.2586207 8.5,8.5172414 0,4.2586207 8.1730769,0 "
       id="polygon543" />
    <polygon
       style="stroke:#659b5a;stroke-width:1.53999996;stroke-linecap:round;stroke-linejoin:round"
       points="17,4.2586207 8.5,8.5172414 0,4.2586207 8.1730769,0 "
       id="polygon545" />
  </g>
  <g
     style="fill:none;fill-rule:evenodd;stroke:none;stroke-width:1"
     transform="translate(820.72997,577.3447)"
     id="g548">
    <polygon
       style="fill:#fefefe;fill-rule:evenodd"
       points="0,4.2586207 8.5,8.5172414 8.5,19 0,14.741379 "
       id="polygon550" />
    <polygon
       style="stroke:#659b5a;stroke-width:1.53999996;stroke-linecap:round;stroke-linejoin:round"
       points="0,4.2586207 8.5,8.5172414 8.5,19 0,14.741379 "
       id="polygon552" />
    <polygon
       style="fill:#fefefe;fill-rule:evenodd"
       points="17,4.2586207 8.5,8.5172414 8.5,19 17,14.741379 "
       id="polygon554" />
    <polygon
       style="stroke:#659b5a;stroke-width:1.53999996;stroke-linecap:round;stroke-linejoin:round"
       points="17,4.2586207 8.5,8.5172414 8.5,19 17,14.741379 "
       id="polygon556" />
    <polygon
       style="fill:#cee07f;fill-rule:evenodd"
       points="17,4.2586207 8.5,8.5172414 0,4.2586207 8.1730769,0 "
       id="polygon558" />
    <polygon
       style="stroke:#659b5a;stroke-width:1.53999996;stroke-linecap:round;stroke-linejoin:round"
       points="17,4.2586207 8.5,8.5172414 0,4.2586207 8.1730769,0 "
       id="polygon560" />
  </g>
  <g
     style="fill:none;fill-rule:evenodd;stroke:none;stroke-width:1"
     transform="translate(842.00129,577.3447)"
     id="g562">
    <polygon
       style="fill:#fefefe;fill-rule:evenodd"
       points="0,4.2586207 8.5,8.5172414 8.5,19 0,14.741379 "
       id="polygon564" />
    <polygon
       style="stroke:#659b5a;stroke-width:1.53999996;stroke-linecap:round;stroke-linejoin:round"
       points="0,4.2586207 8.5,8.5172414 8.5,19 0,14.741379 "
       id="polygon566" />
    <polygon
       style="fill:#fefefe;fill-rule:evenodd"
       points="17,4.2586207 8.5,8.5172414 8.5,19 17,14.741379 "
       id="polygon568" />
    <polygon
       style="stroke:#659b5a;stroke-width:1.53999996;stroke-linecap:round;stroke-linejoin:round"
       points="17,4.2586207 8.5,8.5172414 8.5,19 17,14.741379 "
       id="polygon570" />
    <polygon
       style="fill:#cee07f;fill-rule:evenodd"
       points="17,4.2586207 8.5,8.5172414 0,4.2586207 8.1730769,0 "
       id="polygon572" />
    <polygon
       style="stroke:#659b5a;stroke-width:1.53999996;stroke-linecap:round;stroke-linejoin:round"
       points="17,4.2586207 8.5,8.5172414 0,4.2586207 8.1730769,0 "
       id="polygon574" />
  </g>
  <g
     style="fill:none;fill-rule:evenodd;stroke:none;stroke-width:1"
     transform="translate(863.98165,577.3447)"
     id="g576">
    <polygon
       style="fill:#fefefe;fill-rule:evenodd"
       points="0,4.2586207 8.5,8.5172414 8.5,19 0,14.741379 "
       id="polygon578" />
    <polygon
       style="stroke:#659b5a;stroke-width:1.53999996;stroke-linecap:round;stroke-linejoin:round"
       points="0,4.2586207 8.5,8.5172414 8.5,19 0,14.741379 "
       id="polygon580" />
    <polygon
       style="fill:#fefefe;fill-rule:evenodd"
       points="17,4.2586207 8.5,8.5172414 8.5,19 17,14.741379 "
       id="polygon582" />
    <polygon
       style="stroke:#659b5a;stroke-width:1.53999996;stroke-linecap:round;stroke-linejoin:round"
       points="17,4.2586207 8.5,8.5172414 8.5,19 17,14.741379 "
       id="polygon584" />
    <polygon
       style="fill:#cee07f;fill-rule:evenodd"
       points="17,4.2586207 8.5,8.5172414 0,4.2586207 8.1730769,0 "
       id="polygon586" />
    <polygon
       style="stroke:#659b5a;stroke-width:1.53999996;stroke-linecap:round;stroke-linejoin:round"
       points="17,4.2586207 8.5,8.5172414 0,4.2586207 8.1730769,0 "
       id="polygon588" />
  </g>
  <g
     style="fill:none;fill-rule:evenodd;stroke:none;stroke-width:1"
     transform="translate(885.25297,577.3447)"
     id="g590">
    <polygon
       style="fill:#fefefe;fill-rule:evenodd"
       points="0,4.2586207 8.5,8.5172414 8.5,19 0,14.741379 "
       id="polygon592" />
    <polygon
       style="stroke:#659b5a;stroke-width:1.53999996;stroke-linecap:round;stroke-linejoin:round"
       points="0,4.2586207 8.5,8.5172414 8.5,19 0,14.741379 "
       id="polygon594" />
    <polygon
       style="fill:#fefefe;fill-rule:evenodd"
       points="17,4.2586207 8.5,8.5172414 8.5,19 17,14.741379 "
       id="polygon596" />
    <polygon
       style="stroke:#659b5a;stroke-width:1.53999996;stroke-linecap:round;stroke-linejoin:round"
       points="17,4.2586207 8.5,8.5172414 8.5,19 17,14.741379 "
       id="polygon598" />
    <polygon
       style="fill:#cee07f;fill-rule:evenodd"
       points="17,4.2586207 8.5,8.5172414 0,4.2586207 8.1730769,0 "
       id="polygon600" />
    <polygon
       style="stroke:#659b5a;stroke-width:1.53999996;stroke-linecap:round;stroke-linejoin:round"
       points="17,4.2586207 8.5,8.5172414 0,4.2586207 8.1730769,0 "
       id="polygon602" />
  </g>
  <g
     style="fill:none;fill-rule:evenodd;stroke:none;stroke-width:1"
     transform="translate(543,701)"
     id="g606">
    <polygon
       style="fill:#fefefe;fill-rule:evenodd"
       points="0,6.0517241 12,12.103448 12,27 0,20.948276 "
       id="polygon608" />
    <polygon
       style="stroke:#659b5a;stroke-width:1.53999996;stroke-linecap:round;stroke-linejoin:round"
       points="0,6.0517241 12,12.103448 12,27 0,20.948276 "
       id="polygon610" />
    <polygon
       style="fill:#fefefe;fill-rule:evenodd"
       points="24,6.0517241 12,12.103448 12,27 24,20.948276 "
       id="polygon612" />
    <polygon
       style="stroke:#659b5a;stroke-width:1.53999996;stroke-linecap:round;stroke-linejoin:round"
       points="24,6.0517241 12,12.103448 12,27 24,20.948276 "
       id="polygon614" />
    <polygon
       style="fill:#cee07f;fill-rule:evenodd"
       points="24,6.0517241 12,12.103448 0,6.0517241 11.538462,0 "
       id="polygon616" />
    <polygon
       style="stroke:#659b5a;stroke-width:1.53999996;stroke-linecap:round;stroke-linejoin:round"
       points="24,6.0517241 12,12.103448 0,6.0517241 11.538462,0 "
       id="polygon618" />
  </g>
  <g
     style="fill:#659b5a;fill-rule:evenodd;stroke:none;stroke-width:1"
     transform="translate(559,679)"
     id="g620">
    <g
       id="g622">
      <polygon
         points="7.8583333,11.522222 2.6833333,6.4222222 0,9.2555556 7.8583333,17 22.425,2.6444444 19.741667,0 "
         id="polygon624" />
    </g>
  </g>
  <text
     id="Transaction-Flow"
     font-size="48"
     font-weight="300"
     style="font-weight:normal;font-size:47.5px;font-family:Gulim;fill:#6e5f5f;fill-rule:evenodd;stroke:none;stroke-width:1;-inkscape-font-specification:'Gulim, Normal';font-style:normal;font-stretch:normal;font-variant:normal;text-anchor:start;text-align:start;writing-mode:lr;line-height:125%;"
     sodipodi:linespacing="125%">
    <tspan
       x="167"
       y="126"
       id="tspan627"
       style="-inkscape-font-specification:'Gulim, Normal';font-family:Gulim;font-weight:normal;font-style:normal;font-stretch:normal;font-variant:normal;font-size:47.5px;text-anchor:start;text-align:start;writing-mode:lr;line-height:125%;">트랜잭션 플로우</tspan>
  </text>
  <text
     style="font-weight:300;font-size:14px;font-family:HelveticaNeue-Light, 'Helvetica Neue';fill:#6e5f5f;fill-rule:evenodd;stroke:none;stroke-width:1"
     font-weight="300"
     font-size="14"
     id="1"
     x="153"
     y="269">
    <tspan
       id="tspan631"
       y="285"
       x="160">1</tspan>
  </text>
  <path
     style="fill:none;fill-rule:evenodd;stroke:#6e5f5f;stroke-width:1"
     inkscape:connector-curvature="0"
     id="Oval"
     d="m 164.5,292 c 6.35127,0 11.5,-5.14873 11.5,-11.5 0,-6.35127 -5.14873,-11.5 -11.5,-11.5 -6.35127,0 -11.5,5.14873 -11.5,11.5 0,6.35127 5.14873,11.5 11.5,11.5 z" />
  <text
     style="font-weight:300;font-size:14px;font-family:HelveticaNeue-Light, 'Helvetica Neue';fill:#6e5f5f;fill-rule:evenodd;stroke:none;stroke-width:1"
     font-weight="300"
     font-size="14"
     id="3"
     x="341"
     y="545">
    <tspan
       id="tspan637"
       y="561"
       x="348">3</tspan>
  </text>
  <circle
     style="fill:none;fill-rule:evenodd;stroke:#6e5f5f;stroke-width:1"
     r="11.5"
     cy="556.5"
     cx="352.5"
     id="circle639" />
  <text
     style="font-weight:300;font-size:14px;font-family:HelveticaNeue-Light, 'Helvetica Neue';fill:#6e5f5f;fill-rule:evenodd;stroke:none;stroke-width:1"
     font-weight="300"
     font-size="14"
     id="4"
     x="508"
     y="668">
    <tspan
       id="tspan644"
       y="684"
       x="515">4</tspan>
  </text>
  <circle
     style="fill:none;fill-rule:evenodd;stroke:#6e5f5f;stroke-width:1"
     r="11.5"
     cy="679.5"
     cx="519.5"
     id="circle646" />
  <rect
     id="Rectangle-2"
     x="27.5"
     y="26.5"
     width="1184"
     height="936"
     style="fill:none;fill-rule:evenodd;stroke:#6e5f5f;stroke-width:1" />
  <g
     style="fill:none;fill-rule:evenodd;stroke:#6e5f5f;stroke-width:1"
     id="g650"
     transform="translate(353,322)">
    <circle
       r="11.5"
       cy="11.5"
       cx="11.5"
       id="circle652" />
  </g>
  <text
     style="font-weight:300;font-size:14px;font-family:HelveticaNeue-Light, 'Helvetica Neue';fill:#6e5f5f;fill-rule:evenodd;stroke:none;stroke-width:1"
     font-weight="300"
     font-size="14"
     id="2"
     x="353"
     y="322">
    <tspan
       id="tspan655"
       y="338"
       x="361">2</tspan>
  </text>
  <path
     style="fill:none;fill-rule:evenodd;stroke:#659b5a;stroke-width:2;stroke-linecap:round"
     inkscape:connector-curvature="0"
     id="path659"
     d="m 388.00022,433.25993 6.6875,6.25993" />
  <path
     style="fill:none;fill-rule:evenodd;stroke:#659b5a;stroke-width:2;stroke-linecap:round"
     inkscape:connector-curvature="0"
     id="path661"
     d="M 388.00022,433.25993 394.68772,427" />
  <polyline
     style="fill:none;fill-rule:evenodd;stroke:#659b5a;stroke-width:2;stroke-linecap:round"
     points="0 6.12975523 52.4158487 6.12975523 214 6.12975523"
     id="polyline663"
     transform="translate(388,427)" />
  <g
     style="fill:none;fill-rule:evenodd;stroke:none;stroke-width:1"
     transform="translate(969,75)"
     id="g666">
    <path
       style="fill:#fefefe"
       inkscape:connector-curvature="0"
       transform="matrix(0,1,-1,0,30.153458,3.232824)"
       id="path668"
       d="m -2.3597884,3.7964334 0,25.7934146 20.7297944,0 0,-4.282293 c 0.869014,0.8377 2.014063,1.351223 3.273125,1.351223 1.259062,0 2.40411,-0.513523 3.273125,-1.351223 l 0,4.282293 4.364167,0 0,-25.7934146 -31.6402114,0 z" />
    <polygon
       style="stroke:#659b5a;stroke-width:1.99999988"
       points="29.280423,29.589848 29.280423,3.7964334 -2.3597884,3.7964334 -2.3597884,29.589848 "
       transform="matrix(0,1,-1,0,30.153458,3.232824)"
       id="polygon670" />
    <g
       style="stroke:#659b5a;stroke-width:1.5999999;stroke-linecap:round"
       transform="matrix(0,-1,1,0,4.322312,16.956111)"
       id="g672">
      <path
         inkscape:connector-curvature="0"
         id="path674"
         transform="matrix(0,1,-1,0,18.181601,-4.441669)"
         d="m 5.0381449,6.5489438 12.5469801,0" />
      <path
         inkscape:connector-curvature="0"
         transform="matrix(0,1,-1,0,11.209292,-4.376868)"
         id="path676"
         d="m 4.7927147,3.0951905 6.0007303,0" />
      <path
         inkscape:connector-curvature="0"
         transform="matrix(0,1,-1,0,6.827354,-1.721806)"
         id="path678"
         d="m 2.092496,2.2317522 4.3641672,0" />
      <path
         inkscape:connector-curvature="0"
         transform="matrix(0,1,-1,0,7.05042,5.53826)"
         id="path680"
         d="m -4.9718897,5.9733183 11.4559386,0" />
    </g>
    <text
       style="font-weight:400;font-size:12px;font-family:HelveticaNeue-Medium, 'Helvetica Neue';fill:#659b5a"
       font-weight="400"
       font-size="12"
       id="text682">
      <tspan
         id="tspan684"
         y="28"
         x="4">tx</tspan>
    </text>
  </g>
  <g
     style="fill:none;fill-rule:evenodd;stroke:none;stroke-width:1"
     transform="translate(969,124)"
     id="g686">
    <g
       id="g688">
      <path
         style="fill:#fefefe"
         inkscape:connector-curvature="0"
         id="path690"
         d="m 0,0 0,25.384615 21.62069,0 0,-4.214423 C 22.527052,21.994615 23.72131,22.5 25.034483,22.5 c 1.313172,0 2.507431,-0.505385 3.413793,-1.329808 l 0,4.214423 4.551724,0 L 33,0 0,0 Z" />
      <path
         style="stroke:#659b5a;stroke-width:1.99999988"
         inkscape:connector-curvature="0"
         id="path692"
         d="m 0,0 0,25.384615 21.62069,0 0,-4.214423 C 22.527052,21.994615 23.72131,22.5 25.034483,22.5 c 1.313172,0 2.507431,-0.505385 3.413793,-1.329808 l 0,4.214423 4.551724,0 L 33,0 0,0 Z" />
      <path
         style="fill:#cee07f"
         inkscape:connector-curvature="0"
         id="path694"
         d="m 30.241379,17.192308 c 0,2.867884 -2.292362,5.192307 -5.120689,5.192307 C 22.292362,22.384615 20,20.060192 20,17.192308 20,14.324423 22.292362,12 25.12069,12 c 2.828327,0 5.120689,2.324423 5.120689,5.192308" />
      <path
         style="stroke:#659b5a;stroke-width:1.5999999;stroke-linecap:round"
         inkscape:connector-curvature="0"
         id="path696"
         d="m 30.241379,17.192308 c 0,2.867884 -2.292362,5.192307 -5.120689,5.192307 C 22.292362,22.384615 20,20.060192 20,17.192308 20,14.324423 22.292362,12 25.12069,12 c 2.828327,0 5.120689,2.324423 5.120689,5.192308 z" />
      <path
         style="fill:#659b5a"
         inkscape:connector-curvature="0"
         id="path698"
         d="M 24.413793,22.329808 C 23.100621,22.329808 21.906362,21.824423 21,21 l 0,8.829808 3.413793,-3.461539 3.413793,3.461539 0,-8.829808 c -0.906362,0.824423 -2.100621,1.329808 -3.413793,1.329808" />
      <path
         style="stroke:#659b5a;stroke-width:1.5999999;stroke-linecap:round"
         inkscape:connector-curvature="0"
         id="path700"
         d="M 24.413793,22.329808 C 23.100621,22.329808 21.906362,21.824423 21,21 l 0,8.829808 3.413793,-3.461539 3.413793,3.461539 0,-8.829808 c -0.906362,0.824423 -2.100621,1.329808 -3.413793,1.329808 z" />
      <path
         style="stroke:#659b5a;stroke-width:1.5999999;stroke-linecap:round"
         inkscape:connector-curvature="0"
         id="path702"
         d="M 4,4 17.086207,4" />
      <path
         style="stroke:#659b5a;stroke-width:1.5999999;stroke-linecap:round"
         inkscape:connector-curvature="0"
         id="path704"
         d="m 4,8 6.258621,0" />
      <path
         style="stroke:#659b5a;stroke-width:1.5999999;stroke-linecap:round"
         inkscape:connector-curvature="0"
         id="path706"
         d="m 4,12 4.5517241,0" />
      <path
         style="stroke:#659b5a;stroke-width:1.5999999;stroke-linecap:round"
         inkscape:connector-curvature="0"
         id="path708"
         d="m 4,15 11.948276,0" />
    </g>
  </g>
  <g
     style="fill:none;fill-rule:evenodd;stroke:none;stroke-width:1"
     transform="translate(969,213)"
     id="g710">
    <g
       transform="translate(0.981654,0.511109)"
       id="g712">
      <polygon
         style="fill:#fefefe;fill-rule:evenodd"
         points="0,4.2586207 8.5,8.5172414 8.5,19 0,14.741379 "
         id="polygon714" />
      <polygon
         style="stroke:#659b5a;stroke-width:1.53999996;stroke-linecap:round;stroke-linejoin:round"
         points="0,4.2586207 8.5,8.5172414 8.5,19 0,14.741379 "
         id="polygon716" />
      <polygon
         style="fill:#fefefe;fill-rule:evenodd"
         points="17,4.2586207 8.5,8.5172414 8.5,19 17,14.741379 "
         id="polygon718" />
      <polygon
         style="stroke:#659b5a;stroke-width:1.53999996;stroke-linecap:round;stroke-linejoin:round"
         points="17,4.2586207 8.5,8.5172414 8.5,19 17,14.741379 "
         id="polygon720" />
      <polygon
         style="fill:#cee07f;fill-rule:evenodd"
         points="17,4.2586207 8.5,8.5172414 0,4.2586207 8.1730769,0 "
         id="polygon722" />
      <polygon
         style="stroke:#659b5a;stroke-width:1.53999996;stroke-linecap:round;stroke-linejoin:round"
         points="17,4.2586207 8.5,8.5172414 0,4.2586207 8.1730769,0 "
         id="polygon724" />
    </g>
    <g
       transform="translate(22.252974,0.511109)"
       id="g726">
      <polygon
         style="fill:#fefefe;fill-rule:evenodd"
         points="0,4.2586207 8.5,8.5172414 8.5,19 0,14.741379 "
         id="polygon728" />
      <polygon
         style="stroke:#659b5a;stroke-width:1.53999996;stroke-linecap:round;stroke-linejoin:round"
         points="0,4.2586207 8.5,8.5172414 8.5,19 0,14.741379 "
         id="polygon730" />
      <polygon
         style="fill:#fefefe;fill-rule:evenodd"
         points="17,4.2586207 8.5,8.5172414 8.5,19 17,14.741379 "
         id="polygon732" />
      <polygon
         style="stroke:#659b5a;stroke-width:1.53999996;stroke-linecap:round;stroke-linejoin:round"
         points="17,4.2586207 8.5,8.5172414 8.5,19 17,14.741379 "
         id="polygon734" />
      <polygon
         style="fill:#cee07f;fill-rule:evenodd"
         points="17,4.2586207 8.5,8.5172414 0,4.2586207 8.1730769,0 "
         id="polygon736" />
      <polygon
         style="stroke:#659b5a;stroke-width:1.53999996;stroke-linecap:round;stroke-linejoin:round"
         points="17,4.2586207 8.5,8.5172414 0,4.2586207 8.1730769,0 "
         id="polygon738" />
    </g>
  </g>
  <text
     style="font-style:normal;font-variant:normal;font-weight:normal;font-stretch:normal;font-size:12.00000095px;line-height:125%;font-family:Gulim;-inkscape-font-specification:'Gulim, Normal';text-align:start;writing-mode:lr-tb;text-anchor:start;fill:#6e5f5f;fill-rule:evenodd;stroke:none;stroke-width:1"
     font-weight="normal"
     font-size="12"
     id="Transaction-proposal"
     x="956"
     y="35"
     sodipodi:linespacing="125%">
    <tspan
       id="tspan741"
       y="95"
       x="1024.49"
       style="font-style:normal;font-variant:normal;font-weight:normal;font-stretch:normal;font-size:12.00000095px;line-height:125%;font-family:Gulim;-inkscape-font-specification:'Gulim, Normal';text-align:start;writing-mode:lr-tb;text-anchor:start">트랜잭션 제안</tspan>
  </text>
  <text
     style="font-weight:normal;font-size:12.00000048px;font-family:Gulim;fill:#6e5f5f;fill-rule:evenodd;stroke:none;stroke-width:1;-inkscape-font-specification:'Gulim, Normal';font-style:normal;font-stretch:normal;font-variant:normal;text-anchor:start;text-align:start;writing-mode:lr;line-height:125%;"
     font-weight="normal"
     font-size="12"
     id="Certificate"
     x="956"
     y="35"
     sodipodi:linespacing="125%">
    <tspan
       id="tspan744"
       y="142"
       x="1024.062"
       style="-inkscape-font-specification:'Gulim, Normal';font-family:Gulim;font-weight:normal;font-style:normal;font-stretch:normal;font-variant:normal;font-size:12.00000048px;text-anchor:start;text-align:start;writing-mode:lr;line-height:125%;">인증서</tspan>
  </text>
  <g
     style="fill:none;fill-rule:evenodd;stroke:none;stroke-width:1"
     transform="translate(965,170)"
     id="g746">
    <path
       style="stroke:#cee07f;stroke-width:2;stroke-linecap:square;stroke-dasharray:2, 4, 2, 4"
       inkscape:connector-curvature="0"
       id="path748"
       d="M 0.27248474,22 55.325192,22" />
    <path
       style="fill:#659b5a;fill-rule:evenodd"
       inkscape:connector-curvature="0"
       id="path750"
       d="m 14.857604,13.603111 c -1.675454,0.641647 -3.394942,1.554706 -4.8681031,2.596235 -1.446131,1.063059 -3.5579967,3.236471 -1.3423688,5.78753 0.7808322,0.954 1.21332,0.999882 1.3288535,0.988235 0.5859514,-0.042 1.2721764,-1.328118 1.7268994,-2.178706 0.146924,-0.273882 0.29036,-0.543882 0.433796,-0.790941 1.403405,-2.363294 2.280588,-4.404706 2.720923,-6.402353 M 9.9454673,23.999699 c -0.7808322,0 -1.5455334,-0.469765 -2.3324693,-1.432588 -2.018567,-2.323412 -1.4587743,-4.929177 1.5455334,-7.135412 1.8088626,-1.279059 3.8823626,-2.33647 5.9113926,-3.025412 0.08807,-0.657882 0.131229,-1.31647 0.131229,-1.986 0,-0.218117 0.0096,-0.513529 0.02093,-0.8668231 C 15.296632,7.2988756 15.492821,1.3108756 12.861272,1.0249933 11.417321,0.8742874 8.2874522,3.9392286 7.1155498,5.5793462 3.4067056,10.419229 1.7726691,14.39617 2.3834709,17.093346 2.4458154,17.371464 2.220416,17.638287 1.8794831,17.69017 1.5302667,17.73217 1.2120045,17.55817 1.1479161,17.279346 0.47128198,14.283935 2.1183977,10.168993 6.041306,5.0502874 c 0.028338,-0.039882 4.10471,-5.30435294 6.976481,-5.04070588 3.76029,0.40835294 3.556689,6.59752938 3.458594,9.57176468 -0.0109,0.342 -0.02093,0.6285878 -0.02093,0.8392938 0,0.538236 -0.02572,1.070471 -0.07978,1.598118 0.810043,-0.202941 1.482753,-0.278823 2.018567,0.01306 0.600775,0.326823 0.761214,0.966 0.823994,1.889294 0.03052,0.436941 -0.0074,0.924 -0.04316,1.394823 -0.04055,0.518824 -0.106378,1.382471 0.05275,1.584706 0.01221,-0.02612 0.303875,-0.06635 1.028031,-0.516 0.155643,-0.111882 0.349652,-0.262941 0.549329,-0.418235 0.876311,-0.680824 1.867719,-1.451647 3.139896,-1.545529 l 0.0061,0 c 1.947939,0 2.190341,0.921882 2.366911,1.594588 0.0981,0.37447 0.190958,0.728117 0.531019,1.005176 0.999692,0.741883 2.012027,0.164824 3.926832,-1.231764 1.360243,-0.99353 2.775856,-2.018471 4.296539,-1.74953 0.861924,0.139765 1.495396,0.766941 2.10707,1.371883 0.421588,0.416823 0.855384,0.846705 1.285692,1.022117 0.877619,0.233647 2.166799,0.233647 3.125073,-0.02718 0.328725,-0.09318 0.684918,0.05365 0.794347,0.321882 0.110302,0.267882 -0.06627,0.558706 -0.394558,0.647647 -1.215935,0.334235 -2.789371,0.334235 -4.005743,0 -0.749006,-0.298941 -1.269561,-0.814941 -1.773113,-1.312588 -0.472161,-0.468 -0.96089,-0.950471 -1.394686,-1.021765 -0.924268,-0.171176 -2.080039,0.68753 -3.203984,1.510235 -1.631421,1.190824 -3.660887,2.674589 -5.630625,1.208824 -0.622573,-0.506824 -0.772113,-1.074706 -0.890698,-1.530706 -0.163055,-0.620117 -0.207524,-0.786706 -1.089939,-0.786706 -0.779088,0.05965 -1.603082,0.69953 -2.331161,1.264588 -0.211884,0.165883 -0.418973,0.326118 -0.621266,0.469765 -0.755981,0.471883 -1.68025,0.945177 -2.441899,0.612706 -0.85146,-0.372 -0.774292,-1.375412 -0.684917,-2.538 0.03313,-0.441176 0.06845,-0.897882 0.04316,-1.273765 -0.06278,-0.914823 -0.220604,-1.069764 -0.268125,-1.095176 -0.0885,-0.05082 -0.4181,-0.04482 -1.475777,0.256235 -0.404585,2.297647 -1.348473,4.606235 -2.952427,7.309412 -0.13646,0.234 -0.274664,0.492706 -0.415485,0.757059 -0.707152,1.324941 -1.439155,2.693294 -2.766265,2.789294 -0.04752,0.0035 -0.09417,0.0046 -0.1416917,0.0046" />
  </g>
  <text
     style="font-weight:normal;font-size:12.00000048px;font-family:Gulim;fill:#6e5f5f;fill-rule:evenodd;stroke:none;stroke-width:1;-inkscape-font-specification:'Gulim, Normal';font-style:normal;font-stretch:normal;font-variant:normal;text-anchor:start;text-align:start;writing-mode:lr;line-height:125%;"
     font-weight="normal"
     font-size="12"
     id="Signature"
     x="956"
     y="35"
     sodipodi:linespacing="125%">
    <tspan
       id="tspan753"
       y="181"
       x="1024.4399"
       style="-inkscape-font-specification:'Gulim, Normal';font-family:Gulim;font-weight:normal;font-style:normal;font-stretch:normal;font-variant:normal;font-size:12.00000048px;text-anchor:start;text-align:start;writing-mode:lr;line-height:125%;">서명</tspan>
  </text>
  <text
     style="font-weight:normal;font-size:12.00000048px;font-family:Gulim;fill:#474a47;fill-rule:evenodd;stroke:none;stroke-width:1;-inkscape-font-specification:'Gulim, Normal';font-style:normal;font-stretch:normal;font-variant:normal;text-anchor:start;text-align:start;writing-mode:lr;line-height:125%;"
     font-weight="normal"
     font-size="12"
     id="Ordered-Transactions"
     x="956"
     y="35"
     sodipodi:linespacing="125%">
    <tspan
       id="tspan756"
       y="216"
       x="1024"
       style="-inkscape-font-specification:'Gulim, Normal';font-family:Gulim;font-weight:normal;font-style:normal;font-stretch:normal;font-variant:normal;font-size:12.00000048px;text-anchor:start;text-align:start;writing-mode:lr;line-height:125%;">순서 지정된</tspan>
    <tspan
       id="tspan758"
       y="230"
       x="1024"
       style="-inkscape-font-specification:'Gulim, Normal';font-family:Gulim;font-weight:normal;font-style:normal;font-stretch:normal;font-variant:normal;font-size:12.00000048px;text-anchor:start;text-align:start;writing-mode:lr;line-height:125%;">트랜잭션</tspan>
  </text>
  <text
     style="font-weight:normal;font-size:11.00000024px;font-family:Gulim;fill:#6e5f5f;fill-rule:evenodd;stroke:none;stroke-width:1;-inkscape-font-specification:'Gulim, Normal';font-style:normal;font-stretch:normal;font-variant:normal;text-anchor:start;text-align:start;writing-mode:lr;line-height:125%;"
     font-weight="300"
     font-size="18"
     id="Key"
     x="956"
     y="35"
     sodipodi:linespacing="125%">
    <tspan
       id="tspan761"
       y="52"
       x="1046"
       style="-inkscape-font-specification:'Gulim, Normal';font-family:Gulim;font-weight:normal;font-style:normal;font-stretch:normal;font-variant:normal;font-size:17.5px;text-anchor:start;text-align:start;writing-mode:lr;line-height:125%">키</tspan>
  </text>
  <use
     height="100%"
     width="100%"
     y="0"
     x="0"
     style="fill:none;fill-rule:evenodd;stroke:#979797;stroke-width:2;stroke-dasharray:2, 2, 2"
     xlink:href="#path-3"
     mask="url(#mask-4)"
     id="Rectangle-3"
     transform="translate(956,35)" />
</svg>
