<?xml version="1.0" encoding="utf-8"?>
<!-- Generator: Adobe Illustrator 22.0.0, SVG Export Plug-In . SVG Version: 6.00 Build 0)  -->
<svg version="1.1" id="Layer_1" xmlns="http://www.w3.org/2000/svg" xmlns:xlink="http://www.w3.org/1999/xlink" x="0px" y="0px"
	 viewBox="0 0 1400 1548" style="enable-background:new 0 0 1400 1548;" xml:space="preserve">
<style type="text/css">
	.st0{fill:#FFFFFF;stroke:#979797;}
	.st1{opacity:0.2003;}
	.st2{fill:#DCDCDC;}
	.st3{fill:#161515;}
	.st4{font-family:'IBMPlexSans-Medium';}
	.st5{font-size:21px;}
	.st6{opacity:0.4463;}
	.st7{opacity:0.4519;}
	.st8{opacity:0.2022;}
	.st9{opacity:0.2023;}
	.st10{fill:#565656;stroke:#B4ADAD;}
	.st11{fill:#FFFFFF;}
	.st12{font-size:19px;}
	.st13{fill:none;stroke:#5A5A5A;stroke-linecap:round;stroke-linejoin:round;}
	.st14{opacity:0.4474;}
	.st15{fill:none;stroke:#565656;stroke-linecap:round;stroke-linejoin:round;}
	.st16{fill:#010F5E;stroke:#857B7B;}
	.st17{fill:#FFFFFF;stroke:#857B7B;}
	.st18{fill:#010F5E;}
	.st19{fill:#0039C8;stroke:#857B7B;}
	.st20{fill:#565656;}
	.st21{fill:#08CAEB;stroke:#857B7B;}
	.st22{fill:#979797;}
	.st23{font-size:24px;}
	.st24{font-family:'IBMPlexSans';}
	.st25{font-size:20px;}
</style>
<title>IBP_V2_Architecture</title>
<desc>Created with Sketch.</desc>
<g id="IBP_V2_Architecture">
	<rect id="Rectangle" x="1.5" y="0.5" class="st0" width="1398" height="1546"/>
	<g id="Group-14-Copy" transform="translate(165.000000, 579.000000)" class="st1">
		<rect id="Rectangle-Copy-8" y="69" class="st2" width="757" height="805"/>
		<text transform="matrix(1 0 0 1 0 22)" class="st3 st4 st5">Cluster Kubernetes - </text>
		<text transform="matrix(1 0 0 1 0 50)" class="st3 st4 st5">Instância de serviço 3</text>
	</g>
	<g id="Group-14" transform="translate(311.000000, 506.000000)" class="st6">
		<rect id="Rectangle-Copy-8_1_" y="69" class="st2" width="757" height="805"/>
		<text transform="matrix(1 0 0 1 0 22)" class="st3 st4 st5">Cluster Kubernetes - </text>
		<text transform="matrix(1 0 0 1 0 50)" class="st3 st4 st5">Instance2 de serviço</text>
	</g>
	<g id="Group-13-Copy" transform="translate(308.000000, 194.000000)" class="st7">
		<g id="Group">
		</g>
	</g>
	<g id="Group-13-Copy-2" transform="translate(513.000000, 310.000000)" class="st8">
	</g>
	<g id="Group-17" transform="translate(165.000000, 189.000000)" class="st9">
		<g id="Group_1_" transform="translate(0.000000, 69.000000)">
			<rect id="Rectangle_1_" class="st2" width="757" height="128"/>
		</g>
		<text transform="matrix(1 0 0 1 0 22)" class="st3 st4 st5">Cluster Kubernetes do IBM Blockchain Platform - </text>
		<text transform="matrix(1 0 0 1 0 50)" class="st3 st4 st5">Ferramentas Operacionais</text>
		<g id="Group-2" transform="translate(64.000000, 87.000000)">
			<rect id="Rectangle_2_" x="0.5" y="0.5" class="st10" width="308" height="88"/>
			<text transform="matrix(1 0 0 1 81 39)" class="st11 st4 st12">Ferramentas Operacionais </text>
			<text transform="matrix(1 0 0 1 81 63)" class="st11 st4 st12">Ocorrência</text>
			<g id="_x39_658-200">
				
					<image style="overflow:visible;enable-background:new    ;" width="200" height="200" xlink:href="C9FED2EB5474981B.png"  transform="matrix(0.135 0 0 0.135 28 31)">
				</image>
				<g>
					<rect id="rect-1" x="28" y="31" class="st11" width="27" height="27"/>
				</g>
			</g>
		</g>
		<path id="Path-Copy" class="st13" d="M430,686h-21.5c-11,0-20-9-20-20V141c0-11-9-20-20-20H348"/>
	</g>
	<g id="Group-18" transform="translate(308.000000, 125.000000)" class="st14">
		<g id="Group-16">
			<rect id="Rectangle_3_" y="69" class="st2" width="757" height="128"/>
			<text transform="matrix(1 0 0 1 0 22)" class="st3 st4 st5">Cluster Kubernetes do IBM Blockchain Platform - </text>
			<text transform="matrix(1 0 0 1 0 50)" class="st3 st4 st5">Ferramentas Operacionais</text>
			<g id="Group-2_1_" transform="translate(64.000000, 87.000000)">
				<rect id="Rectangle_4_" x="0.5" y="0.5" class="st10" width="308" height="88"/>
				<text transform="matrix(1 0 0 1 81 39)" class="st11 st4 st12">Ferramentas Operacionais </text>
				<text transform="matrix(1 0 0 1 81 63)" class="st11 st4 st12">Ocorrência</text>
				<g id="_x39_658-200_1_">
					
						<image style="overflow:visible;enable-background:new    ;" width="200" height="200" xlink:href="C9FED2EB5474981C.png"  transform="matrix(0.135 0 0 0.135 28 31)">
					</image>
					<g>
						<rect id="rect-2" x="28" y="31" class="st11" width="27" height="27"/>
					</g>
				</g>
			</g>
		</g>
		<path id="Path-Copy_1_" class="st13" d="M430,658h-21.5c-11,0-20-9-20-20V113c0-11-9-20-20-20H348"/>
	</g>
	<g id="Group-14_1_" transform="translate(449.000000, 438.000000)">
		<rect id="Rectangle_5_" y="69" class="st2" width="757" height="805"/>
		<text transform="matrix(1 0 0 1 0 22)" class="st3 st4 st5">Cluster Kubernetes - </text>
		<text transform="matrix(1 0 0 1 0 50)" class="st3 st4 st5">Instância de serviço 1</text>
	</g>
	<path id="Path" class="st15" d="M689,1049V927c0-11,8.9-20,20-20h138"/>
	<g id="Group-8" transform="translate(513.000000, 731.000000)">
		<g id="Group-7">
			<rect id="Rectangle_6_" x="0.5" y="0.5" class="st16" width="642" height="104"/>
			<g id="Group-4" transform="translate(253.342000, 44.000000)">
				<rect id="Rectangle-Copy-7" x="0.5" y="0.5" class="st17" width="135.3" height="47"/>
				<text transform="matrix(1 0 0 1 36.311 31)" class="st18 st4 st12">Ingresso</text>
			</g>
			<text transform="matrix(1 0 0 1 199.9255 35)" class="st11 st4 st12">Namespace da instância de</text>
		</g>
		<g id="Group-6" transform="translate(0.000000, 145.000000)">
			<rect id="Rectangle_7_" x="0.5" y="0.5" class="st19" width="642" height="104"/>
			<g id="Group-5" transform="translate(253.342000, 45.000000)">
				<rect id="Rectangle-Copy-5" x="0.5" y="0.5" class="st17" width="135.3" height="47"/>
				<text transform="matrix(1 0 0 1 44.3195 31)" class="st18 st4 st12">Proxy</text>
			</g>
			<text transform="matrix(1 0 0 1 163.8985 35)" class="st11 st4 st12">Namespace do IBM Blockchain Platform</text>
		</g>
		<path id="Line-2" class="st20" d="M321.5,136.5V105v-0.5h1v0.5v31.5h4l-4.5,9l-4.5-9H321.5z"/>
	</g>
	<g id="Group-10" transform="translate(895.000000, 1061.000000)">
		<rect id="Rectangle_8_" x="0.5" y="0.5" class="st19" width="259" height="131"/>
		<g id="Group-9" transform="translate(77.000000, 73.000000)">
			<rect id="Rectangle-Copy-6" x="0.5" y="0.5" class="st17" width="105" height="47"/>
			<text transform="matrix(1 0 0 1 28.49 31)" class="st18 st4 st12">RBAC</text>
		</g>
		<text transform="matrix(1 0 0 1 63.05 39)" class="st11 st4 st12">IBM Blockchain </text>
		<text transform="matrix(1 0 0 1 41.3045 63)" class="st11 st4 st12">Namespace da plataforma</text>
	</g>
	<rect id="Rectangle_9_" x="513.5" y="1061.5" class="st16" width="105" height="61"/>
	<text transform="matrix(1 0 0 1 536.0975 1111)" class="st11 st4 st12">Peer-1</text>
	<rect id="Rectangle_10_" x="753.5" y="1061.5" class="st16" width="105" height="61"/>
	<text transform="matrix(1 0 0 1 763.041 1107)" class="st11 st4 st12">Orderer-1</text>
	<g id="Group-12" transform="translate(856.000000, 546.000000)">
		<rect id="Rectangle-Copy-4" x="0.5" y="28.5" class="st21" width="270" height="122"/>
		<rect id="Rectangle-Copy-3" x="14.5" y="14.5" class="st21" width="270" height="122"/>
		<g id="Group-11" transform="translate(28.000000, 0.000000)">
			<rect id="Rectangle-Copy" x="0.5" y="0.5" class="st21" width="270" height="122"/>
			<g id="Group-3" transform="translate(83.000000, 62.000000)">
				<rect id="Rectangle-Copy-2" x="0.5" y="0.5" class="st17" width="105" height="47"/>
				<text transform="matrix(1 0 0 1 31.0075 31)" class="st18 st4 st12">Tiller</text>
			</g>
			<text transform="matrix(1 0 0 1 79.26 30)" class="st11 st4 st12">kube-system</text>
			<text transform="matrix(1 0 0 1 192.3468 30)" class="st11 st4 st12"> </text>
			<text transform="matrix(1 0 0 1 85.948 54)" class="st11 st4 st12">namespace</text>
		</g>
	</g>
	<rect id="Rectangle_11_" x="514.5" y="1131.5" class="st16" width="105" height="61"/>
	<text transform="matrix(1 0 0 1 537.0975 1180)" class="st11 st4 st12">Peer-2</text>
	<rect id="Rectangle_12_" x="514.5" y="1200.5" class="st16" width="105" height="61"/>
	<text transform="matrix(1 0 0 1 537.0975 1249)" class="st11 st4 st12">Espe-3</text>
	<rect id="Rectangle_13_" x="631.5" y="1061.5" class="st16" width="105" height="61"/>
	<text transform="matrix(1 0 0 1 662.378 1110)" class="st11 st4 st12">CA-1</text>
	<rect id="Rectangle_14_" x="632.5" y="1131.5" class="st16" width="105" height="61"/>
	<text transform="matrix(1 0 0 1 663.378 1179)" class="st11 st4 st12">CA-2</text>
	<path id="Line-2_1_" class="st20" d="M688.5,1051.5V999v-0.5h1v0.5v52.5h4l-4.5,9l-4.5-9H688.5z"/>
	<path id="Path_1_" class="st15" d="M565,1056v-36c0-11,9-20,20-20h209c11.1,0,20,9,20,20v36"/>
	
		<g id="tip-type" transform="translate(813.000000, 1053.000000) rotate(90.000000) translate(-813.000000, -1053.000000) translate(809.000000, 1049.000000)">
		<polygon id="Triangle" class="st20" points="8,4 0,8 0,0 		"/>
	</g>
	
		<g id="tip-type_1_" transform="translate(835.000000, 727.000000) rotate(90.000000) translate(-835.000000, -727.000000) translate(831.000000, 723.000000)">
		<polygon id="Triangle_1_" class="st20" points="8,4 0,8 0,0 		"/>
	</g>
	
		<g id="tip-type_2_" transform="translate(824.000000, 197.000000) scale(1, -1) rotate(180.000000) translate(-824.000000, -197.000000) translate(820.000000, 193.000000)">
		<polygon id="Triangle_2_" class="st20" points="8,4 0,8 0,0 		"/>
	</g>
	
		<g id="tip-type_3_" transform="translate(564.000000, 1053.000000) rotate(90.000000) translate(-564.000000, -1053.000000) translate(560.000000, 1049.000000)">
		<polygon id="Triangle_3_" class="st20" points="8,4 0,8 0,0 		"/>
	</g>
	
		<image style="overflow:visible;enable-background:new    ;" width="48" height="48" id="IBM_Cloud-Copy" xlink:href="C9FED2EB5474981D.png"  transform="matrix(0.7708 0 0 0.7708 527 740)">
	</image>
	
		<image style="overflow:visible;enable-background:new    ;" width="48" height="48" id="IBM_Cloud-Copy-2" xlink:href="C9FED2EB5474981F.png"  transform="matrix(0.5417 0 0 0.5417 553 1067)">
	</image>
	
		<image style="overflow:visible;enable-background:new    ;" width="48" height="48" id="IBM_Cloud-Copy-5" xlink:href="C9FED2EB5474981A.png"  transform="matrix(0.5417 0 0 0.5417 553 1137)">
	</image>
	
		<image style="overflow:visible;enable-background:new    ;" width="48" height="48" id="IBM_Cloud-Copy-7" xlink:href="C9FED2EB54749808.png"  transform="matrix(0.5417 0 0 0.5417 553 1206)">
	</image>
	
		<image style="overflow:visible;enable-background:new    ;" width="48" height="48" id="IBM_Cloud-Copy-3" xlink:href="C9FED2EB54749809.png"  transform="matrix(0.5417 0 0 0.5417 671 1065)">
	</image>
	
		<image style="overflow:visible;enable-background:new    ;" width="48" height="48" id="IBM_Cloud-Copy-6" xlink:href="C9FED2EB5474980A.png"  transform="matrix(0.5417 0 0 0.5417 671 1135)">
	</image>
	
		<image style="overflow:visible;enable-background:new    ;" width="48" height="48" id="IBM_Cloud-Copy-4" xlink:href="C9FED2EB5474980B.png"  transform="matrix(0.5417 0 0 0.5417 793 1066)">
	</image>
	<g id="Group-13" transform="translate(449.000000, 62.000000)">
		<g id="Group_2_" transform="translate(0.000000, 69.000000)">
			<rect id="Rectangle_15_" class="st2" width="757" height="128"/>
			<path id="Path_2_" class="st13" d="M427,627h-21.5c-11,0-20-9-20-20V82c0-11-9-20-20-20H345"/>
		</g>
		<text transform="matrix(1 0 0 1 0 22)" class="st3 st4 st5">Cluster Kubernetes do IBM Blockchain Platform - </text>
		<text transform="matrix(1 0 0 1 0 50)" class="st3 st4 st5">Ferramentas Operacionais</text>
		<g id="Group-2_2_" transform="translate(64.000000, 87.000000)">
			<rect id="Rectangle_16_" x="0.5" y="0.5" class="st10" width="308" height="88"/>
			<text transform="matrix(1 0 0 1 81 39)" class="st11 st4 st12">Ferramentas Operacionais </text>
			<text transform="matrix(1 0 0 1 81 63)" class="st11 st4 st12">Ocorrência</text>
			<g id="_x39_658-200_2_">
				
					<image style="overflow:visible;enable-background:new    ;" width="200" height="200" xlink:href="31D47C0334D9FAE4.png"  transform="matrix(0.135 0 0 0.135 28 31)">
				</image>
				<g>
					<rect id="rect-3" x="28" y="31" class="st11" width="27" height="27"/>
				</g>
			</g>
		</g>
	</g>
	<g id="Group-15" transform="translate(43.000000, 1349.000000)">
		<rect id="Rectangle_17_" class="st22" width="1308" height="166"/>
		<text transform="matrix(1 0 0 1 21.112 44)" class="st11 st4 st23">Detalhes do cluster da instância de serviço</text>
		<text transform="matrix(1 0 0 1 30 93)" class="st11 st24 st25">- Os clusters podem ser uma zona única ou</text>
		<text transform="matrix(1 0 0 1 366.4356 93)" class="st11 st24 st25"> </text>
		<text transform="matrix(1 0 0 1 30 120)" class="st11 st24 st25">multizona</text>
		<text transform="matrix(1 0 0 1 463 93)" class="st11 st24 st25">- As regras de antiafinidade serão usadas para implementar </text>
		<text transform="matrix(1 0 0 1 463 120)" class="st11 st24 st25">nó em MZR (Multi Zone Region)</text>
		<text transform="matrix(1 0 0 1 904.43 94)" class="st11 st24 st25">-Cálculo de provisões de provisões de clientes</text>
	</g>
</g>
</svg>
