<?xml version="1.0" encoding="UTF-8"?>
<svg width="1242px" height="993px" viewBox="0 0 1242 993" version="1.1" xmlns="http://www.w3.org/2000/svg" xmlns:xlink="http://www.w3.org/1999/xlink">
    <!-- Generator: Sketch 46.2 (44496) - http://www.bohemiancoding.com/sketch -->
    <title>Artboard Copy</title>
    <desc>Created with Sketch.</desc>
    <defs>
        <polygon id="path-1" points="8.05378522 0.000122007042 16.1074075 0.000122007042 16.1074075 16.0761766 8.05378522 16.0761766 0.000162985075 16.0761766 0.000162985075 0.000122007042 8.05378522 0.000122007042"></polygon>
        <rect id="path-3" x="0" y="23" width="192" height="180"></rect>
        <mask id="mask-4" maskContentUnits="userSpaceOnUse" maskUnits="objectBoundingBox" x="0" y="0" width="192" height="180" fill="white">
            <use xlink:href="#path-3"></use>
        </mask>
    </defs>
    <g id="Page-1" stroke="none" stroke-width="1" fill="none" fill-rule="evenodd">
        <g id="Artboard-Copy">
            <path d="M384.5,250.5 L384.5,771.500977" id="Line" stroke="#6E5F5F" stroke-linecap="square"></path>
            <path d="M604.5,250.5 L604.5,771.500977" id="Line" stroke="#6E5F5F" stroke-linecap="square"></path>
            <path d="M804.5,250.5 L804.5,771.500977" id="Line" stroke="#6E5F5F" stroke-linecap="square"></path>
            <path d="M1004.5,250.5 L1004.5,771.500977" id="Line" stroke="#6E5F5F" stroke-linecap="square"></path>
            <text id="Client-A" font-family="HelveticaNeue-Light, Helvetica Neue" font-size="18" font-weight="300" fill="#6E5F5F">
                <tspan x="165.166" y="802">Cliente</tspan>
                <tspan x="181.33" y="823">A</tspan>
            </text>
            <text id="App-with-SDK" font-family="HelveticaNeue-Light, Helvetica Neue" font-size="18" font-weight="300" fill="#6E5F5F">
                <tspan x="351.165" y="802">Aplicativo com</tspan>
                <tspan x="367.833" y="823">SDK</tspan>
            </text>
            <path d="M584.5,250.5 L584.5,771.500977" id="Line" stroke="#6E5F5F" stroke-linecap="square"></path>
            <path d="M184.5,250.5 L184.5,771.500977" id="Line" stroke="#6E5F5F" stroke-linecap="square"></path>
            <text id="Peers-A-+-B" font-family="HelveticaNeue-Light, Helvetica Neue" font-size="18" font-weight="300" fill="#6E5F5F">
                <tspan x="575.324" y="802">Peers</tspan>
                <tspan x="575.423" y="823">A + B</tspan>
            </text>
            <text id="Ordering-Service" font-family="HelveticaNeue-Light, Helvetica Neue" font-size="18" font-weight="300" fill="#6E5F5F">
                <tspan x="770.984" y="802">Serviço de </tspan>
                <tspan x="776.15" y="823">Solicitação</tspan>
            </text>
            <text id="Ledger" font-family="HelveticaNeue-Light, Helvetica Neue" font-size="18" font-weight="300" fill="#6E5F5F">
                <tspan x="979.32" y="802">Livro Razão</tspan>
            </text>
            <g id="v" transform="translate(161.000000, 856.000000)">
                <rect id="Rectangle" fill="#CEE07F" x="1.67857143" y="11.1111111" width="15.1071429" height="37.7777778"></rect>
                <path d="M29.0952381,47.7779444 L33.5714286,47.7779444 L33.5714286,43.3335 L29.0952381,43.3335 L29.0952381,47.7779444 Z M6.71428571,43.3335 L11.1904762,43.3335 L11.1904762,38.8890556 L6.71428571,38.8890556 L6.71428571,43.3335 Z M12.3095238,36.6668333 C12.8953452,36.6862778 13.4145833,37.2773889 13.4285714,37.7779444 L13.4285714,44.4446111 C13.4285714,45.0262778 12.8953452,45.5557222 12.3095238,45.5557222 L5.5952381,45.5557222 C5.00941667,45.5557222 4.47619048,45.0262778 4.47619048,44.4446111 L4.47619048,37.7779444 C4.47619048,37.1962778 5.00941667,36.6668333 5.5952381,36.6668333 L12.3095238,36.6668333 Z M22.3809524,36.6668333 L27.9761905,36.6668333 L27.9761905,31.1112778 L22.3809524,31.1112778 L22.3809524,36.6668333 Z M34.6904762,36.6668333 L40.2857143,36.6668333 L40.2857143,31.1112778 L34.6904762,31.1112778 L34.6904762,36.6668333 Z M29.0952381,28.8890556 C29.714631,28.9040556 30.2159643,29.5057222 30.2142857,30.0001667 L30.2142857,37.7779444 C30.2142857,38.3596111 29.6810595,38.8890556 29.0952381,38.8890556 L21.2619048,38.8890556 C20.6760833,38.8890556 20.1428571,38.3596111 20.1428571,37.7779444 L20.1428571,30.0001667 C20.1428571,29.4185 20.6760833,28.8890556 21.2619048,28.8890556 L29.0952381,28.8890556 Z M41.4047619,28.8890556 C42.0241548,28.9040556 42.5254881,29.5057222 42.5238095,30.0001667 L42.5238095,37.7779444 C42.5238095,38.3596111 41.9905833,38.8890556 41.4047619,38.8890556 L33.5714286,38.8890556 C32.9856071,38.8890556 32.452381,38.3596111 32.452381,37.7779444 L32.452381,30.0001667 C32.452381,29.4185 32.9856071,28.8890556 33.5714286,28.8890556 L41.4047619,28.8890556 Z M6.71428571,32.2223889 L11.1904762,32.2223889 L11.1904762,27.7779444 L6.71428571,27.7779444 L6.71428571,32.2223889 Z M12.3095238,25.5557222 C12.8953452,25.5751667 13.4145833,26.1662778 13.4285714,26.6668333 L13.4285714,33.3335 C13.4285714,33.9151667 12.8953452,34.4446111 12.3095238,34.4446111 L5.5952381,34.4446111 C5.00941667,34.4446111 4.47619048,33.9151667 4.47619048,33.3335 L4.47619048,26.6668333 C4.47619048,26.0851667 5.00941667,25.5557222 5.5952381,25.5557222 L12.3095238,25.5557222 Z M22.3809524,24.4446111 L27.9761905,24.4446111 L27.9761905,18.8890556 L22.3809524,18.8890556 L22.3809524,24.4446111 Z M34.6904762,24.4446111 L40.2857143,24.4446111 L40.2857143,18.8890556 L34.6904762,18.8890556 L34.6904762,24.4446111 Z M6.71428571,21.1112778 L11.1904762,21.1112778 L11.1904762,16.6668333 L6.71428571,16.6668333 L6.71428571,21.1112778 Z M29.0952381,16.6668333 C29.714631,16.6818333 30.2159643,17.2835 30.2142857,17.7779444 L30.2142857,25.5557222 C30.2142857,26.1373889 29.6810595,26.6668333 29.0952381,26.6668333 L21.2619048,26.6668333 C20.6760833,26.6668333 20.1428571,26.1373889 20.1428571,25.5557222 L20.1428571,17.7779444 C20.1428571,17.1962778 20.6760833,16.6668333 21.2619048,16.6668333 L29.0952381,16.6668333 Z M41.4047619,16.6668333 C42.0241548,16.6818333 42.5254881,17.2835 42.5238095,17.7779444 L42.5238095,25.5557222 C42.5238095,26.1373889 41.9905833,26.6668333 41.4047619,26.6668333 L33.5714286,26.6668333 C32.9856071,26.6668333 32.452381,26.1373889 32.452381,25.5557222 L32.452381,17.7779444 C32.452381,17.1962778 32.9856071,16.6668333 33.5714286,16.6668333 L41.4047619,16.6668333 Z M12.3095238,14.4446111 C12.8953452,14.4640556 13.4145833,15.0551667 13.4285714,15.5557222 L13.4285714,22.2223889 C13.4285714,22.8040556 12.8953452,23.3335 12.3095238,23.3335 L5.5952381,23.3335 C5.00941667,23.3335 4.47619048,22.8040556 4.47619048,22.2223889 L4.47619048,15.5557222 C4.47619048,14.9740556 5.00941667,14.4446111 5.5952381,14.4446111 L12.3095238,14.4446111 Z M2.23809524,47.7779444 L2.23809524,12.2223889 L15.6666667,12.2223889 L15.6666667,47.7779444 L2.23809524,47.7779444 Z M17.9047619,2.84738889 L44.7619048,15.1562778 L44.7619048,47.7779444 L35.8095238,47.7779444 L35.8095238,42.2223889 C35.7955357,41.7218333 35.3467976,41.1446111 34.6904762,41.1112778 L27.9761905,41.1112778 C27.390369,41.1112778 26.8571429,41.6407222 26.8571429,42.2223889 L26.8571429,47.7779444 L17.9047619,47.7779444 L17.9047619,2.84738889 Z M16.768369,0.000166666667 C16.9351071,-0.00261111111 17.0990476,0.0323888889 17.2579524,0.0868333333 L46.3531905,13.4201667 C46.7420595,13.6001667 47.0067143,14.0185 47,14.4446111 L47,48.8890556 C47,49.4707222 46.4667738,50.0001667 45.8809524,50.0001667 L16.7857143,50.0001667 L1.11904762,50.0001667 C0.50077381,50.0001667 0,49.5023889 0,48.8890556 L0,11.1112778 C0,10.4973889 0.50077381,10.0001667 1.11904762,10.0001667 L15.6666667,10.0001667 L15.6666667,1.11127778 C15.7830476,0.315166667 16.2675952,0.00905555556 16.768369,0.000166666667 L16.768369,0.000166666667 Z" id="Fill-1" fill="#659B5A"></path>
            </g>
            <g id="server-sdk" transform="translate(360.000000, 854.000000)">
                <g id="Group-11">
                    <g id="Gear-/-wrench" transform="translate(18.626866, 19.366197)">
                        <g id="Page-1-Copy-3">
                            <mask id="mask-2" fill="white">
                                <use xlink:href="#path-1"></use>
                            </mask>
                            <g id="Clip-2"></g>
                        </g>
                        <path d="M1.88732109,9.20526301 L0.216268104,9.00786121 C0.0976824334,8.99502207 0,8.88508692 0,8.76471997 L0,7.09402673 C0,6.97566589 0.0976824334,6.8649283 0.216268104,6.85249038 L1.88732109,6.65468736 C2.04731125,5.89517192 2.34759428,5.18621059 2.76043321,4.55869757 L1.71647733,3.23666725 C1.64170806,3.14478714 1.65014975,2.99834069 1.73456667,2.9136826 L2.91881543,1.73127794 C3.00363433,1.6474223 3.14915302,1.63779295 3.24442354,1.7132229 L4.56695525,2.75319334 C5.19726824,2.34434694 5.90637035,2.04383079 6.66773055,1.88454519 L6.86470336,0.214654392 C6.87756689,0.0970960052 6.98690689,0 7.10790448,0 L8.78217334,0 C8.90236696,0 9.01090299,0.0970960052 9.02537446,0.214654392 L9.22315124,1.88454519 C9.98370747,2.04383079 10.6932116,2.34434694 11.3227206,2.75319334 L12.6464583,1.7132229 C12.7401208,1.63779295 12.8860415,1.6474223 12.9708604,1.73127794 L14.1543052,2.9136826 C14.2395261,2.99834069 14.2491737,3.14478714 14.1736005,3.23787092 L13.1312526,4.55869757 C13.5424835,5.18621059 13.8423646,5.89517192 14.0023547,6.65468736 L15.6734077,6.85249038 C15.7936013,6.8649283 15.8896758,6.97566589 15.8908818,7.09402673 L15.8896758,8.76471997 C15.8908818,8.88508692 15.7936013,8.99502207 15.6734077,9.00786121 L14.0023547,9.20526301 C13.8423646,9.9655809 13.5424835,10.6733386 13.1308506,11.3024565 L14.1736005,12.6236843 C14.2491737,12.7163669 14.2395261,12.8616097 14.1543052,12.946669 L12.9708604,14.1282712 C12.8860415,14.2137317 12.7401208,14.2209538 12.6456543,14.1467275 L11.3227206,13.1063558 C10.6932116,13.5156034 9.98370747,13.8165208 9.22315124,13.9754052 L9.02537446,15.6428886 C9.01090299,15.7628544 8.90236696,15.8591479 8.78217334,15.8599504 L7.10790448,15.8591479 C6.98690689,15.8599504 6.87756689,15.7628544 6.86470336,15.6428886 L6.66773055,13.9754052 C6.19378985,13.8775067 5.74437026,13.7178199 5.31786383,13.5164059 L6.68380996,12.1947768 C7.08458933,12.3135388 7.50586995,12.3777345 7.94564189,12.3777345 C10.406194,12.3777345 12.4012472,10.3860628 12.4012472,7.92937335 C12.4012472,5.47188148 10.406194,3.48101215 7.94564189,3.48101215 C5.48348179,3.48101215 3.48842863,5.47188148 3.48842863,7.92937335 C3.48842863,8.35146012 3.55154033,8.75709673 3.66128232,9.14267219 L2.30819972,10.4522646 C2.12770831,10.0550537 1.97937573,9.64219503 1.88732109,9.20526301" id="Fill-1-Copy" fill="#CEE07F"></path>
                        <path d="M0.857805802,14.2309535 C1.04116401,14.05445 1.33209237,14.0601436 1.50852371,14.2419341 C1.68454759,14.4257581 1.67925058,14.7181683 1.49629983,14.8962985 C1.31457147,15.0723954 1.02242073,15.0679218 0.845989384,14.8845045 C0.669150578,14.7010873 0.674447593,14.4082704 0.857805802,14.2309535 M0.394520727,15.1996894 C0.929519235,15.7548214 1.80841625,15.7751559 2.36949237,15.2493056 L2.38416103,15.2647598 L7.05938789,10.740332 C8.1917267,11.1409218 9.52209237,10.8928408 10.4669983,9.9855151 C11.409867,9.0818496 11.715464,7.77271404 11.3662685,6.63032144 L10.2543028,7.69788306 C9.99760132,7.9435239 9.58810132,7.93620348 9.34077147,7.67917531 L8.26629237,6.56321756 C8.01936998,6.30700277 8.02751923,5.89827918 8.28503565,5.6501982 L9.39537147,4.58548341 C8.26669983,4.19140066 6.94285356,4.445582 6.00202222,5.34802742 C5.06485804,6.24681263 4.76007595,7.54618763 5.10071476,8.68247989 L0.414893862,13.2178883 L0.41611625,13.2187017 C-0.129068825,13.7608197 -0.140885243,14.643744 0.394520727,15.1996894" id="Fill-1-Copy-2" fill="#659B5A"></path>
                    </g>
                    <g id="server-sdk" fill="#659B5A">
                        <path d="M45.1419476,45.9747481 L33.6877442,45.9747481 C32.4832875,45.9747481 31.5062943,45.000185 31.5062943,43.7974343 C31.5062943,42.5946836 32.4832875,41.618965 33.6877442,41.618965 L45.1419476,41.618965 C46.3475619,41.618965 47.3245551,42.5941059 47.3245551,43.7974343 C47.3245551,45.0007627 46.3475619,45.9747481 45.1419476,45.9747481 L45.1419476,45.9747481 Z M14.4239618,27.5215944 C14.4239618,21.1514061 19.6174215,15.9677931 25.9997106,15.9677931 C32.3825785,15.9677931 37.5754594,21.1514061 37.5754594,27.5215944 C37.5754594,33.8923604 32.3825785,39.0753957 25.9997106,39.0753957 C19.6174215,39.0753957 14.4239618,33.8923604 14.4239618,27.5215944 L14.4239618,27.5215944 Z M22.7104616,46.621761 C21.1506294,46.621761 19.8807698,45.3554644 19.8807698,43.7985897 C19.8807698,43.1608198 20.1018666,42.5779305 20.4612936,42.103647 C22.0188106,42.6952016 23.6944002,43.0435487 25.4429171,43.1047839 C25.4996383,43.3277722 25.5395746,43.5576929 25.5395746,43.798012 C25.5395746,45.354309 24.2708725,46.621761 22.7104616,46.621761 L22.7104616,46.621761 Z M15.5115034,46.621761 C13.95225,46.621761 12.6823904,45.3554644 12.6823904,43.7985897 C12.6823904,42.2417149 13.9516712,40.9742629 15.5115034,40.9742629 C17.0719143,40.9742629 18.3406164,42.2411372 18.3406164,43.7985897 C18.3406164,45.354309 17.0719143,46.621761 15.5115034,46.621761 L15.5115034,46.621761 Z M12.6823904,8.33188584 C12.6823904,6.77501112 13.9516712,5.50755912 15.5115034,5.50755912 C17.0719143,5.50755912 18.3406164,6.77443343 18.3406164,8.33188584 C18.3406164,9.88933826 17.0719143,11.1556349 15.5115034,11.1556349 C13.95225,11.1556349 12.6823904,9.88876057 12.6823904,8.33188584 L12.6823904,8.33188584 Z M8.31254522,11.1556349 C6.75271307,11.1556349 5.48285342,9.88876057 5.48285342,8.33188584 C5.48285342,6.77501112 6.75213428,5.50755912 8.31254522,5.50755912 C9.87295616,5.50755912 11.1416582,6.77443343 11.1416582,8.33188584 C11.1416582,9.88933826 9.87295616,11.1556349 8.31254522,11.1556349 L8.31254522,11.1556349 Z M22.7104616,5.50813681 C24.2708725,5.50813681 25.5395746,6.77501112 25.5395746,8.33246353 C25.5395746,9.88991595 24.2708725,11.1562126 22.7104616,11.1562126 C21.1506294,11.1562126 19.8807698,9.88933826 19.8807698,8.33246353 C19.8807698,6.77501112 21.1500506,5.50813681 22.7104616,5.50813681 L22.7104616,5.50813681 Z M33.6877442,6.15457199 L45.1419476,6.15457199 C46.3475619,6.15457199 47.3245551,7.12971282 47.3245551,8.33246353 C47.3245551,9.53521425 46.3475619,10.5097774 45.1419476,10.5097774 L33.6877442,10.5097774 C32.4832875,10.5097774 31.5062943,9.53463656 31.5062943,8.33246353 C31.5068731,7.12913513 32.4832875,6.15457199 33.6877442,6.15457199 L33.6877442,6.15457199 Z M8.31254522,46.621761 C6.75271307,46.621761 5.48285342,45.3554644 5.48285342,43.7985897 C5.48285342,42.2417149 6.75213428,40.9742629 8.31254522,40.9742629 C9.87295616,40.9742629 11.1416582,42.2411372 11.1416582,43.7985897 C11.1416582,45.354309 9.87295616,46.621761 8.31254522,46.621761 L8.31254522,46.621761 Z M10.3840255,27.9745034 C9.8665895,28.5337074 9.13326581,28.8895645 8.31254522,28.8895645 C6.75213428,28.8895645 5.48285342,27.6226902 5.48285342,26.0646601 C5.48285342,24.5077853 6.75271307,23.240911 8.31254522,23.240911 C9.29532629,23.240911 10.1606135,23.7446568 10.6682101,24.5054746 C10.4760527,25.4823485 10.3724497,26.4898399 10.3724497,27.5215944 C10.3724497,27.6735269 10.3793952,27.8237263 10.3840255,27.9745034 L10.3840255,27.9745034 Z M45.1419476,23.8879239 C46.3475619,23.8879239 47.3245551,24.862487 47.3245551,26.0652377 C47.3245551,27.2679885 46.3475619,28.243707 45.1419476,28.243707 L41.6090291,28.243707 C41.6194473,28.0039656 41.6269715,27.7636465 41.6269715,27.5215944 C41.6269715,26.2703177 41.4741716,25.0542801 41.1946173,23.8879239 L45.1419476,23.8879239 Z M48.6476631,35.5093149 L39.4154247,35.5093149 C39.6411518,35.1343941 39.8506728,34.7496525 40.0445666,34.3545125 L48.6470844,34.3545125 C50.4934163,34.3545125 51.9976849,32.8536737 51.9976849,31.0108424 L51.9976849,21.1207885 C51.9982636,19.2762241 50.4945739,17.7765407 48.6476631,17.7765407 L38.1883953,17.7765407 C37.8654319,17.3750461 37.5239473,16.9897268 37.1633628,16.6217383 L48.6476631,16.6217383 C50.4945739,16.6217383 51.9982636,15.1214772 51.9982636,13.2774905 L51.9982636,3.38685889 C51.9982636,1.54287221 50.4945739,0.043188799 48.6476631,0.043188799 L3.3500217,0.043188799 C1.5025322,0.043188799 0,1.54402759 0,3.38743658 L0,13.2774905 C0,15.1214772 1.5025322,16.6217383 3.3500217,16.6217383 L14.8360585,16.6217383 C14.4754739,16.9897268 14.1339893,17.3750461 13.8110259,17.7765407 L3.3500217,17.7765407 C1.5025322,17.7765407 0,19.2762241 0,21.1202108 L0,31.0102647 C0,32.8536737 1.5025322,34.3539348 3.3500217,34.3539348 L11.9548546,34.3539348 C12.1481696,34.7490748 12.3582694,35.1343941 12.5834177,35.5093149 L3.3500217,35.5093149 C1.5025322,35.5093149 0,37.009576 0,38.852985 L0,48.7424612 C0,50.5864479 1.5025322,52.086709 3.3500217,52.086709 L6.39097092,52.086709 L6.39097092,52.8215308 C6.39097092,54.0219707 7.36912169,55 8.57299957,55 L15.5653306,55 C16.7686297,55 17.7473593,54.0231261 17.7473593,52.8215308 L17.7473593,52.086709 L33.1697294,52.086709 L33.1697294,52.8215308 C33.1697294,54.0219707 34.1478802,55 35.3517581,55 L42.3446679,55 C43.5473882,55 44.5266966,54.0231261 44.5266966,52.8215308 L44.5266966,52.086709 L48.6493995,52.086709 C50.4963102,52.086709 52,50.5864479 52,48.7424612 L52,38.852985 C51.9982636,37.009576 50.4945739,35.5093149 48.6476631,35.5093149 L48.6476631,35.5093149 Z" id="Page-1"></path>
                    </g>
                </g>
            </g>
            <g id="Peer" transform="translate(606.000000, 856.000000)">
                <polygon id="Fill-1" fill="#CEE07F" points="8.5580671 18.054184 36.498834 18.054184 21.8710867 42.4372389"></polygon>
                <polygon id="Fill-2" fill="#659B5A" points="36.4992078 18.0539346 43.7420488 37.903275 43.7420488 12.6349238"></polygon>
                <polygon id="Fill-3" fill="#659B5A" points="0 37.9035244 8.55756863 18.054184 0 12.6351731"></polygon>
                <polygon id="Fill-4" fill="#79BB6B" points="0 37.9035244 21.8718344 42.4372389 8.55756863 18.054184"></polygon>
                <polygon id="Fill-5" fill="#79BB6B" points="21.8717098 42.4372389 43.742298 37.9035244 36.4994571 18.054184"></polygon>
                <polygon id="Fill-6" fill="#79BB6B" points="21.8717098 -0.000124689619 8.55744401 18.0536852 36.4994571 18.0536852"></polygon>
                <polygon id="Fill-7" fill="#63B153" points="-0.000124618736 12.6346744 8.55744401 18.0536852 21.8717098 -0.000124689619"></polygon>
                <polygon id="Fill-8" fill="#63B153" points="21.8717098 -0.000124689619 36.4994571 18.0536852 43.742298 12.6346744"></polygon>
                <polygon id="Fill-9" fill="#659B5A" points="21.8717098 50.5384481 21.8717098 42.4373636 -0.000124618736 37.9036491"></polygon>
                <polygon id="Fill-10" fill="#63B153" points="21.8717098 42.4372389 21.8717098 50.5383234 43.742298 37.9035244"></polygon>
            </g>
            <g id="Peer" transform="translate(545.000000, 856.000000)">
                <polygon id="Fill-1" fill="#CEE07F" points="8.5580671 18.054184 36.498834 18.054184 21.8710867 42.4372389"></polygon>
                <polygon id="Fill-2" fill="#659B5A" points="36.4992078 18.0539346 43.7420488 37.903275 43.7420488 12.6349238"></polygon>
                <polygon id="Fill-3" fill="#659B5A" points="0 37.9035244 8.55756863 18.054184 0 12.6351731"></polygon>
                <polygon id="Fill-4" fill="#79BB6B" points="0 37.9035244 21.8718344 42.4372389 8.55756863 18.054184"></polygon>
                <polygon id="Fill-5" fill="#79BB6B" points="21.8717098 42.4372389 43.742298 37.9035244 36.4994571 18.054184"></polygon>
                <polygon id="Fill-6" fill="#79BB6B" points="21.8717098 -0.000124689619 8.55744401 18.0536852 36.4994571 18.0536852"></polygon>
                <polygon id="Fill-7" fill="#63B153" points="-0.000124618736 12.6346744 8.55744401 18.0536852 21.8717098 -0.000124689619"></polygon>
                <polygon id="Fill-8" fill="#63B153" points="21.8717098 -0.000124689619 36.4994571 18.0536852 43.742298 12.6346744"></polygon>
                <polygon id="Fill-9" fill="#659B5A" points="21.8717098 50.5384481 21.8717098 42.4373636 -0.000124618736 37.9036491"></polygon>
                <polygon id="Fill-10" fill="#63B153" points="21.8717098 42.4372389 21.8717098 50.5383234 43.742298 37.9035244"></polygon>
            </g>
            <g id="Group" transform="translate(761.000000, 839.000000)">
                <g id="Icon/UI/settings" transform="translate(24.000000, 60.000000)" fill="#6DA062">
                    <g id="settings">
                        <path d="M21.2,12 C21.2,11.5 21.2,11 21.1,10.6 L24,8 L21.5,3.9 L18,5.1 C17.2,4.4 16.2,3.8 15.1,3.4 L14.4,0 L9.6,0 L8.8,3.4 C7.7,3.8 6.8,4.4 5.9,5.1 L2.5,3.9 L0,8 L2.9,10.6 C2.8,11 2.8,11.5 2.8,12 C2.8,12.5 2.8,13 2.9,13.4 L0,16 L2.5,20.1 L6,18.9 C6.8,19.6 7.8,20.2 8.9,20.6 L9.6,24 L14.4,24 L15.2,20.6 C16.3,20.2 17.2,19.6 18.1,18.9 L21.6,20 L24,16 L21.1,13.4 C21.2,13 21.2,12.5 21.2,12 L21.2,12 L21.2,12 Z M12,15 C10.3,15 9,13.7 9,12 C9,10.3 10.3,9 12,9 C13.7,9 15,10.3 15,12 C15,13.7 13.7,15 12,15 L12,15 L12,15 Z" id="Shape"></path>
                    </g>
                </g>
                <g id="Icon/UI/settings" transform="translate(24.000000, 0.000000)" fill="#6DA062">
                    <g id="settings">
                        <path d="M21.2,12 C21.2,11.5 21.2,11 21.1,10.6 L24,8 L21.5,3.9 L18,5.1 C17.2,4.4 16.2,3.8 15.1,3.4 L14.4,0 L9.6,0 L8.8,3.4 C7.7,3.8 6.8,4.4 5.9,5.1 L2.5,3.9 L0,8 L2.9,10.6 C2.8,11 2.8,11.5 2.8,12 C2.8,12.5 2.8,13 2.9,13.4 L0,16 L2.5,20.1 L6,18.9 C6.8,19.6 7.8,20.2 8.9,20.6 L9.6,24 L14.4,24 L15.2,20.6 C16.3,20.2 17.2,19.6 18.1,18.9 L21.6,20 L24,16 L21.1,13.4 C21.2,13 21.2,12.5 21.2,12 L21.2,12 L21.2,12 Z M12,15 C10.3,15 9,13.7 9,12 C9,10.3 10.3,9 12,9 C13.7,9 15,10.3 15,12 C15,13.7 13.7,15 12,15 L12,15 L12,15 Z" id="Shape"></path>
                    </g>
                </g>
                <g id="block" transform="translate(36.000000, 27.000000)">
                    <polygon id="Fill-1" fill="#FEFEFE" fill-rule="evenodd" points="12 27 0 20.9482759 0 6.05172414 12 12.1034483"></polygon>
                    <polygon id="Stroke-2" stroke="#659B5A" stroke-width="1.54000001" stroke-linecap="round" stroke-linejoin="round" points="12 27 0 20.9482759 0 6.05172414 12 12.1034483"></polygon>
                    <polygon id="Fill-4" fill="#FEFEFE" fill-rule="evenodd" points="12 27 24 20.9482759 24 6.05172414 12 12.1034483"></polygon>
                    <polygon id="Stroke-5" stroke="#659B5A" stroke-width="1.54000001" stroke-linecap="round" stroke-linejoin="round" points="12 27 24 20.9482759 24 6.05172414 12 12.1034483"></polygon>
                    <polygon id="Fill-7" fill="#CEE07F" fill-rule="evenodd" points="0 6.05172414 11.5384615 0 24 6.05172414 12 12.1034483"></polygon>
                    <polygon id="Stroke-8" stroke="#659B5A" stroke-width="1.54000001" stroke-linecap="round" stroke-linejoin="round" points="0 6.05172414 11.5384615 0 24 6.05172414 12 12.1034483"></polygon>
                </g>
                <g id="block" transform="translate(66.000000, 27.000000)">
                    <polygon id="Fill-1" fill="#FEFEFE" fill-rule="evenodd" points="12 27 0 20.9482759 0 6.05172414 12 12.1034483"></polygon>
                    <polygon id="Stroke-2" stroke="#659B5A" stroke-width="1.54000001" stroke-linecap="round" stroke-linejoin="round" points="12 27 0 20.9482759 0 6.05172414 12 12.1034483"></polygon>
                    <polygon id="Fill-4" fill="#FEFEFE" fill-rule="evenodd" points="12 27 24 20.9482759 24 6.05172414 12 12.1034483"></polygon>
                    <polygon id="Stroke-5" stroke="#659B5A" stroke-width="1.54000001" stroke-linecap="round" stroke-linejoin="round" points="12 27 24 20.9482759 24 6.05172414 12 12.1034483"></polygon>
                    <polygon id="Fill-7" fill="#CEE07F" fill-rule="evenodd" points="0 6.05172414 11.5384615 0 24 6.05172414 12 12.1034483"></polygon>
                    <polygon id="Stroke-8" stroke="#659B5A" stroke-width="1.54000001" stroke-linecap="round" stroke-linejoin="round" points="0 6.05172414 11.5384615 0 24 6.05172414 12 12.1034483"></polygon>
                </g>
                <g id="tx-proposal" transform="translate(0.000000, 24.000000)">
                    <path d="M-2.35978836,3.79643336 L-2.35978836,29.5898482 L18.3700055,29.5898482 L18.3700055,25.3075551 C19.2390203,26.1452549 20.3840686,26.6587784 21.6431308,26.6587784 C22.902193,26.6587784 24.0472414,26.1452549 24.9162562,25.3075551 L24.9162562,29.5898482 L29.2804233,29.5898482 L29.2804233,3.79643336 L-2.35978836,3.79643336 Z" id="Fill-1" fill="#FEFEFE" fill-rule="evenodd" transform="translate(13.460317, 16.693141) rotate(90.000000) translate(-13.460317, -16.693141) "></path>
                    <polygon id="Stroke-3" stroke="#659B5A" stroke-width="1.99999988" transform="translate(13.460317, 16.693141) rotate(90.000000) translate(-13.460317, -16.693141) " points="-2.35978836 3.79643336 -2.35978836 29.5898482 29.2804233 29.5898482 29.2804233 3.79643336"></polygon>
                    <g id="Stroke-13" transform="translate(11.322312, 10.956111) rotate(-90.000000) translate(-11.322312, -10.956111) translate(5.322312, 3.956111)" stroke-width="1.5999999" stroke="#659B5A" stroke-linecap="round">
                        <path d="M5.03814491,6.5489438 L17.5851254,6.5489438" transform="translate(11.311635, 6.869966) rotate(90.000000) translate(-11.311635, -6.869966) "></path>
                        <path d="M4.7927147,3.09519053 L10.7934445,3.09519053" id="Stroke-15" transform="translate(7.793080, 3.416212) rotate(90.000000) translate(-7.793080, -3.416212) "></path>
                        <path d="M2.09249603,2.23175222 L6.45666316,2.23175222" id="Stroke-17" transform="translate(4.274580, 2.552774) rotate(90.000000) translate(-4.274580, -2.552774) "></path>
                        <path d="M-4.97188975,5.97331826 L6.48404894,5.97331826" id="Stroke-19" transform="translate(0.756080, 6.294340) rotate(90.000000) translate(-0.756080, -6.294340) "></path>
                    </g>
                    <text id="tx" font-family="HelveticaNeue-Medium, Helvetica Neue" font-size="12" font-weight="400" fill="#659B5A">
                        <tspan x="4" y="28">tx</tspan>
                    </text>
                </g>
            </g>
            <g id="Group-2" transform="translate(987.000000, 856.000000)">
                <g id="block">
                    <polygon id="Fill-1" fill="#FEFEFE" fill-rule="evenodd" points="12 27 0 20.9482759 0 6.05172414 12 12.1034483"></polygon>
                    <polygon id="Stroke-2" stroke="#659B5A" stroke-width="1.54000001" stroke-linecap="round" stroke-linejoin="round" points="12 27 0 20.9482759 0 6.05172414 12 12.1034483"></polygon>
                    <polygon id="Fill-4" fill="#FEFEFE" fill-rule="evenodd" points="12 27 24 20.9482759 24 6.05172414 12 12.1034483"></polygon>
                    <polygon id="Stroke-5" stroke="#659B5A" stroke-width="1.54000001" stroke-linecap="round" stroke-linejoin="round" points="12 27 24 20.9482759 24 6.05172414 12 12.1034483"></polygon>
                    <polygon id="Fill-7" fill="#CEE07F" fill-rule="evenodd" points="0 6.05172414 11.5384615 0 24 6.05172414 12 12.1034483"></polygon>
                    <polygon id="Stroke-8" stroke="#659B5A" stroke-width="1.54000001" stroke-linecap="round" stroke-linejoin="round" points="0 6.05172414 11.5384615 0 24 6.05172414 12 12.1034483"></polygon>
                </g>
                <g id="block" transform="translate(12.000000, 6.000000)">
                    <polygon id="Fill-1" fill="#FEFEFE" fill-rule="evenodd" points="12 27 0 20.9482759 0 6.05172414 12 12.1034483"></polygon>
                    <polygon id="Stroke-2" stroke="#659B5A" stroke-width="1.54000001" stroke-linecap="round" stroke-linejoin="round" points="12 27 0 20.9482759 0 6.05172414 12 12.1034483"></polygon>
                    <polygon id="Fill-4" fill="#FEFEFE" fill-rule="evenodd" points="12 27 24 20.9482759 24 6.05172414 12 12.1034483"></polygon>
                    <polygon id="Stroke-5" stroke="#659B5A" stroke-width="1.54000001" stroke-linecap="round" stroke-linejoin="round" points="12 27 24 20.9482759 24 6.05172414 12 12.1034483"></polygon>
                    <polygon id="Fill-7" fill="#CEE07F" fill-rule="evenodd" points="0 6.05172414 11.5384615 0 24 6.05172414 12 12.1034483"></polygon>
                    <polygon id="Stroke-8" stroke="#659B5A" stroke-width="1.54000001" stroke-linecap="round" stroke-linejoin="round" points="0 6.05172414 11.5384615 0 24 6.05172414 12 12.1034483"></polygon>
                </g>
                <g id="block" transform="translate(24.000000, 12.000000)">
                    <polygon id="Fill-1" fill="#FEFEFE" fill-rule="evenodd" points="12 27 0 20.9482759 0 6.05172414 12 12.1034483"></polygon>
                    <polygon id="Stroke-2" stroke="#659B5A" stroke-width="1.54000001" stroke-linecap="round" stroke-linejoin="round" points="12 27 0 20.9482759 0 6.05172414 12 12.1034483"></polygon>
                    <polygon id="Fill-4" fill="#FEFEFE" fill-rule="evenodd" points="12 27 24 20.9482759 24 6.05172414 12 12.1034483"></polygon>
                    <polygon id="Stroke-5" stroke="#659B5A" stroke-width="1.54000001" stroke-linecap="round" stroke-linejoin="round" points="12 27 24 20.9482759 24 6.05172414 12 12.1034483"></polygon>
                    <polygon id="Fill-7" fill="#CEE07F" fill-rule="evenodd" points="0 6.05172414 11.5384615 0 24 6.05172414 12 12.1034483"></polygon>
                    <polygon id="Stroke-8" stroke="#659B5A" stroke-width="1.54000001" stroke-linecap="round" stroke-linejoin="round" points="0 6.05172414 11.5384615 0 24 6.05172414 12 12.1034483"></polygon>
                </g>
                <g id="block" transform="translate(36.000000, 18.000000)">
                    <polygon id="Fill-1" fill="#FEFEFE" fill-rule="evenodd" points="12 27 0 20.9482759 0 6.05172414 12 12.1034483"></polygon>
                    <polygon id="Stroke-2" stroke="#659B5A" stroke-width="1.54000001" stroke-linecap="round" stroke-linejoin="round" points="12 27 0 20.9482759 0 6.05172414 12 12.1034483"></polygon>
                    <polygon id="Fill-4" fill="#FEFEFE" fill-rule="evenodd" points="12 27 24 20.9482759 24 6.05172414 12 12.1034483"></polygon>
                    <polygon id="Stroke-5" stroke="#659B5A" stroke-width="1.54000001" stroke-linecap="round" stroke-linejoin="round" points="12 27 24 20.9482759 24 6.05172414 12 12.1034483"></polygon>
                    <polygon id="Fill-7" fill="#CEE07F" fill-rule="evenodd" points="0 6.05172414 11.5384615 0 24 6.05172414 12 12.1034483"></polygon>
                    <polygon id="Stroke-8" stroke="#659B5A" stroke-width="1.54000001" stroke-linecap="round" stroke-linejoin="round" points="0 6.05172414 11.5384615 0 24 6.05172414 12 12.1034483"></polygon>
                </g>
                <g id="block" transform="translate(48.000000, 24.000000)">
                    <polygon id="Fill-1" fill="#FEFEFE" fill-rule="evenodd" points="12 27 0 20.9482759 0 6.05172414 12 12.1034483"></polygon>
                    <polygon id="Stroke-2" stroke="#659B5A" stroke-width="1.54000001" stroke-linecap="round" stroke-linejoin="round" points="12 27 0 20.9482759 0 6.05172414 12 12.1034483"></polygon>
                    <polygon id="Fill-4" fill="#FEFEFE" fill-rule="evenodd" points="12 27 24 20.9482759 24 6.05172414 12 12.1034483"></polygon>
                    <polygon id="Stroke-5" stroke="#659B5A" stroke-width="1.54000001" stroke-linecap="round" stroke-linejoin="round" points="12 27 24 20.9482759 24 6.05172414 12 12.1034483"></polygon>
                    <polygon id="Fill-7" fill="#CEE07F" fill-rule="evenodd" points="0 6.05172414 11.5384615 0 24 6.05172414 12 12.1034483"></polygon>
                    <polygon id="Stroke-8" stroke="#659B5A" stroke-width="1.54000001" stroke-linecap="round" stroke-linejoin="round" points="0 6.05172414 11.5384615 0 24 6.05172414 12 12.1034483"></polygon>
                </g>
            </g>
            <g id="Arrow" transform="translate(285.000000, 280.500000) scale(-1, 1) translate(-285.000000, -280.500000) translate(189.000000, 274.000000)" stroke="#659B5A" stroke-width="2" stroke-linecap="round">
                <path d="M0.0002,6.2599278 L6.0002,12.5198556" id="Stroke-1"></path>
                <path d="M0.0002,6.2599278 L6.0002,0" id="Stroke-3"></path>
                <polyline id="Stroke-5" points="0 6.12975523 47.0273035 6.12975523 192 6.12975523"></polyline>
            </g>
            <g id="Arrow" transform="translate(486.000000, 280.500000) scale(-1, 1) translate(-486.000000, -280.500000) translate(390.000000, 274.000000)" stroke="#659B5A" stroke-width="2" stroke-linecap="round">
                <path d="M0.0002,6.2599278 L6.0002,12.5198556" id="Stroke-1"></path>
                <path d="M0.0002,6.2599278 L6.0002,0" id="Stroke-3"></path>
                <polyline id="Stroke-5" points="0 6.12975523 47.0273035 6.12975523 192 6.12975523"></polyline>
            </g>
            <g id="Arrow" transform="translate(609.000000, 703.000000)" stroke="#659B5A" stroke-width="2" stroke-linecap="round">
                <path d="M0.0002,6.2599278 L6.0002,12.5198556" id="Stroke-1"></path>
                <path d="M0.0002,6.2599278 L6.0002,0" id="Stroke-3"></path>
                <polyline id="Stroke-5" points="0 6.12975523 47.0273035 6.12975523 192 6.12975523"></polyline>
            </g>
            <g id="Group" transform="translate(475.000000, 231.000000)">
                <path d="M-2.35978836,3.79643336 L-2.35978836,29.5898482 L18.3700055,29.5898482 L18.3700055,25.3075551 C19.2390203,26.1452549 20.3840686,26.6587784 21.6431308,26.6587784 C22.902193,26.6587784 24.0472414,26.1452549 24.9162562,25.3075551 L24.9162562,29.5898482 L29.2804233,29.5898482 L29.2804233,3.79643336 L-2.35978836,3.79643336 Z" id="Fill-1" fill="#FEFEFE" transform="translate(13.460317, 16.693141) rotate(90.000000) translate(-13.460317, -16.693141) "></path>
                <polygon id="Stroke-3" stroke="#659B5A" stroke-width="1.99999988" transform="translate(13.460317, 16.693141) rotate(90.000000) translate(-13.460317, -16.693141) " points="-2.35978836 3.79643336 -2.35978836 29.5898482 29.2804233 29.5898482 29.2804233 3.79643336"></polygon>
                <g id="Stroke-13" transform="translate(11.322312, 10.956111) rotate(-90.000000) translate(-11.322312, -10.956111) translate(5.322312, 3.956111)" stroke-width="1.5999999" stroke="#659B5A" stroke-linecap="round">
                    <path d="M5.03814491,6.5489438 L17.5851254,6.5489438" transform="translate(11.311635, 6.869966) rotate(90.000000) translate(-11.311635, -6.869966) "></path>
                    <path d="M4.7927147,3.09519053 L10.7934445,3.09519053" id="Stroke-15" transform="translate(7.793080, 3.416212) rotate(90.000000) translate(-7.793080, -3.416212) "></path>
                    <path d="M2.09249603,2.23175222 L6.45666316,2.23175222" id="Stroke-17" transform="translate(4.274580, 2.552774) rotate(90.000000) translate(-4.274580, -2.552774) "></path>
                    <path d="M-4.97188975,5.97331826 L6.48404894,5.97331826" id="Stroke-19" transform="translate(0.756080, 6.294340) rotate(90.000000) translate(-0.756080, -6.294340) "></path>
                </g>
                <text id="tx" font-family="HelveticaNeue-Medium, Helvetica Neue" font-size="12" font-weight="400" fill="#659B5A">
                    <tspan x="4" y="28">tx</tspan>
                </text>
            </g>
            <g id="Group" transform="translate(433.000000, 231.000000)">
                <path d="M-2.35978836,3.79643336 L-2.35978836,29.5898482 L18.3700055,29.5898482 L18.3700055,25.3075551 C19.2390203,26.1452549 20.3840686,26.6587784 21.6431308,26.6587784 C22.902193,26.6587784 24.0472414,26.1452549 24.9162562,25.3075551 L24.9162562,29.5898482 L29.2804233,29.5898482 L29.2804233,3.79643336 L-2.35978836,3.79643336 Z" id="Fill-1" fill="#FEFEFE" transform="translate(13.460317, 16.693141) rotate(90.000000) translate(-13.460317, -16.693141) "></path>
                <polygon id="Stroke-3" stroke="#659B5A" stroke-width="1.99999988" transform="translate(13.460317, 16.693141) rotate(90.000000) translate(-13.460317, -16.693141) " points="-2.35978836 3.79643336 -2.35978836 29.5898482 29.2804233 29.5898482 29.2804233 3.79643336"></polygon>
                <g id="Stroke-13" transform="translate(11.322312, 10.956111) rotate(-90.000000) translate(-11.322312, -10.956111) translate(5.322312, 3.956111)" stroke-width="1.5999999" stroke="#659B5A" stroke-linecap="round">
                    <path d="M5.03814491,6.5489438 L17.5851254,6.5489438" transform="translate(11.311635, 6.869966) rotate(90.000000) translate(-11.311635, -6.869966) "></path>
                    <path d="M4.7927147,3.09519053 L10.7934445,3.09519053" id="Stroke-15" transform="translate(7.793080, 3.416212) rotate(90.000000) translate(-7.793080, -3.416212) "></path>
                    <path d="M2.09249603,2.23175222 L6.45666316,2.23175222" id="Stroke-17" transform="translate(4.274580, 2.552774) rotate(90.000000) translate(-4.274580, -2.552774) "></path>
                    <path d="M-4.97188975,5.97331826 L6.48404894,5.97331826" id="Stroke-19" transform="translate(0.756080, 6.294340) rotate(90.000000) translate(-0.756080, -6.294340) "></path>
                </g>
                <text id="tx" font-family="HelveticaNeue-Medium, Helvetica Neue" font-size="12" font-weight="400" fill="#659B5A">
                    <tspan x="4" y="28">tx</tspan>
                </text>
            </g>
            <g id="Group" transform="translate(497.000000, 314.000000)">
                <g id="signature" transform="translate(0.000000, 14.000000)">
                    <path d="M0.272484738,22 L55.3251923,22" id="Line" stroke="#CEE07F" stroke-width="2" stroke-linecap="square" stroke-dasharray="2,4,2,4"></path>
                    <path d="M14.8576042,13.6031109 C13.18215,14.244758 11.4626624,15.1578168 9.98950087,16.1993462 C8.54336986,17.262405 6.43150415,19.4358168 8.64713205,21.9868756 C9.42796432,22.9408756 9.8604521,22.986758 9.97598562,22.9751109 C10.5619368,22.9331109 11.2481624,21.6469933 11.7028849,20.796405 C11.8498087,20.5225227 11.9932446,20.2525227 12.1366806,20.0054639 C13.540086,17.6421698 14.4172689,15.600758 14.8576042,13.6031109 M9.94546733,23.9996992 C9.16463507,23.9996992 8.3999339,23.5299345 7.61299797,22.5671109 C5.59443103,20.2436992 6.15422368,17.6379345 9.15853141,15.4316992 C10.9673941,14.1526403 13.040894,13.0952286 15.0699243,12.4062874 C15.1579914,11.748405 15.201153,11.0898168 15.201153,10.4202874 C15.201153,10.2021698 15.2107444,9.90675799 15.2220798,9.55346387 C15.2966316,7.29887564 15.4928206,1.31087564 12.861272,1.02499328 C11.4173209,0.8742874 8.2874522,3.93922858 7.11554984,5.57934622 C3.40670557,10.4192286 1.77266909,14.3961698 2.38347088,17.0933462 C2.44581539,17.3714639 2.22041601,17.6382874 1.87948311,17.6901698 C1.53026667,17.7321698 1.21200449,17.5581698 1.14791608,17.2793462 C0.471281979,14.2839345 2.11839772,10.1689933 6.041306,5.0502874 C6.06964442,5.01040505 10.1460161,-0.254065541 13.0177873,0.00958151748 C16.7780766,0.417934459 16.574476,6.60711093 16.4763815,9.58134622 C16.4654821,9.92334622 16.4554547,10.2099345 16.4554547,10.4206403 C16.4554547,10.9588756 16.4297322,11.4911109 16.3756712,12.018758 C17.1857138,11.8158168 17.8584241,11.7399345 18.3942381,12.0318168 C18.9950125,12.3586403 19.1554515,12.9978168 19.218232,13.9211109 C19.2487503,14.3580521 19.2108204,14.8451109 19.1750704,15.3159345 C19.1345247,15.834758 19.0686923,16.698405 19.2278234,16.9006403 C19.2400307,16.8745227 19.5316984,16.8342874 20.2558539,16.3846403 C20.4114971,16.272758 20.6055063,16.1216992 20.8051831,15.966405 C21.681494,15.2855815 22.6729025,14.514758 23.9450792,14.4208756 L23.9511829,14.4208756 C25.8991218,14.4208756 26.1415242,15.342758 26.3180943,16.0154639 C26.4161888,16.3899345 26.5090516,16.7435815 26.8491126,17.0206403 C27.8488046,17.7625227 28.8611399,17.1854639 30.7759446,15.7888756 C32.1361884,14.7953462 33.5518012,13.770405 35.072484,14.0393462 C35.9344077,14.1791109 36.5678802,14.8062874 37.179554,15.4112286 C37.6011423,15.8280521 38.0349381,16.2579345 38.465246,16.4333462 C39.3428648,16.6669933 40.6320446,16.6669933 41.5903189,16.4061698 C41.9190445,16.3129933 42.2752366,16.4598168 42.3846664,16.7280521 C42.4949682,16.9959345 42.3183981,17.286758 41.9901085,17.3756992 C40.7741726,17.7099345 39.2007368,17.7099345 37.9843649,17.3756992 C37.2353588,17.076758 36.714804,16.560758 36.2112522,16.0631109 C35.7390906,15.5951109 35.250362,15.1126403 34.8165663,15.0413462 C33.8922981,14.8701698 32.7365268,15.7288756 31.6125818,16.5515815 C29.9811611,17.742405 27.9516948,19.2261698 25.9819571,17.760405 C25.359384,17.2535815 25.2098444,16.6856992 25.091259,16.2296992 C24.9282042,15.6095815 24.8837346,15.4429933 24.0013201,15.4429933 C23.2222317,15.5026403 22.3982379,16.1425227 21.6701586,16.7075815 C21.4582745,16.8734639 21.2511861,17.0336992 21.0488934,17.1773462 C20.2929118,17.6492286 19.3686435,18.1225227 18.6069942,17.7900521 C17.7555339,17.4180521 17.8327016,16.4146403 17.9220766,15.2520521 C17.9552107,14.8108756 17.9905247,14.3541698 17.9652381,13.9782874 C17.9024577,13.0634639 17.7446345,12.9085227 17.6971132,12.8831109 C17.6086101,12.8322874 17.2790126,12.8382874 16.2213358,13.1393462 C15.8167505,15.4369933 14.8728634,17.7455815 13.2689092,20.448758 C13.1324488,20.682758 12.9942446,20.9414639 12.8534245,21.2058168 C12.1462721,22.530758 11.4142691,23.8991109 10.0871594,23.9951109 C10.0396381,23.9986403 9.99298867,23.9996992 9.94546733,23.9996992" id="Fill-1" fill="#659B5A" fill-rule="evenodd"></path>
                </g>
                <g id="Icon/UI/checkmark" transform="translate(47.000000, 0.000000)" fill="#659B5A">
                    <g id="checkmark">
                        <polygon id="Shape" points="7.85833333 11.5222222 2.68333333 6.42222222 0 9.25555556 7.85833333 17 22.425 2.64444444 19.7416667 0"></polygon>
                    </g>
                </g>
            </g>
            <g id="Group" transform="translate(497.000000, 365.000000)">
                <g id="signature" transform="translate(0.000000, 14.000000)">
                    <path d="M0.272484738,22 L55.3251923,22" id="Line" stroke="#CEE07F" stroke-width="2" stroke-linecap="square" stroke-dasharray="2,4,2,4"></path>
                    <path d="M14.8576042,13.6031109 C13.18215,14.244758 11.4626624,15.1578168 9.98950087,16.1993462 C8.54336986,17.262405 6.43150415,19.4358168 8.64713205,21.9868756 C9.42796432,22.9408756 9.8604521,22.986758 9.97598562,22.9751109 C10.5619368,22.9331109 11.2481624,21.6469933 11.7028849,20.796405 C11.8498087,20.5225227 11.9932446,20.2525227 12.1366806,20.0054639 C13.540086,17.6421698 14.4172689,15.600758 14.8576042,13.6031109 M9.94546733,23.9996992 C9.16463507,23.9996992 8.3999339,23.5299345 7.61299797,22.5671109 C5.59443103,20.2436992 6.15422368,17.6379345 9.15853141,15.4316992 C10.9673941,14.1526403 13.040894,13.0952286 15.0699243,12.4062874 C15.1579914,11.748405 15.201153,11.0898168 15.201153,10.4202874 C15.201153,10.2021698 15.2107444,9.90675799 15.2220798,9.55346387 C15.2966316,7.29887564 15.4928206,1.31087564 12.861272,1.02499328 C11.4173209,0.8742874 8.2874522,3.93922858 7.11554984,5.57934622 C3.40670557,10.4192286 1.77266909,14.3961698 2.38347088,17.0933462 C2.44581539,17.3714639 2.22041601,17.6382874 1.87948311,17.6901698 C1.53026667,17.7321698 1.21200449,17.5581698 1.14791608,17.2793462 C0.471281979,14.2839345 2.11839772,10.1689933 6.041306,5.0502874 C6.06964442,5.01040505 10.1460161,-0.254065541 13.0177873,0.00958151748 C16.7780766,0.417934459 16.574476,6.60711093 16.4763815,9.58134622 C16.4654821,9.92334622 16.4554547,10.2099345 16.4554547,10.4206403 C16.4554547,10.9588756 16.4297322,11.4911109 16.3756712,12.018758 C17.1857138,11.8158168 17.8584241,11.7399345 18.3942381,12.0318168 C18.9950125,12.3586403 19.1554515,12.9978168 19.218232,13.9211109 C19.2487503,14.3580521 19.2108204,14.8451109 19.1750704,15.3159345 C19.1345247,15.834758 19.0686923,16.698405 19.2278234,16.9006403 C19.2400307,16.8745227 19.5316984,16.8342874 20.2558539,16.3846403 C20.4114971,16.272758 20.6055063,16.1216992 20.8051831,15.966405 C21.681494,15.2855815 22.6729025,14.514758 23.9450792,14.4208756 L23.9511829,14.4208756 C25.8991218,14.4208756 26.1415242,15.342758 26.3180943,16.0154639 C26.4161888,16.3899345 26.5090516,16.7435815 26.8491126,17.0206403 C27.8488046,17.7625227 28.8611399,17.1854639 30.7759446,15.7888756 C32.1361884,14.7953462 33.5518012,13.770405 35.072484,14.0393462 C35.9344077,14.1791109 36.5678802,14.8062874 37.179554,15.4112286 C37.6011423,15.8280521 38.0349381,16.2579345 38.465246,16.4333462 C39.3428648,16.6669933 40.6320446,16.6669933 41.5903189,16.4061698 C41.9190445,16.3129933 42.2752366,16.4598168 42.3846664,16.7280521 C42.4949682,16.9959345 42.3183981,17.286758 41.9901085,17.3756992 C40.7741726,17.7099345 39.2007368,17.7099345 37.9843649,17.3756992 C37.2353588,17.076758 36.714804,16.560758 36.2112522,16.0631109 C35.7390906,15.5951109 35.250362,15.1126403 34.8165663,15.0413462 C33.8922981,14.8701698 32.7365268,15.7288756 31.6125818,16.5515815 C29.9811611,17.742405 27.9516948,19.2261698 25.9819571,17.760405 C25.359384,17.2535815 25.2098444,16.6856992 25.091259,16.2296992 C24.9282042,15.6095815 24.8837346,15.4429933 24.0013201,15.4429933 C23.2222317,15.5026403 22.3982379,16.1425227 21.6701586,16.7075815 C21.4582745,16.8734639 21.2511861,17.0336992 21.0488934,17.1773462 C20.2929118,17.6492286 19.3686435,18.1225227 18.6069942,17.7900521 C17.7555339,17.4180521 17.8327016,16.4146403 17.9220766,15.2520521 C17.9552107,14.8108756 17.9905247,14.3541698 17.9652381,13.9782874 C17.9024577,13.0634639 17.7446345,12.9085227 17.6971132,12.8831109 C17.6086101,12.8322874 17.2790126,12.8382874 16.2213358,13.1393462 C15.8167505,15.4369933 14.8728634,17.7455815 13.2689092,20.448758 C13.1324488,20.682758 12.9942446,20.9414639 12.8534245,21.2058168 C12.1462721,22.530758 11.4142691,23.8991109 10.0871594,23.9951109 C10.0396381,23.9986403 9.99298867,23.9996992 9.94546733,23.9996992" id="Fill-1" fill="#659B5A" fill-rule="evenodd"></path>
                </g>
                <g id="Icon/UI/checkmark" transform="translate(47.000000, 0.000000)" fill="#659B5A">
                    <g id="checkmark">
                        <polygon id="Shape" points="7.85833333 11.5222222 2.68333333 6.42222222 0 9.25555556 7.85833333 17 22.425 2.64444444 19.7416667 0"></polygon>
                    </g>
                </g>
            </g>
            <g id="certificate" transform="translate(451.000000, 322.000000)">
                <g id="Cert-1-Copy">
                    <path d="M0,0 L0,25.3846154 L21.6206897,25.3846154 L21.6206897,21.1701923 C22.5270517,21.9946154 23.7213103,22.5 25.0344828,22.5 C26.3476552,22.5 27.5419138,21.9946154 28.4482759,21.1701923 L28.4482759,25.3846154 L33,25.3846154 L33,0 L0,0 Z" id="Fill-1" fill="#FEFEFE"></path>
                    <path d="M0,0 L0,25.3846154 L21.6206897,25.3846154 L21.6206897,21.1701923 C22.5270517,21.9946154 23.7213103,22.5 25.0344828,22.5 C26.3476552,22.5 27.5419138,21.9946154 28.4482759,21.1701923 L28.4482759,25.3846154 L33,25.3846154 L33,0 L0,0 Z" id="Stroke-3" stroke="#659B5A" stroke-width="1.99999988"></path>
                    <path d="M30.2413793,17.1923077 C30.2413793,20.0601923 27.9490172,22.3846154 25.1206897,22.3846154 C22.2923621,22.3846154 20,20.0601923 20,17.1923077 C20,14.3244231 22.2923621,12 25.1206897,12 C27.9490172,12 30.2413793,14.3244231 30.2413793,17.1923077" id="Fill-5" fill="#CEE07F"></path>
                    <path d="M30.2413793,17.1923077 C30.2413793,20.0601923 27.9490172,22.3846154 25.1206897,22.3846154 C22.2923621,22.3846154 20,20.0601923 20,17.1923077 C20,14.3244231 22.2923621,12 25.1206897,12 C27.9490172,12 30.2413793,14.3244231 30.2413793,17.1923077 Z" id="Stroke-7" stroke="#659B5A" stroke-width="1.5999999" stroke-linecap="round"></path>
                    <path d="M24.4137931,22.3298077 C23.1006207,22.3298077 21.9063621,21.8244231 21,21 L21,29.8298077 L24.4137931,26.3682692 L27.8275862,29.8298077 L27.8275862,21 C26.9212241,21.8244231 25.7269655,22.3298077 24.4137931,22.3298077" id="Fill-9" fill="#659B5A"></path>
                    <path d="M24.4137931,22.3298077 C23.1006207,22.3298077 21.9063621,21.8244231 21,21 L21,29.8298077 L24.4137931,26.3682692 L27.8275862,29.8298077 L27.8275862,21 C26.9212241,21.8244231 25.7269655,22.3298077 24.4137931,22.3298077 Z" id="Stroke-11" stroke="#659B5A" stroke-width="1.5999999" stroke-linecap="round"></path>
                    <path d="M4,4 L17.0862069,4" id="Stroke-13" stroke="#659B5A" stroke-width="1.5999999" stroke-linecap="round"></path>
                    <path d="M4,8 L10.2586207,8" id="Stroke-15" stroke="#659B5A" stroke-width="1.5999999" stroke-linecap="round"></path>
                    <path d="M4,12 L8.55172414,12" id="Stroke-17" stroke="#659B5A" stroke-width="1.5999999" stroke-linecap="round"></path>
                    <path d="M4,15 L15.9482759,15" id="Stroke-19" stroke="#659B5A" stroke-width="1.5999999" stroke-linecap="round"></path>
                </g>
            </g>
            <g id="tx-proposal" transform="translate(409.000000, 319.000000)">
                <g id="Group">
                    <g>
                        <path d="M-2.35978836,3.79643336 L-2.35978836,29.5898482 L18.3700055,29.5898482 L18.3700055,25.3075551 C19.2390203,26.1452549 20.3840686,26.6587784 21.6431308,26.6587784 C22.902193,26.6587784 24.0472414,26.1452549 24.9162562,25.3075551 L24.9162562,29.5898482 L29.2804233,29.5898482 L29.2804233,3.79643336 L-2.35978836,3.79643336 Z" id="Fill-1" fill="#FEFEFE" transform="translate(13.460317, 16.693141) rotate(90.000000) translate(-13.460317, -16.693141) "></path>
                        <polygon id="Stroke-3" stroke="#659B5A" stroke-width="1.99999988" transform="translate(13.460317, 16.693141) rotate(90.000000) translate(-13.460317, -16.693141) " points="-2.35978836 3.79643336 -2.35978836 29.5898482 29.2804233 29.5898482 29.2804233 3.79643336"></polygon>
                        <g id="Stroke-13" transform="translate(11.322312, 10.956111) rotate(-90.000000) translate(-11.322312, -10.956111) translate(5.322312, 3.956111)" stroke-width="1.5999999" stroke="#659B5A" stroke-linecap="round">
                            <path d="M5.03814491,6.5489438 L17.5851254,6.5489438" transform="translate(11.311635, 6.869966) rotate(90.000000) translate(-11.311635, -6.869966) "></path>
                            <path d="M4.7927147,3.09519053 L10.7934445,3.09519053" id="Stroke-15" transform="translate(7.793080, 3.416212) rotate(90.000000) translate(-7.793080, -3.416212) "></path>
                            <path d="M2.09249603,2.23175222 L6.45666316,2.23175222" id="Stroke-17" transform="translate(4.274580, 2.552774) rotate(90.000000) translate(-4.274580, -2.552774) "></path>
                            <path d="M-4.97188975,5.97331826 L6.48404894,5.97331826" id="Stroke-19" transform="translate(0.756080, 6.294340) rotate(90.000000) translate(-0.756080, -6.294340) "></path>
                        </g>
                        <text id="tx" font-family="HelveticaNeue-Medium, Helvetica Neue" font-size="12" font-weight="400" fill="#659B5A">
                            <tspan x="4" y="28">tx</tspan>
                        </text>
                    </g>
                </g>
            </g>
            <g id="certificate" transform="translate(451.000000, 368.000000)">
                <g id="Cert-1-Copy">
                    <path d="M0,0 L0,25.3846154 L21.6206897,25.3846154 L21.6206897,21.1701923 C22.5270517,21.9946154 23.7213103,22.5 25.0344828,22.5 C26.3476552,22.5 27.5419138,21.9946154 28.4482759,21.1701923 L28.4482759,25.3846154 L33,25.3846154 L33,0 L0,0 Z" id="Fill-1" fill="#FEFEFE"></path>
                    <path d="M0,0 L0,25.3846154 L21.6206897,25.3846154 L21.6206897,21.1701923 C22.5270517,21.9946154 23.7213103,22.5 25.0344828,22.5 C26.3476552,22.5 27.5419138,21.9946154 28.4482759,21.1701923 L28.4482759,25.3846154 L33,25.3846154 L33,0 L0,0 Z" id="Stroke-3" stroke="#659B5A" stroke-width="1.99999988"></path>
                    <path d="M30.2413793,17.1923077 C30.2413793,20.0601923 27.9490172,22.3846154 25.1206897,22.3846154 C22.2923621,22.3846154 20,20.0601923 20,17.1923077 C20,14.3244231 22.2923621,12 25.1206897,12 C27.9490172,12 30.2413793,14.3244231 30.2413793,17.1923077" id="Fill-5" fill="#CEE07F"></path>
                    <path d="M30.2413793,17.1923077 C30.2413793,20.0601923 27.9490172,22.3846154 25.1206897,22.3846154 C22.2923621,22.3846154 20,20.0601923 20,17.1923077 C20,14.3244231 22.2923621,12 25.1206897,12 C27.9490172,12 30.2413793,14.3244231 30.2413793,17.1923077 Z" id="Stroke-7" stroke="#659B5A" stroke-width="1.5999999" stroke-linecap="round"></path>
                    <path d="M24.4137931,22.3298077 C23.1006207,22.3298077 21.9063621,21.8244231 21,21 L21,29.8298077 L24.4137931,26.3682692 L27.8275862,29.8298077 L27.8275862,21 C26.9212241,21.8244231 25.7269655,22.3298077 24.4137931,22.3298077" id="Fill-9" fill="#659B5A"></path>
                    <path d="M24.4137931,22.3298077 C23.1006207,22.3298077 21.9063621,21.8244231 21,21 L21,29.8298077 L24.4137931,26.3682692 L27.8275862,29.8298077 L27.8275862,21 C26.9212241,21.8244231 25.7269655,22.3298077 24.4137931,22.3298077 Z" id="Stroke-11" stroke="#659B5A" stroke-width="1.5999999" stroke-linecap="round"></path>
                    <path d="M4,4 L17.0862069,4" id="Stroke-13" stroke="#659B5A" stroke-width="1.5999999" stroke-linecap="round"></path>
                    <path d="M4,8 L10.2586207,8" id="Stroke-15" stroke="#659B5A" stroke-width="1.5999999" stroke-linecap="round"></path>
                    <path d="M4,12 L8.55172414,12" id="Stroke-17" stroke="#659B5A" stroke-width="1.5999999" stroke-linecap="round"></path>
                    <path d="M4,15 L15.9482759,15" id="Stroke-19" stroke="#659B5A" stroke-width="1.5999999" stroke-linecap="round"></path>
                </g>
            </g>
            <g id="tx-proposal" transform="translate(409.000000, 365.000000)">
                <g id="Group">
                    <g>
                        <path d="M-2.35978836,3.79643336 L-2.35978836,29.5898482 L18.3700055,29.5898482 L18.3700055,25.3075551 C19.2390203,26.1452549 20.3840686,26.6587784 21.6431308,26.6587784 C22.902193,26.6587784 24.0472414,26.1452549 24.9162562,25.3075551 L24.9162562,29.5898482 L29.2804233,29.5898482 L29.2804233,3.79643336 L-2.35978836,3.79643336 Z" id="Fill-1" fill="#FEFEFE" transform="translate(13.460317, 16.693141) rotate(90.000000) translate(-13.460317, -16.693141) "></path>
                        <polygon id="Stroke-3" stroke="#659B5A" stroke-width="1.99999988" transform="translate(13.460317, 16.693141) rotate(90.000000) translate(-13.460317, -16.693141) " points="-2.35978836 3.79643336 -2.35978836 29.5898482 29.2804233 29.5898482 29.2804233 3.79643336"></polygon>
                        <g id="Stroke-13" transform="translate(11.322312, 10.956111) rotate(-90.000000) translate(-11.322312, -10.956111) translate(5.322312, 3.956111)" stroke-width="1.5999999" stroke="#659B5A" stroke-linecap="round">
                            <path d="M5.03814491,6.5489438 L17.5851254,6.5489438" transform="translate(11.311635, 6.869966) rotate(90.000000) translate(-11.311635, -6.869966) "></path>
                            <path d="M4.7927147,3.09519053 L10.7934445,3.09519053" id="Stroke-15" transform="translate(7.793080, 3.416212) rotate(90.000000) translate(-7.793080, -3.416212) "></path>
                            <path d="M2.09249603,2.23175222 L6.45666316,2.23175222" id="Stroke-17" transform="translate(4.274580, 2.552774) rotate(90.000000) translate(-4.274580, -2.552774) "></path>
                            <path d="M-4.97188975,5.97331826 L6.48404894,5.97331826" id="Stroke-19" transform="translate(0.756080, 6.294340) rotate(90.000000) translate(-0.756080, -6.294340) "></path>
                        </g>
                        <text id="tx" font-family="HelveticaNeue-Medium, Helvetica Neue" font-size="12" font-weight="400" fill="#659B5A">
                            <tspan x="4" y="28">tx</tspan>
                        </text>
                    </g>
                </g>
            </g>
            <g id="Arrow" transform="translate(596.000000, 556.500000) scale(-1, 1) translate(-596.000000, -556.500000) translate(390.000000, 550.000000)" stroke="#659B5A" stroke-width="2" stroke-linecap="round">
                <path d="M0.0002,6.2599278 L6.0002,12.5198556" id="Stroke-1"></path>
                <path d="M0.0002,6.2599278 L6.0002,0" id="Stroke-3"></path>
                <polyline id="Stroke-5" points="0 6.12975523 100.912755 6.12975523 412 6.12975523"></polyline>
            </g>
            <g id="tx-proposal" transform="translate(753.000000, 495.000000)">
                <g id="Group">
                    <g>
                        <path d="M-2.35978836,3.79643336 L-2.35978836,29.5898482 L18.3700055,29.5898482 L18.3700055,25.3075551 C19.2390203,26.1452549 20.3840686,26.6587784 21.6431308,26.6587784 C22.902193,26.6587784 24.0472414,26.1452549 24.9162562,25.3075551 L24.9162562,29.5898482 L29.2804233,29.5898482 L29.2804233,3.79643336 L-2.35978836,3.79643336 Z" id="Fill-1" fill="#FEFEFE" transform="translate(13.460317, 16.693141) rotate(90.000000) translate(-13.460317, -16.693141) "></path>
                        <polygon id="Stroke-3" stroke="#659B5A" stroke-width="1.99999988" transform="translate(13.460317, 16.693141) rotate(90.000000) translate(-13.460317, -16.693141) " points="-2.35978836 3.79643336 -2.35978836 29.5898482 29.2804233 29.5898482 29.2804233 3.79643336"></polygon>
                        <g id="Stroke-13" transform="translate(11.322312, 10.956111) rotate(-90.000000) translate(-11.322312, -10.956111) translate(5.322312, 3.956111)" stroke-width="1.5999999" stroke="#659B5A" stroke-linecap="round">
                            <path d="M5.03814491,6.5489438 L17.5851254,6.5489438" transform="translate(11.311635, 6.869966) rotate(90.000000) translate(-11.311635, -6.869966) "></path>
                            <path d="M4.7927147,3.09519053 L10.7934445,3.09519053" id="Stroke-15" transform="translate(7.793080, 3.416212) rotate(90.000000) translate(-7.793080, -3.416212) "></path>
                            <path d="M2.09249603,2.23175222 L6.45666316,2.23175222" id="Stroke-17" transform="translate(4.274580, 2.552774) rotate(90.000000) translate(-4.274580, -2.552774) "></path>
                            <path d="M-4.97188975,5.97331826 L6.48404894,5.97331826" id="Stroke-19" transform="translate(0.756080, 6.294340) rotate(90.000000) translate(-0.756080, -6.294340) "></path>
                        </g>
                        <text id="tx" font-family="HelveticaNeue-Medium, Helvetica Neue" font-size="12" font-weight="400" fill="#659B5A">
                            <tspan x="4" y="28">tx</tspan>
                        </text>
                    </g>
                </g>
            </g>
            <g id="Group-2" transform="translate(819.000000, 522.000000)">
                <g id="block" transform="translate(0.729971, 0.511109)">
                    <polygon id="Fill-1" fill="#FEFEFE" fill-rule="evenodd" points="8.5 19 0 14.7413793 0 4.25862069 8.5 8.51724138"></polygon>
                    <polygon id="Stroke-2" stroke="#659B5A" stroke-width="1.54000001" stroke-linecap="round" stroke-linejoin="round" points="8.5 19 0 14.7413793 0 4.25862069 8.5 8.51724138"></polygon>
                    <polygon id="Fill-4" fill="#FEFEFE" fill-rule="evenodd" points="8.5 19 17 14.7413793 17 4.25862069 8.5 8.51724138"></polygon>
                    <polygon id="Stroke-5" stroke="#659B5A" stroke-width="1.54000001" stroke-linecap="round" stroke-linejoin="round" points="8.5 19 17 14.7413793 17 4.25862069 8.5 8.51724138"></polygon>
                    <polygon id="Fill-7" fill="#CEE07F" fill-rule="evenodd" points="0 4.25862069 8.17307692 0 17 4.25862069 8.5 8.51724138"></polygon>
                    <polygon id="Stroke-8" stroke="#659B5A" stroke-width="1.54000001" stroke-linecap="round" stroke-linejoin="round" points="0 4.25862069 8.17307692 0 17 4.25862069 8.5 8.51724138"></polygon>
                </g>
                <g id="block" transform="translate(22.001290, 0.511109)">
                    <polygon id="Fill-1" fill="#FEFEFE" fill-rule="evenodd" points="8.5 19 0 14.7413793 0 4.25862069 8.5 8.51724138"></polygon>
                    <polygon id="Stroke-2" stroke="#659B5A" stroke-width="1.54000001" stroke-linecap="round" stroke-linejoin="round" points="8.5 19 0 14.7413793 0 4.25862069 8.5 8.51724138"></polygon>
                    <polygon id="Fill-4" fill="#FEFEFE" fill-rule="evenodd" points="8.5 19 17 14.7413793 17 4.25862069 8.5 8.51724138"></polygon>
                    <polygon id="Stroke-5" stroke="#659B5A" stroke-width="1.54000001" stroke-linecap="round" stroke-linejoin="round" points="8.5 19 17 14.7413793 17 4.25862069 8.5 8.51724138"></polygon>
                    <polygon id="Fill-7" fill="#CEE07F" fill-rule="evenodd" points="0 4.25862069 8.17307692 0 17 4.25862069 8.5 8.51724138"></polygon>
                    <polygon id="Stroke-8" stroke="#659B5A" stroke-width="1.54000001" stroke-linecap="round" stroke-linejoin="round" points="0 4.25862069 8.17307692 0 17 4.25862069 8.5 8.51724138"></polygon>
                </g>
                <g id="block" transform="translate(43.981654, 0.511109)">
                    <polygon id="Fill-1" fill="#FEFEFE" fill-rule="evenodd" points="8.5 19 0 14.7413793 0 4.25862069 8.5 8.51724138"></polygon>
                    <polygon id="Stroke-2" stroke="#659B5A" stroke-width="1.54000001" stroke-linecap="round" stroke-linejoin="round" points="8.5 19 0 14.7413793 0 4.25862069 8.5 8.51724138"></polygon>
                    <polygon id="Fill-4" fill="#FEFEFE" fill-rule="evenodd" points="8.5 19 17 14.7413793 17 4.25862069 8.5 8.51724138"></polygon>
                    <polygon id="Stroke-5" stroke="#659B5A" stroke-width="1.54000001" stroke-linecap="round" stroke-linejoin="round" points="8.5 19 17 14.7413793 17 4.25862069 8.5 8.51724138"></polygon>
                    <polygon id="Fill-7" fill="#CEE07F" fill-rule="evenodd" points="0 4.25862069 8.17307692 0 17 4.25862069 8.5 8.51724138"></polygon>
                    <polygon id="Stroke-8" stroke="#659B5A" stroke-width="1.54000001" stroke-linecap="round" stroke-linejoin="round" points="0 4.25862069 8.17307692 0 17 4.25862069 8.5 8.51724138"></polygon>
                </g>
                <g id="block" transform="translate(65.252974, 0.511109)">
                    <polygon id="Fill-1" fill="#FEFEFE" fill-rule="evenodd" points="8.5 19 0 14.7413793 0 4.25862069 8.5 8.51724138"></polygon>
                    <polygon id="Stroke-2" stroke="#659B5A" stroke-width="1.54000001" stroke-linecap="round" stroke-linejoin="round" points="8.5 19 0 14.7413793 0 4.25862069 8.5 8.51724138"></polygon>
                    <polygon id="Fill-4" fill="#FEFEFE" fill-rule="evenodd" points="8.5 19 17 14.7413793 17 4.25862069 8.5 8.51724138"></polygon>
                    <polygon id="Stroke-5" stroke="#659B5A" stroke-width="1.54000001" stroke-linecap="round" stroke-linejoin="round" points="8.5 19 17 14.7413793 17 4.25862069 8.5 8.51724138"></polygon>
                    <polygon id="Fill-7" fill="#CEE07F" fill-rule="evenodd" points="0 4.25862069 8.17307692 0 17 4.25862069 8.5 8.51724138"></polygon>
                    <polygon id="Stroke-8" stroke="#659B5A" stroke-width="1.54000001" stroke-linecap="round" stroke-linejoin="round" points="0 4.25862069 8.17307692 0 17 4.25862069 8.5 8.51724138"></polygon>
                </g>
            </g>
            <g id="Group-2" transform="translate(831.000000, 550.000000)">
                <g id="block" transform="translate(0.729971, 0.511109)">
                    <polygon id="Fill-1" fill="#FEFEFE" fill-rule="evenodd" points="8.5 19 0 14.7413793 0 4.25862069 8.5 8.51724138"></polygon>
                    <polygon id="Stroke-2" stroke="#659B5A" stroke-width="1.54000001" stroke-linecap="round" stroke-linejoin="round" points="8.5 19 0 14.7413793 0 4.25862069 8.5 8.51724138"></polygon>
                    <polygon id="Fill-4" fill="#FEFEFE" fill-rule="evenodd" points="8.5 19 17 14.7413793 17 4.25862069 8.5 8.51724138"></polygon>
                    <polygon id="Stroke-5" stroke="#659B5A" stroke-width="1.54000001" stroke-linecap="round" stroke-linejoin="round" points="8.5 19 17 14.7413793 17 4.25862069 8.5 8.51724138"></polygon>
                    <polygon id="Fill-7" fill="#CEE07F" fill-rule="evenodd" points="0 4.25862069 8.17307692 0 17 4.25862069 8.5 8.51724138"></polygon>
                    <polygon id="Stroke-8" stroke="#659B5A" stroke-width="1.54000001" stroke-linecap="round" stroke-linejoin="round" points="0 4.25862069 8.17307692 0 17 4.25862069 8.5 8.51724138"></polygon>
                </g>
                <g id="block" transform="translate(22.001290, 0.511109)">
                    <polygon id="Fill-1" fill="#FEFEFE" fill-rule="evenodd" points="8.5 19 0 14.7413793 0 4.25862069 8.5 8.51724138"></polygon>
                    <polygon id="Stroke-2" stroke="#659B5A" stroke-width="1.54000001" stroke-linecap="round" stroke-linejoin="round" points="8.5 19 0 14.7413793 0 4.25862069 8.5 8.51724138"></polygon>
                    <polygon id="Fill-4" fill="#FEFEFE" fill-rule="evenodd" points="8.5 19 17 14.7413793 17 4.25862069 8.5 8.51724138"></polygon>
                    <polygon id="Stroke-5" stroke="#659B5A" stroke-width="1.54000001" stroke-linecap="round" stroke-linejoin="round" points="8.5 19 17 14.7413793 17 4.25862069 8.5 8.51724138"></polygon>
                    <polygon id="Fill-7" fill="#CEE07F" fill-rule="evenodd" points="0 4.25862069 8.17307692 0 17 4.25862069 8.5 8.51724138"></polygon>
                    <polygon id="Stroke-8" stroke="#659B5A" stroke-width="1.54000001" stroke-linecap="round" stroke-linejoin="round" points="0 4.25862069 8.17307692 0 17 4.25862069 8.5 8.51724138"></polygon>
                </g>
                <g id="block" transform="translate(43.981654, 0.511109)">
                    <polygon id="Fill-1" fill="#FEFEFE" fill-rule="evenodd" points="8.5 19 0 14.7413793 0 4.25862069 8.5 8.51724138"></polygon>
                    <polygon id="Stroke-2" stroke="#659B5A" stroke-width="1.54000001" stroke-linecap="round" stroke-linejoin="round" points="8.5 19 0 14.7413793 0 4.25862069 8.5 8.51724138"></polygon>
                    <polygon id="Fill-4" fill="#FEFEFE" fill-rule="evenodd" points="8.5 19 17 14.7413793 17 4.25862069 8.5 8.51724138"></polygon>
                    <polygon id="Stroke-5" stroke="#659B5A" stroke-width="1.54000001" stroke-linecap="round" stroke-linejoin="round" points="8.5 19 17 14.7413793 17 4.25862069 8.5 8.51724138"></polygon>
                    <polygon id="Fill-7" fill="#CEE07F" fill-rule="evenodd" points="0 4.25862069 8.17307692 0 17 4.25862069 8.5 8.51724138"></polygon>
                    <polygon id="Stroke-8" stroke="#659B5A" stroke-width="1.54000001" stroke-linecap="round" stroke-linejoin="round" points="0 4.25862069 8.17307692 0 17 4.25862069 8.5 8.51724138"></polygon>
                </g>
                <g id="block" transform="translate(65.252974, 0.511109)">
                    <polygon id="Fill-1" fill="#FEFEFE" fill-rule="evenodd" points="8.5 19 0 14.7413793 0 4.25862069 8.5 8.51724138"></polygon>
                    <polygon id="Stroke-2" stroke="#659B5A" stroke-width="1.54000001" stroke-linecap="round" stroke-linejoin="round" points="8.5 19 0 14.7413793 0 4.25862069 8.5 8.51724138"></polygon>
                    <polygon id="Fill-4" fill="#FEFEFE" fill-rule="evenodd" points="8.5 19 17 14.7413793 17 4.25862069 8.5 8.51724138"></polygon>
                    <polygon id="Stroke-5" stroke="#659B5A" stroke-width="1.54000001" stroke-linecap="round" stroke-linejoin="round" points="8.5 19 17 14.7413793 17 4.25862069 8.5 8.51724138"></polygon>
                    <polygon id="Fill-7" fill="#CEE07F" fill-rule="evenodd" points="0 4.25862069 8.17307692 0 17 4.25862069 8.5 8.51724138"></polygon>
                    <polygon id="Stroke-8" stroke="#659B5A" stroke-width="1.54000001" stroke-linecap="round" stroke-linejoin="round" points="0 4.25862069 8.17307692 0 17 4.25862069 8.5 8.51724138"></polygon>
                </g>
            </g>
            <g id="Group-3-Copy" transform="translate(820.000000, 577.000000)">
                <g id="block" transform="translate(0.729971, 0.344704)">
                    <polygon id="Fill-1" fill="#FEFEFE" fill-rule="evenodd" points="8.5 19 0 14.7413793 0 4.25862069 8.5 8.51724138"></polygon>
                    <polygon id="Stroke-2" stroke="#659B5A" stroke-width="1.54000001" stroke-linecap="round" stroke-linejoin="round" points="8.5 19 0 14.7413793 0 4.25862069 8.5 8.51724138"></polygon>
                    <polygon id="Fill-4" fill="#FEFEFE" fill-rule="evenodd" points="8.5 19 17 14.7413793 17 4.25862069 8.5 8.51724138"></polygon>
                    <polygon id="Stroke-5" stroke="#659B5A" stroke-width="1.54000001" stroke-linecap="round" stroke-linejoin="round" points="8.5 19 17 14.7413793 17 4.25862069 8.5 8.51724138"></polygon>
                    <polygon id="Fill-7" fill="#CEE07F" fill-rule="evenodd" points="0 4.25862069 8.17307692 0 17 4.25862069 8.5 8.51724138"></polygon>
                    <polygon id="Stroke-8" stroke="#659B5A" stroke-width="1.54000001" stroke-linecap="round" stroke-linejoin="round" points="0 4.25862069 8.17307692 0 17 4.25862069 8.5 8.51724138"></polygon>
                </g>
                <g id="block" transform="translate(22.001290, 0.344704)">
                    <polygon id="Fill-1" fill="#FEFEFE" fill-rule="evenodd" points="8.5 19 0 14.7413793 0 4.25862069 8.5 8.51724138"></polygon>
                    <polygon id="Stroke-2" stroke="#659B5A" stroke-width="1.54000001" stroke-linecap="round" stroke-linejoin="round" points="8.5 19 0 14.7413793 0 4.25862069 8.5 8.51724138"></polygon>
                    <polygon id="Fill-4" fill="#FEFEFE" fill-rule="evenodd" points="8.5 19 17 14.7413793 17 4.25862069 8.5 8.51724138"></polygon>
                    <polygon id="Stroke-5" stroke="#659B5A" stroke-width="1.54000001" stroke-linecap="round" stroke-linejoin="round" points="8.5 19 17 14.7413793 17 4.25862069 8.5 8.51724138"></polygon>
                    <polygon id="Fill-7" fill="#CEE07F" fill-rule="evenodd" points="0 4.25862069 8.17307692 0 17 4.25862069 8.5 8.51724138"></polygon>
                    <polygon id="Stroke-8" stroke="#659B5A" stroke-width="1.54000001" stroke-linecap="round" stroke-linejoin="round" points="0 4.25862069 8.17307692 0 17 4.25862069 8.5 8.51724138"></polygon>
                </g>
                <g id="block" transform="translate(43.981654, 0.344704)">
                    <polygon id="Fill-1" fill="#FEFEFE" fill-rule="evenodd" points="8.5 19 0 14.7413793 0 4.25862069 8.5 8.51724138"></polygon>
                    <polygon id="Stroke-2" stroke="#659B5A" stroke-width="1.54000001" stroke-linecap="round" stroke-linejoin="round" points="8.5 19 0 14.7413793 0 4.25862069 8.5 8.51724138"></polygon>
                    <polygon id="Fill-4" fill="#FEFEFE" fill-rule="evenodd" points="8.5 19 17 14.7413793 17 4.25862069 8.5 8.51724138"></polygon>
                    <polygon id="Stroke-5" stroke="#659B5A" stroke-width="1.54000001" stroke-linecap="round" stroke-linejoin="round" points="8.5 19 17 14.7413793 17 4.25862069 8.5 8.51724138"></polygon>
                    <polygon id="Fill-7" fill="#CEE07F" fill-rule="evenodd" points="0 4.25862069 8.17307692 0 17 4.25862069 8.5 8.51724138"></polygon>
                    <polygon id="Stroke-8" stroke="#659B5A" stroke-width="1.54000001" stroke-linecap="round" stroke-linejoin="round" points="0 4.25862069 8.17307692 0 17 4.25862069 8.5 8.51724138"></polygon>
                </g>
                <g id="block" transform="translate(65.252974, 0.344704)">
                    <polygon id="Fill-1" fill="#FEFEFE" fill-rule="evenodd" points="8.5 19 0 14.7413793 0 4.25862069 8.5 8.51724138"></polygon>
                    <polygon id="Stroke-2" stroke="#659B5A" stroke-width="1.54000001" stroke-linecap="round" stroke-linejoin="round" points="8.5 19 0 14.7413793 0 4.25862069 8.5 8.51724138"></polygon>
                    <polygon id="Fill-4" fill="#FEFEFE" fill-rule="evenodd" points="8.5 19 17 14.7413793 17 4.25862069 8.5 8.51724138"></polygon>
                    <polygon id="Stroke-5" stroke="#659B5A" stroke-width="1.54000001" stroke-linecap="round" stroke-linejoin="round" points="8.5 19 17 14.7413793 17 4.25862069 8.5 8.51724138"></polygon>
                    <polygon id="Fill-7" fill="#CEE07F" fill-rule="evenodd" points="0 4.25862069 8.17307692 0 17 4.25862069 8.5 8.51724138"></polygon>
                    <polygon id="Stroke-8" stroke="#659B5A" stroke-width="1.54000001" stroke-linecap="round" stroke-linejoin="round" points="0 4.25862069 8.17307692 0 17 4.25862069 8.5 8.51724138"></polygon>
                </g>
            </g>
            <g id="Group-2" transform="translate(543.000000, 679.000000)">
                <g id="block" transform="translate(0.000000, 22.000000)">
                    <polygon id="Fill-1" fill="#FEFEFE" fill-rule="evenodd" points="12 27 0 20.9482759 0 6.05172414 12 12.1034483"></polygon>
                    <polygon id="Stroke-2" stroke="#659B5A" stroke-width="1.54000001" stroke-linecap="round" stroke-linejoin="round" points="12 27 0 20.9482759 0 6.05172414 12 12.1034483"></polygon>
                    <polygon id="Fill-4" fill="#FEFEFE" fill-rule="evenodd" points="12 27 24 20.9482759 24 6.05172414 12 12.1034483"></polygon>
                    <polygon id="Stroke-5" stroke="#659B5A" stroke-width="1.54000001" stroke-linecap="round" stroke-linejoin="round" points="12 27 24 20.9482759 24 6.05172414 12 12.1034483"></polygon>
                    <polygon id="Fill-7" fill="#CEE07F" fill-rule="evenodd" points="0 6.05172414 11.5384615 0 24 6.05172414 12 12.1034483"></polygon>
                    <polygon id="Stroke-8" stroke="#659B5A" stroke-width="1.54000001" stroke-linecap="round" stroke-linejoin="round" points="0 6.05172414 11.5384615 0 24 6.05172414 12 12.1034483"></polygon>
                </g>
                <g id="Icon/UI/checkmark" transform="translate(16.000000, 0.000000)" fill="#659B5A">
                    <g id="checkmark">
                        <polygon id="Shape" points="7.85833333 11.5222222 2.68333333 6.42222222 0 9.25555556 7.85833333 17 22.425 2.64444444 19.7416667 0"></polygon>
                    </g>
                </g>
            </g>
            <text id="Transaction-Flow" font-family="HelveticaNeue-Light, Helvetica Neue" font-size="48" font-weight="300" fill="#6E5F5F">
                <tspan x="167" y="126">Fluxo de Transação</tspan>
            </text>
            <g id="Group-5" transform="translate(153.000000, 269.000000)">
                <text id="1" font-family="HelveticaNeue-Light, Helvetica Neue" font-size="14" font-weight="300" fill="#6E5F5F">
                    <tspan x="7" y="16">1</tspan>
                </text>
                <path d="M11.5,23 C17.8512746,23 23,17.8512746 23,11.5 C23,5.14872538 17.8512746,0 11.5,0 C5.14872538,0 0,5.14872538 0,11.5 C0,17.8512746 5.14872538,23 11.5,23 Z" id="Oval" stroke="#6E5F5F"></path>
            </g>
            <g id="Group-5" transform="translate(341.000000, 545.000000)">
                <text id="3" font-family="HelveticaNeue-Light, Helvetica Neue" font-size="14" font-weight="300" fill="#6E5F5F">
                    <tspan x="7" y="16">3</tspan>
                </text>
                <circle id="Oval" stroke="#6E5F5F" cx="11.5" cy="11.5" r="11.5"></circle>
            </g>
            <g id="Group-5" transform="translate(508.000000, 668.000000)">
                <text id="4" font-family="HelveticaNeue-Light, Helvetica Neue" font-size="14" font-weight="300" fill="#6E5F5F">
                    <tspan x="7" y="16">4</tspan>
                </text>
                <circle id="Oval" stroke="#6E5F5F" cx="11.5" cy="11.5" r="11.5"></circle>
            </g>
            <rect id="Rectangle-2" stroke="#6E5F5F" x="27.5" y="26.5" width="1184" height="936"></rect>
            <g id="Group-6" transform="translate(353.000000, 322.000000)">
                <g id="Group-5" stroke="#6E5F5F">
                    <circle id="Oval" cx="11.5" cy="11.5" r="11.5"></circle>
                </g>
                <text id="2" font-family="HelveticaNeue-Light, Helvetica Neue" font-size="14" font-weight="300" fill="#6E5F5F">
                    <tspan x="8" y="16">2</tspan>
                </text>
            </g>
            <g id="Arrow" transform="translate(388.000000, 427.000000)" stroke="#659B5A" stroke-width="2" stroke-linecap="round">
                <path d="M0.000222916667,6.2599278 L6.68772292,12.5198556" id="Stroke-1"></path>
                <path d="M0.000222916667,6.2599278 L6.68772292,0" id="Stroke-3"></path>
                <polyline id="Stroke-5" points="0 6.12975523 52.4158487 6.12975523 214 6.12975523"></polyline>
            </g>
            <g id="Group-3" transform="translate(956.000000, 35.000000)">
                <g id="Group" transform="translate(13.000000, 40.000000)">
                    <path d="M-2.35978836,3.79643336 L-2.35978836,29.5898482 L18.3700055,29.5898482 L18.3700055,25.3075551 C19.2390203,26.1452549 20.3840686,26.6587784 21.6431308,26.6587784 C22.902193,26.6587784 24.0472414,26.1452549 24.9162562,25.3075551 L24.9162562,29.5898482 L29.2804233,29.5898482 L29.2804233,3.79643336 L-2.35978836,3.79643336 Z" id="Fill-1" fill="#FEFEFE" transform="translate(13.460317, 16.693141) rotate(90.000000) translate(-13.460317, -16.693141) "></path>
                    <polygon id="Stroke-3" stroke="#659B5A" stroke-width="1.99999988" transform="translate(13.460317, 16.693141) rotate(90.000000) translate(-13.460317, -16.693141) " points="-2.35978836 3.79643336 -2.35978836 29.5898482 29.2804233 29.5898482 29.2804233 3.79643336"></polygon>
                    <g id="Stroke-13" transform="translate(11.322312, 10.956111) rotate(-90.000000) translate(-11.322312, -10.956111) translate(5.322312, 3.956111)" stroke-width="1.5999999" stroke="#659B5A" stroke-linecap="round">
                        <path d="M5.03814491,6.5489438 L17.5851254,6.5489438" transform="translate(11.311635, 6.869966) rotate(90.000000) translate(-11.311635, -6.869966) "></path>
                        <path d="M4.7927147,3.09519053 L10.7934445,3.09519053" id="Stroke-15" transform="translate(7.793080, 3.416212) rotate(90.000000) translate(-7.793080, -3.416212) "></path>
                        <path d="M2.09249603,2.23175222 L6.45666316,2.23175222" id="Stroke-17" transform="translate(4.274580, 2.552774) rotate(90.000000) translate(-4.274580, -2.552774) "></path>
                        <path d="M-4.97188975,5.97331826 L6.48404894,5.97331826" id="Stroke-19" transform="translate(0.756080, 6.294340) rotate(90.000000) translate(-0.756080, -6.294340) "></path>
                    </g>
                    <text id="tx" font-family="HelveticaNeue-Medium, Helvetica Neue" font-size="12" font-weight="400" fill="#659B5A">
                        <tspan x="4" y="28">tx</tspan>
                    </text>
                </g>
                <g id="certificate" transform="translate(13.000000, 89.000000)">
                    <g id="Cert-1-Copy">
                        <path d="M0,0 L0,25.3846154 L21.6206897,25.3846154 L21.6206897,21.1701923 C22.5270517,21.9946154 23.7213103,22.5 25.0344828,22.5 C26.3476552,22.5 27.5419138,21.9946154 28.4482759,21.1701923 L28.4482759,25.3846154 L33,25.3846154 L33,0 L0,0 Z" id="Fill-1" fill="#FEFEFE"></path>
                        <path d="M0,0 L0,25.3846154 L21.6206897,25.3846154 L21.6206897,21.1701923 C22.5270517,21.9946154 23.7213103,22.5 25.0344828,22.5 C26.3476552,22.5 27.5419138,21.9946154 28.4482759,21.1701923 L28.4482759,25.3846154 L33,25.3846154 L33,0 L0,0 Z" id="Stroke-3" stroke="#659B5A" stroke-width="1.99999988"></path>
                        <path d="M30.2413793,17.1923077 C30.2413793,20.0601923 27.9490172,22.3846154 25.1206897,22.3846154 C22.2923621,22.3846154 20,20.0601923 20,17.1923077 C20,14.3244231 22.2923621,12 25.1206897,12 C27.9490172,12 30.2413793,14.3244231 30.2413793,17.1923077" id="Fill-5" fill="#CEE07F"></path>
                        <path d="M30.2413793,17.1923077 C30.2413793,20.0601923 27.9490172,22.3846154 25.1206897,22.3846154 C22.2923621,22.3846154 20,20.0601923 20,17.1923077 C20,14.3244231 22.2923621,12 25.1206897,12 C27.9490172,12 30.2413793,14.3244231 30.2413793,17.1923077 Z" id="Stroke-7" stroke="#659B5A" stroke-width="1.5999999" stroke-linecap="round"></path>
                        <path d="M24.4137931,22.3298077 C23.1006207,22.3298077 21.9063621,21.8244231 21,21 L21,29.8298077 L24.4137931,26.3682692 L27.8275862,29.8298077 L27.8275862,21 C26.9212241,21.8244231 25.7269655,22.3298077 24.4137931,22.3298077" id="Fill-9" fill="#659B5A"></path>
                        <path d="M24.4137931,22.3298077 C23.1006207,22.3298077 21.9063621,21.8244231 21,21 L21,29.8298077 L24.4137931,26.3682692 L27.8275862,29.8298077 L27.8275862,21 C26.9212241,21.8244231 25.7269655,22.3298077 24.4137931,22.3298077 Z" id="Stroke-11" stroke="#659B5A" stroke-width="1.5999999" stroke-linecap="round"></path>
                        <path d="M4,4 L17.0862069,4" id="Stroke-13" stroke="#659B5A" stroke-width="1.5999999" stroke-linecap="round"></path>
                        <path d="M4,8 L10.2586207,8" id="Stroke-15" stroke="#659B5A" stroke-width="1.5999999" stroke-linecap="round"></path>
                        <path d="M4,12 L8.55172414,12" id="Stroke-17" stroke="#659B5A" stroke-width="1.5999999" stroke-linecap="round"></path>
                        <path d="M4,15 L15.9482759,15" id="Stroke-19" stroke="#659B5A" stroke-width="1.5999999" stroke-linecap="round"></path>
                    </g>
                </g>
                <g id="Group-2" transform="translate(13.000000, 178.000000)">
                    <g id="block" transform="translate(0.981654, 0.511109)">
                        <polygon id="Fill-1" fill="#FEFEFE" fill-rule="evenodd" points="8.5 19 0 14.7413793 0 4.25862069 8.5 8.51724138"></polygon>
                        <polygon id="Stroke-2" stroke="#659B5A" stroke-width="1.54000001" stroke-linecap="round" stroke-linejoin="round" points="8.5 19 0 14.7413793 0 4.25862069 8.5 8.51724138"></polygon>
                        <polygon id="Fill-4" fill="#FEFEFE" fill-rule="evenodd" points="8.5 19 17 14.7413793 17 4.25862069 8.5 8.51724138"></polygon>
                        <polygon id="Stroke-5" stroke="#659B5A" stroke-width="1.54000001" stroke-linecap="round" stroke-linejoin="round" points="8.5 19 17 14.7413793 17 4.25862069 8.5 8.51724138"></polygon>
                        <polygon id="Fill-7" fill="#CEE07F" fill-rule="evenodd" points="0 4.25862069 8.17307692 0 17 4.25862069 8.5 8.51724138"></polygon>
                        <polygon id="Stroke-8" stroke="#659B5A" stroke-width="1.54000001" stroke-linecap="round" stroke-linejoin="round" points="0 4.25862069 8.17307692 0 17 4.25862069 8.5 8.51724138"></polygon>
                    </g>
                    <g id="block" transform="translate(22.252974, 0.511109)">
                        <polygon id="Fill-1" fill="#FEFEFE" fill-rule="evenodd" points="8.5 19 0 14.7413793 0 4.25862069 8.5 8.51724138"></polygon>
                        <polygon id="Stroke-2" stroke="#659B5A" stroke-width="1.54000001" stroke-linecap="round" stroke-linejoin="round" points="8.5 19 0 14.7413793 0 4.25862069 8.5 8.51724138"></polygon>
                        <polygon id="Fill-4" fill="#FEFEFE" fill-rule="evenodd" points="8.5 19 17 14.7413793 17 4.25862069 8.5 8.51724138"></polygon>
                        <polygon id="Stroke-5" stroke="#659B5A" stroke-width="1.54000001" stroke-linecap="round" stroke-linejoin="round" points="8.5 19 17 14.7413793 17 4.25862069 8.5 8.51724138"></polygon>
                        <polygon id="Fill-7" fill="#CEE07F" fill-rule="evenodd" points="0 4.25862069 8.17307692 0 17 4.25862069 8.5 8.51724138"></polygon>
                        <polygon id="Stroke-8" stroke="#659B5A" stroke-width="1.54000001" stroke-linecap="round" stroke-linejoin="round" points="0 4.25862069 8.17307692 0 17 4.25862069 8.5 8.51724138"></polygon>
                    </g>
                </g>
                <text id="Transaction-proposal" font-family="HelveticaNeue, Helvetica Neue" font-size="12" font-weight="normal" fill="#6E5F5F">
                    <tspan x="68.49" y="60">Proposta de transação</tspan>
                </text>
                <text id="Certificate" font-family="HelveticaNeue, Helvetica Neue" font-size="12" font-weight="normal" fill="#6E5F5F">
                    <tspan x="68.062" y="107">Certificado</tspan>
                </text>
                <g id="signature" transform="translate(9.000000, 135.000000)">
                    <path d="M0.272484738,22 L55.3251923,22" id="Line" stroke="#CEE07F" stroke-width="2" stroke-linecap="square" stroke-dasharray="2,4,2,4"></path>
                    <path d="M14.8576042,13.6031109 C13.18215,14.244758 11.4626624,15.1578168 9.98950087,16.1993462 C8.54336986,17.262405 6.43150415,19.4358168 8.64713205,21.9868756 C9.42796432,22.9408756 9.8604521,22.986758 9.97598562,22.9751109 C10.5619368,22.9331109 11.2481624,21.6469933 11.7028849,20.796405 C11.8498087,20.5225227 11.9932446,20.2525227 12.1366806,20.0054639 C13.540086,17.6421698 14.4172689,15.600758 14.8576042,13.6031109 M9.94546733,23.9996992 C9.16463507,23.9996992 8.3999339,23.5299345 7.61299797,22.5671109 C5.59443103,20.2436992 6.15422368,17.6379345 9.15853141,15.4316992 C10.9673941,14.1526403 13.040894,13.0952286 15.0699243,12.4062874 C15.1579914,11.748405 15.201153,11.0898168 15.201153,10.4202874 C15.201153,10.2021698 15.2107444,9.90675799 15.2220798,9.55346387 C15.2966316,7.29887564 15.4928206,1.31087564 12.861272,1.02499328 C11.4173209,0.8742874 8.2874522,3.93922858 7.11554984,5.57934622 C3.40670557,10.4192286 1.77266909,14.3961698 2.38347088,17.0933462 C2.44581539,17.3714639 2.22041601,17.6382874 1.87948311,17.6901698 C1.53026667,17.7321698 1.21200449,17.5581698 1.14791608,17.2793462 C0.471281979,14.2839345 2.11839772,10.1689933 6.041306,5.0502874 C6.06964442,5.01040505 10.1460161,-0.254065541 13.0177873,0.00958151748 C16.7780766,0.417934459 16.574476,6.60711093 16.4763815,9.58134622 C16.4654821,9.92334622 16.4554547,10.2099345 16.4554547,10.4206403 C16.4554547,10.9588756 16.4297322,11.4911109 16.3756712,12.018758 C17.1857138,11.8158168 17.8584241,11.7399345 18.3942381,12.0318168 C18.9950125,12.3586403 19.1554515,12.9978168 19.218232,13.9211109 C19.2487503,14.3580521 19.2108204,14.8451109 19.1750704,15.3159345 C19.1345247,15.834758 19.0686923,16.698405 19.2278234,16.9006403 C19.2400307,16.8745227 19.5316984,16.8342874 20.2558539,16.3846403 C20.4114971,16.272758 20.6055063,16.1216992 20.8051831,15.966405 C21.681494,15.2855815 22.6729025,14.514758 23.9450792,14.4208756 L23.9511829,14.4208756 C25.8991218,14.4208756 26.1415242,15.342758 26.3180943,16.0154639 C26.4161888,16.3899345 26.5090516,16.7435815 26.8491126,17.0206403 C27.8488046,17.7625227 28.8611399,17.1854639 30.7759446,15.7888756 C32.1361884,14.7953462 33.5518012,13.770405 35.072484,14.0393462 C35.9344077,14.1791109 36.5678802,14.8062874 37.179554,15.4112286 C37.6011423,15.8280521 38.0349381,16.2579345 38.465246,16.4333462 C39.3428648,16.6669933 40.6320446,16.6669933 41.5903189,16.4061698 C41.9190445,16.3129933 42.2752366,16.4598168 42.3846664,16.7280521 C42.4949682,16.9959345 42.3183981,17.286758 41.9901085,17.3756992 C40.7741726,17.7099345 39.2007368,17.7099345 37.9843649,17.3756992 C37.2353588,17.076758 36.714804,16.560758 36.2112522,16.0631109 C35.7390906,15.5951109 35.250362,15.1126403 34.8165663,15.0413462 C33.8922981,14.8701698 32.7365268,15.7288756 31.6125818,16.5515815 C29.9811611,17.742405 27.9516948,19.2261698 25.9819571,17.760405 C25.359384,17.2535815 25.2098444,16.6856992 25.091259,16.2296992 C24.9282042,15.6095815 24.8837346,15.4429933 24.0013201,15.4429933 C23.2222317,15.5026403 22.3982379,16.1425227 21.6701586,16.7075815 C21.4582745,16.8734639 21.2511861,17.0336992 21.0488934,17.1773462 C20.2929118,17.6492286 19.3686435,18.1225227 18.6069942,17.7900521 C17.7555339,17.4180521 17.8327016,16.4146403 17.9220766,15.2520521 C17.9552107,14.8108756 17.9905247,14.3541698 17.9652381,13.9782874 C17.9024577,13.0634639 17.7446345,12.9085227 17.6971132,12.8831109 C17.6086101,12.8322874 17.2790126,12.8382874 16.2213358,13.1393462 C15.8167505,15.4369933 14.8728634,17.7455815 13.2689092,20.448758 C13.1324488,20.682758 12.9942446,20.9414639 12.8534245,21.2058168 C12.1462721,22.530758 11.4142691,23.8991109 10.0871594,23.9951109 C10.0396381,23.9986403 9.99298867,23.9996992 9.94546733,23.9996992" id="Fill-1" fill="#659B5A" fill-rule="evenodd"></path>
                </g>
                <text id="Signature" font-family="HelveticaNeue, Helvetica Neue" font-size="12" font-weight="normal" fill="#6E5F5F">
                    <tspan x="68.44" y="146">Assinatura</tspan>
                </text>
                <text id="Ordered-Transactions" font-family="HelveticaNeue, Helvetica Neue" font-size="12" font-weight="normal" fill="#474A47">
                    <tspan x="68" y="181">Transações </tspan>
                    <tspan x="68" y="195">Solicitadas</tspan>
                </text>
                <text id="Key" font-family="HelveticaNeue-Light, Helvetica Neue" font-size="18" font-weight="300" fill="#6E5F5F">
                    <tspan x="90" y="17">Chave</tspan>
                </text>
                <use id="Rectangle-3" stroke="#979797" mask="url(#mask-4)" stroke-width="2" stroke-dasharray="2,2,2" xlink:href="#path-3"></use>
            </g>
        </g>
    </g>
</svg>
